<svg width="193" height="192" viewBox="0 0 193 192" fill="none" xmlns="http://www.w3.org/2000/svg">
<rect width="192" height="191.983" transform="translate(0.0262451 0.00842285)" fill="#0A090F"/>
<path fill-rule="evenodd" clip-rule="evenodd" d="M96.0262 106.252C96.0262 102.67 96.0262 100.875 96.7223 99.5069C97.3406 98.3109 98.3199 97.3401 99.5211 96.7321C100.889 96.036 102.685 96.036 106.242 96.036H128.008V64.0064H96.0262V32.0056H64.0206V83.2088H96.0262V85.7723C96.0262 89.3536 96.0262 91.149 95.3301 92.4932C94.7159 93.698 93.7362 94.6777 92.5314 95.2919C91.1632 95.988 89.3678 95.988 85.8106 95.988H64.0206V127.994H96.0262V159.994H128.032V108.815H96.0262V106.252Z" fill="url(#paint0_linear_1502_88)"/>
<defs>
<linearGradient id="paint0_linear_1502_88" x1="64.0206" y1="96" x2="128.015" y2="96" gradientUnits="userSpaceOnUse">
<stop stop-color="#68FFFF"/>
<stop offset="1" stop-color="#68FF9B"/>
</linearGradient>
</defs>
</svg>
