<svg width="899" height="474" viewBox="0 0 899 474" fill="none" xmlns="http://www.w3.org/2000/svg">
<path d="M42.5568 438.89V431.498H41.6148L41.8968 430.49H43.5648V438.89H42.5568ZM45.9435 438.89V431.498H45.0015L45.2835 430.49H46.9515V438.89H45.9435ZM48.9342 433.994C48.7822 433.994 48.6522 433.94 48.5442 433.832C48.4402 433.724 48.3882 433.592 48.3882 433.436C48.3882 433.288 48.4402 433.16 48.5442 433.052C48.6522 432.944 48.7822 432.89 48.9342 432.89C49.0902 432.89 49.2222 432.944 49.3302 433.052C49.4382 433.16 49.4922 433.288 49.4922 433.436C49.4922 433.592 49.4382 433.724 49.3302 433.832C49.2222 433.94 49.0902 433.994 48.9342 433.994ZM48.9342 439.046C48.7822 439.046 48.6522 438.992 48.5442 438.884C48.4402 438.776 48.3882 438.644 48.3882 438.488C48.3882 438.34 48.4402 438.212 48.5442 438.104C48.6522 437.996 48.7822 437.942 48.9342 437.942C49.0902 437.942 49.2222 437.996 49.3302 438.104C49.4382 438.212 49.4922 438.34 49.4922 438.488C49.4922 438.644 49.4382 438.776 49.3302 438.884C49.2222 438.992 49.0902 439.046 48.9342 439.046ZM53.8108 439.046C53.3108 439.046 52.8628 438.934 52.4668 438.71C52.0708 438.482 51.7308 438.168 51.4468 437.768C51.1628 437.368 50.9468 436.906 50.7988 436.382C50.6508 435.854 50.5768 435.29 50.5768 434.69C50.5768 434.09 50.6508 433.526 50.7988 432.998C50.9468 432.47 51.1628 432.008 51.4468 431.612C51.7308 431.212 52.0708 430.9 52.4668 430.676C52.8628 430.448 53.3108 430.334 53.8108 430.334C54.3068 430.334 54.7528 430.448 55.1488 430.676C55.5488 430.9 55.8868 431.212 56.1628 431.612C56.4428 432.008 56.6568 432.47 56.8048 432.998C56.9568 433.526 57.0328 434.09 57.0328 434.69C57.0328 435.29 56.9568 435.854 56.8048 436.382C56.6568 436.906 56.4428 437.368 56.1628 437.768C55.8868 438.168 55.5488 438.482 55.1488 438.71C54.7528 438.934 54.3068 439.046 53.8108 439.046ZM53.8108 438.038C54.3108 438.038 54.7288 437.884 55.0648 437.576C55.4048 437.264 55.6588 436.854 55.8268 436.346C55.9948 435.838 56.0788 435.286 56.0788 434.69C56.0788 434.062 55.9908 433.496 55.8148 432.992C55.6428 432.484 55.3868 432.082 55.0468 431.786C54.7108 431.49 54.2988 431.342 53.8108 431.342C53.4268 431.342 53.0908 431.432 52.8028 431.612C52.5188 431.792 52.2828 432.038 52.0948 432.35C51.9068 432.662 51.7648 433.02 51.6688 433.424C51.5768 433.824 51.5308 434.246 51.5308 434.69C51.5308 435.286 51.6168 435.84 51.7888 436.352C51.9608 436.86 52.2148 437.268 52.5508 437.576C52.8908 437.884 53.3108 438.038 53.8108 438.038ZM60.8186 439.046C60.3186 439.046 59.8706 438.934 59.4746 438.71C59.0786 438.482 58.7386 438.168 58.4546 437.768C58.1706 437.368 57.9546 436.906 57.8066 436.382C57.6586 435.854 57.5846 435.29 57.5846 434.69C57.5846 434.09 57.6586 433.526 57.8066 432.998C57.9546 432.47 58.1706 432.008 58.4546 431.612C58.7386 431.212 59.0786 430.9 59.4746 430.676C59.8706 430.448 60.3186 430.334 60.8186 430.334C61.3146 430.334 61.7606 430.448 62.1566 430.676C62.5566 430.9 62.8946 431.212 63.1706 431.612C63.4506 432.008 63.6646 432.47 63.8126 432.998C63.9646 433.526 64.0406 434.09 64.0406 434.69C64.0406 435.29 63.9646 435.854 63.8126 436.382C63.6646 436.906 63.4506 437.368 63.1706 437.768C62.8946 438.168 62.5566 438.482 62.1566 438.71C61.7606 438.934 61.3146 439.046 60.8186 439.046ZM60.8186 438.038C61.3186 438.038 61.7366 437.884 62.0726 437.576C62.4126 437.264 62.6666 436.854 62.8346 436.346C63.0026 435.838 63.0866 435.286 63.0866 434.69C63.0866 434.062 62.9986 433.496 62.8226 432.992C62.6506 432.484 62.3946 432.082 62.0546 431.786C61.7186 431.49 61.3066 431.342 60.8186 431.342C60.4346 431.342 60.0986 431.432 59.8106 431.612C59.5266 431.792 59.2906 432.038 59.1026 432.35C58.9146 432.662 58.7726 433.02 58.6766 433.424C58.5846 433.824 58.5386 434.246 58.5386 434.69C58.5386 435.286 58.6246 435.84 58.7966 436.352C58.9686 436.86 59.2226 437.268 59.5586 437.576C59.8986 437.884 60.3186 438.038 60.8186 438.038ZM70.8133 430.49H72.0313L75.0853 438.89H74.0173L73.3933 437.174H69.4513L68.8333 438.89H67.7593L70.8133 430.49ZM69.8233 436.166H73.0213L71.4193 431.78L69.8233 436.166ZM75.804 438.89L77.43 430.49H78.204L80.472 436.454L82.734 430.49H83.508L85.14 438.89H84.114L82.932 432.794L80.802 438.434H80.136L78.006 432.794L76.83 438.89H75.804Z" fill="#EFEFE4"/>
<path d="M140.752 438.89V431.498H139.81L140.092 430.49H141.76V438.89H140.752ZM145.693 439.046C145.185 439.046 144.733 438.932 144.337 438.704C143.945 438.472 143.637 438.164 143.413 437.78C143.189 437.392 143.077 436.962 143.077 436.49H144.085C144.085 436.774 144.151 437.034 144.283 437.27C144.415 437.502 144.601 437.688 144.841 437.828C145.081 437.968 145.365 438.038 145.693 438.038C145.977 438.038 146.241 437.968 146.485 437.828C146.733 437.688 146.933 437.502 147.085 437.27C147.237 437.034 147.313 436.774 147.313 436.49C147.313 436.134 147.221 435.838 147.037 435.602C146.857 435.362 146.605 435.184 146.281 435.068C145.961 434.948 145.595 434.888 145.183 434.888V434.078C145.751 434.078 146.205 433.96 146.545 433.724C146.889 433.488 147.061 433.14 147.061 432.68C147.061 432.436 146.995 432.212 146.863 432.008C146.731 431.804 146.557 431.642 146.341 431.522C146.129 431.398 145.901 431.336 145.657 431.336C145.409 431.336 145.171 431.398 144.943 431.522C144.715 431.642 144.529 431.804 144.385 432.008C144.241 432.212 144.169 432.436 144.169 432.68H143.161C143.161 432.356 143.227 432.052 143.359 431.768C143.495 431.484 143.679 431.234 143.911 431.018C144.147 430.802 144.413 430.634 144.709 430.514C145.005 430.39 145.317 430.328 145.645 430.328C146.073 430.328 146.471 430.434 146.839 430.646C147.207 430.858 147.503 431.142 147.727 431.498C147.955 431.854 148.069 432.248 148.069 432.68C148.069 433.068 147.971 433.426 147.775 433.754C147.579 434.082 147.313 434.312 146.977 434.444C147.269 434.544 147.515 434.7 147.715 434.912C147.915 435.12 148.065 435.36 148.165 435.632C148.269 435.904 148.321 436.19 148.321 436.49C148.321 436.958 148.199 437.386 147.955 437.774C147.715 438.162 147.395 438.472 146.995 438.704C146.599 438.932 146.165 439.046 145.693 439.046ZM149.708 433.994C149.556 433.994 149.426 433.94 149.318 433.832C149.214 433.724 149.162 433.592 149.162 433.436C149.162 433.288 149.214 433.16 149.318 433.052C149.426 432.944 149.556 432.89 149.708 432.89C149.864 432.89 149.996 432.944 150.104 433.052C150.212 433.16 150.266 433.288 150.266 433.436C150.266 433.592 150.212 433.724 150.104 433.832C149.996 433.94 149.864 433.994 149.708 433.994ZM149.708 439.046C149.556 439.046 149.426 438.992 149.318 438.884C149.214 438.776 149.162 438.644 149.162 438.488C149.162 438.34 149.214 438.212 149.318 438.104C149.426 437.996 149.556 437.942 149.708 437.942C149.864 437.942 149.996 437.996 150.104 438.104C150.212 438.212 150.266 438.34 150.266 438.488C150.266 438.644 150.212 438.776 150.104 438.884C149.996 438.992 149.864 439.046 149.708 439.046ZM154.584 439.046C154.084 439.046 153.636 438.934 153.24 438.71C152.844 438.482 152.504 438.168 152.22 437.768C151.936 437.368 151.72 436.906 151.572 436.382C151.424 435.854 151.35 435.29 151.35 434.69C151.35 434.09 151.424 433.526 151.572 432.998C151.72 432.47 151.936 432.008 152.22 431.612C152.504 431.212 152.844 430.9 153.24 430.676C153.636 430.448 154.084 430.334 154.584 430.334C155.08 430.334 155.526 430.448 155.922 430.676C156.322 430.9 156.66 431.212 156.936 431.612C157.216 432.008 157.43 432.47 157.578 432.998C157.73 433.526 157.806 434.09 157.806 434.69C157.806 435.29 157.73 435.854 157.578 436.382C157.43 436.906 157.216 437.368 156.936 437.768C156.66 438.168 156.322 438.482 155.922 438.71C155.526 438.934 155.08 439.046 154.584 439.046ZM154.584 438.038C155.084 438.038 155.502 437.884 155.838 437.576C156.178 437.264 156.432 436.854 156.6 436.346C156.768 435.838 156.852 435.286 156.852 434.69C156.852 434.062 156.764 433.496 156.588 432.992C156.416 432.484 156.16 432.082 155.82 431.786C155.484 431.49 155.072 431.342 154.584 431.342C154.2 431.342 153.864 431.432 153.576 431.612C153.292 431.792 153.056 432.038 152.868 432.35C152.68 432.662 152.538 433.02 152.442 433.424C152.35 433.824 152.304 434.246 152.304 434.69C152.304 435.286 152.39 435.84 152.562 436.352C152.734 436.86 152.988 437.268 153.324 437.576C153.664 437.884 154.084 438.038 154.584 438.038ZM161.592 439.046C161.092 439.046 160.644 438.934 160.248 438.71C159.852 438.482 159.512 438.168 159.228 437.768C158.944 437.368 158.728 436.906 158.58 436.382C158.432 435.854 158.358 435.29 158.358 434.69C158.358 434.09 158.432 433.526 158.58 432.998C158.728 432.47 158.944 432.008 159.228 431.612C159.512 431.212 159.852 430.9 160.248 430.676C160.644 430.448 161.092 430.334 161.592 430.334C162.088 430.334 162.534 430.448 162.93 430.676C163.33 430.9 163.668 431.212 163.944 431.612C164.224 432.008 164.438 432.47 164.586 432.998C164.738 433.526 164.814 434.09 164.814 434.69C164.814 435.29 164.738 435.854 164.586 436.382C164.438 436.906 164.224 437.368 163.944 437.768C163.668 438.168 163.33 438.482 162.93 438.71C162.534 438.934 162.088 439.046 161.592 439.046ZM161.592 438.038C162.092 438.038 162.51 437.884 162.846 437.576C163.186 437.264 163.44 436.854 163.608 436.346C163.776 435.838 163.86 435.286 163.86 434.69C163.86 434.062 163.772 433.496 163.596 432.992C163.424 432.484 163.168 432.082 162.828 431.786C162.492 431.49 162.08 431.342 161.592 431.342C161.208 431.342 160.872 431.432 160.584 431.612C160.3 431.792 160.064 432.038 159.876 432.35C159.688 432.662 159.546 433.02 159.45 433.424C159.358 433.824 159.312 434.246 159.312 434.69C159.312 435.286 159.398 435.84 159.57 436.352C159.742 436.86 159.996 437.268 160.332 437.576C160.672 437.884 161.092 438.038 161.592 438.038ZM168.773 438.89V430.49H171.545C171.997 430.49 172.403 430.6 172.763 430.82C173.127 431.04 173.415 431.338 173.627 431.714C173.843 432.086 173.951 432.502 173.951 432.962C173.951 433.43 173.841 433.852 173.621 434.228C173.405 434.6 173.113 434.896 172.745 435.116C172.381 435.332 171.981 435.44 171.545 435.44H169.781V438.89H168.773ZM169.781 434.432H171.455C171.727 434.432 171.975 434.366 172.199 434.234C172.427 434.098 172.607 433.916 172.739 433.688C172.875 433.456 172.943 433.196 172.943 432.908C172.943 432.616 172.875 432.356 172.739 432.128C172.607 431.896 172.427 431.714 172.199 431.582C171.975 431.446 171.727 431.378 171.455 431.378H169.781V434.432ZM174.609 438.89L176.235 430.49H177.009L179.277 436.454L181.539 430.49H182.313L183.945 438.89H182.919L181.737 432.794L179.607 438.434H178.941L176.811 432.794L175.635 438.89H174.609Z" fill="#EFEFE4"/>
<path d="M239.752 438.89V431.498H238.81L239.092 430.49H240.76V438.89H239.752ZM244.693 439.046C244.185 439.046 243.733 438.932 243.337 438.704C242.945 438.472 242.637 438.164 242.413 437.78C242.189 437.392 242.077 436.962 242.077 436.49H243.085C243.085 436.774 243.151 437.034 243.283 437.27C243.415 437.502 243.601 437.688 243.841 437.828C244.081 437.968 244.365 438.038 244.693 438.038C244.977 438.038 245.241 437.968 245.485 437.828C245.733 437.688 245.933 437.502 246.085 437.27C246.237 437.034 246.313 436.774 246.313 436.49C246.313 436.134 246.221 435.838 246.037 435.602C245.857 435.362 245.605 435.184 245.281 435.068C244.961 434.948 244.595 434.888 244.183 434.888V434.078C244.751 434.078 245.205 433.96 245.545 433.724C245.889 433.488 246.061 433.14 246.061 432.68C246.061 432.436 245.995 432.212 245.863 432.008C245.731 431.804 245.557 431.642 245.341 431.522C245.129 431.398 244.901 431.336 244.657 431.336C244.409 431.336 244.171 431.398 243.943 431.522C243.715 431.642 243.529 431.804 243.385 432.008C243.241 432.212 243.169 432.436 243.169 432.68H242.161C242.161 432.356 242.227 432.052 242.359 431.768C242.495 431.484 242.679 431.234 242.911 431.018C243.147 430.802 243.413 430.634 243.709 430.514C244.005 430.39 244.317 430.328 244.645 430.328C245.073 430.328 245.471 430.434 245.839 430.646C246.207 430.858 246.503 431.142 246.727 431.498C246.955 431.854 247.069 432.248 247.069 432.68C247.069 433.068 246.971 433.426 246.775 433.754C246.579 434.082 246.313 434.312 245.977 434.444C246.269 434.544 246.515 434.7 246.715 434.912C246.915 435.12 247.065 435.36 247.165 435.632C247.269 435.904 247.321 436.19 247.321 436.49C247.321 436.958 247.199 437.386 246.955 437.774C246.715 438.162 246.395 438.472 245.995 438.704C245.599 438.932 245.165 439.046 244.693 439.046ZM248.708 433.994C248.556 433.994 248.426 433.94 248.318 433.832C248.214 433.724 248.162 433.592 248.162 433.436C248.162 433.288 248.214 433.16 248.318 433.052C248.426 432.944 248.556 432.89 248.708 432.89C248.864 432.89 248.996 432.944 249.104 433.052C249.212 433.16 249.266 433.288 249.266 433.436C249.266 433.592 249.212 433.724 249.104 433.832C248.996 433.94 248.864 433.994 248.708 433.994ZM248.708 439.046C248.556 439.046 248.426 438.992 248.318 438.884C248.214 438.776 248.162 438.644 248.162 438.488C248.162 438.34 248.214 438.212 248.318 438.104C248.426 437.996 248.556 437.942 248.708 437.942C248.864 437.942 248.996 437.996 249.104 438.104C249.212 438.212 249.266 438.34 249.266 438.488C249.266 438.644 249.212 438.776 249.104 438.884C248.996 438.992 248.864 439.046 248.708 439.046ZM253.584 439.046C253.084 439.046 252.636 438.934 252.24 438.71C251.844 438.482 251.504 438.168 251.22 437.768C250.936 437.368 250.72 436.906 250.572 436.382C250.424 435.854 250.35 435.29 250.35 434.69C250.35 434.09 250.424 433.526 250.572 432.998C250.72 432.47 250.936 432.008 251.22 431.612C251.504 431.212 251.844 430.9 252.24 430.676C252.636 430.448 253.084 430.334 253.584 430.334C254.08 430.334 254.526 430.448 254.922 430.676C255.322 430.9 255.66 431.212 255.936 431.612C256.216 432.008 256.43 432.47 256.578 432.998C256.73 433.526 256.806 434.09 256.806 434.69C256.806 435.29 256.73 435.854 256.578 436.382C256.43 436.906 256.216 437.368 255.936 437.768C255.66 438.168 255.322 438.482 254.922 438.71C254.526 438.934 254.08 439.046 253.584 439.046ZM253.584 438.038C254.084 438.038 254.502 437.884 254.838 437.576C255.178 437.264 255.432 436.854 255.6 436.346C255.768 435.838 255.852 435.286 255.852 434.69C255.852 434.062 255.764 433.496 255.588 432.992C255.416 432.484 255.16 432.082 254.82 431.786C254.484 431.49 254.072 431.342 253.584 431.342C253.2 431.342 252.864 431.432 252.576 431.612C252.292 431.792 252.056 432.038 251.868 432.35C251.68 432.662 251.538 433.02 251.442 433.424C251.35 433.824 251.304 434.246 251.304 434.69C251.304 435.286 251.39 435.84 251.562 436.352C251.734 436.86 251.988 437.268 252.324 437.576C252.664 437.884 253.084 438.038 253.584 438.038ZM260.592 439.046C260.092 439.046 259.644 438.934 259.248 438.71C258.852 438.482 258.512 438.168 258.228 437.768C257.944 437.368 257.728 436.906 257.58 436.382C257.432 435.854 257.358 435.29 257.358 434.69C257.358 434.09 257.432 433.526 257.58 432.998C257.728 432.47 257.944 432.008 258.228 431.612C258.512 431.212 258.852 430.9 259.248 430.676C259.644 430.448 260.092 430.334 260.592 430.334C261.088 430.334 261.534 430.448 261.93 430.676C262.33 430.9 262.668 431.212 262.944 431.612C263.224 432.008 263.438 432.47 263.586 432.998C263.738 433.526 263.814 434.09 263.814 434.69C263.814 435.29 263.738 435.854 263.586 436.382C263.438 436.906 263.224 437.368 262.944 437.768C262.668 438.168 262.33 438.482 261.93 438.71C261.534 438.934 261.088 439.046 260.592 439.046ZM260.592 438.038C261.092 438.038 261.51 437.884 261.846 437.576C262.186 437.264 262.44 436.854 262.608 436.346C262.776 435.838 262.86 435.286 262.86 434.69C262.86 434.062 262.772 433.496 262.596 432.992C262.424 432.484 262.168 432.082 261.828 431.786C261.492 431.49 261.08 431.342 260.592 431.342C260.208 431.342 259.872 431.432 259.584 431.612C259.3 431.792 259.064 432.038 258.876 432.35C258.688 432.662 258.546 433.02 258.45 433.424C258.358 433.824 258.312 434.246 258.312 434.69C258.312 435.286 258.398 435.84 258.57 436.352C258.742 436.86 258.996 437.268 259.332 437.576C259.672 437.884 260.092 438.038 260.592 438.038ZM267.773 438.89V430.49H270.545C270.997 430.49 271.403 430.6 271.763 430.82C272.127 431.04 272.415 431.338 272.627 431.714C272.843 432.086 272.951 432.502 272.951 432.962C272.951 433.43 272.841 433.852 272.621 434.228C272.405 434.6 272.113 434.896 271.745 435.116C271.381 435.332 270.981 435.44 270.545 435.44H268.781V438.89H267.773ZM268.781 434.432H270.455C270.727 434.432 270.975 434.366 271.199 434.234C271.427 434.098 271.607 433.916 271.739 433.688C271.875 433.456 271.943 433.196 271.943 432.908C271.943 432.616 271.875 432.356 271.739 432.128C271.607 431.896 271.427 431.714 271.199 431.582C270.975 431.446 270.727 431.378 270.455 431.378H268.781V434.432ZM273.609 438.89L275.235 430.49H276.009L278.277 436.454L280.539 430.49H281.313L282.945 438.89H281.919L280.737 432.794L278.607 438.434H277.941L275.811 432.794L274.635 438.89H273.609Z" fill="#EFEFE4"/>
<path d="M338.752 438.89V431.498H337.81L338.092 430.49H339.76V438.89H338.752ZM343.693 439.046C343.185 439.046 342.733 438.932 342.337 438.704C341.945 438.472 341.637 438.164 341.413 437.78C341.189 437.392 341.077 436.962 341.077 436.49H342.085C342.085 436.774 342.151 437.034 342.283 437.27C342.415 437.502 342.601 437.688 342.841 437.828C343.081 437.968 343.365 438.038 343.693 438.038C343.977 438.038 344.241 437.968 344.485 437.828C344.733 437.688 344.933 437.502 345.085 437.27C345.237 437.034 345.313 436.774 345.313 436.49C345.313 436.134 345.221 435.838 345.037 435.602C344.857 435.362 344.605 435.184 344.281 435.068C343.961 434.948 343.595 434.888 343.183 434.888V434.078C343.751 434.078 344.205 433.96 344.545 433.724C344.889 433.488 345.061 433.14 345.061 432.68C345.061 432.436 344.995 432.212 344.863 432.008C344.731 431.804 344.557 431.642 344.341 431.522C344.129 431.398 343.901 431.336 343.657 431.336C343.409 431.336 343.171 431.398 342.943 431.522C342.715 431.642 342.529 431.804 342.385 432.008C342.241 432.212 342.169 432.436 342.169 432.68H341.161C341.161 432.356 341.227 432.052 341.359 431.768C341.495 431.484 341.679 431.234 341.911 431.018C342.147 430.802 342.413 430.634 342.709 430.514C343.005 430.39 343.317 430.328 343.645 430.328C344.073 430.328 344.471 430.434 344.839 430.646C345.207 430.858 345.503 431.142 345.727 431.498C345.955 431.854 346.069 432.248 346.069 432.68C346.069 433.068 345.971 433.426 345.775 433.754C345.579 434.082 345.313 434.312 344.977 434.444C345.269 434.544 345.515 434.7 345.715 434.912C345.915 435.12 346.065 435.36 346.165 435.632C346.269 435.904 346.321 436.19 346.321 436.49C346.321 436.958 346.199 437.386 345.955 437.774C345.715 438.162 345.395 438.472 344.995 438.704C344.599 438.932 344.165 439.046 343.693 439.046ZM347.708 433.994C347.556 433.994 347.426 433.94 347.318 433.832C347.214 433.724 347.162 433.592 347.162 433.436C347.162 433.288 347.214 433.16 347.318 433.052C347.426 432.944 347.556 432.89 347.708 432.89C347.864 432.89 347.996 432.944 348.104 433.052C348.212 433.16 348.266 433.288 348.266 433.436C348.266 433.592 348.212 433.724 348.104 433.832C347.996 433.94 347.864 433.994 347.708 433.994ZM347.708 439.046C347.556 439.046 347.426 438.992 347.318 438.884C347.214 438.776 347.162 438.644 347.162 438.488C347.162 438.34 347.214 438.212 347.318 438.104C347.426 437.996 347.556 437.942 347.708 437.942C347.864 437.942 347.996 437.996 348.104 438.104C348.212 438.212 348.266 438.34 348.266 438.488C348.266 438.644 348.212 438.776 348.104 438.884C347.996 438.992 347.864 439.046 347.708 439.046ZM352.584 439.046C352.084 439.046 351.636 438.934 351.24 438.71C350.844 438.482 350.504 438.168 350.22 437.768C349.936 437.368 349.72 436.906 349.572 436.382C349.424 435.854 349.35 435.29 349.35 434.69C349.35 434.09 349.424 433.526 349.572 432.998C349.72 432.47 349.936 432.008 350.22 431.612C350.504 431.212 350.844 430.9 351.24 430.676C351.636 430.448 352.084 430.334 352.584 430.334C353.08 430.334 353.526 430.448 353.922 430.676C354.322 430.9 354.66 431.212 354.936 431.612C355.216 432.008 355.43 432.47 355.578 432.998C355.73 433.526 355.806 434.09 355.806 434.69C355.806 435.29 355.73 435.854 355.578 436.382C355.43 436.906 355.216 437.368 354.936 437.768C354.66 438.168 354.322 438.482 353.922 438.71C353.526 438.934 353.08 439.046 352.584 439.046ZM352.584 438.038C353.084 438.038 353.502 437.884 353.838 437.576C354.178 437.264 354.432 436.854 354.6 436.346C354.768 435.838 354.852 435.286 354.852 434.69C354.852 434.062 354.764 433.496 354.588 432.992C354.416 432.484 354.16 432.082 353.82 431.786C353.484 431.49 353.072 431.342 352.584 431.342C352.2 431.342 351.864 431.432 351.576 431.612C351.292 431.792 351.056 432.038 350.868 432.35C350.68 432.662 350.538 433.02 350.442 433.424C350.35 433.824 350.304 434.246 350.304 434.69C350.304 435.286 350.39 435.84 350.562 436.352C350.734 436.86 350.988 437.268 351.324 437.576C351.664 437.884 352.084 438.038 352.584 438.038ZM359.592 439.046C359.092 439.046 358.644 438.934 358.248 438.71C357.852 438.482 357.512 438.168 357.228 437.768C356.944 437.368 356.728 436.906 356.58 436.382C356.432 435.854 356.358 435.29 356.358 434.69C356.358 434.09 356.432 433.526 356.58 432.998C356.728 432.47 356.944 432.008 357.228 431.612C357.512 431.212 357.852 430.9 358.248 430.676C358.644 430.448 359.092 430.334 359.592 430.334C360.088 430.334 360.534 430.448 360.93 430.676C361.33 430.9 361.668 431.212 361.944 431.612C362.224 432.008 362.438 432.47 362.586 432.998C362.738 433.526 362.814 434.09 362.814 434.69C362.814 435.29 362.738 435.854 362.586 436.382C362.438 436.906 362.224 437.368 361.944 437.768C361.668 438.168 361.33 438.482 360.93 438.71C360.534 438.934 360.088 439.046 359.592 439.046ZM359.592 438.038C360.092 438.038 360.51 437.884 360.846 437.576C361.186 437.264 361.44 436.854 361.608 436.346C361.776 435.838 361.86 435.286 361.86 434.69C361.86 434.062 361.772 433.496 361.596 432.992C361.424 432.484 361.168 432.082 360.828 431.786C360.492 431.49 360.08 431.342 359.592 431.342C359.208 431.342 358.872 431.432 358.584 431.612C358.3 431.792 358.064 432.038 357.876 432.35C357.688 432.662 357.546 433.02 357.45 433.424C357.358 433.824 357.312 434.246 357.312 434.69C357.312 435.286 357.398 435.84 357.57 436.352C357.742 436.86 357.996 437.268 358.332 437.576C358.672 437.884 359.092 438.038 359.592 438.038ZM366.773 438.89V430.49H369.545C369.997 430.49 370.403 430.6 370.763 430.82C371.127 431.04 371.415 431.338 371.627 431.714C371.843 432.086 371.951 432.502 371.951 432.962C371.951 433.43 371.841 433.852 371.621 434.228C371.405 434.6 371.113 434.896 370.745 435.116C370.381 435.332 369.981 435.44 369.545 435.44H367.781V438.89H366.773ZM367.781 434.432H369.455C369.727 434.432 369.975 434.366 370.199 434.234C370.427 434.098 370.607 433.916 370.739 433.688C370.875 433.456 370.943 433.196 370.943 432.908C370.943 432.616 370.875 432.356 370.739 432.128C370.607 431.896 370.427 431.714 370.199 431.582C369.975 431.446 369.727 431.378 369.455 431.378H367.781V434.432ZM372.609 438.89L374.235 430.49H375.009L377.277 436.454L379.539 430.49H380.313L381.945 438.89H380.919L379.737 432.794L377.607 438.434H376.941L374.811 432.794L373.635 438.89H372.609Z" fill="#EFEFE4"/>
<path d="M437.752 438.89V431.498H436.81L437.092 430.49H438.76V438.89H437.752ZM442.693 439.046C442.185 439.046 441.733 438.932 441.337 438.704C440.945 438.472 440.637 438.164 440.413 437.78C440.189 437.392 440.077 436.962 440.077 436.49H441.085C441.085 436.774 441.151 437.034 441.283 437.27C441.415 437.502 441.601 437.688 441.841 437.828C442.081 437.968 442.365 438.038 442.693 438.038C442.977 438.038 443.241 437.968 443.485 437.828C443.733 437.688 443.933 437.502 444.085 437.27C444.237 437.034 444.313 436.774 444.313 436.49C444.313 436.134 444.221 435.838 444.037 435.602C443.857 435.362 443.605 435.184 443.281 435.068C442.961 434.948 442.595 434.888 442.183 434.888V434.078C442.751 434.078 443.205 433.96 443.545 433.724C443.889 433.488 444.061 433.14 444.061 432.68C444.061 432.436 443.995 432.212 443.863 432.008C443.731 431.804 443.557 431.642 443.341 431.522C443.129 431.398 442.901 431.336 442.657 431.336C442.409 431.336 442.171 431.398 441.943 431.522C441.715 431.642 441.529 431.804 441.385 432.008C441.241 432.212 441.169 432.436 441.169 432.68H440.161C440.161 432.356 440.227 432.052 440.359 431.768C440.495 431.484 440.679 431.234 440.911 431.018C441.147 430.802 441.413 430.634 441.709 430.514C442.005 430.39 442.317 430.328 442.645 430.328C443.073 430.328 443.471 430.434 443.839 430.646C444.207 430.858 444.503 431.142 444.727 431.498C444.955 431.854 445.069 432.248 445.069 432.68C445.069 433.068 444.971 433.426 444.775 433.754C444.579 434.082 444.313 434.312 443.977 434.444C444.269 434.544 444.515 434.7 444.715 434.912C444.915 435.12 445.065 435.36 445.165 435.632C445.269 435.904 445.321 436.19 445.321 436.49C445.321 436.958 445.199 437.386 444.955 437.774C444.715 438.162 444.395 438.472 443.995 438.704C443.599 438.932 443.165 439.046 442.693 439.046ZM446.708 433.994C446.556 433.994 446.426 433.94 446.318 433.832C446.214 433.724 446.162 433.592 446.162 433.436C446.162 433.288 446.214 433.16 446.318 433.052C446.426 432.944 446.556 432.89 446.708 432.89C446.864 432.89 446.996 432.944 447.104 433.052C447.212 433.16 447.266 433.288 447.266 433.436C447.266 433.592 447.212 433.724 447.104 433.832C446.996 433.94 446.864 433.994 446.708 433.994ZM446.708 439.046C446.556 439.046 446.426 438.992 446.318 438.884C446.214 438.776 446.162 438.644 446.162 438.488C446.162 438.34 446.214 438.212 446.318 438.104C446.426 437.996 446.556 437.942 446.708 437.942C446.864 437.942 446.996 437.996 447.104 438.104C447.212 438.212 447.266 438.34 447.266 438.488C447.266 438.644 447.212 438.776 447.104 438.884C446.996 438.992 446.864 439.046 446.708 439.046ZM451.584 439.046C451.084 439.046 450.636 438.934 450.24 438.71C449.844 438.482 449.504 438.168 449.22 437.768C448.936 437.368 448.72 436.906 448.572 436.382C448.424 435.854 448.35 435.29 448.35 434.69C448.35 434.09 448.424 433.526 448.572 432.998C448.72 432.47 448.936 432.008 449.22 431.612C449.504 431.212 449.844 430.9 450.24 430.676C450.636 430.448 451.084 430.334 451.584 430.334C452.08 430.334 452.526 430.448 452.922 430.676C453.322 430.9 453.66 431.212 453.936 431.612C454.216 432.008 454.43 432.47 454.578 432.998C454.73 433.526 454.806 434.09 454.806 434.69C454.806 435.29 454.73 435.854 454.578 436.382C454.43 436.906 454.216 437.368 453.936 437.768C453.66 438.168 453.322 438.482 452.922 438.71C452.526 438.934 452.08 439.046 451.584 439.046ZM451.584 438.038C452.084 438.038 452.502 437.884 452.838 437.576C453.178 437.264 453.432 436.854 453.6 436.346C453.768 435.838 453.852 435.286 453.852 434.69C453.852 434.062 453.764 433.496 453.588 432.992C453.416 432.484 453.16 432.082 452.82 431.786C452.484 431.49 452.072 431.342 451.584 431.342C451.2 431.342 450.864 431.432 450.576 431.612C450.292 431.792 450.056 432.038 449.868 432.35C449.68 432.662 449.538 433.02 449.442 433.424C449.35 433.824 449.304 434.246 449.304 434.69C449.304 435.286 449.39 435.84 449.562 436.352C449.734 436.86 449.988 437.268 450.324 437.576C450.664 437.884 451.084 438.038 451.584 438.038ZM458.592 439.046C458.092 439.046 457.644 438.934 457.248 438.71C456.852 438.482 456.512 438.168 456.228 437.768C455.944 437.368 455.728 436.906 455.58 436.382C455.432 435.854 455.358 435.29 455.358 434.69C455.358 434.09 455.432 433.526 455.58 432.998C455.728 432.47 455.944 432.008 456.228 431.612C456.512 431.212 456.852 430.9 457.248 430.676C457.644 430.448 458.092 430.334 458.592 430.334C459.088 430.334 459.534 430.448 459.93 430.676C460.33 430.9 460.668 431.212 460.944 431.612C461.224 432.008 461.438 432.47 461.586 432.998C461.738 433.526 461.814 434.09 461.814 434.69C461.814 435.29 461.738 435.854 461.586 436.382C461.438 436.906 461.224 437.368 460.944 437.768C460.668 438.168 460.33 438.482 459.93 438.71C459.534 438.934 459.088 439.046 458.592 439.046ZM458.592 438.038C459.092 438.038 459.51 437.884 459.846 437.576C460.186 437.264 460.44 436.854 460.608 436.346C460.776 435.838 460.86 435.286 460.86 434.69C460.86 434.062 460.772 433.496 460.596 432.992C460.424 432.484 460.168 432.082 459.828 431.786C459.492 431.49 459.08 431.342 458.592 431.342C458.208 431.342 457.872 431.432 457.584 431.612C457.3 431.792 457.064 432.038 456.876 432.35C456.688 432.662 456.546 433.02 456.45 433.424C456.358 433.824 456.312 434.246 456.312 434.69C456.312 435.286 456.398 435.84 456.57 436.352C456.742 436.86 456.996 437.268 457.332 437.576C457.672 437.884 458.092 438.038 458.592 438.038ZM465.773 438.89V430.49H468.545C468.997 430.49 469.403 430.6 469.763 430.82C470.127 431.04 470.415 431.338 470.627 431.714C470.843 432.086 470.951 432.502 470.951 432.962C470.951 433.43 470.841 433.852 470.621 434.228C470.405 434.6 470.113 434.896 469.745 435.116C469.381 435.332 468.981 435.44 468.545 435.44H466.781V438.89H465.773ZM466.781 434.432H468.455C468.727 434.432 468.975 434.366 469.199 434.234C469.427 434.098 469.607 433.916 469.739 433.688C469.875 433.456 469.943 433.196 469.943 432.908C469.943 432.616 469.875 432.356 469.739 432.128C469.607 431.896 469.427 431.714 469.199 431.582C468.975 431.446 468.727 431.378 468.455 431.378H466.781V434.432ZM471.609 438.89L473.235 430.49H474.009L476.277 436.454L478.539 430.49H479.313L480.945 438.89H479.919L478.737 432.794L476.607 438.434H475.941L473.811 432.794L472.635 438.89H471.609Z" fill="#EFEFE4"/>
<path d="M536.752 438.89V431.498H535.81L536.092 430.49H537.76V438.89H536.752ZM541.693 439.046C541.185 439.046 540.733 438.932 540.337 438.704C539.945 438.472 539.637 438.164 539.413 437.78C539.189 437.392 539.077 436.962 539.077 436.49H540.085C540.085 436.774 540.151 437.034 540.283 437.27C540.415 437.502 540.601 437.688 540.841 437.828C541.081 437.968 541.365 438.038 541.693 438.038C541.977 438.038 542.241 437.968 542.485 437.828C542.733 437.688 542.933 437.502 543.085 437.27C543.237 437.034 543.313 436.774 543.313 436.49C543.313 436.134 543.221 435.838 543.037 435.602C542.857 435.362 542.605 435.184 542.281 435.068C541.961 434.948 541.595 434.888 541.183 434.888V434.078C541.751 434.078 542.205 433.96 542.545 433.724C542.889 433.488 543.061 433.14 543.061 432.68C543.061 432.436 542.995 432.212 542.863 432.008C542.731 431.804 542.557 431.642 542.341 431.522C542.129 431.398 541.901 431.336 541.657 431.336C541.409 431.336 541.171 431.398 540.943 431.522C540.715 431.642 540.529 431.804 540.385 432.008C540.241 432.212 540.169 432.436 540.169 432.68H539.161C539.161 432.356 539.227 432.052 539.359 431.768C539.495 431.484 539.679 431.234 539.911 431.018C540.147 430.802 540.413 430.634 540.709 430.514C541.005 430.39 541.317 430.328 541.645 430.328C542.073 430.328 542.471 430.434 542.839 430.646C543.207 430.858 543.503 431.142 543.727 431.498C543.955 431.854 544.069 432.248 544.069 432.68C544.069 433.068 543.971 433.426 543.775 433.754C543.579 434.082 543.313 434.312 542.977 434.444C543.269 434.544 543.515 434.7 543.715 434.912C543.915 435.12 544.065 435.36 544.165 435.632C544.269 435.904 544.321 436.19 544.321 436.49C544.321 436.958 544.199 437.386 543.955 437.774C543.715 438.162 543.395 438.472 542.995 438.704C542.599 438.932 542.165 439.046 541.693 439.046ZM545.708 433.994C545.556 433.994 545.426 433.94 545.318 433.832C545.214 433.724 545.162 433.592 545.162 433.436C545.162 433.288 545.214 433.16 545.318 433.052C545.426 432.944 545.556 432.89 545.708 432.89C545.864 432.89 545.996 432.944 546.104 433.052C546.212 433.16 546.266 433.288 546.266 433.436C546.266 433.592 546.212 433.724 546.104 433.832C545.996 433.94 545.864 433.994 545.708 433.994ZM545.708 439.046C545.556 439.046 545.426 438.992 545.318 438.884C545.214 438.776 545.162 438.644 545.162 438.488C545.162 438.34 545.214 438.212 545.318 438.104C545.426 437.996 545.556 437.942 545.708 437.942C545.864 437.942 545.996 437.996 546.104 438.104C546.212 438.212 546.266 438.34 546.266 438.488C546.266 438.644 546.212 438.776 546.104 438.884C545.996 438.992 545.864 439.046 545.708 439.046ZM550.584 439.046C550.084 439.046 549.636 438.934 549.24 438.71C548.844 438.482 548.504 438.168 548.22 437.768C547.936 437.368 547.72 436.906 547.572 436.382C547.424 435.854 547.35 435.29 547.35 434.69C547.35 434.09 547.424 433.526 547.572 432.998C547.72 432.47 547.936 432.008 548.22 431.612C548.504 431.212 548.844 430.9 549.24 430.676C549.636 430.448 550.084 430.334 550.584 430.334C551.08 430.334 551.526 430.448 551.922 430.676C552.322 430.9 552.66 431.212 552.936 431.612C553.216 432.008 553.43 432.47 553.578 432.998C553.73 433.526 553.806 434.09 553.806 434.69C553.806 435.29 553.73 435.854 553.578 436.382C553.43 436.906 553.216 437.368 552.936 437.768C552.66 438.168 552.322 438.482 551.922 438.71C551.526 438.934 551.08 439.046 550.584 439.046ZM550.584 438.038C551.084 438.038 551.502 437.884 551.838 437.576C552.178 437.264 552.432 436.854 552.6 436.346C552.768 435.838 552.852 435.286 552.852 434.69C552.852 434.062 552.764 433.496 552.588 432.992C552.416 432.484 552.16 432.082 551.82 431.786C551.484 431.49 551.072 431.342 550.584 431.342C550.2 431.342 549.864 431.432 549.576 431.612C549.292 431.792 549.056 432.038 548.868 432.35C548.68 432.662 548.538 433.02 548.442 433.424C548.35 433.824 548.304 434.246 548.304 434.69C548.304 435.286 548.39 435.84 548.562 436.352C548.734 436.86 548.988 437.268 549.324 437.576C549.664 437.884 550.084 438.038 550.584 438.038ZM557.592 439.046C557.092 439.046 556.644 438.934 556.248 438.71C555.852 438.482 555.512 438.168 555.228 437.768C554.944 437.368 554.728 436.906 554.58 436.382C554.432 435.854 554.358 435.29 554.358 434.69C554.358 434.09 554.432 433.526 554.58 432.998C554.728 432.47 554.944 432.008 555.228 431.612C555.512 431.212 555.852 430.9 556.248 430.676C556.644 430.448 557.092 430.334 557.592 430.334C558.088 430.334 558.534 430.448 558.93 430.676C559.33 430.9 559.668 431.212 559.944 431.612C560.224 432.008 560.438 432.47 560.586 432.998C560.738 433.526 560.814 434.09 560.814 434.69C560.814 435.29 560.738 435.854 560.586 436.382C560.438 436.906 560.224 437.368 559.944 437.768C559.668 438.168 559.33 438.482 558.93 438.71C558.534 438.934 558.088 439.046 557.592 439.046ZM557.592 438.038C558.092 438.038 558.51 437.884 558.846 437.576C559.186 437.264 559.44 436.854 559.608 436.346C559.776 435.838 559.86 435.286 559.86 434.69C559.86 434.062 559.772 433.496 559.596 432.992C559.424 432.484 559.168 432.082 558.828 431.786C558.492 431.49 558.08 431.342 557.592 431.342C557.208 431.342 556.872 431.432 556.584 431.612C556.3 431.792 556.064 432.038 555.876 432.35C555.688 432.662 555.546 433.02 555.45 433.424C555.358 433.824 555.312 434.246 555.312 434.69C555.312 435.286 555.398 435.84 555.57 436.352C555.742 436.86 555.996 437.268 556.332 437.576C556.672 437.884 557.092 438.038 557.592 438.038ZM564.773 438.89V430.49H567.545C567.997 430.49 568.403 430.6 568.763 430.82C569.127 431.04 569.415 431.338 569.627 431.714C569.843 432.086 569.951 432.502 569.951 432.962C569.951 433.43 569.841 433.852 569.621 434.228C569.405 434.6 569.113 434.896 568.745 435.116C568.381 435.332 567.981 435.44 567.545 435.44H565.781V438.89H564.773ZM565.781 434.432H567.455C567.727 434.432 567.975 434.366 568.199 434.234C568.427 434.098 568.607 433.916 568.739 433.688C568.875 433.456 568.943 433.196 568.943 432.908C568.943 432.616 568.875 432.356 568.739 432.128C568.607 431.896 568.427 431.714 568.199 431.582C567.975 431.446 567.727 431.378 567.455 431.378H565.781V434.432ZM570.609 438.89L572.235 430.49H573.009L575.277 436.454L577.539 430.49H578.313L579.945 438.89H578.919L577.737 432.794L575.607 438.434H574.941L572.811 432.794L571.635 438.89H570.609Z" fill="#EFEFE4"/>
<path d="M635.752 438.89V431.498H634.81L635.092 430.49H636.76V438.89H635.752ZM640.693 439.046C640.185 439.046 639.733 438.932 639.337 438.704C638.945 438.472 638.637 438.164 638.413 437.78C638.189 437.392 638.077 436.962 638.077 436.49H639.085C639.085 436.774 639.151 437.034 639.283 437.27C639.415 437.502 639.601 437.688 639.841 437.828C640.081 437.968 640.365 438.038 640.693 438.038C640.977 438.038 641.241 437.968 641.485 437.828C641.733 437.688 641.933 437.502 642.085 437.27C642.237 437.034 642.313 436.774 642.313 436.49C642.313 436.134 642.221 435.838 642.037 435.602C641.857 435.362 641.605 435.184 641.281 435.068C640.961 434.948 640.595 434.888 640.183 434.888V434.078C640.751 434.078 641.205 433.96 641.545 433.724C641.889 433.488 642.061 433.14 642.061 432.68C642.061 432.436 641.995 432.212 641.863 432.008C641.731 431.804 641.557 431.642 641.341 431.522C641.129 431.398 640.901 431.336 640.657 431.336C640.409 431.336 640.171 431.398 639.943 431.522C639.715 431.642 639.529 431.804 639.385 432.008C639.241 432.212 639.169 432.436 639.169 432.68H638.161C638.161 432.356 638.227 432.052 638.359 431.768C638.495 431.484 638.679 431.234 638.911 431.018C639.147 430.802 639.413 430.634 639.709 430.514C640.005 430.39 640.317 430.328 640.645 430.328C641.073 430.328 641.471 430.434 641.839 430.646C642.207 430.858 642.503 431.142 642.727 431.498C642.955 431.854 643.069 432.248 643.069 432.68C643.069 433.068 642.971 433.426 642.775 433.754C642.579 434.082 642.313 434.312 641.977 434.444C642.269 434.544 642.515 434.7 642.715 434.912C642.915 435.12 643.065 435.36 643.165 435.632C643.269 435.904 643.321 436.19 643.321 436.49C643.321 436.958 643.199 437.386 642.955 437.774C642.715 438.162 642.395 438.472 641.995 438.704C641.599 438.932 641.165 439.046 640.693 439.046ZM644.708 433.994C644.556 433.994 644.426 433.94 644.318 433.832C644.214 433.724 644.162 433.592 644.162 433.436C644.162 433.288 644.214 433.16 644.318 433.052C644.426 432.944 644.556 432.89 644.708 432.89C644.864 432.89 644.996 432.944 645.104 433.052C645.212 433.16 645.266 433.288 645.266 433.436C645.266 433.592 645.212 433.724 645.104 433.832C644.996 433.94 644.864 433.994 644.708 433.994ZM644.708 439.046C644.556 439.046 644.426 438.992 644.318 438.884C644.214 438.776 644.162 438.644 644.162 438.488C644.162 438.34 644.214 438.212 644.318 438.104C644.426 437.996 644.556 437.942 644.708 437.942C644.864 437.942 644.996 437.996 645.104 438.104C645.212 438.212 645.266 438.34 645.266 438.488C645.266 438.644 645.212 438.776 645.104 438.884C644.996 438.992 644.864 439.046 644.708 439.046ZM649.584 439.046C649.084 439.046 648.636 438.934 648.24 438.71C647.844 438.482 647.504 438.168 647.22 437.768C646.936 437.368 646.72 436.906 646.572 436.382C646.424 435.854 646.35 435.29 646.35 434.69C646.35 434.09 646.424 433.526 646.572 432.998C646.72 432.47 646.936 432.008 647.22 431.612C647.504 431.212 647.844 430.9 648.24 430.676C648.636 430.448 649.084 430.334 649.584 430.334C650.08 430.334 650.526 430.448 650.922 430.676C651.322 430.9 651.66 431.212 651.936 431.612C652.216 432.008 652.43 432.47 652.578 432.998C652.73 433.526 652.806 434.09 652.806 434.69C652.806 435.29 652.73 435.854 652.578 436.382C652.43 436.906 652.216 437.368 651.936 437.768C651.66 438.168 651.322 438.482 650.922 438.71C650.526 438.934 650.08 439.046 649.584 439.046ZM649.584 438.038C650.084 438.038 650.502 437.884 650.838 437.576C651.178 437.264 651.432 436.854 651.6 436.346C651.768 435.838 651.852 435.286 651.852 434.69C651.852 434.062 651.764 433.496 651.588 432.992C651.416 432.484 651.16 432.082 650.82 431.786C650.484 431.49 650.072 431.342 649.584 431.342C649.2 431.342 648.864 431.432 648.576 431.612C648.292 431.792 648.056 432.038 647.868 432.35C647.68 432.662 647.538 433.02 647.442 433.424C647.35 433.824 647.304 434.246 647.304 434.69C647.304 435.286 647.39 435.84 647.562 436.352C647.734 436.86 647.988 437.268 648.324 437.576C648.664 437.884 649.084 438.038 649.584 438.038ZM656.592 439.046C656.092 439.046 655.644 438.934 655.248 438.71C654.852 438.482 654.512 438.168 654.228 437.768C653.944 437.368 653.728 436.906 653.58 436.382C653.432 435.854 653.358 435.29 653.358 434.69C653.358 434.09 653.432 433.526 653.58 432.998C653.728 432.47 653.944 432.008 654.228 431.612C654.512 431.212 654.852 430.9 655.248 430.676C655.644 430.448 656.092 430.334 656.592 430.334C657.088 430.334 657.534 430.448 657.93 430.676C658.33 430.9 658.668 431.212 658.944 431.612C659.224 432.008 659.438 432.47 659.586 432.998C659.738 433.526 659.814 434.09 659.814 434.69C659.814 435.29 659.738 435.854 659.586 436.382C659.438 436.906 659.224 437.368 658.944 437.768C658.668 438.168 658.33 438.482 657.93 438.71C657.534 438.934 657.088 439.046 656.592 439.046ZM656.592 438.038C657.092 438.038 657.51 437.884 657.846 437.576C658.186 437.264 658.44 436.854 658.608 436.346C658.776 435.838 658.86 435.286 658.86 434.69C658.86 434.062 658.772 433.496 658.596 432.992C658.424 432.484 658.168 432.082 657.828 431.786C657.492 431.49 657.08 431.342 656.592 431.342C656.208 431.342 655.872 431.432 655.584 431.612C655.3 431.792 655.064 432.038 654.876 432.35C654.688 432.662 654.546 433.02 654.45 433.424C654.358 433.824 654.312 434.246 654.312 434.69C654.312 435.286 654.398 435.84 654.57 436.352C654.742 436.86 654.996 437.268 655.332 437.576C655.672 437.884 656.092 438.038 656.592 438.038ZM663.773 438.89V430.49H666.545C666.997 430.49 667.403 430.6 667.763 430.82C668.127 431.04 668.415 431.338 668.627 431.714C668.843 432.086 668.951 432.502 668.951 432.962C668.951 433.43 668.841 433.852 668.621 434.228C668.405 434.6 668.113 434.896 667.745 435.116C667.381 435.332 666.981 435.44 666.545 435.44H664.781V438.89H663.773ZM664.781 434.432H666.455C666.727 434.432 666.975 434.366 667.199 434.234C667.427 434.098 667.607 433.916 667.739 433.688C667.875 433.456 667.943 433.196 667.943 432.908C667.943 432.616 667.875 432.356 667.739 432.128C667.607 431.896 667.427 431.714 667.199 431.582C666.975 431.446 666.727 431.378 666.455 431.378H664.781V434.432ZM669.609 438.89L671.235 430.49H672.009L674.277 436.454L676.539 430.49H677.313L678.945 438.89H677.919L676.737 432.794L674.607 438.434H673.941L671.811 432.794L670.635 438.89H669.609Z" fill="#EFEFE4"/>
<path d="M734.557 438.89V431.498H733.615L733.897 430.49H735.565V438.89H734.557ZM737.943 438.89V431.498H737.001L737.283 430.49H738.951V438.89H737.943ZM740.934 433.994C740.782 433.994 740.652 433.94 740.544 433.832C740.44 433.724 740.388 433.592 740.388 433.436C740.388 433.288 740.44 433.16 740.544 433.052C740.652 432.944 740.782 432.89 740.934 432.89C741.09 432.89 741.222 432.944 741.33 433.052C741.438 433.16 741.492 433.288 741.492 433.436C741.492 433.592 741.438 433.724 741.33 433.832C741.222 433.94 741.09 433.994 740.934 433.994ZM740.934 439.046C740.782 439.046 740.652 438.992 740.544 438.884C740.44 438.776 740.388 438.644 740.388 438.488C740.388 438.34 740.44 438.212 740.544 438.104C740.652 437.996 740.782 437.942 740.934 437.942C741.09 437.942 741.222 437.996 741.33 438.104C741.438 438.212 741.492 438.34 741.492 438.488C741.492 438.644 741.438 438.776 741.33 438.884C741.222 438.992 741.09 439.046 740.934 439.046ZM745.811 439.046C745.311 439.046 744.863 438.934 744.467 438.71C744.071 438.482 743.731 438.168 743.447 437.768C743.163 437.368 742.947 436.906 742.799 436.382C742.651 435.854 742.577 435.29 742.577 434.69C742.577 434.09 742.651 433.526 742.799 432.998C742.947 432.47 743.163 432.008 743.447 431.612C743.731 431.212 744.071 430.9 744.467 430.676C744.863 430.448 745.311 430.334 745.811 430.334C746.307 430.334 746.753 430.448 747.149 430.676C747.549 430.9 747.887 431.212 748.163 431.612C748.443 432.008 748.657 432.47 748.805 432.998C748.957 433.526 749.033 434.09 749.033 434.69C749.033 435.29 748.957 435.854 748.805 436.382C748.657 436.906 748.443 437.368 748.163 437.768C747.887 438.168 747.549 438.482 747.149 438.71C746.753 438.934 746.307 439.046 745.811 439.046ZM745.811 438.038C746.311 438.038 746.729 437.884 747.065 437.576C747.405 437.264 747.659 436.854 747.827 436.346C747.995 435.838 748.079 435.286 748.079 434.69C748.079 434.062 747.991 433.496 747.815 432.992C747.643 432.484 747.387 432.082 747.047 431.786C746.711 431.49 746.299 431.342 745.811 431.342C745.427 431.342 745.091 431.432 744.803 431.612C744.519 431.792 744.283 432.038 744.095 432.35C743.907 432.662 743.765 433.02 743.669 433.424C743.577 433.824 743.531 434.246 743.531 434.69C743.531 435.286 743.617 435.84 743.789 436.352C743.961 436.86 744.215 437.268 744.551 437.576C744.891 437.884 745.311 438.038 745.811 438.038ZM752.819 439.046C752.319 439.046 751.871 438.934 751.475 438.71C751.079 438.482 750.739 438.168 750.455 437.768C750.171 437.368 749.955 436.906 749.807 436.382C749.659 435.854 749.585 435.29 749.585 434.69C749.585 434.09 749.659 433.526 749.807 432.998C749.955 432.47 750.171 432.008 750.455 431.612C750.739 431.212 751.079 430.9 751.475 430.676C751.871 430.448 752.319 430.334 752.819 430.334C753.315 430.334 753.761 430.448 754.157 430.676C754.557 430.9 754.895 431.212 755.171 431.612C755.451 432.008 755.665 432.47 755.813 432.998C755.965 433.526 756.041 434.09 756.041 434.69C756.041 435.29 755.965 435.854 755.813 436.382C755.665 436.906 755.451 437.368 755.171 437.768C754.895 438.168 754.557 438.482 754.157 438.71C753.761 438.934 753.315 439.046 752.819 439.046ZM752.819 438.038C753.319 438.038 753.737 437.884 754.073 437.576C754.413 437.264 754.667 436.854 754.835 436.346C755.003 435.838 755.087 435.286 755.087 434.69C755.087 434.062 754.999 433.496 754.823 432.992C754.651 432.484 754.395 432.082 754.055 431.786C753.719 431.49 753.307 431.342 752.819 431.342C752.435 431.342 752.099 431.432 751.811 431.612C751.527 431.792 751.291 432.038 751.103 432.35C750.915 432.662 750.773 433.02 750.677 433.424C750.585 433.824 750.539 434.246 750.539 434.69C750.539 435.286 750.625 435.84 750.797 436.352C750.969 436.86 751.223 437.268 751.559 437.576C751.899 437.884 752.319 438.038 752.819 438.038ZM762.813 430.49H764.031L767.085 438.89H766.017L765.393 437.174H761.451L760.833 438.89H759.759L762.813 430.49ZM761.823 436.166H765.021L763.419 431.78L761.823 436.166ZM767.804 438.89L769.43 430.49H770.204L772.472 436.454L774.734 430.49H775.508L777.14 438.89H776.114L774.932 432.794L772.802 438.434H772.136L770.006 432.794L768.83 438.89H767.804Z" fill="#EFEFE4"/>
<path d="M824.588 95V87.608H823.646L823.928 86.6H825.596V95H824.588ZM827.579 95.156C827.427 95.156 827.297 95.102 827.189 94.994C827.085 94.886 827.033 94.754 827.033 94.598C827.033 94.45 827.085 94.322 827.189 94.214C827.297 94.106 827.427 94.052 827.579 94.052C827.735 94.052 827.867 94.106 827.975 94.214C828.083 94.322 828.137 94.45 828.137 94.598C828.137 94.754 828.083 94.886 827.975 94.994C827.867 95.102 827.735 95.156 827.579 95.156ZM830.283 95V87.608H829.341L829.623 86.6H831.291V95H830.283ZM832.728 95V94.106C833.036 93.83 833.382 93.522 833.766 93.182C834.15 92.838 834.532 92.48 834.912 92.108C835.296 91.732 835.648 91.36 835.968 90.992C836.288 90.624 836.546 90.276 836.742 89.948C836.938 89.616 837.036 89.326 837.036 89.078C837.036 88.782 836.964 88.512 836.82 88.268C836.676 88.02 836.482 87.822 836.238 87.674C835.998 87.526 835.73 87.452 835.434 87.452C835.138 87.452 834.866 87.526 834.618 87.674C834.374 87.822 834.178 88.02 834.03 88.268C833.886 88.512 833.814 88.782 833.814 89.078H832.806C832.806 88.586 832.926 88.142 833.166 87.746C833.406 87.346 833.724 87.03 834.12 86.798C834.516 86.562 834.954 86.444 835.434 86.444C835.914 86.444 836.35 86.562 836.742 86.798C837.138 87.034 837.454 87.352 837.69 87.752C837.926 88.148 838.044 88.59 838.044 89.078C838.044 89.358 837.976 89.66 837.84 89.984C837.704 90.304 837.518 90.634 837.282 90.974C837.046 91.314 836.778 91.658 836.478 92.006C836.178 92.35 835.862 92.69 835.53 93.026C835.198 93.362 834.868 93.684 834.54 93.992H838.152V95H832.728ZM841.845 95.156C841.337 95.156 840.885 95.042 840.489 94.814C840.097 94.582 839.789 94.274 839.565 93.89C839.341 93.502 839.229 93.072 839.229 92.6H840.237C840.237 92.884 840.303 93.144 840.435 93.38C840.567 93.612 840.753 93.798 840.993 93.938C841.233 94.078 841.517 94.148 841.845 94.148C842.129 94.148 842.393 94.078 842.637 93.938C842.885 93.798 843.085 93.612 843.237 93.38C843.389 93.144 843.465 92.884 843.465 92.6C843.465 92.244 843.373 91.948 843.189 91.712C843.009 91.472 842.757 91.294 842.433 91.178C842.113 91.058 841.747 90.998 841.335 90.998V90.188C841.903 90.188 842.357 90.07 842.697 89.834C843.041 89.598 843.213 89.25 843.213 88.79C843.213 88.546 843.147 88.322 843.015 88.118C842.883 87.914 842.709 87.752 842.493 87.632C842.281 87.508 842.053 87.446 841.809 87.446C841.561 87.446 841.323 87.508 841.095 87.632C840.867 87.752 840.681 87.914 840.537 88.118C840.393 88.322 840.321 88.546 840.321 88.79H839.313C839.313 88.466 839.379 88.162 839.511 87.878C839.647 87.594 839.831 87.344 840.063 87.128C840.299 86.912 840.565 86.744 840.861 86.624C841.157 86.5 841.469 86.438 841.797 86.438C842.225 86.438 842.623 86.544 842.991 86.756C843.359 86.968 843.655 87.252 843.879 87.608C844.107 87.964 844.221 88.358 844.221 88.79C844.221 89.178 844.123 89.536 843.927 89.864C843.731 90.192 843.465 90.422 843.129 90.554C843.421 90.654 843.667 90.81 843.867 91.022C844.067 91.23 844.217 91.47 844.317 91.742C844.421 92.014 844.473 92.3 844.473 92.6C844.473 93.068 844.351 93.496 844.107 93.884C843.867 94.272 843.547 94.582 843.147 94.814C842.751 95.042 842.317 95.156 841.845 95.156Z" fill="#EFEFE4"/>
<path d="M824.795 160V152.608H823.853L824.135 151.6H825.803V160H824.795ZM827.786 160.156C827.634 160.156 827.504 160.102 827.396 159.994C827.292 159.886 827.24 159.754 827.24 159.598C827.24 159.45 827.292 159.322 827.396 159.214C827.504 159.106 827.634 159.052 827.786 159.052C827.942 159.052 828.074 159.106 828.182 159.214C828.29 159.322 828.344 159.45 828.344 159.598C828.344 159.754 828.29 159.886 828.182 159.994C828.074 160.102 827.942 160.156 827.786 160.156ZM830.49 160V152.608H829.548L829.83 151.6H831.498V160H830.49ZM836.049 160.156C835.549 160.156 835.101 160.044 834.705 159.82C834.309 159.592 833.969 159.278 833.685 158.878C833.401 158.478 833.185 158.016 833.037 157.492C832.889 156.964 832.815 156.4 832.815 155.8C832.815 155.2 832.889 154.636 833.037 154.108C833.185 153.58 833.401 153.118 833.685 152.722C833.969 152.322 834.309 152.01 834.705 151.786C835.101 151.558 835.549 151.444 836.049 151.444C836.545 151.444 836.991 151.558 837.387 151.786C837.787 152.01 838.125 152.322 838.401 152.722C838.681 153.118 838.895 153.58 839.043 154.108C839.195 154.636 839.271 155.2 839.271 155.8C839.271 156.4 839.195 156.964 839.043 157.492C838.895 158.016 838.681 158.478 838.401 158.878C838.125 159.278 837.787 159.592 837.387 159.82C836.991 160.044 836.545 160.156 836.049 160.156ZM836.049 159.148C836.549 159.148 836.967 158.994 837.303 158.686C837.643 158.374 837.897 157.964 838.065 157.456C838.233 156.948 838.317 156.396 838.317 155.8C838.317 155.172 838.229 154.606 838.053 154.102C837.881 153.594 837.625 153.192 837.285 152.896C836.949 152.6 836.537 152.452 836.049 152.452C835.665 152.452 835.329 152.542 835.041 152.722C834.757 152.902 834.521 153.148 834.333 153.46C834.145 153.772 834.003 154.13 833.907 154.534C833.815 154.934 833.769 155.356 833.769 155.8C833.769 156.396 833.855 156.95 834.027 157.462C834.199 157.97 834.453 158.378 834.789 158.686C835.129 158.994 835.549 159.148 836.049 159.148Z" fill="#EFEFE4"/>
<path d="M824.76 225V217.608H823.818L824.1 216.6H825.768V225H824.76ZM827.751 225.156C827.599 225.156 827.469 225.102 827.361 224.994C827.257 224.886 827.205 224.754 827.205 224.598C827.205 224.45 827.257 224.322 827.361 224.214C827.469 224.106 827.599 224.052 827.751 224.052C827.907 224.052 828.039 224.106 828.147 224.214C828.255 224.322 828.309 224.45 828.309 224.598C828.309 224.754 828.255 224.886 828.147 224.994C828.039 225.102 827.907 225.156 827.751 225.156ZM832.627 225.156C832.127 225.156 831.679 225.044 831.283 224.82C830.887 224.592 830.547 224.278 830.263 223.878C829.979 223.478 829.763 223.016 829.615 222.492C829.467 221.964 829.393 221.4 829.393 220.8C829.393 220.2 829.467 219.636 829.615 219.108C829.763 218.58 829.979 218.118 830.263 217.722C830.547 217.322 830.887 217.01 831.283 216.786C831.679 216.558 832.127 216.444 832.627 216.444C833.123 216.444 833.569 216.558 833.965 216.786C834.365 217.01 834.703 217.322 834.979 217.722C835.259 218.118 835.473 218.58 835.621 219.108C835.773 219.636 835.849 220.2 835.849 220.8C835.849 221.4 835.773 221.964 835.621 222.492C835.473 223.016 835.259 223.478 834.979 223.878C834.703 224.278 834.365 224.592 833.965 224.82C833.569 225.044 833.123 225.156 832.627 225.156ZM832.627 224.148C833.127 224.148 833.545 223.994 833.881 223.686C834.221 223.374 834.475 222.964 834.643 222.456C834.811 221.948 834.895 221.396 834.895 220.8C834.895 220.172 834.807 219.606 834.631 219.102C834.459 218.594 834.203 218.192 833.863 217.896C833.527 217.6 833.115 217.452 832.627 217.452C832.243 217.452 831.907 217.542 831.619 217.722C831.335 217.902 831.099 218.148 830.911 218.46C830.723 218.772 830.581 219.13 830.485 219.534C830.393 219.934 830.347 220.356 830.347 220.8C830.347 221.396 830.433 221.95 830.605 222.462C830.777 222.97 831.031 223.378 831.367 223.686C831.707 223.994 832.127 224.148 832.627 224.148ZM837.003 225L841.263 217.608H836.445V216.6H842.427V217.608L838.155 225H837.003Z" fill="#EFEFE4"/>
<path d="M824.66 290V282.608H823.718L824 281.6H825.668V290H824.66ZM827.651 290.156C827.499 290.156 827.369 290.102 827.261 289.994C827.157 289.886 827.105 289.754 827.105 289.598C827.105 289.45 827.157 289.322 827.261 289.214C827.369 289.106 827.499 289.052 827.651 289.052C827.807 289.052 827.939 289.106 828.047 289.214C828.155 289.322 828.209 289.45 828.209 289.598C828.209 289.754 828.155 289.886 828.047 289.994C827.939 290.102 827.807 290.156 827.651 290.156ZM832.528 290.156C832.028 290.156 831.58 290.044 831.184 289.82C830.788 289.592 830.448 289.278 830.164 288.878C829.88 288.478 829.664 288.016 829.516 287.492C829.368 286.964 829.294 286.4 829.294 285.8C829.294 285.2 829.368 284.636 829.516 284.108C829.664 283.58 829.88 283.118 830.164 282.722C830.448 282.322 830.788 282.01 831.184 281.786C831.58 281.558 832.028 281.444 832.528 281.444C833.024 281.444 833.47 281.558 833.866 281.786C834.266 282.01 834.604 282.322 834.88 282.722C835.16 283.118 835.374 283.58 835.522 284.108C835.674 284.636 835.75 285.2 835.75 285.8C835.75 286.4 835.674 286.964 835.522 287.492C835.374 288.016 835.16 288.478 834.88 288.878C834.604 289.278 834.266 289.592 833.866 289.82C833.47 290.044 833.024 290.156 832.528 290.156ZM832.528 289.148C833.028 289.148 833.446 288.994 833.782 288.686C834.122 288.374 834.376 287.964 834.544 287.456C834.712 286.948 834.796 286.396 834.796 285.8C834.796 285.172 834.708 284.606 834.532 284.102C834.36 283.594 834.104 283.192 833.764 282.896C833.428 282.6 833.016 282.452 832.528 282.452C832.144 282.452 831.808 282.542 831.52 282.722C831.236 282.902 831 283.148 830.812 283.46C830.624 283.772 830.482 284.13 830.386 284.534C830.294 284.934 830.248 285.356 830.248 285.8C830.248 286.396 830.334 286.95 830.506 287.462C830.678 287.97 830.932 288.378 831.268 288.686C831.608 288.994 832.028 289.148 832.528 289.148ZM840.197 290V287.732H836.585V286.712L839.945 281.6H841.205V286.724H842.039V287.732H841.205V290H840.197ZM837.767 286.712L840.197 286.724L840.179 283.016L837.767 286.712Z" fill="#EFEFE4"/>
<path d="M824.795 355V347.608H823.853L824.135 346.6H825.803V355H824.795ZM827.786 355.156C827.634 355.156 827.504 355.102 827.396 354.994C827.292 354.886 827.24 354.754 827.24 354.598C827.24 354.45 827.292 354.322 827.396 354.214C827.504 354.106 827.634 354.052 827.786 354.052C827.942 354.052 828.074 354.106 828.182 354.214C828.29 354.322 828.344 354.45 828.344 354.598C828.344 354.754 828.29 354.886 828.182 354.994C828.074 355.102 827.942 355.156 827.786 355.156ZM832.662 355.156C832.162 355.156 831.714 355.044 831.318 354.82C830.922 354.592 830.582 354.278 830.298 353.878C830.014 353.478 829.798 353.016 829.65 352.492C829.502 351.964 829.428 351.4 829.428 350.8C829.428 350.2 829.502 349.636 829.65 349.108C829.798 348.58 830.014 348.118 830.298 347.722C830.582 347.322 830.922 347.01 831.318 346.786C831.714 346.558 832.162 346.444 832.662 346.444C833.158 346.444 833.604 346.558 834 346.786C834.4 347.01 834.738 347.322 835.014 347.722C835.294 348.118 835.508 348.58 835.656 349.108C835.808 349.636 835.884 350.2 835.884 350.8C835.884 351.4 835.808 351.964 835.656 352.492C835.508 353.016 835.294 353.478 835.014 353.878C834.738 354.278 834.4 354.592 834 354.82C833.604 355.044 833.158 355.156 832.662 355.156ZM832.662 354.148C833.162 354.148 833.58 353.994 833.916 353.686C834.256 353.374 834.51 352.964 834.678 352.456C834.846 351.948 834.93 351.396 834.93 350.8C834.93 350.172 834.842 349.606 834.666 349.102C834.494 348.594 834.238 348.192 833.898 347.896C833.562 347.6 833.15 347.452 832.662 347.452C832.278 347.452 831.942 347.542 831.654 347.722C831.37 347.902 831.134 348.148 830.946 348.46C830.758 348.772 830.616 349.13 830.52 349.534C830.428 349.934 830.382 350.356 830.382 350.8C830.382 351.396 830.468 351.95 830.64 352.462C830.812 352.97 831.066 353.378 831.402 353.686C831.742 353.994 832.162 354.148 832.662 354.148ZM837.662 355V347.608H836.72L837.002 346.6H838.67V355H837.662Z" fill="#EFEFE4"/>
<path d="M824.485 420V412.608H823.543L823.825 411.6H825.493V420H824.485ZM827.475 420.156C827.323 420.156 827.193 420.102 827.085 419.994C826.981 419.886 826.929 419.754 826.929 419.598C826.929 419.45 826.981 419.322 827.085 419.214C827.193 419.106 827.323 419.052 827.475 419.052C827.631 419.052 827.763 419.106 827.871 419.214C827.979 419.322 828.033 419.45 828.033 419.598C828.033 419.754 827.979 419.886 827.871 419.994C827.763 420.102 827.631 420.156 827.475 420.156ZM832.352 420.156C831.852 420.156 831.404 420.044 831.008 419.82C830.612 419.592 830.272 419.278 829.988 418.878C829.704 418.478 829.488 418.016 829.34 417.492C829.192 416.964 829.118 416.4 829.118 415.8C829.118 415.2 829.192 414.636 829.34 414.108C829.488 413.58 829.704 413.118 829.988 412.722C830.272 412.322 830.612 412.01 831.008 411.786C831.404 411.558 831.852 411.444 832.352 411.444C832.848 411.444 833.294 411.558 833.69 411.786C834.09 412.01 834.428 412.322 834.704 412.722C834.984 413.118 835.198 413.58 835.346 414.108C835.498 414.636 835.574 415.2 835.574 415.8C835.574 416.4 835.498 416.964 835.346 417.492C835.198 418.016 834.984 418.478 834.704 418.878C834.428 419.278 834.09 419.592 833.69 419.82C833.294 420.044 832.848 420.156 832.352 420.156ZM832.352 419.148C832.852 419.148 833.27 418.994 833.606 418.686C833.946 418.374 834.2 417.964 834.368 417.456C834.536 416.948 834.62 416.396 834.62 415.8C834.62 415.172 834.532 414.606 834.356 414.102C834.184 413.594 833.928 413.192 833.588 412.896C833.252 412.6 832.84 412.452 832.352 412.452C831.968 412.452 831.632 412.542 831.344 412.722C831.06 412.902 830.824 413.148 830.636 413.46C830.448 413.772 830.306 414.13 830.21 414.534C830.118 414.934 830.072 415.356 830.072 415.8C830.072 416.396 830.158 416.95 830.33 417.462C830.502 417.97 830.756 418.378 831.092 418.686C831.432 418.994 831.852 419.148 832.352 419.148ZM839.36 420.156C838.86 420.156 838.412 420.044 838.016 419.82C837.62 419.592 837.28 419.278 836.996 418.878C836.712 418.478 836.496 418.016 836.348 417.492C836.2 416.964 836.126 416.4 836.126 415.8C836.126 415.2 836.2 414.636 836.348 414.108C836.496 413.58 836.712 413.118 836.996 412.722C837.28 412.322 837.62 412.01 838.016 411.786C838.412 411.558 838.86 411.444 839.36 411.444C839.856 411.444 840.302 411.558 840.698 411.786C841.098 412.01 841.436 412.322 841.712 412.722C841.992 413.118 842.206 413.58 842.354 414.108C842.506 414.636 842.582 415.2 842.582 415.8C842.582 416.4 842.506 416.964 842.354 417.492C842.206 418.016 841.992 418.478 841.712 418.878C841.436 419.278 841.098 419.592 840.698 419.82C840.302 420.044 839.856 420.156 839.36 420.156ZM839.36 419.148C839.86 419.148 840.278 418.994 840.614 418.686C840.954 418.374 841.208 417.964 841.376 417.456C841.544 416.948 841.628 416.396 841.628 415.8C841.628 415.172 841.54 414.606 841.364 414.102C841.192 413.594 840.936 413.192 840.596 412.896C840.26 412.6 839.848 412.452 839.36 412.452C838.976 412.452 838.64 412.542 838.352 412.722C838.068 412.902 837.832 413.148 837.644 413.46C837.456 413.772 837.314 414.13 837.218 414.534C837.126 414.934 837.08 415.356 837.08 415.8C837.08 416.396 837.166 416.95 837.338 417.462C837.51 417.97 837.764 418.378 838.1 418.686C838.44 418.994 838.86 419.148 839.36 419.148Z" fill="#EFEFE4"/>
<path d="M51 417.001L81.7617 350.971C82.4184 349.561 83.8325 348.66 85.3875 348.66H96.0856H108.609H122.385H148.685H164.582C166.307 348.66 167.837 347.554 168.379 345.917L191.676 275.547C192.186 274.006 193.576 272.926 195.194 272.813L211.104 271.702C212.831 271.582 214.275 270.36 214.758 268.697C218.114 257.134 223.909 247.129 229.294 245.789C234.473 244.5 242.369 244 245.5 244H264L277.256 242.991C277.944 242.939 278.608 242.709 279.181 242.324L305.474 224.679C306.133 224.237 306.909 224 307.703 224L333.717 224.001C334.143 224.001 334.567 223.932 334.972 223.799L351 218.5L363.455 213.744C363.878 213.583 364.326 213.494 364.779 213.482L380.271 213.083C382.155 213.035 383.749 211.677 384.098 209.825L384.77 206.259C385.127 204.369 386.778 203 388.701 203H466.546C468.755 203 470.541 201.198 470.523 198.989C470.412 185.986 470.678 188.5 492.463 188.5C505.01 188.5 507.59 188.5 511.249 188.5C543.434 188.5 535.15 188.5 552.327 188.5C554.536 188.5 556.334 186.709 556.334 184.5V168C556.334 165.791 558.125 164 560.334 164H610.57C612.779 164 614.57 162.209 614.57 160V149C614.57 146.791 616.361 145 618.57 145H636.243C638.452 145 640.243 143.209 640.243 141V116.5C640.243 114.291 642.034 112.5 644.243 112.5H714.517C716.726 112.5 718.517 110.709 718.517 108.5V85.7571C718.517 83.6821 720.199 82 722.274 82V82H724.153H729.788H732.919M732.919 82H736.05M732.919 82H744.817" stroke="url(#paint0_linear_59_18511)" stroke-width="2"/>
<path opacity="0.5" d="M81.7617 350.971L53.6504 411.312C52.4151 413.964 54.3509 417.001 57.2763 417.001H741C743.209 417.001 745 415.21 745 413.001V290.579V273V86C745 83.7909 743.209 82 741 82H721.891C719.682 82 717.891 83.7909 717.891 86V109C717.891 111.209 716.1 113 713.891 113H644.243C642.034 113 640.243 114.791 640.243 117V141.5C640.243 143.709 638.453 145.5 636.243 145.5H618.538C616.329 145.5 614.538 147.291 614.538 149.5V160.5C614.538 162.709 612.747 164.5 610.538 164.5H594.532H560.96C558.751 164.5 556.96 166.291 556.96 168.5V184.001C556.96 186.21 555.169 188.001 552.96 188.001L539.427 188H518.137H497.472C492.574 188 507.026 188.001 475.291 188.001C473.082 188.001 471.265 189.792 471.265 192.001V198.501C471.265 200.71 469.475 202.501 467.265 202.501H458.53H410.773H387.506C385.297 202.501 383.506 204.292 383.506 206.501V209.501C383.506 211.71 381.715 213.501 379.506 213.501H363.693C363.244 213.501 362.799 213.576 362.375 213.724L335.001 223.277C334.577 223.425 334.132 223.501 333.683 223.501L308.25 223.5C307.506 223.5 306.776 223.708 306.143 224.101L276.77 242.311C276.137 242.703 275.407 242.911 274.662 242.911H264.316H245.118C241.361 242.911 234.588 245.789 229.294 245.789C224.836 245.789 218.153 256.98 214.639 268.678C214.111 270.435 212.522 271.686 210.687 271.686H197.05C195.38 271.686 193.885 272.725 193.302 274.29L166.563 346.057C165.979 347.622 164.485 348.66 162.814 348.66H149.938H135.535H119.881H100.469H85.3875C83.8325 348.66 82.4184 349.561 81.7617 350.971Z" fill="url(#paint1_linear_59_18511)"/>
<rect x="745.25" y="16.25" width="0.5" height="400.5" stroke="#EFEFE4" stroke-opacity="0.5" stroke-width="0.5" stroke-dasharray="4 4"/>
<line x1="73" y1="81.5" x2="798" y2="81.5" stroke="#EFEFE4" stroke-opacity="0.5" stroke-dasharray="4 4"/>
<rect width="50" height="24" transform="translate(720.975 44)" fill="url(#paint2_linear_59_18511)"/>
<path d="M730.459 60V54.04H729.624L729.909 53H731.499V60H730.459ZM734.815 60.13C734.371 60.13 733.97 60.0233 733.61 59.81C733.253 59.5933 732.97 59.3067 732.76 58.95C732.553 58.59 732.45 58.1967 732.45 57.77H733.49C733.49 58.0133 733.55 58.235 733.67 58.435C733.79 58.635 733.95 58.795 734.15 58.915C734.35 59.0317 734.571 59.09 734.815 59.09C735.055 59.09 735.275 59.0317 735.475 58.915C735.675 58.795 735.835 58.635 735.955 58.435C736.075 58.235 736.135 58.0133 736.135 57.77C736.135 57.5267 736.08 57.305 735.97 57.105C735.86 56.9017 735.695 56.74 735.475 56.62C735.255 56.4967 734.975 56.435 734.635 56.435H732.87L733.58 53H736.965V54.04H734.425L734.15 55.395L734.755 55.405C735.231 55.415 735.65 55.525 736.01 55.735C736.373 55.9417 736.658 56.2217 736.865 56.575C737.071 56.925 737.175 57.3233 737.175 57.77C737.175 58.0933 737.113 58.3983 736.99 58.685C736.866 58.9683 736.696 59.2183 736.48 59.435C736.266 59.6517 736.016 59.8217 735.73 59.945C735.446 60.0683 735.141 60.13 734.815 60.13ZM738.519 56.095C738.365 56.095 738.235 56.0417 738.129 55.935C738.025 55.8283 737.974 55.6983 737.974 55.545C737.974 55.395 738.025 55.2667 738.129 55.16C738.235 55.0533 738.365 55 738.519 55C738.672 55 738.802 55.0533 738.909 55.16C739.015 55.2667 739.069 55.395 739.069 55.545C739.069 55.6983 739.015 55.8283 738.909 55.935C738.802 56.0417 738.672 56.095 738.519 56.095ZM738.519 60.13C738.365 60.13 738.235 60.0767 738.129 59.97C738.025 59.8633 737.974 59.7333 737.974 59.58C737.974 59.43 738.025 59.3017 738.129 59.195C738.235 59.0883 738.365 59.035 738.519 59.035C738.672 59.035 738.802 59.0883 738.909 59.195C739.015 59.3017 739.069 59.43 739.069 59.58C739.069 59.7333 739.015 59.8633 738.909 59.97C738.802 60.0767 738.672 60.13 738.519 60.13ZM739.873 60V59.075C740.11 58.8783 740.381 58.65 740.688 58.39C740.995 58.1267 741.306 57.8483 741.623 57.555C741.94 57.2583 742.231 56.9633 742.498 56.67C742.765 56.3733 742.98 56.0933 743.143 55.83C743.31 55.5633 743.393 55.3317 743.393 55.135C743.393 54.9117 743.338 54.7083 743.228 54.525C743.121 54.3383 742.976 54.19 742.793 54.08C742.61 53.9667 742.406 53.91 742.183 53.91C741.96 53.91 741.755 53.9667 741.568 54.08C741.385 54.19 741.236 54.3383 741.123 54.525C741.013 54.7083 740.958 54.9117 740.958 55.135H739.918C739.918 54.7117 740.021 54.33 740.228 53.99C740.438 53.6467 740.713 53.375 741.053 53.175C741.396 52.9717 741.773 52.87 742.183 52.87C742.596 52.87 742.973 52.9717 743.313 53.175C743.653 53.3783 743.925 53.6517 744.128 53.995C744.331 54.335 744.433 54.715 744.433 55.135C744.433 55.3683 744.385 55.6083 744.288 55.855C744.191 56.1017 744.056 56.3533 743.883 56.61C743.713 56.8667 743.515 57.1267 743.288 57.39C743.061 57.6533 742.818 57.9167 742.558 58.18C742.298 58.4433 742.033 58.7033 741.763 58.96H744.493V60H739.873ZM747.603 60.13C747.16 60.13 746.758 60.0233 746.398 59.81C746.042 59.5933 745.758 59.3067 745.548 58.95C745.342 58.59 745.238 58.1967 745.238 57.77H746.278C746.278 58.0133 746.338 58.235 746.458 58.435C746.578 58.635 746.738 58.795 746.938 58.915C747.138 59.0317 747.36 59.09 747.603 59.09C747.843 59.09 748.063 59.0317 748.263 58.915C748.463 58.795 748.623 58.635 748.743 58.435C748.863 58.235 748.923 58.0133 748.923 57.77C748.923 57.5267 748.868 57.305 748.758 57.105C748.648 56.9017 748.483 56.74 748.263 56.62C748.043 56.4967 747.763 56.435 747.423 56.435H745.658L746.368 53H749.753V54.04H747.213L746.938 55.395L747.543 55.405C748.02 55.415 748.438 55.525 748.798 55.735C749.162 55.9417 749.447 56.2217 749.653 56.575C749.86 56.925 749.963 57.3233 749.963 57.77C749.963 58.0933 749.902 58.3983 749.778 58.685C749.655 58.9683 749.485 59.2183 749.268 59.435C749.055 59.6517 748.805 59.8217 748.518 59.945C748.235 60.0683 747.93 60.13 747.603 60.13ZM751.307 56.095C751.154 56.095 751.024 56.0417 750.917 55.935C750.814 55.8283 750.762 55.6983 750.762 55.545C750.762 55.395 750.814 55.2667 750.917 55.16C751.024 55.0533 751.154 55 751.307 55C751.461 55 751.591 55.0533 751.697 55.16C751.804 55.2667 751.857 55.395 751.857 55.545C751.857 55.6983 751.804 55.8283 751.697 55.935C751.591 56.0417 751.461 56.095 751.307 56.095ZM751.307 60.13C751.154 60.13 751.024 60.0767 750.917 59.97C750.814 59.8633 750.762 59.7333 750.762 59.58C750.762 59.43 750.814 59.3017 750.917 59.195C751.024 59.0883 751.154 59.035 751.307 59.035C751.461 59.035 751.591 59.0883 751.697 59.195C751.804 59.3017 751.857 59.43 751.857 59.58C751.857 59.7333 751.804 59.8633 751.697 59.97C751.591 60.0767 751.461 60.13 751.307 60.13ZM752.662 60V59.075C752.898 58.8783 753.17 58.65 753.477 58.39C753.783 58.1267 754.095 57.8483 754.412 57.555C754.728 57.2583 755.02 56.9633 755.287 56.67C755.553 56.3733 755.768 56.0933 755.932 55.83C756.098 55.5633 756.182 55.3317 756.182 55.135C756.182 54.9117 756.127 54.7083 756.017 54.525C755.91 54.3383 755.765 54.19 755.582 54.08C755.398 53.9667 755.195 53.91 754.972 53.91C754.748 53.91 754.543 53.9667 754.357 54.08C754.173 54.19 754.025 54.3383 753.912 54.525C753.802 54.7083 753.747 54.9117 753.747 55.135H752.707C752.707 54.7117 752.81 54.33 753.017 53.99C753.227 53.6467 753.502 53.375 753.842 53.175C754.185 52.9717 754.562 52.87 754.972 52.87C755.385 52.87 755.762 52.9717 756.102 53.175C756.442 53.3783 756.713 53.6517 756.917 53.995C757.12 54.335 757.222 54.715 757.222 55.135C757.222 55.3683 757.173 55.6083 757.077 55.855C756.98 56.1017 756.845 56.3533 756.672 56.61C756.502 56.8667 756.303 57.1267 756.077 57.39C755.85 57.6533 755.607 57.9167 755.347 58.18C755.087 58.4433 754.822 58.7033 754.552 58.96H757.282V60H752.662ZM760.197 60.13C759.774 60.13 759.394 60.0317 759.057 59.835C758.724 59.6383 758.46 59.375 758.267 59.045C758.074 58.715 757.977 58.3483 757.977 57.945H759.017C759.017 58.155 759.067 58.3467 759.167 58.52C759.267 58.6933 759.405 58.8317 759.582 58.935C759.759 59.0383 759.964 59.09 760.197 59.09C760.407 59.09 760.602 59.0383 760.782 58.935C760.962 58.8317 761.107 58.6933 761.217 58.52C761.327 58.3467 761.382 58.155 761.382 57.945C761.382 57.6783 761.312 57.455 761.172 57.275C761.032 57.095 760.837 56.9617 760.587 56.875C760.34 56.785 760.055 56.74 759.732 56.74V55.92C760.172 55.92 760.524 55.8333 760.787 55.66C761.05 55.4867 761.182 55.2283 761.182 54.885C761.182 54.705 761.134 54.5417 761.037 54.395C760.944 54.245 760.819 54.1267 760.662 54.04C760.509 53.95 760.344 53.905 760.167 53.905C759.984 53.905 759.807 53.95 759.637 54.04C759.47 54.1267 759.334 54.245 759.227 54.395C759.12 54.5417 759.067 54.705 759.067 54.885H758.027C758.027 54.6083 758.084 54.3483 758.197 54.105C758.314 53.8583 758.47 53.6433 758.667 53.46C758.867 53.2733 759.094 53.1283 759.347 53.025C759.604 52.9183 759.872 52.865 760.152 52.865C760.519 52.865 760.859 52.9567 761.172 53.14C761.489 53.32 761.742 53.5633 761.932 53.87C762.125 54.1733 762.222 54.5117 762.222 54.885C762.222 55.1817 762.149 55.4633 762.002 55.73C761.859 55.9933 761.659 56.18 761.402 56.29C761.625 56.37 761.812 56.4967 761.962 56.67C762.115 56.84 762.23 57.0367 762.307 57.26C762.384 57.48 762.422 57.7083 762.422 57.945C762.422 58.345 762.32 58.7117 762.117 59.045C761.914 59.375 761.642 59.6383 761.302 59.835C760.965 60.0317 760.597 60.13 760.197 60.13Z" fill="#111016"/>
<ellipse cx="5.97" cy="5.97045" rx="5.97" ry="5.97045" transform="matrix(0.999989 -0.00470853 0.00522876 0.999986 741 76.0562)" fill="white"/>
<circle cx="747" cy="82.0015" r="4" fill="url(#paint3_linear_59_18511)"/>
<defs>
<linearGradient id="paint0_linear_59_18511" x1="51" y1="234.14" x2="744.817" y2="234.14" gradientUnits="userSpaceOnUse">
<stop stop-color="#68FFFF"/>
<stop offset="1" stop-color="#68FF9B"/>
</linearGradient>
<linearGradient id="paint1_linear_59_18511" x1="411.058" y1="121.5" x2="409.861" y2="423.003" gradientUnits="userSpaceOnUse">
<stop stop-color="#68FFFF" stop-opacity="0.8"/>
<stop offset="1" stop-color="#68FF9B" stop-opacity="0"/>
</linearGradient>
<linearGradient id="paint2_linear_59_18511" x1="1.95318e-07" y1="10.8996" x2="50" y2="10.8996" gradientUnits="userSpaceOnUse">
<stop stop-color="#68FFFF"/>
<stop offset="1" stop-color="#68FF9B"/>
</linearGradient>
<linearGradient id="paint3_linear_59_18511" x1="743" y1="81.6347" x2="751" y2="81.6347" gradientUnits="userSpaceOnUse">
<stop stop-color="#68FFFF"/>
<stop offset="1" stop-color="#68FF9B"/>
</linearGradient>
</defs>
</svg>
