<svg width="1384" height="242" viewBox="0 0 1384 242" fill="none" xmlns="http://www.w3.org/2000/svg">
<g clip-path="url(#clip0_1_33619)">
<path d="M1.55677 237V229.608H0.614766L0.896766 228.6H2.56477V237H1.55677ZM4.94348 237V229.608H4.00148L4.28348 228.6H5.95148V237H4.94348ZM7.9342 232.104C7.7822 232.104 7.6522 232.05 7.5442 231.942C7.4402 231.834 7.3882 231.702 7.3882 231.546C7.3882 231.398 7.4402 231.27 7.5442 231.162C7.6522 231.054 7.7822 231 7.9342 231C8.0902 231 8.2222 231.054 8.3302 231.162C8.4382 231.27 8.4922 231.398 8.4922 231.546C8.4922 231.702 8.4382 231.834 8.3302 231.942C8.2222 232.05 8.0902 232.104 7.9342 232.104ZM7.9342 237.156C7.7822 237.156 7.6522 237.102 7.5442 236.994C7.4402 236.886 7.3882 236.754 7.3882 236.598C7.3882 236.45 7.4402 236.322 7.5442 236.214C7.6522 236.106 7.7822 236.052 7.9342 236.052C8.0902 236.052 8.2222 236.106 8.3302 236.214C8.4382 236.322 8.4922 236.45 8.4922 236.598C8.4922 236.754 8.4382 236.886 8.3302 236.994C8.2222 237.102 8.0902 237.156 7.9342 237.156ZM12.8108 237.156C12.3108 237.156 11.8628 237.044 11.4668 236.82C11.0708 236.592 10.7308 236.278 10.4468 235.878C10.1628 235.478 9.9468 235.016 9.7988 234.492C9.6508 233.964 9.5768 233.4 9.5768 232.8C9.5768 232.2 9.6508 231.636 9.7988 231.108C9.9468 230.58 10.1628 230.118 10.4468 229.722C10.7308 229.322 11.0708 229.01 11.4668 228.786C11.8628 228.558 12.3108 228.444 12.8108 228.444C13.3068 228.444 13.7528 228.558 14.1488 228.786C14.5488 229.01 14.8868 229.322 15.1628 229.722C15.4428 230.118 15.6568 230.58 15.8048 231.108C15.9568 231.636 16.0328 232.2 16.0328 232.8C16.0328 233.4 15.9568 233.964 15.8048 234.492C15.6568 235.016 15.4428 235.478 15.1628 235.878C14.8868 236.278 14.5488 236.592 14.1488 236.82C13.7528 237.044 13.3068 237.156 12.8108 237.156ZM12.8108 236.148C13.3108 236.148 13.7288 235.994 14.0648 235.686C14.4048 235.374 14.6588 234.964 14.8268 234.456C14.9948 233.948 15.0788 233.396 15.0788 232.8C15.0788 232.172 14.9908 231.606 14.8148 231.102C14.6428 230.594 14.3868 230.192 14.0468 229.896C13.7108 229.6 13.2988 229.452 12.8108 229.452C12.4268 229.452 12.0908 229.542 11.8028 229.722C11.5188 229.902 11.2828 230.148 11.0948 230.46C10.9068 230.772 10.7648 231.13 10.6688 231.534C10.5768 231.934 10.5308 232.356 10.5308 232.8C10.5308 233.396 10.6168 233.95 10.7888 234.462C10.9608 234.97 11.2148 235.378 11.5508 235.686C11.8908 235.994 12.3108 236.148 12.8108 236.148ZM19.8186 237.156C19.3186 237.156 18.8706 237.044 18.4746 236.82C18.0786 236.592 17.7386 236.278 17.4546 235.878C17.1706 235.478 16.9546 235.016 16.8066 234.492C16.6586 233.964 16.5846 233.4 16.5846 232.8C16.5846 232.2 16.6586 231.636 16.8066 231.108C16.9546 230.58 17.1706 230.118 17.4546 229.722C17.7386 229.322 18.0786 229.01 18.4746 228.786C18.8706 228.558 19.3186 228.444 19.8186 228.444C20.3146 228.444 20.7606 228.558 21.1566 228.786C21.5566 229.01 21.8946 229.322 22.1706 229.722C22.4506 230.118 22.6646 230.58 22.8126 231.108C22.9646 231.636 23.0406 232.2 23.0406 232.8C23.0406 233.4 22.9646 233.964 22.8126 234.492C22.6646 235.016 22.4506 235.478 22.1706 235.878C21.8946 236.278 21.5566 236.592 21.1566 236.82C20.7606 237.044 20.3146 237.156 19.8186 237.156ZM19.8186 236.148C20.3186 236.148 20.7366 235.994 21.0726 235.686C21.4126 235.374 21.6666 234.964 21.8346 234.456C22.0026 233.948 22.0866 233.396 22.0866 232.8C22.0866 232.172 21.9986 231.606 21.8226 231.102C21.6506 230.594 21.3946 230.192 21.0546 229.896C20.7186 229.6 20.3066 229.452 19.8186 229.452C19.4346 229.452 19.0986 229.542 18.8106 229.722C18.5266 229.902 18.2906 230.148 18.1026 230.46C17.9146 230.772 17.7726 231.13 17.6766 231.534C17.5846 231.934 17.5386 232.356 17.5386 232.8C17.5386 233.396 17.6246 233.95 17.7966 234.462C17.9686 234.97 18.2226 235.378 18.5586 235.686C18.8986 235.994 19.3186 236.148 19.8186 236.148ZM29.8133 228.6H31.0313L34.0853 237H33.0173L32.3933 235.284H28.4513L27.8333 237H26.7593L29.8133 228.6ZM28.8233 234.276H32.0213L30.4193 229.89L28.8233 234.276ZM34.804 237L36.43 228.6H37.204L39.472 234.564L41.734 228.6H42.508L44.14 237H43.114L41.932 230.904L39.802 236.544H39.136L37.006 230.904L35.83 237H34.804Z" fill="#EFEFE4"/>
<path d="M177.752 237V229.608H176.81L177.092 228.6H178.76V237H177.752ZM182.693 237.156C182.185 237.156 181.733 237.042 181.337 236.814C180.945 236.582 180.637 236.274 180.413 235.89C180.189 235.502 180.077 235.072 180.077 234.6H181.085C181.085 234.884 181.151 235.144 181.283 235.38C181.415 235.612 181.601 235.798 181.841 235.938C182.081 236.078 182.365 236.148 182.693 236.148C182.977 236.148 183.241 236.078 183.485 235.938C183.733 235.798 183.933 235.612 184.085 235.38C184.237 235.144 184.313 234.884 184.313 234.6C184.313 234.244 184.221 233.948 184.037 233.712C183.857 233.472 183.605 233.294 183.281 233.178C182.961 233.058 182.595 232.998 182.183 232.998V232.188C182.751 232.188 183.205 232.07 183.545 231.834C183.889 231.598 184.061 231.25 184.061 230.79C184.061 230.546 183.995 230.322 183.863 230.118C183.731 229.914 183.557 229.752 183.341 229.632C183.129 229.508 182.901 229.446 182.657 229.446C182.409 229.446 182.171 229.508 181.943 229.632C181.715 229.752 181.529 229.914 181.385 230.118C181.241 230.322 181.169 230.546 181.169 230.79H180.161C180.161 230.466 180.227 230.162 180.359 229.878C180.495 229.594 180.679 229.344 180.911 229.128C181.147 228.912 181.413 228.744 181.709 228.624C182.005 228.5 182.317 228.438 182.645 228.438C183.073 228.438 183.471 228.544 183.839 228.756C184.207 228.968 184.503 229.252 184.727 229.608C184.955 229.964 185.069 230.358 185.069 230.79C185.069 231.178 184.971 231.536 184.775 231.864C184.579 232.192 184.313 232.422 183.977 232.554C184.269 232.654 184.515 232.81 184.715 233.022C184.915 233.23 185.065 233.47 185.165 233.742C185.269 234.014 185.321 234.3 185.321 234.6C185.321 235.068 185.199 235.496 184.955 235.884C184.715 236.272 184.395 236.582 183.995 236.814C183.599 237.042 183.165 237.156 182.693 237.156ZM186.708 232.104C186.556 232.104 186.426 232.05 186.318 231.942C186.214 231.834 186.162 231.702 186.162 231.546C186.162 231.398 186.214 231.27 186.318 231.162C186.426 231.054 186.556 231 186.708 231C186.864 231 186.996 231.054 187.104 231.162C187.212 231.27 187.266 231.398 187.266 231.546C187.266 231.702 187.212 231.834 187.104 231.942C186.996 232.05 186.864 232.104 186.708 232.104ZM186.708 237.156C186.556 237.156 186.426 237.102 186.318 236.994C186.214 236.886 186.162 236.754 186.162 236.598C186.162 236.45 186.214 236.322 186.318 236.214C186.426 236.106 186.556 236.052 186.708 236.052C186.864 236.052 186.996 236.106 187.104 236.214C187.212 236.322 187.266 236.45 187.266 236.598C187.266 236.754 187.212 236.886 187.104 236.994C186.996 237.102 186.864 237.156 186.708 237.156ZM191.584 237.156C191.084 237.156 190.636 237.044 190.24 236.82C189.844 236.592 189.504 236.278 189.22 235.878C188.936 235.478 188.72 235.016 188.572 234.492C188.424 233.964 188.35 233.4 188.35 232.8C188.35 232.2 188.424 231.636 188.572 231.108C188.72 230.58 188.936 230.118 189.22 229.722C189.504 229.322 189.844 229.01 190.24 228.786C190.636 228.558 191.084 228.444 191.584 228.444C192.08 228.444 192.526 228.558 192.922 228.786C193.322 229.01 193.66 229.322 193.936 229.722C194.216 230.118 194.43 230.58 194.578 231.108C194.73 231.636 194.806 232.2 194.806 232.8C194.806 233.4 194.73 233.964 194.578 234.492C194.43 235.016 194.216 235.478 193.936 235.878C193.66 236.278 193.322 236.592 192.922 236.82C192.526 237.044 192.08 237.156 191.584 237.156ZM191.584 236.148C192.084 236.148 192.502 235.994 192.838 235.686C193.178 235.374 193.432 234.964 193.6 234.456C193.768 233.948 193.852 233.396 193.852 232.8C193.852 232.172 193.764 231.606 193.588 231.102C193.416 230.594 193.16 230.192 192.82 229.896C192.484 229.6 192.072 229.452 191.584 229.452C191.2 229.452 190.864 229.542 190.576 229.722C190.292 229.902 190.056 230.148 189.868 230.46C189.68 230.772 189.538 231.13 189.442 231.534C189.35 231.934 189.304 232.356 189.304 232.8C189.304 233.396 189.39 233.95 189.562 234.462C189.734 234.97 189.988 235.378 190.324 235.686C190.664 235.994 191.084 236.148 191.584 236.148ZM198.592 237.156C198.092 237.156 197.644 237.044 197.248 236.82C196.852 236.592 196.512 236.278 196.228 235.878C195.944 235.478 195.728 235.016 195.58 234.492C195.432 233.964 195.358 233.4 195.358 232.8C195.358 232.2 195.432 231.636 195.58 231.108C195.728 230.58 195.944 230.118 196.228 229.722C196.512 229.322 196.852 229.01 197.248 228.786C197.644 228.558 198.092 228.444 198.592 228.444C199.088 228.444 199.534 228.558 199.93 228.786C200.33 229.01 200.668 229.322 200.944 229.722C201.224 230.118 201.438 230.58 201.586 231.108C201.738 231.636 201.814 232.2 201.814 232.8C201.814 233.4 201.738 233.964 201.586 234.492C201.438 235.016 201.224 235.478 200.944 235.878C200.668 236.278 200.33 236.592 199.93 236.82C199.534 237.044 199.088 237.156 198.592 237.156ZM198.592 236.148C199.092 236.148 199.51 235.994 199.846 235.686C200.186 235.374 200.44 234.964 200.608 234.456C200.776 233.948 200.86 233.396 200.86 232.8C200.86 232.172 200.772 231.606 200.596 231.102C200.424 230.594 200.168 230.192 199.828 229.896C199.492 229.6 199.08 229.452 198.592 229.452C198.208 229.452 197.872 229.542 197.584 229.722C197.3 229.902 197.064 230.148 196.876 230.46C196.688 230.772 196.546 231.13 196.45 231.534C196.358 231.934 196.312 232.356 196.312 232.8C196.312 233.396 196.398 233.95 196.57 234.462C196.742 234.97 196.996 235.378 197.332 235.686C197.672 235.994 198.092 236.148 198.592 236.148ZM205.773 237V228.6H208.545C208.997 228.6 209.403 228.71 209.763 228.93C210.127 229.15 210.415 229.448 210.627 229.824C210.843 230.196 210.951 230.612 210.951 231.072C210.951 231.54 210.841 231.962 210.621 232.338C210.405 232.71 210.113 233.006 209.745 233.226C209.381 233.442 208.981 233.55 208.545 233.55H206.781V237H205.773ZM206.781 232.542H208.455C208.727 232.542 208.975 232.476 209.199 232.344C209.427 232.208 209.607 232.026 209.739 231.798C209.875 231.566 209.943 231.306 209.943 231.018C209.943 230.726 209.875 230.466 209.739 230.238C209.607 230.006 209.427 229.824 209.199 229.692C208.975 229.556 208.727 229.488 208.455 229.488H206.781V232.542ZM211.609 237L213.235 228.6H214.009L216.277 234.564L218.539 228.6H219.313L220.945 237H219.919L218.737 230.904L216.607 236.544H215.941L213.811 230.904L212.635 237H211.609Z" fill="#EFEFE4"/>
<path d="M354.752 237V229.608H353.81L354.092 228.6H355.76V237H354.752ZM359.693 237.156C359.185 237.156 358.733 237.042 358.337 236.814C357.945 236.582 357.637 236.274 357.413 235.89C357.189 235.502 357.077 235.072 357.077 234.6H358.085C358.085 234.884 358.151 235.144 358.283 235.38C358.415 235.612 358.601 235.798 358.841 235.938C359.081 236.078 359.365 236.148 359.693 236.148C359.977 236.148 360.241 236.078 360.485 235.938C360.733 235.798 360.933 235.612 361.085 235.38C361.237 235.144 361.313 234.884 361.313 234.6C361.313 234.244 361.221 233.948 361.037 233.712C360.857 233.472 360.605 233.294 360.281 233.178C359.961 233.058 359.595 232.998 359.183 232.998V232.188C359.751 232.188 360.205 232.07 360.545 231.834C360.889 231.598 361.061 231.25 361.061 230.79C361.061 230.546 360.995 230.322 360.863 230.118C360.731 229.914 360.557 229.752 360.341 229.632C360.129 229.508 359.901 229.446 359.657 229.446C359.409 229.446 359.171 229.508 358.943 229.632C358.715 229.752 358.529 229.914 358.385 230.118C358.241 230.322 358.169 230.546 358.169 230.79H357.161C357.161 230.466 357.227 230.162 357.359 229.878C357.495 229.594 357.679 229.344 357.911 229.128C358.147 228.912 358.413 228.744 358.709 228.624C359.005 228.5 359.317 228.438 359.645 228.438C360.073 228.438 360.471 228.544 360.839 228.756C361.207 228.968 361.503 229.252 361.727 229.608C361.955 229.964 362.069 230.358 362.069 230.79C362.069 231.178 361.971 231.536 361.775 231.864C361.579 232.192 361.313 232.422 360.977 232.554C361.269 232.654 361.515 232.81 361.715 233.022C361.915 233.23 362.065 233.47 362.165 233.742C362.269 234.014 362.321 234.3 362.321 234.6C362.321 235.068 362.199 235.496 361.955 235.884C361.715 236.272 361.395 236.582 360.995 236.814C360.599 237.042 360.165 237.156 359.693 237.156ZM363.708 232.104C363.556 232.104 363.426 232.05 363.318 231.942C363.214 231.834 363.162 231.702 363.162 231.546C363.162 231.398 363.214 231.27 363.318 231.162C363.426 231.054 363.556 231 363.708 231C363.864 231 363.996 231.054 364.104 231.162C364.212 231.27 364.266 231.398 364.266 231.546C364.266 231.702 364.212 231.834 364.104 231.942C363.996 232.05 363.864 232.104 363.708 232.104ZM363.708 237.156C363.556 237.156 363.426 237.102 363.318 236.994C363.214 236.886 363.162 236.754 363.162 236.598C363.162 236.45 363.214 236.322 363.318 236.214C363.426 236.106 363.556 236.052 363.708 236.052C363.864 236.052 363.996 236.106 364.104 236.214C364.212 236.322 364.266 236.45 364.266 236.598C364.266 236.754 364.212 236.886 364.104 236.994C363.996 237.102 363.864 237.156 363.708 237.156ZM368.584 237.156C368.084 237.156 367.636 237.044 367.24 236.82C366.844 236.592 366.504 236.278 366.22 235.878C365.936 235.478 365.72 235.016 365.572 234.492C365.424 233.964 365.35 233.4 365.35 232.8C365.35 232.2 365.424 231.636 365.572 231.108C365.72 230.58 365.936 230.118 366.22 229.722C366.504 229.322 366.844 229.01 367.24 228.786C367.636 228.558 368.084 228.444 368.584 228.444C369.08 228.444 369.526 228.558 369.922 228.786C370.322 229.01 370.66 229.322 370.936 229.722C371.216 230.118 371.43 230.58 371.578 231.108C371.73 231.636 371.806 232.2 371.806 232.8C371.806 233.4 371.73 233.964 371.578 234.492C371.43 235.016 371.216 235.478 370.936 235.878C370.66 236.278 370.322 236.592 369.922 236.82C369.526 237.044 369.08 237.156 368.584 237.156ZM368.584 236.148C369.084 236.148 369.502 235.994 369.838 235.686C370.178 235.374 370.432 234.964 370.6 234.456C370.768 233.948 370.852 233.396 370.852 232.8C370.852 232.172 370.764 231.606 370.588 231.102C370.416 230.594 370.16 230.192 369.82 229.896C369.484 229.6 369.072 229.452 368.584 229.452C368.2 229.452 367.864 229.542 367.576 229.722C367.292 229.902 367.056 230.148 366.868 230.46C366.68 230.772 366.538 231.13 366.442 231.534C366.35 231.934 366.304 232.356 366.304 232.8C366.304 233.396 366.39 233.95 366.562 234.462C366.734 234.97 366.988 235.378 367.324 235.686C367.664 235.994 368.084 236.148 368.584 236.148ZM375.592 237.156C375.092 237.156 374.644 237.044 374.248 236.82C373.852 236.592 373.512 236.278 373.228 235.878C372.944 235.478 372.728 235.016 372.58 234.492C372.432 233.964 372.358 233.4 372.358 232.8C372.358 232.2 372.432 231.636 372.58 231.108C372.728 230.58 372.944 230.118 373.228 229.722C373.512 229.322 373.852 229.01 374.248 228.786C374.644 228.558 375.092 228.444 375.592 228.444C376.088 228.444 376.534 228.558 376.93 228.786C377.33 229.01 377.668 229.322 377.944 229.722C378.224 230.118 378.438 230.58 378.586 231.108C378.738 231.636 378.814 232.2 378.814 232.8C378.814 233.4 378.738 233.964 378.586 234.492C378.438 235.016 378.224 235.478 377.944 235.878C377.668 236.278 377.33 236.592 376.93 236.82C376.534 237.044 376.088 237.156 375.592 237.156ZM375.592 236.148C376.092 236.148 376.51 235.994 376.846 235.686C377.186 235.374 377.44 234.964 377.608 234.456C377.776 233.948 377.86 233.396 377.86 232.8C377.86 232.172 377.772 231.606 377.596 231.102C377.424 230.594 377.168 230.192 376.828 229.896C376.492 229.6 376.08 229.452 375.592 229.452C375.208 229.452 374.872 229.542 374.584 229.722C374.3 229.902 374.064 230.148 373.876 230.46C373.688 230.772 373.546 231.13 373.45 231.534C373.358 231.934 373.312 232.356 373.312 232.8C373.312 233.396 373.398 233.95 373.57 234.462C373.742 234.97 373.996 235.378 374.332 235.686C374.672 235.994 375.092 236.148 375.592 236.148ZM382.773 237V228.6H385.545C385.997 228.6 386.403 228.71 386.763 228.93C387.127 229.15 387.415 229.448 387.627 229.824C387.843 230.196 387.951 230.612 387.951 231.072C387.951 231.54 387.841 231.962 387.621 232.338C387.405 232.71 387.113 233.006 386.745 233.226C386.381 233.442 385.981 233.55 385.545 233.55H383.781V237H382.773ZM383.781 232.542H385.455C385.727 232.542 385.975 232.476 386.199 232.344C386.427 232.208 386.607 232.026 386.739 231.798C386.875 231.566 386.943 231.306 386.943 231.018C386.943 230.726 386.875 230.466 386.739 230.238C386.607 230.006 386.427 229.824 386.199 229.692C385.975 229.556 385.727 229.488 385.455 229.488H383.781V232.542ZM388.609 237L390.235 228.6H391.009L393.277 234.564L395.539 228.6H396.313L397.945 237H396.919L395.737 230.904L393.607 236.544H392.941L390.811 230.904L389.635 237H388.609Z" fill="#EFEFE4"/>
<path d="M531.752 237V229.608H530.81L531.092 228.6H532.76V237H531.752ZM536.693 237.156C536.185 237.156 535.733 237.042 535.337 236.814C534.945 236.582 534.637 236.274 534.413 235.89C534.189 235.502 534.077 235.072 534.077 234.6H535.085C535.085 234.884 535.151 235.144 535.283 235.38C535.415 235.612 535.601 235.798 535.841 235.938C536.081 236.078 536.365 236.148 536.693 236.148C536.977 236.148 537.241 236.078 537.485 235.938C537.733 235.798 537.933 235.612 538.085 235.38C538.237 235.144 538.313 234.884 538.313 234.6C538.313 234.244 538.221 233.948 538.037 233.712C537.857 233.472 537.605 233.294 537.281 233.178C536.961 233.058 536.595 232.998 536.183 232.998V232.188C536.751 232.188 537.205 232.07 537.545 231.834C537.889 231.598 538.061 231.25 538.061 230.79C538.061 230.546 537.995 230.322 537.863 230.118C537.731 229.914 537.557 229.752 537.341 229.632C537.129 229.508 536.901 229.446 536.657 229.446C536.409 229.446 536.171 229.508 535.943 229.632C535.715 229.752 535.529 229.914 535.385 230.118C535.241 230.322 535.169 230.546 535.169 230.79H534.161C534.161 230.466 534.227 230.162 534.359 229.878C534.495 229.594 534.679 229.344 534.911 229.128C535.147 228.912 535.413 228.744 535.709 228.624C536.005 228.5 536.317 228.438 536.645 228.438C537.073 228.438 537.471 228.544 537.839 228.756C538.207 228.968 538.503 229.252 538.727 229.608C538.955 229.964 539.069 230.358 539.069 230.79C539.069 231.178 538.971 231.536 538.775 231.864C538.579 232.192 538.313 232.422 537.977 232.554C538.269 232.654 538.515 232.81 538.715 233.022C538.915 233.23 539.065 233.47 539.165 233.742C539.269 234.014 539.321 234.3 539.321 234.6C539.321 235.068 539.199 235.496 538.955 235.884C538.715 236.272 538.395 236.582 537.995 236.814C537.599 237.042 537.165 237.156 536.693 237.156ZM540.708 232.104C540.556 232.104 540.426 232.05 540.318 231.942C540.214 231.834 540.162 231.702 540.162 231.546C540.162 231.398 540.214 231.27 540.318 231.162C540.426 231.054 540.556 231 540.708 231C540.864 231 540.996 231.054 541.104 231.162C541.212 231.27 541.266 231.398 541.266 231.546C541.266 231.702 541.212 231.834 541.104 231.942C540.996 232.05 540.864 232.104 540.708 232.104ZM540.708 237.156C540.556 237.156 540.426 237.102 540.318 236.994C540.214 236.886 540.162 236.754 540.162 236.598C540.162 236.45 540.214 236.322 540.318 236.214C540.426 236.106 540.556 236.052 540.708 236.052C540.864 236.052 540.996 236.106 541.104 236.214C541.212 236.322 541.266 236.45 541.266 236.598C541.266 236.754 541.212 236.886 541.104 236.994C540.996 237.102 540.864 237.156 540.708 237.156ZM545.584 237.156C545.084 237.156 544.636 237.044 544.24 236.82C543.844 236.592 543.504 236.278 543.22 235.878C542.936 235.478 542.72 235.016 542.572 234.492C542.424 233.964 542.35 233.4 542.35 232.8C542.35 232.2 542.424 231.636 542.572 231.108C542.72 230.58 542.936 230.118 543.22 229.722C543.504 229.322 543.844 229.01 544.24 228.786C544.636 228.558 545.084 228.444 545.584 228.444C546.08 228.444 546.526 228.558 546.922 228.786C547.322 229.01 547.66 229.322 547.936 229.722C548.216 230.118 548.43 230.58 548.578 231.108C548.73 231.636 548.806 232.2 548.806 232.8C548.806 233.4 548.73 233.964 548.578 234.492C548.43 235.016 548.216 235.478 547.936 235.878C547.66 236.278 547.322 236.592 546.922 236.82C546.526 237.044 546.08 237.156 545.584 237.156ZM545.584 236.148C546.084 236.148 546.502 235.994 546.838 235.686C547.178 235.374 547.432 234.964 547.6 234.456C547.768 233.948 547.852 233.396 547.852 232.8C547.852 232.172 547.764 231.606 547.588 231.102C547.416 230.594 547.16 230.192 546.82 229.896C546.484 229.6 546.072 229.452 545.584 229.452C545.2 229.452 544.864 229.542 544.576 229.722C544.292 229.902 544.056 230.148 543.868 230.46C543.68 230.772 543.538 231.13 543.442 231.534C543.35 231.934 543.304 232.356 543.304 232.8C543.304 233.396 543.39 233.95 543.562 234.462C543.734 234.97 543.988 235.378 544.324 235.686C544.664 235.994 545.084 236.148 545.584 236.148ZM552.592 237.156C552.092 237.156 551.644 237.044 551.248 236.82C550.852 236.592 550.512 236.278 550.228 235.878C549.944 235.478 549.728 235.016 549.58 234.492C549.432 233.964 549.358 233.4 549.358 232.8C549.358 232.2 549.432 231.636 549.58 231.108C549.728 230.58 549.944 230.118 550.228 229.722C550.512 229.322 550.852 229.01 551.248 228.786C551.644 228.558 552.092 228.444 552.592 228.444C553.088 228.444 553.534 228.558 553.93 228.786C554.33 229.01 554.668 229.322 554.944 229.722C555.224 230.118 555.438 230.58 555.586 231.108C555.738 231.636 555.814 232.2 555.814 232.8C555.814 233.4 555.738 233.964 555.586 234.492C555.438 235.016 555.224 235.478 554.944 235.878C554.668 236.278 554.33 236.592 553.93 236.82C553.534 237.044 553.088 237.156 552.592 237.156ZM552.592 236.148C553.092 236.148 553.51 235.994 553.846 235.686C554.186 235.374 554.44 234.964 554.608 234.456C554.776 233.948 554.86 233.396 554.86 232.8C554.86 232.172 554.772 231.606 554.596 231.102C554.424 230.594 554.168 230.192 553.828 229.896C553.492 229.6 553.08 229.452 552.592 229.452C552.208 229.452 551.872 229.542 551.584 229.722C551.3 229.902 551.064 230.148 550.876 230.46C550.688 230.772 550.546 231.13 550.45 231.534C550.358 231.934 550.312 232.356 550.312 232.8C550.312 233.396 550.398 233.95 550.57 234.462C550.742 234.97 550.996 235.378 551.332 235.686C551.672 235.994 552.092 236.148 552.592 236.148ZM559.773 237V228.6H562.545C562.997 228.6 563.403 228.71 563.763 228.93C564.127 229.15 564.415 229.448 564.627 229.824C564.843 230.196 564.951 230.612 564.951 231.072C564.951 231.54 564.841 231.962 564.621 232.338C564.405 232.71 564.113 233.006 563.745 233.226C563.381 233.442 562.981 233.55 562.545 233.55H560.781V237H559.773ZM560.781 232.542H562.455C562.727 232.542 562.975 232.476 563.199 232.344C563.427 232.208 563.607 232.026 563.739 231.798C563.875 231.566 563.943 231.306 563.943 231.018C563.943 230.726 563.875 230.466 563.739 230.238C563.607 230.006 563.427 229.824 563.199 229.692C562.975 229.556 562.727 229.488 562.455 229.488H560.781V232.542ZM565.609 237L567.235 228.6H568.009L570.277 234.564L572.539 228.6H573.313L574.945 237H573.919L572.737 230.904L570.607 236.544H569.941L567.811 230.904L566.635 237H565.609Z" fill="#EFEFE4"/>
<path d="M708.752 237V229.608H707.81L708.092 228.6H709.76V237H708.752ZM713.693 237.156C713.185 237.156 712.733 237.042 712.337 236.814C711.945 236.582 711.637 236.274 711.413 235.89C711.189 235.502 711.077 235.072 711.077 234.6H712.085C712.085 234.884 712.151 235.144 712.283 235.38C712.415 235.612 712.601 235.798 712.841 235.938C713.081 236.078 713.365 236.148 713.693 236.148C713.977 236.148 714.241 236.078 714.485 235.938C714.733 235.798 714.933 235.612 715.085 235.38C715.237 235.144 715.313 234.884 715.313 234.6C715.313 234.244 715.221 233.948 715.037 233.712C714.857 233.472 714.605 233.294 714.281 233.178C713.961 233.058 713.595 232.998 713.183 232.998V232.188C713.751 232.188 714.205 232.07 714.545 231.834C714.889 231.598 715.061 231.25 715.061 230.79C715.061 230.546 714.995 230.322 714.863 230.118C714.731 229.914 714.557 229.752 714.341 229.632C714.129 229.508 713.901 229.446 713.657 229.446C713.409 229.446 713.171 229.508 712.943 229.632C712.715 229.752 712.529 229.914 712.385 230.118C712.241 230.322 712.169 230.546 712.169 230.79H711.161C711.161 230.466 711.227 230.162 711.359 229.878C711.495 229.594 711.679 229.344 711.911 229.128C712.147 228.912 712.413 228.744 712.709 228.624C713.005 228.5 713.317 228.438 713.645 228.438C714.073 228.438 714.471 228.544 714.839 228.756C715.207 228.968 715.503 229.252 715.727 229.608C715.955 229.964 716.069 230.358 716.069 230.79C716.069 231.178 715.971 231.536 715.775 231.864C715.579 232.192 715.313 232.422 714.977 232.554C715.269 232.654 715.515 232.81 715.715 233.022C715.915 233.23 716.065 233.47 716.165 233.742C716.269 234.014 716.321 234.3 716.321 234.6C716.321 235.068 716.199 235.496 715.955 235.884C715.715 236.272 715.395 236.582 714.995 236.814C714.599 237.042 714.165 237.156 713.693 237.156ZM717.708 232.104C717.556 232.104 717.426 232.05 717.318 231.942C717.214 231.834 717.162 231.702 717.162 231.546C717.162 231.398 717.214 231.27 717.318 231.162C717.426 231.054 717.556 231 717.708 231C717.864 231 717.996 231.054 718.104 231.162C718.212 231.27 718.266 231.398 718.266 231.546C718.266 231.702 718.212 231.834 718.104 231.942C717.996 232.05 717.864 232.104 717.708 232.104ZM717.708 237.156C717.556 237.156 717.426 237.102 717.318 236.994C717.214 236.886 717.162 236.754 717.162 236.598C717.162 236.45 717.214 236.322 717.318 236.214C717.426 236.106 717.556 236.052 717.708 236.052C717.864 236.052 717.996 236.106 718.104 236.214C718.212 236.322 718.266 236.45 718.266 236.598C718.266 236.754 718.212 236.886 718.104 236.994C717.996 237.102 717.864 237.156 717.708 237.156ZM722.584 237.156C722.084 237.156 721.636 237.044 721.24 236.82C720.844 236.592 720.504 236.278 720.22 235.878C719.936 235.478 719.72 235.016 719.572 234.492C719.424 233.964 719.35 233.4 719.35 232.8C719.35 232.2 719.424 231.636 719.572 231.108C719.72 230.58 719.936 230.118 720.22 229.722C720.504 229.322 720.844 229.01 721.24 228.786C721.636 228.558 722.084 228.444 722.584 228.444C723.08 228.444 723.526 228.558 723.922 228.786C724.322 229.01 724.66 229.322 724.936 229.722C725.216 230.118 725.43 230.58 725.578 231.108C725.73 231.636 725.806 232.2 725.806 232.8C725.806 233.4 725.73 233.964 725.578 234.492C725.43 235.016 725.216 235.478 724.936 235.878C724.66 236.278 724.322 236.592 723.922 236.82C723.526 237.044 723.08 237.156 722.584 237.156ZM722.584 236.148C723.084 236.148 723.502 235.994 723.838 235.686C724.178 235.374 724.432 234.964 724.6 234.456C724.768 233.948 724.852 233.396 724.852 232.8C724.852 232.172 724.764 231.606 724.588 231.102C724.416 230.594 724.16 230.192 723.82 229.896C723.484 229.6 723.072 229.452 722.584 229.452C722.2 229.452 721.864 229.542 721.576 229.722C721.292 229.902 721.056 230.148 720.868 230.46C720.68 230.772 720.538 231.13 720.442 231.534C720.35 231.934 720.304 232.356 720.304 232.8C720.304 233.396 720.39 233.95 720.562 234.462C720.734 234.97 720.988 235.378 721.324 235.686C721.664 235.994 722.084 236.148 722.584 236.148ZM729.592 237.156C729.092 237.156 728.644 237.044 728.248 236.82C727.852 236.592 727.512 236.278 727.228 235.878C726.944 235.478 726.728 235.016 726.58 234.492C726.432 233.964 726.358 233.4 726.358 232.8C726.358 232.2 726.432 231.636 726.58 231.108C726.728 230.58 726.944 230.118 727.228 229.722C727.512 229.322 727.852 229.01 728.248 228.786C728.644 228.558 729.092 228.444 729.592 228.444C730.088 228.444 730.534 228.558 730.93 228.786C731.33 229.01 731.668 229.322 731.944 229.722C732.224 230.118 732.438 230.58 732.586 231.108C732.738 231.636 732.814 232.2 732.814 232.8C732.814 233.4 732.738 233.964 732.586 234.492C732.438 235.016 732.224 235.478 731.944 235.878C731.668 236.278 731.33 236.592 730.93 236.82C730.534 237.044 730.088 237.156 729.592 237.156ZM729.592 236.148C730.092 236.148 730.51 235.994 730.846 235.686C731.186 235.374 731.44 234.964 731.608 234.456C731.776 233.948 731.86 233.396 731.86 232.8C731.86 232.172 731.772 231.606 731.596 231.102C731.424 230.594 731.168 230.192 730.828 229.896C730.492 229.6 730.08 229.452 729.592 229.452C729.208 229.452 728.872 229.542 728.584 229.722C728.3 229.902 728.064 230.148 727.876 230.46C727.688 230.772 727.546 231.13 727.45 231.534C727.358 231.934 727.312 232.356 727.312 232.8C727.312 233.396 727.398 233.95 727.57 234.462C727.742 234.97 727.996 235.378 728.332 235.686C728.672 235.994 729.092 236.148 729.592 236.148ZM736.773 237V228.6H739.545C739.997 228.6 740.403 228.71 740.763 228.93C741.127 229.15 741.415 229.448 741.627 229.824C741.843 230.196 741.951 230.612 741.951 231.072C741.951 231.54 741.841 231.962 741.621 232.338C741.405 232.71 741.113 233.006 740.745 233.226C740.381 233.442 739.981 233.55 739.545 233.55H737.781V237H736.773ZM737.781 232.542H739.455C739.727 232.542 739.975 232.476 740.199 232.344C740.427 232.208 740.607 232.026 740.739 231.798C740.875 231.566 740.943 231.306 740.943 231.018C740.943 230.726 740.875 230.466 740.739 230.238C740.607 230.006 740.427 229.824 740.199 229.692C739.975 229.556 739.727 229.488 739.455 229.488H737.781V232.542ZM742.609 237L744.235 228.6H745.009L747.277 234.564L749.539 228.6H750.313L751.945 237H750.919L749.737 230.904L747.607 236.544H746.941L744.811 230.904L743.635 237H742.609Z" fill="#EFEFE4"/>
<path d="M885.752 237V229.608H884.81L885.092 228.6H886.76V237H885.752ZM890.693 237.156C890.185 237.156 889.733 237.042 889.337 236.814C888.945 236.582 888.637 236.274 888.413 235.89C888.189 235.502 888.077 235.072 888.077 234.6H889.085C889.085 234.884 889.151 235.144 889.283 235.38C889.415 235.612 889.601 235.798 889.841 235.938C890.081 236.078 890.365 236.148 890.693 236.148C890.977 236.148 891.241 236.078 891.485 235.938C891.733 235.798 891.933 235.612 892.085 235.38C892.237 235.144 892.313 234.884 892.313 234.6C892.313 234.244 892.221 233.948 892.037 233.712C891.857 233.472 891.605 233.294 891.281 233.178C890.961 233.058 890.595 232.998 890.183 232.998V232.188C890.751 232.188 891.205 232.07 891.545 231.834C891.889 231.598 892.061 231.25 892.061 230.79C892.061 230.546 891.995 230.322 891.863 230.118C891.731 229.914 891.557 229.752 891.341 229.632C891.129 229.508 890.901 229.446 890.657 229.446C890.409 229.446 890.171 229.508 889.943 229.632C889.715 229.752 889.529 229.914 889.385 230.118C889.241 230.322 889.169 230.546 889.169 230.79H888.161C888.161 230.466 888.227 230.162 888.359 229.878C888.495 229.594 888.679 229.344 888.911 229.128C889.147 228.912 889.413 228.744 889.709 228.624C890.005 228.5 890.317 228.438 890.645 228.438C891.073 228.438 891.471 228.544 891.839 228.756C892.207 228.968 892.503 229.252 892.727 229.608C892.955 229.964 893.069 230.358 893.069 230.79C893.069 231.178 892.971 231.536 892.775 231.864C892.579 232.192 892.313 232.422 891.977 232.554C892.269 232.654 892.515 232.81 892.715 233.022C892.915 233.23 893.065 233.47 893.165 233.742C893.269 234.014 893.321 234.3 893.321 234.6C893.321 235.068 893.199 235.496 892.955 235.884C892.715 236.272 892.395 236.582 891.995 236.814C891.599 237.042 891.165 237.156 890.693 237.156ZM894.708 232.104C894.556 232.104 894.426 232.05 894.318 231.942C894.214 231.834 894.162 231.702 894.162 231.546C894.162 231.398 894.214 231.27 894.318 231.162C894.426 231.054 894.556 231 894.708 231C894.864 231 894.996 231.054 895.104 231.162C895.212 231.27 895.266 231.398 895.266 231.546C895.266 231.702 895.212 231.834 895.104 231.942C894.996 232.05 894.864 232.104 894.708 232.104ZM894.708 237.156C894.556 237.156 894.426 237.102 894.318 236.994C894.214 236.886 894.162 236.754 894.162 236.598C894.162 236.45 894.214 236.322 894.318 236.214C894.426 236.106 894.556 236.052 894.708 236.052C894.864 236.052 894.996 236.106 895.104 236.214C895.212 236.322 895.266 236.45 895.266 236.598C895.266 236.754 895.212 236.886 895.104 236.994C894.996 237.102 894.864 237.156 894.708 237.156ZM899.584 237.156C899.084 237.156 898.636 237.044 898.24 236.82C897.844 236.592 897.504 236.278 897.22 235.878C896.936 235.478 896.72 235.016 896.572 234.492C896.424 233.964 896.35 233.4 896.35 232.8C896.35 232.2 896.424 231.636 896.572 231.108C896.72 230.58 896.936 230.118 897.22 229.722C897.504 229.322 897.844 229.01 898.24 228.786C898.636 228.558 899.084 228.444 899.584 228.444C900.08 228.444 900.526 228.558 900.922 228.786C901.322 229.01 901.66 229.322 901.936 229.722C902.216 230.118 902.43 230.58 902.578 231.108C902.73 231.636 902.806 232.2 902.806 232.8C902.806 233.4 902.73 233.964 902.578 234.492C902.43 235.016 902.216 235.478 901.936 235.878C901.66 236.278 901.322 236.592 900.922 236.82C900.526 237.044 900.08 237.156 899.584 237.156ZM899.584 236.148C900.084 236.148 900.502 235.994 900.838 235.686C901.178 235.374 901.432 234.964 901.6 234.456C901.768 233.948 901.852 233.396 901.852 232.8C901.852 232.172 901.764 231.606 901.588 231.102C901.416 230.594 901.16 230.192 900.82 229.896C900.484 229.6 900.072 229.452 899.584 229.452C899.2 229.452 898.864 229.542 898.576 229.722C898.292 229.902 898.056 230.148 897.868 230.46C897.68 230.772 897.538 231.13 897.442 231.534C897.35 231.934 897.304 232.356 897.304 232.8C897.304 233.396 897.39 233.95 897.562 234.462C897.734 234.97 897.988 235.378 898.324 235.686C898.664 235.994 899.084 236.148 899.584 236.148ZM906.592 237.156C906.092 237.156 905.644 237.044 905.248 236.82C904.852 236.592 904.512 236.278 904.228 235.878C903.944 235.478 903.728 235.016 903.58 234.492C903.432 233.964 903.358 233.4 903.358 232.8C903.358 232.2 903.432 231.636 903.58 231.108C903.728 230.58 903.944 230.118 904.228 229.722C904.512 229.322 904.852 229.01 905.248 228.786C905.644 228.558 906.092 228.444 906.592 228.444C907.088 228.444 907.534 228.558 907.93 228.786C908.33 229.01 908.668 229.322 908.944 229.722C909.224 230.118 909.438 230.58 909.586 231.108C909.738 231.636 909.814 232.2 909.814 232.8C909.814 233.4 909.738 233.964 909.586 234.492C909.438 235.016 909.224 235.478 908.944 235.878C908.668 236.278 908.33 236.592 907.93 236.82C907.534 237.044 907.088 237.156 906.592 237.156ZM906.592 236.148C907.092 236.148 907.51 235.994 907.846 235.686C908.186 235.374 908.44 234.964 908.608 234.456C908.776 233.948 908.86 233.396 908.86 232.8C908.86 232.172 908.772 231.606 908.596 231.102C908.424 230.594 908.168 230.192 907.828 229.896C907.492 229.6 907.08 229.452 906.592 229.452C906.208 229.452 905.872 229.542 905.584 229.722C905.3 229.902 905.064 230.148 904.876 230.46C904.688 230.772 904.546 231.13 904.45 231.534C904.358 231.934 904.312 232.356 904.312 232.8C904.312 233.396 904.398 233.95 904.57 234.462C904.742 234.97 904.996 235.378 905.332 235.686C905.672 235.994 906.092 236.148 906.592 236.148ZM913.773 237V228.6H916.545C916.997 228.6 917.403 228.71 917.763 228.93C918.127 229.15 918.415 229.448 918.627 229.824C918.843 230.196 918.951 230.612 918.951 231.072C918.951 231.54 918.841 231.962 918.621 232.338C918.405 232.71 918.113 233.006 917.745 233.226C917.381 233.442 916.981 233.55 916.545 233.55H914.781V237H913.773ZM914.781 232.542H916.455C916.727 232.542 916.975 232.476 917.199 232.344C917.427 232.208 917.607 232.026 917.739 231.798C917.875 231.566 917.943 231.306 917.943 231.018C917.943 230.726 917.875 230.466 917.739 230.238C917.607 230.006 917.427 229.824 917.199 229.692C916.975 229.556 916.727 229.488 916.455 229.488H914.781V232.542ZM919.609 237L921.235 228.6H922.009L924.277 234.564L926.539 228.6H927.313L928.945 237H927.919L926.737 230.904L924.607 236.544H923.941L921.811 230.904L920.635 237H919.609Z" fill="#EFEFE4"/>
<path d="M1062.75 237V229.608H1061.81L1062.09 228.6H1063.76V237H1062.75ZM1067.69 237.156C1067.18 237.156 1066.73 237.042 1066.34 236.814C1065.94 236.582 1065.64 236.274 1065.41 235.89C1065.19 235.502 1065.08 235.072 1065.08 234.6H1066.08C1066.08 234.884 1066.15 235.144 1066.28 235.38C1066.41 235.612 1066.6 235.798 1066.84 235.938C1067.08 236.078 1067.36 236.148 1067.69 236.148C1067.98 236.148 1068.24 236.078 1068.48 235.938C1068.73 235.798 1068.93 235.612 1069.08 235.38C1069.24 235.144 1069.31 234.884 1069.31 234.6C1069.31 234.244 1069.22 233.948 1069.04 233.712C1068.86 233.472 1068.6 233.294 1068.28 233.178C1067.96 233.058 1067.59 232.998 1067.18 232.998V232.188C1067.75 232.188 1068.2 232.07 1068.54 231.834C1068.89 231.598 1069.06 231.25 1069.06 230.79C1069.06 230.546 1068.99 230.322 1068.86 230.118C1068.73 229.914 1068.56 229.752 1068.34 229.632C1068.13 229.508 1067.9 229.446 1067.66 229.446C1067.41 229.446 1067.17 229.508 1066.94 229.632C1066.71 229.752 1066.53 229.914 1066.38 230.118C1066.24 230.322 1066.17 230.546 1066.17 230.79H1065.16C1065.16 230.466 1065.23 230.162 1065.36 229.878C1065.49 229.594 1065.68 229.344 1065.91 229.128C1066.15 228.912 1066.41 228.744 1066.71 228.624C1067 228.5 1067.32 228.438 1067.64 228.438C1068.07 228.438 1068.47 228.544 1068.84 228.756C1069.21 228.968 1069.5 229.252 1069.73 229.608C1069.95 229.964 1070.07 230.358 1070.07 230.79C1070.07 231.178 1069.97 231.536 1069.77 231.864C1069.58 232.192 1069.31 232.422 1068.98 232.554C1069.27 232.654 1069.51 232.81 1069.71 233.022C1069.91 233.23 1070.06 233.47 1070.16 233.742C1070.27 234.014 1070.32 234.3 1070.32 234.6C1070.32 235.068 1070.2 235.496 1069.95 235.884C1069.71 236.272 1069.39 236.582 1068.99 236.814C1068.6 237.042 1068.16 237.156 1067.69 237.156ZM1071.71 232.104C1071.56 232.104 1071.43 232.05 1071.32 231.942C1071.21 231.834 1071.16 231.702 1071.16 231.546C1071.16 231.398 1071.21 231.27 1071.32 231.162C1071.43 231.054 1071.56 231 1071.71 231C1071.86 231 1072 231.054 1072.1 231.162C1072.21 231.27 1072.27 231.398 1072.27 231.546C1072.27 231.702 1072.21 231.834 1072.1 231.942C1072 232.05 1071.86 232.104 1071.71 232.104ZM1071.71 237.156C1071.56 237.156 1071.43 237.102 1071.32 236.994C1071.21 236.886 1071.16 236.754 1071.16 236.598C1071.16 236.45 1071.21 236.322 1071.32 236.214C1071.43 236.106 1071.56 236.052 1071.71 236.052C1071.86 236.052 1072 236.106 1072.1 236.214C1072.21 236.322 1072.27 236.45 1072.27 236.598C1072.27 236.754 1072.21 236.886 1072.1 236.994C1072 237.102 1071.86 237.156 1071.71 237.156ZM1076.58 237.156C1076.08 237.156 1075.64 237.044 1075.24 236.82C1074.84 236.592 1074.5 236.278 1074.22 235.878C1073.94 235.478 1073.72 235.016 1073.57 234.492C1073.42 233.964 1073.35 233.4 1073.35 232.8C1073.35 232.2 1073.42 231.636 1073.57 231.108C1073.72 230.58 1073.94 230.118 1074.22 229.722C1074.5 229.322 1074.84 229.01 1075.24 228.786C1075.64 228.558 1076.08 228.444 1076.58 228.444C1077.08 228.444 1077.53 228.558 1077.92 228.786C1078.32 229.01 1078.66 229.322 1078.94 229.722C1079.22 230.118 1079.43 230.58 1079.58 231.108C1079.73 231.636 1079.81 232.2 1079.81 232.8C1079.81 233.4 1079.73 233.964 1079.58 234.492C1079.43 235.016 1079.22 235.478 1078.94 235.878C1078.66 236.278 1078.32 236.592 1077.92 236.82C1077.53 237.044 1077.08 237.156 1076.58 237.156ZM1076.58 236.148C1077.08 236.148 1077.5 235.994 1077.84 235.686C1078.18 235.374 1078.43 234.964 1078.6 234.456C1078.77 233.948 1078.85 233.396 1078.85 232.8C1078.85 232.172 1078.76 231.606 1078.59 231.102C1078.42 230.594 1078.16 230.192 1077.82 229.896C1077.48 229.6 1077.07 229.452 1076.58 229.452C1076.2 229.452 1075.86 229.542 1075.58 229.722C1075.29 229.902 1075.06 230.148 1074.87 230.46C1074.68 230.772 1074.54 231.13 1074.44 231.534C1074.35 231.934 1074.3 232.356 1074.3 232.8C1074.3 233.396 1074.39 233.95 1074.56 234.462C1074.73 234.97 1074.99 235.378 1075.32 235.686C1075.66 235.994 1076.08 236.148 1076.58 236.148ZM1083.59 237.156C1083.09 237.156 1082.64 237.044 1082.25 236.82C1081.85 236.592 1081.51 236.278 1081.23 235.878C1080.94 235.478 1080.73 235.016 1080.58 234.492C1080.43 233.964 1080.36 233.4 1080.36 232.8C1080.36 232.2 1080.43 231.636 1080.58 231.108C1080.73 230.58 1080.94 230.118 1081.23 229.722C1081.51 229.322 1081.85 229.01 1082.25 228.786C1082.64 228.558 1083.09 228.444 1083.59 228.444C1084.09 228.444 1084.53 228.558 1084.93 228.786C1085.33 229.01 1085.67 229.322 1085.94 229.722C1086.22 230.118 1086.44 230.58 1086.59 231.108C1086.74 231.636 1086.81 232.2 1086.81 232.8C1086.81 233.4 1086.74 233.964 1086.59 234.492C1086.44 235.016 1086.22 235.478 1085.94 235.878C1085.67 236.278 1085.33 236.592 1084.93 236.82C1084.53 237.044 1084.09 237.156 1083.59 237.156ZM1083.59 236.148C1084.09 236.148 1084.51 235.994 1084.85 235.686C1085.19 235.374 1085.44 234.964 1085.61 234.456C1085.78 233.948 1085.86 233.396 1085.86 232.8C1085.86 232.172 1085.77 231.606 1085.6 231.102C1085.42 230.594 1085.17 230.192 1084.83 229.896C1084.49 229.6 1084.08 229.452 1083.59 229.452C1083.21 229.452 1082.87 229.542 1082.58 229.722C1082.3 229.902 1082.06 230.148 1081.88 230.46C1081.69 230.772 1081.55 231.13 1081.45 231.534C1081.36 231.934 1081.31 232.356 1081.31 232.8C1081.31 233.396 1081.4 233.95 1081.57 234.462C1081.74 234.97 1082 235.378 1082.33 235.686C1082.67 235.994 1083.09 236.148 1083.59 236.148ZM1090.77 237V228.6H1093.54C1094 228.6 1094.4 228.71 1094.76 228.93C1095.13 229.15 1095.41 229.448 1095.63 229.824C1095.84 230.196 1095.95 230.612 1095.95 231.072C1095.95 231.54 1095.84 231.962 1095.62 232.338C1095.4 232.71 1095.11 233.006 1094.74 233.226C1094.38 233.442 1093.98 233.55 1093.54 233.55H1091.78V237H1090.77ZM1091.78 232.542H1093.45C1093.73 232.542 1093.97 232.476 1094.2 232.344C1094.43 232.208 1094.61 232.026 1094.74 231.798C1094.87 231.566 1094.94 231.306 1094.94 231.018C1094.94 230.726 1094.87 230.466 1094.74 230.238C1094.61 230.006 1094.43 229.824 1094.2 229.692C1093.97 229.556 1093.73 229.488 1093.45 229.488H1091.78V232.542ZM1096.61 237L1098.23 228.6H1099.01L1101.28 234.564L1103.54 228.6H1104.31L1105.94 237H1104.92L1103.74 230.904L1101.61 236.544H1100.94L1098.81 230.904L1097.63 237H1096.61Z" fill="#EFEFE4"/>
<path d="M1239.56 237V229.608H1238.61L1238.9 228.6H1240.56V237H1239.56ZM1242.94 237V229.608H1242L1242.28 228.6H1243.95V237H1242.94ZM1245.93 232.104C1245.78 232.104 1245.65 232.05 1245.54 231.942C1245.44 231.834 1245.39 231.702 1245.39 231.546C1245.39 231.398 1245.44 231.27 1245.54 231.162C1245.65 231.054 1245.78 231 1245.93 231C1246.09 231 1246.22 231.054 1246.33 231.162C1246.44 231.27 1246.49 231.398 1246.49 231.546C1246.49 231.702 1246.44 231.834 1246.33 231.942C1246.22 232.05 1246.09 232.104 1245.93 232.104ZM1245.93 237.156C1245.78 237.156 1245.65 237.102 1245.54 236.994C1245.44 236.886 1245.39 236.754 1245.39 236.598C1245.39 236.45 1245.44 236.322 1245.54 236.214C1245.65 236.106 1245.78 236.052 1245.93 236.052C1246.09 236.052 1246.22 236.106 1246.33 236.214C1246.44 236.322 1246.49 236.45 1246.49 236.598C1246.49 236.754 1246.44 236.886 1246.33 236.994C1246.22 237.102 1246.09 237.156 1245.93 237.156ZM1250.81 237.156C1250.31 237.156 1249.86 237.044 1249.47 236.82C1249.07 236.592 1248.73 236.278 1248.45 235.878C1248.16 235.478 1247.95 235.016 1247.8 234.492C1247.65 233.964 1247.58 233.4 1247.58 232.8C1247.58 232.2 1247.65 231.636 1247.8 231.108C1247.95 230.58 1248.16 230.118 1248.45 229.722C1248.73 229.322 1249.07 229.01 1249.47 228.786C1249.86 228.558 1250.31 228.444 1250.81 228.444C1251.31 228.444 1251.75 228.558 1252.15 228.786C1252.55 229.01 1252.89 229.322 1253.16 229.722C1253.44 230.118 1253.66 230.58 1253.8 231.108C1253.96 231.636 1254.03 232.2 1254.03 232.8C1254.03 233.4 1253.96 233.964 1253.8 234.492C1253.66 235.016 1253.44 235.478 1253.16 235.878C1252.89 236.278 1252.55 236.592 1252.15 236.82C1251.75 237.044 1251.31 237.156 1250.81 237.156ZM1250.81 236.148C1251.31 236.148 1251.73 235.994 1252.06 235.686C1252.4 235.374 1252.66 234.964 1252.83 234.456C1252.99 233.948 1253.08 233.396 1253.08 232.8C1253.08 232.172 1252.99 231.606 1252.81 231.102C1252.64 230.594 1252.39 230.192 1252.05 229.896C1251.71 229.6 1251.3 229.452 1250.81 229.452C1250.43 229.452 1250.09 229.542 1249.8 229.722C1249.52 229.902 1249.28 230.148 1249.09 230.46C1248.91 230.772 1248.76 231.13 1248.67 231.534C1248.58 231.934 1248.53 232.356 1248.53 232.8C1248.53 233.396 1248.62 233.95 1248.79 234.462C1248.96 234.97 1249.21 235.378 1249.55 235.686C1249.89 235.994 1250.31 236.148 1250.81 236.148ZM1257.82 237.156C1257.32 237.156 1256.87 237.044 1256.47 236.82C1256.08 236.592 1255.74 236.278 1255.45 235.878C1255.17 235.478 1254.95 235.016 1254.81 234.492C1254.66 233.964 1254.58 233.4 1254.58 232.8C1254.58 232.2 1254.66 231.636 1254.81 231.108C1254.95 230.58 1255.17 230.118 1255.45 229.722C1255.74 229.322 1256.08 229.01 1256.47 228.786C1256.87 228.558 1257.32 228.444 1257.82 228.444C1258.31 228.444 1258.76 228.558 1259.16 228.786C1259.56 229.01 1259.89 229.322 1260.17 229.722C1260.45 230.118 1260.66 230.58 1260.81 231.108C1260.96 231.636 1261.04 232.2 1261.04 232.8C1261.04 233.4 1260.96 233.964 1260.81 234.492C1260.66 235.016 1260.45 235.478 1260.17 235.878C1259.89 236.278 1259.56 236.592 1259.16 236.82C1258.76 237.044 1258.31 237.156 1257.82 237.156ZM1257.82 236.148C1258.32 236.148 1258.74 235.994 1259.07 235.686C1259.41 235.374 1259.67 234.964 1259.83 234.456C1260 233.948 1260.09 233.396 1260.09 232.8C1260.09 232.172 1260 231.606 1259.82 231.102C1259.65 230.594 1259.39 230.192 1259.05 229.896C1258.72 229.6 1258.31 229.452 1257.82 229.452C1257.43 229.452 1257.1 229.542 1256.81 229.722C1256.53 229.902 1256.29 230.148 1256.1 230.46C1255.91 230.772 1255.77 231.13 1255.68 231.534C1255.58 231.934 1255.54 232.356 1255.54 232.8C1255.54 233.396 1255.62 233.95 1255.8 234.462C1255.97 234.97 1256.22 235.378 1256.56 235.686C1256.9 235.994 1257.32 236.148 1257.82 236.148ZM1267.81 228.6H1269.03L1272.09 237H1271.02L1270.39 235.284H1266.45L1265.83 237H1264.76L1267.81 228.6ZM1266.82 234.276H1270.02L1268.42 229.89L1266.82 234.276ZM1272.8 237L1274.43 228.6H1275.2L1277.47 234.564L1279.73 228.6H1280.51L1282.14 237H1281.11L1279.93 230.904L1277.8 236.544H1277.14L1275.01 230.904L1273.83 237H1272.8Z" fill="#EFEFE4"/>
</g>
<path d="M1330.58 13.156C1330.05 13.156 1329.56 13.024 1329.12 12.76C1328.68 12.496 1328.33 12.144 1328.07 11.704C1327.8 11.26 1327.67 10.77 1327.67 10.234C1327.67 9.934 1327.7 9.672 1327.77 9.448C1327.84 9.224 1327.95 8.982 1328.09 8.722L1330.47 4.6H1331.64L1329.94 7.546C1330.28 7.438 1330.62 7.4 1330.96 7.432C1331.3 7.464 1331.63 7.556 1331.93 7.708C1332.24 7.86 1332.51 8.06 1332.75 8.308C1332.98 8.556 1333.17 8.844 1333.3 9.172C1333.44 9.496 1333.51 9.85 1333.51 10.234C1333.51 10.638 1333.43 11.016 1333.27 11.368C1333.12 11.72 1332.91 12.03 1332.64 12.298C1332.38 12.566 1332.07 12.776 1331.71 12.928C1331.36 13.08 1330.98 13.156 1330.58 13.156ZM1330.58 12.148C1330.95 12.148 1331.28 12.058 1331.56 11.878C1331.86 11.698 1332.08 11.462 1332.25 11.17C1332.42 10.878 1332.5 10.566 1332.5 10.234C1332.5 9.886 1332.41 9.568 1332.24 9.28C1332.07 8.992 1331.84 8.762 1331.55 8.59C1331.26 8.414 1330.94 8.326 1330.59 8.326C1330.22 8.326 1329.9 8.416 1329.61 8.596C1329.32 8.776 1329.09 9.01 1328.92 9.298C1328.76 9.586 1328.68 9.898 1328.68 10.234C1328.68 10.598 1328.77 10.924 1328.94 11.212C1329.12 11.5 1329.35 11.728 1329.64 11.896C1329.93 12.064 1330.24 12.148 1330.58 12.148ZM1337.46 13.156C1336.96 13.156 1336.51 13.044 1336.11 12.82C1335.72 12.592 1335.38 12.278 1335.09 11.878C1334.81 11.478 1334.59 11.016 1334.44 10.492C1334.3 9.964 1334.22 9.4 1334.22 8.8C1334.22 8.2 1334.3 7.636 1334.44 7.108C1334.59 6.58 1334.81 6.118 1335.09 5.722C1335.38 5.322 1335.72 5.01 1336.11 4.786C1336.51 4.558 1336.96 4.444 1337.46 4.444C1337.95 4.444 1338.4 4.558 1338.79 4.786C1339.19 5.01 1339.53 5.322 1339.81 5.722C1340.09 6.118 1340.3 6.58 1340.45 7.108C1340.6 7.636 1340.68 8.2 1340.68 8.8C1340.68 9.4 1340.6 9.964 1340.45 10.492C1340.3 11.016 1340.09 11.478 1339.81 11.878C1339.53 12.278 1339.19 12.592 1338.79 12.82C1338.4 13.044 1337.95 13.156 1337.46 13.156ZM1337.46 12.148C1337.96 12.148 1338.37 11.994 1338.71 11.686C1339.05 11.374 1339.3 10.964 1339.47 10.456C1339.64 9.948 1339.72 9.396 1339.72 8.8C1339.72 8.172 1339.64 7.606 1339.46 7.102C1339.29 6.594 1339.03 6.192 1338.69 5.896C1338.36 5.6 1337.94 5.452 1337.46 5.452C1337.07 5.452 1336.74 5.542 1336.45 5.722C1336.16 5.902 1335.93 6.148 1335.74 6.46C1335.55 6.772 1335.41 7.13 1335.31 7.534C1335.22 7.934 1335.18 8.356 1335.18 8.8C1335.18 9.396 1335.26 9.95 1335.43 10.462C1335.61 10.97 1335.86 11.378 1336.2 11.686C1336.54 11.994 1336.96 12.148 1337.46 12.148ZM1341.51 13.672L1341.89 11.644H1342.89L1342.19 13.672H1341.51ZM1345.62 13L1347.42 9.904C1347 10.028 1346.58 10.05 1346.17 9.97C1345.77 9.886 1345.4 9.722 1345.07 9.478C1344.74 9.23 1344.47 8.918 1344.27 8.542C1344.07 8.166 1343.97 7.748 1343.97 7.288C1343.97 6.896 1344.05 6.528 1344.19 6.184C1344.34 5.84 1344.55 5.538 1344.81 5.278C1345.07 5.018 1345.37 4.814 1345.71 4.666C1346.05 4.518 1346.42 4.444 1346.81 4.444C1347.33 4.444 1347.8 4.572 1348.23 4.828C1348.65 5.084 1349 5.428 1349.25 5.86C1349.51 6.288 1349.64 6.764 1349.64 7.288C1349.64 7.572 1349.61 7.824 1349.53 8.044C1349.47 8.26 1349.36 8.496 1349.22 8.752L1346.79 13H1345.62ZM1346.8 9.118C1347.15 9.118 1347.47 9.034 1347.75 8.866C1348.03 8.694 1348.24 8.468 1348.4 8.188C1348.56 7.908 1348.64 7.608 1348.64 7.288C1348.64 6.94 1348.56 6.628 1348.39 6.352C1348.22 6.072 1348 5.852 1347.72 5.692C1347.44 5.528 1347.13 5.446 1346.81 5.446C1346.45 5.446 1346.14 5.532 1345.86 5.704C1345.58 5.876 1345.36 6.104 1345.2 6.388C1345.05 6.668 1344.97 6.968 1344.97 7.288C1344.97 7.624 1345.05 7.932 1345.21 8.212C1345.37 8.488 1345.59 8.708 1345.87 8.872C1346.15 9.036 1346.46 9.118 1346.8 9.118ZM1352.97 13.156C1352.47 13.156 1352.01 13.042 1351.62 12.814C1351.23 12.582 1350.92 12.274 1350.69 11.89C1350.47 11.502 1350.36 11.072 1350.36 10.6H1351.37C1351.37 10.884 1351.43 11.144 1351.56 11.38C1351.7 11.612 1351.88 11.798 1352.12 11.938C1352.36 12.078 1352.65 12.148 1352.97 12.148C1353.26 12.148 1353.52 12.078 1353.77 11.938C1354.01 11.798 1354.21 11.612 1354.37 11.38C1354.52 11.144 1354.59 10.884 1354.59 10.6C1354.59 10.244 1354.5 9.948 1354.32 9.712C1354.14 9.472 1353.89 9.294 1353.56 9.178C1353.24 9.058 1352.88 8.998 1352.46 8.998V8.188C1353.03 8.188 1353.49 8.07 1353.83 7.834C1354.17 7.598 1354.34 7.25 1354.34 6.79C1354.34 6.546 1354.28 6.322 1354.14 6.118C1354.01 5.914 1353.84 5.752 1353.62 5.632C1353.41 5.508 1353.18 5.446 1352.94 5.446C1352.69 5.446 1352.45 5.508 1352.22 5.632C1352 5.752 1351.81 5.914 1351.67 6.118C1351.52 6.322 1351.45 6.546 1351.45 6.79H1350.44C1350.44 6.466 1350.51 6.162 1350.64 5.878C1350.78 5.594 1350.96 5.344 1351.19 5.128C1351.43 4.912 1351.69 4.744 1351.99 4.624C1352.29 4.5 1352.6 4.438 1352.93 4.438C1353.35 4.438 1353.75 4.544 1354.12 4.756C1354.49 4.968 1354.78 5.252 1355.01 5.608C1355.24 5.964 1355.35 6.358 1355.35 6.79C1355.35 7.178 1355.25 7.536 1355.06 7.864C1354.86 8.192 1354.59 8.422 1354.26 8.554C1354.55 8.654 1354.8 8.81 1355 9.022C1355.2 9.23 1355.35 9.47 1355.45 9.742C1355.55 10.014 1355.6 10.3 1355.6 10.6C1355.6 11.068 1355.48 11.496 1355.24 11.884C1355 12.272 1354.68 12.582 1354.28 12.814C1353.88 13.042 1353.45 13.156 1352.97 13.156ZM1358.94 13.156C1358.43 13.156 1357.98 13.042 1357.58 12.814C1357.19 12.582 1356.88 12.274 1356.66 11.89C1356.43 11.502 1356.32 11.072 1356.32 10.6H1357.33C1357.33 10.884 1357.4 11.144 1357.53 11.38C1357.66 11.612 1357.85 11.798 1358.09 11.938C1358.33 12.078 1358.61 12.148 1358.94 12.148C1359.22 12.148 1359.49 12.078 1359.73 11.938C1359.98 11.798 1360.18 11.612 1360.33 11.38C1360.48 11.144 1360.56 10.884 1360.56 10.6C1360.56 10.244 1360.47 9.948 1360.28 9.712C1360.1 9.472 1359.85 9.294 1359.53 9.178C1359.21 9.058 1358.84 8.998 1358.43 8.998V8.188C1359 8.188 1359.45 8.07 1359.79 7.834C1360.13 7.598 1360.31 7.25 1360.31 6.79C1360.31 6.546 1360.24 6.322 1360.11 6.118C1359.98 5.914 1359.8 5.752 1359.59 5.632C1359.37 5.508 1359.15 5.446 1358.9 5.446C1358.65 5.446 1358.42 5.508 1358.19 5.632C1357.96 5.752 1357.77 5.914 1357.63 6.118C1357.49 6.322 1357.41 6.546 1357.41 6.79H1356.41C1356.41 6.466 1356.47 6.162 1356.6 5.878C1356.74 5.594 1356.92 5.344 1357.16 5.128C1357.39 4.912 1357.66 4.744 1357.95 4.624C1358.25 4.5 1358.56 4.438 1358.89 4.438C1359.32 4.438 1359.72 4.544 1360.08 4.756C1360.45 4.968 1360.75 5.252 1360.97 5.608C1361.2 5.964 1361.31 6.358 1361.31 6.79C1361.31 7.178 1361.22 7.536 1361.02 7.864C1360.82 8.192 1360.56 8.422 1360.22 8.554C1360.51 8.654 1360.76 8.81 1360.96 9.022C1361.16 9.23 1361.31 9.47 1361.41 9.742C1361.51 10.014 1361.57 10.3 1361.57 10.6C1361.57 11.068 1361.44 11.496 1361.2 11.884C1360.96 12.272 1360.64 12.582 1360.24 12.814C1359.84 13.042 1359.41 13.156 1358.94 13.156ZM1362.41 13.672L1362.78 11.644H1363.79L1363.08 13.672H1362.41ZM1367.69 13.156C1367.19 13.156 1366.74 13.042 1366.32 12.814C1365.92 12.586 1365.59 12.282 1365.35 11.902C1365.11 11.518 1364.99 11.094 1364.99 10.63C1364.99 10.198 1365.1 9.802 1365.33 9.442C1365.56 9.078 1365.85 8.79 1366.22 8.578C1365.92 8.386 1365.67 8.132 1365.48 7.816C1365.29 7.496 1365.19 7.15 1365.19 6.778C1365.19 6.346 1365.3 5.954 1365.53 5.602C1365.75 5.25 1366.06 4.97 1366.43 4.762C1366.81 4.55 1367.23 4.444 1367.69 4.444C1368.15 4.444 1368.57 4.55 1368.95 4.762C1369.33 4.97 1369.63 5.25 1369.85 5.602C1370.08 5.954 1370.19 6.346 1370.19 6.778C1370.19 7.15 1370.1 7.496 1369.91 7.816C1369.71 8.132 1369.46 8.386 1369.16 8.578C1369.54 8.79 1369.84 9.078 1370.06 9.442C1370.29 9.802 1370.4 10.198 1370.4 10.63C1370.4 11.09 1370.28 11.512 1370.04 11.896C1369.79 12.28 1369.47 12.586 1369.05 12.814C1368.65 13.042 1368.19 13.156 1367.69 13.156ZM1367.69 12.148C1368 12.148 1368.27 12.08 1368.51 11.944C1368.76 11.808 1368.96 11.626 1369.11 11.398C1369.26 11.166 1369.33 10.91 1369.33 10.63C1369.33 10.346 1369.26 10.09 1369.11 9.862C1368.96 9.634 1368.76 9.452 1368.51 9.316C1368.27 9.18 1368 9.112 1367.69 9.112C1367.39 9.112 1367.12 9.18 1366.87 9.316C1366.62 9.452 1366.42 9.634 1366.28 9.862C1366.13 10.09 1366.05 10.346 1366.05 10.63C1366.05 10.91 1366.13 11.166 1366.28 11.398C1366.42 11.626 1366.62 11.808 1366.87 11.944C1367.12 12.08 1367.39 12.148 1367.69 12.148ZM1367.69 8.104C1367.96 8.104 1368.2 8.044 1368.41 7.924C1368.63 7.804 1368.8 7.644 1368.93 7.444C1369.06 7.244 1369.13 7.022 1369.13 6.778C1369.13 6.53 1369.06 6.308 1368.93 6.112C1368.8 5.912 1368.63 5.752 1368.41 5.632C1368.2 5.512 1367.96 5.452 1367.69 5.452C1367.43 5.452 1367.19 5.512 1366.97 5.632C1366.76 5.752 1366.58 5.912 1366.45 6.112C1366.32 6.308 1366.26 6.53 1366.26 6.778C1366.26 7.022 1366.32 7.244 1366.45 7.444C1366.58 7.644 1366.76 7.804 1366.97 7.924C1367.19 8.044 1367.43 8.104 1367.69 8.104ZM1374.07 13.156C1373.57 13.156 1373.11 13.042 1372.7 12.814C1372.29 12.586 1371.96 12.282 1371.72 11.902C1371.48 11.518 1371.36 11.094 1371.36 10.63C1371.36 10.198 1371.47 9.802 1371.7 9.442C1371.93 9.078 1372.23 8.79 1372.6 8.578C1372.3 8.386 1372.05 8.132 1371.85 7.816C1371.66 7.496 1371.56 7.15 1371.56 6.778C1371.56 6.346 1371.68 5.954 1371.9 5.602C1372.13 5.25 1372.43 4.97 1372.81 4.762C1373.19 4.55 1373.61 4.444 1374.07 4.444C1374.53 4.444 1374.94 4.55 1375.32 4.762C1375.7 4.97 1376 5.25 1376.23 5.602C1376.45 5.954 1376.57 6.346 1376.57 6.778C1376.57 7.15 1376.47 7.496 1376.28 7.816C1376.09 8.132 1375.84 8.386 1375.53 8.578C1375.91 8.79 1376.21 9.078 1376.44 9.442C1376.66 9.802 1376.78 10.198 1376.78 10.63C1376.78 11.09 1376.66 11.512 1376.41 11.896C1376.17 12.28 1375.84 12.586 1375.43 12.814C1375.02 13.042 1374.57 13.156 1374.07 13.156ZM1374.07 12.148C1374.37 12.148 1374.64 12.08 1374.89 11.944C1375.14 11.808 1375.33 11.626 1375.48 11.398C1375.63 11.166 1375.7 10.91 1375.7 10.63C1375.7 10.346 1375.63 10.09 1375.48 9.862C1375.33 9.634 1375.14 9.452 1374.89 9.316C1374.64 9.18 1374.37 9.112 1374.07 9.112C1373.77 9.112 1373.49 9.18 1373.24 9.316C1373 9.452 1372.8 9.634 1372.65 9.862C1372.5 10.09 1372.43 10.346 1372.43 10.63C1372.43 10.91 1372.5 11.166 1372.65 11.398C1372.8 11.626 1373 11.808 1373.24 11.944C1373.49 12.08 1373.77 12.148 1374.07 12.148ZM1374.07 8.104C1374.33 8.104 1374.57 8.044 1374.79 7.924C1375 7.804 1375.17 7.644 1375.3 7.444C1375.43 7.244 1375.5 7.022 1375.5 6.778C1375.5 6.53 1375.43 6.308 1375.3 6.112C1375.17 5.912 1375 5.752 1374.79 5.632C1374.57 5.512 1374.33 5.452 1374.07 5.452C1373.8 5.452 1373.56 5.512 1373.35 5.632C1373.13 5.752 1372.96 5.912 1372.82 6.112C1372.7 6.308 1372.63 6.53 1372.63 6.778C1372.63 7.022 1372.7 7.244 1372.82 7.444C1372.96 7.644 1373.13 7.804 1373.35 7.924C1373.56 8.044 1373.8 8.104 1374.07 8.104ZM1380.44 13.156C1379.94 13.156 1379.49 13.042 1379.07 12.814C1378.67 12.586 1378.34 12.282 1378.1 11.902C1377.86 11.518 1377.74 11.094 1377.74 10.63C1377.74 10.198 1377.85 9.802 1378.08 9.442C1378.31 9.078 1378.6 8.79 1378.97 8.578C1378.67 8.386 1378.42 8.132 1378.23 7.816C1378.04 7.496 1377.94 7.15 1377.94 6.778C1377.94 6.346 1378.05 5.954 1378.28 5.602C1378.5 5.25 1378.81 4.97 1379.18 4.762C1379.56 4.55 1379.98 4.444 1380.44 4.444C1380.9 4.444 1381.32 4.55 1381.7 4.762C1382.08 4.97 1382.38 5.25 1382.6 5.602C1382.83 5.954 1382.94 6.346 1382.94 6.778C1382.94 7.15 1382.85 7.496 1382.66 7.816C1382.46 8.132 1382.21 8.386 1381.91 8.578C1382.29 8.79 1382.59 9.078 1382.81 9.442C1383.04 9.802 1383.15 10.198 1383.15 10.63C1383.15 11.09 1383.03 11.512 1382.79 11.896C1382.54 12.28 1382.22 12.586 1381.8 12.814C1381.4 13.042 1380.94 13.156 1380.44 13.156ZM1380.44 12.148C1380.75 12.148 1381.02 12.08 1381.26 11.944C1381.51 11.808 1381.71 11.626 1381.86 11.398C1382.01 11.166 1382.08 10.91 1382.08 10.63C1382.08 10.346 1382.01 10.09 1381.86 9.862C1381.71 9.634 1381.51 9.452 1381.26 9.316C1381.02 9.18 1380.75 9.112 1380.44 9.112C1380.14 9.112 1379.87 9.18 1379.62 9.316C1379.37 9.452 1379.17 9.634 1379.03 9.862C1378.88 10.09 1378.8 10.346 1378.8 10.63C1378.8 10.91 1378.88 11.166 1379.03 11.398C1379.17 11.626 1379.37 11.808 1379.62 11.944C1379.87 12.08 1380.14 12.148 1380.44 12.148ZM1380.44 8.104C1380.71 8.104 1380.95 8.044 1381.16 7.924C1381.38 7.804 1381.55 7.644 1381.68 7.444C1381.81 7.244 1381.88 7.022 1381.88 6.778C1381.88 6.53 1381.81 6.308 1381.68 6.112C1381.55 5.912 1381.38 5.752 1381.16 5.632C1380.95 5.512 1380.71 5.452 1380.44 5.452C1380.18 5.452 1379.94 5.512 1379.72 5.632C1379.51 5.752 1379.33 5.912 1379.2 6.112C1379.07 6.308 1379.01 6.53 1379.01 6.778C1379.01 7.022 1379.07 7.244 1379.2 7.444C1379.33 7.644 1379.51 7.804 1379.72 7.924C1379.94 8.044 1380.18 8.104 1380.44 8.104Z" fill="#EFEFE4"/>
<path d="M1330.66 79.156C1330.14 79.156 1329.66 79.03 1329.24 78.778C1328.82 78.526 1328.48 78.19 1328.23 77.77C1327.99 77.346 1327.87 76.88 1327.87 76.372H1328.87C1328.87 76.696 1328.95 76.994 1329.11 77.266C1329.27 77.534 1329.49 77.748 1329.76 77.908C1330.03 78.068 1330.33 78.148 1330.66 78.148C1330.98 78.148 1331.28 78.068 1331.54 77.908C1331.81 77.748 1332.03 77.534 1332.19 77.266C1332.35 76.994 1332.43 76.696 1332.43 76.372C1332.43 76.048 1332.35 75.75 1332.2 75.478C1332.05 75.206 1331.83 74.99 1331.54 74.83C1331.26 74.666 1330.91 74.584 1330.49 74.584H1328.42L1329.24 70.6H1333.22V71.608H1330.06L1329.67 73.576L1330.54 73.582C1331.11 73.594 1331.61 73.722 1332.04 73.966C1332.48 74.206 1332.82 74.534 1333.06 74.95C1333.31 75.362 1333.43 75.836 1333.43 76.372C1333.43 76.752 1333.36 77.112 1333.22 77.452C1333.07 77.788 1332.87 78.084 1332.62 78.34C1332.36 78.596 1332.07 78.796 1331.73 78.94C1331.4 79.084 1331.04 79.156 1330.66 79.156ZM1337.38 79.156C1336.88 79.156 1336.43 79.044 1336.04 78.82C1335.64 78.592 1335.3 78.278 1335.02 77.878C1334.73 77.478 1334.52 77.016 1334.37 76.492C1334.22 75.964 1334.15 75.4 1334.15 74.8C1334.15 74.2 1334.22 73.636 1334.37 73.108C1334.52 72.58 1334.73 72.118 1335.02 71.722C1335.3 71.322 1335.64 71.01 1336.04 70.786C1336.43 70.558 1336.88 70.444 1337.38 70.444C1337.88 70.444 1338.32 70.558 1338.72 70.786C1339.12 71.01 1339.46 71.322 1339.73 71.722C1340.01 72.118 1340.23 72.58 1340.37 73.108C1340.53 73.636 1340.6 74.2 1340.6 74.8C1340.6 75.4 1340.53 75.964 1340.37 76.492C1340.23 77.016 1340.01 77.478 1339.73 77.878C1339.46 78.278 1339.12 78.592 1338.72 78.82C1338.32 79.044 1337.88 79.156 1337.38 79.156ZM1337.38 78.148C1337.88 78.148 1338.3 77.994 1338.63 77.686C1338.97 77.374 1339.23 76.964 1339.4 76.456C1339.56 75.948 1339.65 75.396 1339.65 74.8C1339.65 74.172 1339.56 73.606 1339.38 73.102C1339.21 72.594 1338.96 72.192 1338.62 71.896C1338.28 71.6 1337.87 71.452 1337.38 71.452C1337 71.452 1336.66 71.542 1336.37 71.722C1336.09 71.902 1335.85 72.148 1335.66 72.46C1335.48 72.772 1335.33 73.13 1335.24 73.534C1335.15 73.934 1335.1 74.356 1335.1 74.8C1335.1 75.396 1335.19 75.95 1335.36 76.462C1335.53 76.97 1335.78 77.378 1336.12 77.686C1336.46 77.994 1336.88 78.148 1337.38 78.148ZM1341.44 79.672L1341.81 77.644H1342.82L1342.11 79.672H1341.44ZM1345.55 79L1347.34 75.904C1346.92 76.028 1346.51 76.05 1346.1 75.97C1345.69 75.886 1345.33 75.722 1344.99 75.478C1344.66 75.23 1344.4 74.918 1344.2 74.542C1344 74.166 1343.9 73.748 1343.9 73.288C1343.9 72.896 1343.97 72.528 1344.12 72.184C1344.27 71.84 1344.47 71.538 1344.73 71.278C1344.99 71.018 1345.29 70.814 1345.63 70.666C1345.97 70.518 1346.34 70.444 1346.73 70.444C1347.25 70.444 1347.73 70.572 1348.15 70.828C1348.58 71.084 1348.92 71.428 1349.18 71.86C1349.44 72.288 1349.57 72.764 1349.57 73.288C1349.57 73.572 1349.53 73.824 1349.46 74.044C1349.39 74.26 1349.29 74.496 1349.15 74.752L1346.71 79H1345.55ZM1346.72 75.118C1347.08 75.118 1347.39 75.034 1347.67 74.866C1347.95 74.694 1348.17 74.468 1348.32 74.188C1348.48 73.908 1348.56 73.608 1348.56 73.288C1348.56 72.94 1348.48 72.628 1348.31 72.352C1348.14 72.072 1347.92 71.852 1347.64 71.692C1347.36 71.528 1347.06 71.446 1346.73 71.446C1346.38 71.446 1346.06 71.532 1345.78 71.704C1345.5 71.876 1345.29 72.104 1345.13 72.388C1344.97 72.668 1344.89 72.968 1344.89 73.288C1344.89 73.624 1344.97 73.932 1345.13 74.212C1345.3 74.488 1345.52 74.708 1345.79 74.872C1346.07 75.036 1346.38 75.118 1346.72 75.118ZM1352.9 79.156C1352.39 79.156 1351.94 79.042 1351.54 78.814C1351.15 78.582 1350.84 78.274 1350.62 77.89C1350.39 77.502 1350.28 77.072 1350.28 76.6H1351.29C1351.29 76.884 1351.36 77.144 1351.49 77.38C1351.62 77.612 1351.81 77.798 1352.05 77.938C1352.29 78.078 1352.57 78.148 1352.9 78.148C1353.18 78.148 1353.45 78.078 1353.69 77.938C1353.94 77.798 1354.14 77.612 1354.29 77.38C1354.44 77.144 1354.52 76.884 1354.52 76.6C1354.52 76.244 1354.43 75.948 1354.24 75.712C1354.06 75.472 1353.81 75.294 1353.49 75.178C1353.17 75.058 1352.8 74.998 1352.39 74.998V74.188C1352.96 74.188 1353.41 74.07 1353.75 73.834C1354.09 73.598 1354.27 73.25 1354.27 72.79C1354.27 72.546 1354.2 72.322 1354.07 72.118C1353.94 71.914 1353.76 71.752 1353.55 71.632C1353.33 71.508 1353.11 71.446 1352.86 71.446C1352.61 71.446 1352.38 71.508 1352.15 71.632C1351.92 71.752 1351.73 71.914 1351.59 72.118C1351.45 72.322 1351.37 72.546 1351.37 72.79H1350.37C1350.37 72.466 1350.43 72.162 1350.56 71.878C1350.7 71.594 1350.88 71.344 1351.12 71.128C1351.35 70.912 1351.62 70.744 1351.91 70.624C1352.21 70.5 1352.52 70.438 1352.85 70.438C1353.28 70.438 1353.68 70.544 1354.04 70.756C1354.41 70.968 1354.71 71.252 1354.93 71.608C1355.16 71.964 1355.27 72.358 1355.27 72.79C1355.27 73.178 1355.18 73.536 1354.98 73.864C1354.78 74.192 1354.52 74.422 1354.18 74.554C1354.47 74.654 1354.72 74.81 1354.92 75.022C1355.12 75.23 1355.27 75.47 1355.37 75.742C1355.47 76.014 1355.53 76.3 1355.53 76.6C1355.53 77.068 1355.4 77.496 1355.16 77.884C1354.92 78.272 1354.6 78.582 1354.2 78.814C1353.8 79.042 1353.37 79.156 1352.9 79.156ZM1358.86 79.156C1358.35 79.156 1357.9 79.042 1357.51 78.814C1357.11 78.582 1356.81 78.274 1356.58 77.89C1356.36 77.502 1356.25 77.072 1356.25 76.6H1357.25C1357.25 76.884 1357.32 77.144 1357.45 77.38C1357.58 77.612 1357.77 77.798 1358.01 77.938C1358.25 78.078 1358.53 78.148 1358.86 78.148C1359.15 78.148 1359.41 78.078 1359.65 77.938C1359.9 77.798 1360.1 77.612 1360.25 77.38C1360.41 77.144 1360.48 76.884 1360.48 76.6C1360.48 76.244 1360.39 75.948 1360.21 75.712C1360.03 75.472 1359.77 75.294 1359.45 75.178C1359.13 75.058 1358.76 74.998 1358.35 74.998V74.188C1358.92 74.188 1359.37 74.07 1359.71 73.834C1360.06 73.598 1360.23 73.25 1360.23 72.79C1360.23 72.546 1360.16 72.322 1360.03 72.118C1359.9 71.914 1359.73 71.752 1359.51 71.632C1359.3 71.508 1359.07 71.446 1358.83 71.446C1358.58 71.446 1358.34 71.508 1358.11 71.632C1357.88 71.752 1357.7 71.914 1357.55 72.118C1357.41 72.322 1357.34 72.546 1357.34 72.79H1356.33C1356.33 72.466 1356.4 72.162 1356.53 71.878C1356.66 71.594 1356.85 71.344 1357.08 71.128C1357.32 70.912 1357.58 70.744 1357.88 70.624C1358.17 70.5 1358.49 70.438 1358.81 70.438C1359.24 70.438 1359.64 70.544 1360.01 70.756C1360.38 70.968 1360.67 71.252 1360.9 71.608C1361.12 71.964 1361.24 72.358 1361.24 72.79C1361.24 73.178 1361.14 73.536 1360.94 73.864C1360.75 74.192 1360.48 74.422 1360.15 74.554C1360.44 74.654 1360.68 74.81 1360.88 75.022C1361.08 75.23 1361.23 75.47 1361.33 75.742C1361.44 76.014 1361.49 76.3 1361.49 76.6C1361.49 77.068 1361.37 77.496 1361.12 77.884C1360.88 78.272 1360.56 78.582 1360.16 78.814C1359.77 79.042 1359.33 79.156 1358.86 79.156ZM1362.33 79.672L1362.7 77.644H1363.71L1363 79.672H1362.33ZM1367.62 79.156C1367.12 79.156 1366.66 79.042 1366.25 78.814C1365.84 78.586 1365.51 78.282 1365.27 77.902C1365.03 77.518 1364.91 77.094 1364.91 76.63C1364.91 76.198 1365.02 75.802 1365.25 75.442C1365.48 75.078 1365.78 74.79 1366.15 74.578C1365.85 74.386 1365.6 74.132 1365.4 73.816C1365.21 73.496 1365.11 73.15 1365.11 72.778C1365.11 72.346 1365.23 71.954 1365.45 71.602C1365.68 71.25 1365.98 70.97 1366.36 70.762C1366.74 70.55 1367.16 70.444 1367.62 70.444C1368.08 70.444 1368.49 70.55 1368.87 70.762C1369.25 70.97 1369.55 71.25 1369.78 71.602C1370 71.954 1370.12 72.346 1370.12 72.778C1370.12 73.15 1370.02 73.496 1369.83 73.816C1369.64 74.132 1369.39 74.386 1369.08 74.578C1369.46 74.79 1369.76 75.078 1369.99 75.442C1370.21 75.802 1370.33 76.198 1370.33 76.63C1370.33 77.09 1370.21 77.512 1369.96 77.896C1369.72 78.28 1369.39 78.586 1368.98 78.814C1368.57 79.042 1368.12 79.156 1367.62 79.156ZM1367.62 78.148C1367.92 78.148 1368.19 78.08 1368.44 77.944C1368.69 77.808 1368.88 77.626 1369.03 77.398C1369.18 77.166 1369.25 76.91 1369.25 76.63C1369.25 76.346 1369.18 76.09 1369.03 75.862C1368.88 75.634 1368.69 75.452 1368.44 75.316C1368.19 75.18 1367.92 75.112 1367.62 75.112C1367.32 75.112 1367.04 75.18 1366.79 75.316C1366.55 75.452 1366.35 75.634 1366.2 75.862C1366.05 76.09 1365.98 76.346 1365.98 76.63C1365.98 76.91 1366.05 77.166 1366.2 77.398C1366.35 77.626 1366.55 77.808 1366.79 77.944C1367.04 78.08 1367.32 78.148 1367.62 78.148ZM1367.62 74.104C1367.88 74.104 1368.12 74.044 1368.34 73.924C1368.55 73.804 1368.72 73.644 1368.85 73.444C1368.98 73.244 1369.05 73.022 1369.05 72.778C1369.05 72.53 1368.98 72.308 1368.85 72.112C1368.72 71.912 1368.55 71.752 1368.34 71.632C1368.12 71.512 1367.88 71.452 1367.62 71.452C1367.35 71.452 1367.11 71.512 1366.9 71.632C1366.68 71.752 1366.51 71.912 1366.37 72.112C1366.25 72.308 1366.18 72.53 1366.18 72.778C1366.18 73.022 1366.25 73.244 1366.37 73.444C1366.51 73.644 1366.68 73.804 1366.9 73.924C1367.11 74.044 1367.35 74.104 1367.62 74.104ZM1373.99 79.156C1373.49 79.156 1373.03 79.042 1372.62 78.814C1372.21 78.586 1371.89 78.282 1371.64 77.902C1371.4 77.518 1371.28 77.094 1371.28 76.63C1371.28 76.198 1371.4 75.802 1371.63 75.442C1371.85 75.078 1372.15 74.79 1372.52 74.578C1372.22 74.386 1371.97 74.132 1371.78 73.816C1371.58 73.496 1371.49 73.15 1371.49 72.778C1371.49 72.346 1371.6 71.954 1371.82 71.602C1372.05 71.25 1372.35 70.97 1372.73 70.762C1373.11 70.55 1373.53 70.444 1373.99 70.444C1374.45 70.444 1374.87 70.55 1375.24 70.762C1375.62 70.97 1375.93 71.25 1376.15 71.602C1376.38 71.954 1376.49 72.346 1376.49 72.778C1376.49 73.15 1376.4 73.496 1376.2 73.816C1376.01 74.132 1375.76 74.386 1375.45 74.578C1375.83 74.79 1376.14 75.078 1376.36 75.442C1376.59 75.802 1376.7 76.198 1376.7 76.63C1376.7 77.09 1376.58 77.512 1376.34 77.896C1376.09 78.28 1375.76 78.586 1375.35 78.814C1374.94 79.042 1374.49 79.156 1373.99 79.156ZM1373.99 78.148C1374.29 78.148 1374.57 78.08 1374.81 77.944C1375.06 77.808 1375.26 77.626 1375.41 77.398C1375.55 77.166 1375.63 76.91 1375.63 76.63C1375.63 76.346 1375.55 76.09 1375.41 75.862C1375.26 75.634 1375.06 75.452 1374.81 75.316C1374.57 75.18 1374.29 75.112 1373.99 75.112C1373.69 75.112 1373.42 75.18 1373.17 75.316C1372.92 75.452 1372.72 75.634 1372.57 75.862C1372.43 76.09 1372.35 76.346 1372.35 76.63C1372.35 76.91 1372.43 77.166 1372.57 77.398C1372.72 77.626 1372.92 77.808 1373.17 77.944C1373.42 78.08 1373.69 78.148 1373.99 78.148ZM1373.99 74.104C1374.25 74.104 1374.49 74.044 1374.71 73.924C1374.93 73.804 1375.1 73.644 1375.23 73.444C1375.36 73.244 1375.42 73.022 1375.42 72.778C1375.42 72.53 1375.36 72.308 1375.23 72.112C1375.1 71.912 1374.93 71.752 1374.71 71.632C1374.49 71.512 1374.25 71.452 1373.99 71.452C1373.73 71.452 1373.49 71.512 1373.27 71.632C1373.05 71.752 1372.88 71.912 1372.75 72.112C1372.62 72.308 1372.56 72.53 1372.56 72.778C1372.56 73.022 1372.62 73.244 1372.75 73.444C1372.88 73.644 1373.05 73.804 1373.27 73.924C1373.49 74.044 1373.73 74.104 1373.99 74.104ZM1380.37 79.156C1379.87 79.156 1379.41 79.042 1379 78.814C1378.59 78.586 1378.26 78.282 1378.02 77.902C1377.78 77.518 1377.66 77.094 1377.66 76.63C1377.66 76.198 1377.77 75.802 1378 75.442C1378.23 75.078 1378.53 74.79 1378.9 74.578C1378.6 74.386 1378.35 74.132 1378.15 73.816C1377.96 73.496 1377.86 73.15 1377.86 72.778C1377.86 72.346 1377.98 71.954 1378.2 71.602C1378.43 71.25 1378.73 70.97 1379.11 70.762C1379.49 70.55 1379.91 70.444 1380.37 70.444C1380.83 70.444 1381.24 70.55 1381.62 70.762C1382 70.97 1382.3 71.25 1382.53 71.602C1382.75 71.954 1382.87 72.346 1382.87 72.778C1382.87 73.15 1382.77 73.496 1382.58 73.816C1382.39 74.132 1382.14 74.386 1381.83 74.578C1382.21 74.79 1382.51 75.078 1382.74 75.442C1382.96 75.802 1383.08 76.198 1383.08 76.63C1383.08 77.09 1382.96 77.512 1382.71 77.896C1382.47 78.28 1382.14 78.586 1381.73 78.814C1381.32 79.042 1380.87 79.156 1380.37 79.156ZM1380.37 78.148C1380.67 78.148 1380.94 78.08 1381.19 77.944C1381.44 77.808 1381.63 77.626 1381.78 77.398C1381.93 77.166 1382 76.91 1382 76.63C1382 76.346 1381.93 76.09 1381.78 75.862C1381.63 75.634 1381.44 75.452 1381.19 75.316C1380.94 75.18 1380.67 75.112 1380.37 75.112C1380.07 75.112 1379.79 75.18 1379.54 75.316C1379.3 75.452 1379.1 75.634 1378.95 75.862C1378.8 76.09 1378.73 76.346 1378.73 76.63C1378.73 76.91 1378.8 77.166 1378.95 77.398C1379.1 77.626 1379.3 77.808 1379.54 77.944C1379.79 78.08 1380.07 78.148 1380.37 78.148ZM1380.37 74.104C1380.63 74.104 1380.87 74.044 1381.09 73.924C1381.3 73.804 1381.47 73.644 1381.6 73.444C1381.73 73.244 1381.8 73.022 1381.8 72.778C1381.8 72.53 1381.73 72.308 1381.6 72.112C1381.47 71.912 1381.3 71.752 1381.09 71.632C1380.87 71.512 1380.63 71.452 1380.37 71.452C1380.1 71.452 1379.86 71.512 1379.65 71.632C1379.43 71.752 1379.26 71.912 1379.12 72.112C1379 72.308 1378.93 72.53 1378.93 72.778C1378.93 73.022 1379 73.244 1379.12 73.444C1379.26 73.644 1379.43 73.804 1379.65 73.924C1379.86 74.044 1380.1 74.104 1380.37 74.104Z" fill="#EFEFE4"/>
<path d="M1331.56 145V142.732H1327.95V141.712L1331.31 136.6H1332.57V141.724H1333.4V142.732H1332.57V145H1331.56ZM1329.13 141.712L1331.56 141.724L1331.54 138.016L1329.13 141.712ZM1337.36 145.156C1336.86 145.156 1336.41 145.044 1336.01 144.82C1335.62 144.592 1335.28 144.278 1334.99 143.878C1334.71 143.478 1334.49 143.016 1334.34 142.492C1334.2 141.964 1334.12 141.4 1334.12 140.8C1334.12 140.2 1334.2 139.636 1334.34 139.108C1334.49 138.58 1334.71 138.118 1334.99 137.722C1335.28 137.322 1335.62 137.01 1336.01 136.786C1336.41 136.558 1336.86 136.444 1337.36 136.444C1337.85 136.444 1338.3 136.558 1338.69 136.786C1339.09 137.01 1339.43 137.322 1339.71 137.722C1339.99 138.118 1340.2 138.58 1340.35 139.108C1340.5 139.636 1340.58 140.2 1340.58 140.8C1340.58 141.4 1340.5 141.964 1340.35 142.492C1340.2 143.016 1339.99 143.478 1339.71 143.878C1339.43 144.278 1339.09 144.592 1338.69 144.82C1338.3 145.044 1337.85 145.156 1337.36 145.156ZM1337.36 144.148C1337.86 144.148 1338.27 143.994 1338.61 143.686C1338.95 143.374 1339.2 142.964 1339.37 142.456C1339.54 141.948 1339.62 141.396 1339.62 140.8C1339.62 140.172 1339.54 139.606 1339.36 139.102C1339.19 138.594 1338.93 138.192 1338.59 137.896C1338.26 137.6 1337.84 137.452 1337.36 137.452C1336.97 137.452 1336.64 137.542 1336.35 137.722C1336.06 137.902 1335.83 138.148 1335.64 138.46C1335.45 138.772 1335.31 139.13 1335.21 139.534C1335.12 139.934 1335.08 140.356 1335.08 140.8C1335.08 141.396 1335.16 141.95 1335.33 142.462C1335.51 142.97 1335.76 143.378 1336.1 143.686C1336.44 143.994 1336.86 144.148 1337.36 144.148ZM1341.41 145.672L1341.79 143.644H1342.79L1342.09 145.672H1341.41ZM1345.52 145L1347.32 141.904C1346.9 142.028 1346.48 142.05 1346.07 141.97C1345.67 141.886 1345.3 141.722 1344.97 141.478C1344.64 141.23 1344.37 140.918 1344.17 140.542C1343.97 140.166 1343.87 139.748 1343.87 139.288C1343.87 138.896 1343.95 138.528 1344.09 138.184C1344.24 137.84 1344.45 137.538 1344.71 137.278C1344.97 137.018 1345.27 136.814 1345.61 136.666C1345.95 136.518 1346.32 136.444 1346.71 136.444C1347.23 136.444 1347.7 136.572 1348.13 136.828C1348.55 137.084 1348.9 137.428 1349.15 137.86C1349.41 138.288 1349.54 138.764 1349.54 139.288C1349.54 139.572 1349.51 139.824 1349.43 140.044C1349.37 140.26 1349.26 140.496 1349.12 140.752L1346.69 145H1345.52ZM1346.7 141.118C1347.05 141.118 1347.37 141.034 1347.65 140.866C1347.93 140.694 1348.14 140.468 1348.3 140.188C1348.46 139.908 1348.54 139.608 1348.54 139.288C1348.54 138.94 1348.46 138.628 1348.29 138.352C1348.12 138.072 1347.9 137.852 1347.62 137.692C1347.34 137.528 1347.03 137.446 1346.71 137.446C1346.35 137.446 1346.04 137.532 1345.76 137.704C1345.48 137.876 1345.26 138.104 1345.1 138.388C1344.95 138.668 1344.87 138.968 1344.87 139.288C1344.87 139.624 1344.95 139.932 1345.11 140.212C1345.27 140.488 1345.49 140.708 1345.77 140.872C1346.05 141.036 1346.36 141.118 1346.7 141.118ZM1352.87 145.156C1352.37 145.156 1351.91 145.042 1351.52 144.814C1351.13 144.582 1350.82 144.274 1350.59 143.89C1350.37 143.502 1350.26 143.072 1350.26 142.6H1351.27C1351.27 142.884 1351.33 143.144 1351.46 143.38C1351.6 143.612 1351.78 143.798 1352.02 143.938C1352.26 144.078 1352.55 144.148 1352.87 144.148C1353.16 144.148 1353.42 144.078 1353.67 143.938C1353.91 143.798 1354.11 143.612 1354.27 143.38C1354.42 143.144 1354.49 142.884 1354.49 142.6C1354.49 142.244 1354.4 141.948 1354.22 141.712C1354.04 141.472 1353.79 141.294 1353.46 141.178C1353.14 141.058 1352.78 140.998 1352.36 140.998V140.188C1352.93 140.188 1353.39 140.07 1353.73 139.834C1354.07 139.598 1354.24 139.25 1354.24 138.79C1354.24 138.546 1354.18 138.322 1354.04 138.118C1353.91 137.914 1353.74 137.752 1353.52 137.632C1353.31 137.508 1353.08 137.446 1352.84 137.446C1352.59 137.446 1352.35 137.508 1352.12 137.632C1351.9 137.752 1351.71 137.914 1351.57 138.118C1351.42 138.322 1351.35 138.546 1351.35 138.79H1350.34C1350.34 138.466 1350.41 138.162 1350.54 137.878C1350.68 137.594 1350.86 137.344 1351.09 137.128C1351.33 136.912 1351.59 136.744 1351.89 136.624C1352.19 136.5 1352.5 136.438 1352.83 136.438C1353.25 136.438 1353.65 136.544 1354.02 136.756C1354.39 136.968 1354.68 137.252 1354.91 137.608C1355.14 137.964 1355.25 138.358 1355.25 138.79C1355.25 139.178 1355.15 139.536 1354.96 139.864C1354.76 140.192 1354.49 140.422 1354.16 140.554C1354.45 140.654 1354.7 140.81 1354.9 141.022C1355.1 141.23 1355.25 141.47 1355.35 141.742C1355.45 142.014 1355.5 142.3 1355.5 142.6C1355.5 143.068 1355.38 143.496 1355.14 143.884C1354.9 144.272 1354.58 144.582 1354.18 144.814C1353.78 145.042 1353.35 145.156 1352.87 145.156ZM1358.84 145.156C1358.33 145.156 1357.88 145.042 1357.48 144.814C1357.09 144.582 1356.78 144.274 1356.56 143.89C1356.34 143.502 1356.22 143.072 1356.22 142.6H1357.23C1357.23 142.884 1357.3 143.144 1357.43 143.38C1357.56 143.612 1357.75 143.798 1357.99 143.938C1358.23 144.078 1358.51 144.148 1358.84 144.148C1359.12 144.148 1359.39 144.078 1359.63 143.938C1359.88 143.798 1360.08 143.612 1360.23 143.38C1360.38 143.144 1360.46 142.884 1360.46 142.6C1360.46 142.244 1360.37 141.948 1360.18 141.712C1360 141.472 1359.75 141.294 1359.43 141.178C1359.11 141.058 1358.74 140.998 1358.33 140.998V140.188C1358.9 140.188 1359.35 140.07 1359.69 139.834C1360.04 139.598 1360.21 139.25 1360.21 138.79C1360.21 138.546 1360.14 138.322 1360.01 138.118C1359.88 137.914 1359.7 137.752 1359.49 137.632C1359.28 137.508 1359.05 137.446 1358.8 137.446C1358.56 137.446 1358.32 137.508 1358.09 137.632C1357.86 137.752 1357.68 137.914 1357.53 138.118C1357.39 138.322 1357.32 138.546 1357.32 138.79H1356.31C1356.31 138.466 1356.37 138.162 1356.51 137.878C1356.64 137.594 1356.83 137.344 1357.06 137.128C1357.29 136.912 1357.56 136.744 1357.86 136.624C1358.15 136.5 1358.46 136.438 1358.79 136.438C1359.22 136.438 1359.62 136.544 1359.99 136.756C1360.35 136.968 1360.65 137.252 1360.87 137.608C1361.1 137.964 1361.22 138.358 1361.22 138.79C1361.22 139.178 1361.12 139.536 1360.92 139.864C1360.73 140.192 1360.46 140.422 1360.12 140.554C1360.42 140.654 1360.66 140.81 1360.86 141.022C1361.06 141.23 1361.21 141.47 1361.31 141.742C1361.42 142.014 1361.47 142.3 1361.47 142.6C1361.47 143.068 1361.35 143.496 1361.1 143.884C1360.86 144.272 1360.54 144.582 1360.14 144.814C1359.75 145.042 1359.31 145.156 1358.84 145.156ZM1362.31 145.672L1362.68 143.644H1363.69L1362.98 145.672H1362.31ZM1367.59 145.156C1367.09 145.156 1366.64 145.042 1366.22 144.814C1365.82 144.586 1365.49 144.282 1365.25 143.902C1365.01 143.518 1364.89 143.094 1364.89 142.63C1364.89 142.198 1365 141.802 1365.23 141.442C1365.46 141.078 1365.75 140.79 1366.12 140.578C1365.82 140.386 1365.57 140.132 1365.38 139.816C1365.19 139.496 1365.09 139.15 1365.09 138.778C1365.09 138.346 1365.2 137.954 1365.43 137.602C1365.65 137.25 1365.96 136.97 1366.33 136.762C1366.71 136.55 1367.13 136.444 1367.59 136.444C1368.05 136.444 1368.47 136.55 1368.85 136.762C1369.23 136.97 1369.53 137.25 1369.75 137.602C1369.98 137.954 1370.09 138.346 1370.09 138.778C1370.09 139.15 1370 139.496 1369.81 139.816C1369.61 140.132 1369.36 140.386 1369.06 140.578C1369.44 140.79 1369.74 141.078 1369.96 141.442C1370.19 141.802 1370.3 142.198 1370.3 142.63C1370.3 143.09 1370.18 143.512 1369.94 143.896C1369.69 144.28 1369.37 144.586 1368.95 144.814C1368.55 145.042 1368.09 145.156 1367.59 145.156ZM1367.59 144.148C1367.9 144.148 1368.17 144.08 1368.41 143.944C1368.66 143.808 1368.86 143.626 1369.01 143.398C1369.16 143.166 1369.23 142.91 1369.23 142.63C1369.23 142.346 1369.16 142.09 1369.01 141.862C1368.86 141.634 1368.66 141.452 1368.41 141.316C1368.17 141.18 1367.9 141.112 1367.59 141.112C1367.29 141.112 1367.02 141.18 1366.77 141.316C1366.52 141.452 1366.32 141.634 1366.18 141.862C1366.03 142.09 1365.95 142.346 1365.95 142.63C1365.95 142.91 1366.03 143.166 1366.18 143.398C1366.32 143.626 1366.52 143.808 1366.77 143.944C1367.02 144.08 1367.29 144.148 1367.59 144.148ZM1367.59 140.104C1367.86 140.104 1368.1 140.044 1368.31 139.924C1368.53 139.804 1368.7 139.644 1368.83 139.444C1368.96 139.244 1369.03 139.022 1369.03 138.778C1369.03 138.53 1368.96 138.308 1368.83 138.112C1368.7 137.912 1368.53 137.752 1368.31 137.632C1368.1 137.512 1367.86 137.452 1367.59 137.452C1367.33 137.452 1367.09 137.512 1366.87 137.632C1366.66 137.752 1366.48 137.912 1366.35 138.112C1366.22 138.308 1366.16 138.53 1366.16 138.778C1366.16 139.022 1366.22 139.244 1366.35 139.444C1366.48 139.644 1366.66 139.804 1366.87 139.924C1367.09 140.044 1367.33 140.104 1367.59 140.104ZM1373.97 145.156C1373.47 145.156 1373.01 145.042 1372.6 144.814C1372.19 144.586 1371.87 144.282 1371.62 143.902C1371.38 143.518 1371.26 143.094 1371.26 142.63C1371.26 142.198 1371.38 141.802 1371.6 141.442C1371.83 141.078 1372.13 140.79 1372.5 140.578C1372.2 140.386 1371.95 140.132 1371.75 139.816C1371.56 139.496 1371.47 139.15 1371.47 138.778C1371.47 138.346 1371.58 137.954 1371.8 137.602C1372.03 137.25 1372.33 136.97 1372.71 136.762C1373.09 136.55 1373.51 136.444 1373.97 136.444C1374.43 136.444 1374.85 136.55 1375.22 136.762C1375.6 136.97 1375.9 137.25 1376.13 137.602C1376.36 137.954 1376.47 138.346 1376.47 138.778C1376.47 139.15 1376.37 139.496 1376.18 139.816C1375.99 140.132 1375.74 140.386 1375.43 140.578C1375.81 140.79 1376.11 141.078 1376.34 141.442C1376.57 141.802 1376.68 142.198 1376.68 142.63C1376.68 143.09 1376.56 143.512 1376.31 143.896C1376.07 144.28 1375.74 144.586 1375.33 144.814C1374.92 145.042 1374.47 145.156 1373.97 145.156ZM1373.97 144.148C1374.27 144.148 1374.55 144.08 1374.79 143.944C1375.04 143.808 1375.24 143.626 1375.38 143.398C1375.53 143.166 1375.61 142.91 1375.61 142.63C1375.61 142.346 1375.53 142.09 1375.38 141.862C1375.24 141.634 1375.04 141.452 1374.79 141.316C1374.55 141.18 1374.27 141.112 1373.97 141.112C1373.67 141.112 1373.39 141.18 1373.15 141.316C1372.9 141.452 1372.7 141.634 1372.55 141.862C1372.4 142.09 1372.33 142.346 1372.33 142.63C1372.33 142.91 1372.4 143.166 1372.55 143.398C1372.7 143.626 1372.9 143.808 1373.15 143.944C1373.39 144.08 1373.67 144.148 1373.97 144.148ZM1373.97 140.104C1374.23 140.104 1374.47 140.044 1374.69 139.924C1374.9 139.804 1375.08 139.644 1375.2 139.444C1375.34 139.244 1375.4 139.022 1375.4 138.778C1375.4 138.53 1375.34 138.308 1375.2 138.112C1375.08 137.912 1374.9 137.752 1374.69 137.632C1374.47 137.512 1374.23 137.452 1373.97 137.452C1373.7 137.452 1373.46 137.512 1373.25 137.632C1373.03 137.752 1372.86 137.912 1372.73 138.112C1372.6 138.308 1372.53 138.53 1372.53 138.778C1372.53 139.022 1372.6 139.244 1372.73 139.444C1372.86 139.644 1373.03 139.804 1373.25 139.924C1373.46 140.044 1373.7 140.104 1373.97 140.104ZM1380.34 145.156C1379.84 145.156 1379.39 145.042 1378.97 144.814C1378.57 144.586 1378.24 144.282 1378 143.902C1377.76 143.518 1377.64 143.094 1377.64 142.63C1377.64 142.198 1377.75 141.802 1377.98 141.442C1378.21 141.078 1378.5 140.79 1378.87 140.578C1378.57 140.386 1378.32 140.132 1378.13 139.816C1377.94 139.496 1377.84 139.15 1377.84 138.778C1377.84 138.346 1377.95 137.954 1378.18 137.602C1378.4 137.25 1378.71 136.97 1379.08 136.762C1379.46 136.55 1379.88 136.444 1380.34 136.444C1380.8 136.444 1381.22 136.55 1381.6 136.762C1381.98 136.97 1382.28 137.25 1382.5 137.602C1382.73 137.954 1382.84 138.346 1382.84 138.778C1382.84 139.15 1382.75 139.496 1382.56 139.816C1382.36 140.132 1382.11 140.386 1381.81 140.578C1382.19 140.79 1382.49 141.078 1382.71 141.442C1382.94 141.802 1383.05 142.198 1383.05 142.63C1383.05 143.09 1382.93 143.512 1382.69 143.896C1382.44 144.28 1382.12 144.586 1381.7 144.814C1381.3 145.042 1380.84 145.156 1380.34 145.156ZM1380.34 144.148C1380.65 144.148 1380.92 144.08 1381.16 143.944C1381.41 143.808 1381.61 143.626 1381.76 143.398C1381.91 143.166 1381.98 142.91 1381.98 142.63C1381.98 142.346 1381.91 142.09 1381.76 141.862C1381.61 141.634 1381.41 141.452 1381.16 141.316C1380.92 141.18 1380.65 141.112 1380.34 141.112C1380.04 141.112 1379.77 141.18 1379.52 141.316C1379.27 141.452 1379.07 141.634 1378.93 141.862C1378.78 142.09 1378.7 142.346 1378.7 142.63C1378.7 142.91 1378.78 143.166 1378.93 143.398C1379.07 143.626 1379.27 143.808 1379.52 143.944C1379.77 144.08 1380.04 144.148 1380.34 144.148ZM1380.34 140.104C1380.61 140.104 1380.85 140.044 1381.06 139.924C1381.28 139.804 1381.45 139.644 1381.58 139.444C1381.71 139.244 1381.78 139.022 1381.78 138.778C1381.78 138.53 1381.71 138.308 1381.58 138.112C1381.45 137.912 1381.28 137.752 1381.06 137.632C1380.85 137.512 1380.61 137.452 1380.34 137.452C1380.08 137.452 1379.84 137.512 1379.62 137.632C1379.41 137.752 1379.23 137.912 1379.1 138.112C1378.97 138.308 1378.91 138.53 1378.91 138.778C1378.91 139.022 1378.97 139.244 1379.1 139.444C1379.23 139.644 1379.41 139.804 1379.62 139.924C1379.84 140.044 1380.08 140.104 1380.34 140.104Z" fill="#EFEFE4"/>
<path d="M1330.11 211.156C1329.6 211.156 1329.15 211.042 1328.75 210.814C1328.36 210.582 1328.05 210.274 1327.83 209.89C1327.6 209.502 1327.49 209.072 1327.49 208.6H1328.5C1328.5 208.884 1328.57 209.144 1328.7 209.38C1328.83 209.612 1329.02 209.798 1329.26 209.938C1329.5 210.078 1329.78 210.148 1330.11 210.148C1330.39 210.148 1330.66 210.078 1330.9 209.938C1331.15 209.798 1331.35 209.612 1331.5 209.38C1331.65 209.144 1331.73 208.884 1331.73 208.6C1331.73 208.244 1331.64 207.948 1331.45 207.712C1331.27 207.472 1331.02 207.294 1330.7 207.178C1330.38 207.058 1330.01 206.998 1329.6 206.998V206.188C1330.17 206.188 1330.62 206.07 1330.96 205.834C1331.3 205.598 1331.48 205.25 1331.48 204.79C1331.48 204.546 1331.41 204.322 1331.28 204.118C1331.15 203.914 1330.97 203.752 1330.76 203.632C1330.54 203.508 1330.32 203.446 1330.07 203.446C1329.82 203.446 1329.59 203.508 1329.36 203.632C1329.13 203.752 1328.94 203.914 1328.8 204.118C1328.66 204.322 1328.58 204.546 1328.58 204.79H1327.58C1327.58 204.466 1327.64 204.162 1327.77 203.878C1327.91 203.594 1328.09 203.344 1328.33 203.128C1328.56 202.912 1328.83 202.744 1329.12 202.624C1329.42 202.5 1329.73 202.438 1330.06 202.438C1330.49 202.438 1330.89 202.544 1331.25 202.756C1331.62 202.968 1331.92 203.252 1332.14 203.608C1332.37 203.964 1332.48 204.358 1332.48 204.79C1332.48 205.178 1332.39 205.536 1332.19 205.864C1331.99 206.192 1331.73 206.422 1331.39 206.554C1331.68 206.654 1331.93 206.81 1332.13 207.022C1332.33 207.23 1332.48 207.47 1332.58 207.742C1332.68 208.014 1332.74 208.3 1332.74 208.6C1332.74 209.068 1332.61 209.496 1332.37 209.884C1332.13 210.272 1331.81 210.582 1331.41 210.814C1331.01 211.042 1330.58 211.156 1330.11 211.156ZM1336.69 211.156C1336.19 211.156 1335.74 211.044 1335.35 210.82C1334.95 210.592 1334.61 210.278 1334.33 209.878C1334.04 209.478 1333.83 209.016 1333.68 208.492C1333.53 207.964 1333.46 207.4 1333.46 206.8C1333.46 206.2 1333.53 205.636 1333.68 205.108C1333.83 204.58 1334.04 204.118 1334.33 203.722C1334.61 203.322 1334.95 203.01 1335.35 202.786C1335.74 202.558 1336.19 202.444 1336.69 202.444C1337.19 202.444 1337.63 202.558 1338.03 202.786C1338.43 203.01 1338.77 203.322 1339.04 203.722C1339.32 204.118 1339.54 204.58 1339.69 205.108C1339.84 205.636 1339.91 206.2 1339.91 206.8C1339.91 207.4 1339.84 207.964 1339.69 208.492C1339.54 209.016 1339.32 209.478 1339.04 209.878C1338.77 210.278 1338.43 210.592 1338.03 210.82C1337.63 211.044 1337.19 211.156 1336.69 211.156ZM1336.69 210.148C1337.19 210.148 1337.61 209.994 1337.95 209.686C1338.29 209.374 1338.54 208.964 1338.71 208.456C1338.88 207.948 1338.96 207.396 1338.96 206.8C1338.96 206.172 1338.87 205.606 1338.7 205.102C1338.52 204.594 1338.27 204.192 1337.93 203.896C1337.59 203.6 1337.18 203.452 1336.69 203.452C1336.31 203.452 1335.97 203.542 1335.68 203.722C1335.4 203.902 1335.16 204.148 1334.98 204.46C1334.79 204.772 1334.65 205.13 1334.55 205.534C1334.46 205.934 1334.41 206.356 1334.41 206.8C1334.41 207.396 1334.5 207.95 1334.67 208.462C1334.84 208.97 1335.1 209.378 1335.43 209.686C1335.77 209.994 1336.19 210.148 1336.69 210.148ZM1340.75 211.672L1341.12 209.644H1342.13L1341.42 211.672H1340.75ZM1344.86 211L1346.65 207.904C1346.23 208.028 1345.82 208.05 1345.41 207.97C1345.01 207.886 1344.64 207.722 1344.31 207.478C1343.97 207.23 1343.71 206.918 1343.51 206.542C1343.31 206.166 1343.21 205.748 1343.21 205.288C1343.21 204.896 1343.28 204.528 1343.43 204.184C1343.58 203.84 1343.78 203.538 1344.04 203.278C1344.3 203.018 1344.6 202.814 1344.94 202.666C1345.29 202.518 1345.65 202.444 1346.05 202.444C1346.57 202.444 1347.04 202.572 1347.46 202.828C1347.89 203.084 1348.23 203.428 1348.49 203.86C1348.75 204.288 1348.88 204.764 1348.88 205.288C1348.88 205.572 1348.84 205.824 1348.77 206.044C1348.7 206.26 1348.6 206.496 1348.46 206.752L1346.02 211H1344.86ZM1346.03 207.118C1346.39 207.118 1346.71 207.034 1346.98 206.866C1347.26 206.694 1347.48 206.468 1347.64 206.188C1347.8 205.908 1347.88 205.608 1347.88 205.288C1347.88 204.94 1347.79 204.628 1347.62 204.352C1347.46 204.072 1347.23 203.852 1346.95 203.692C1346.67 203.528 1346.37 203.446 1346.05 203.446C1345.69 203.446 1345.37 203.532 1345.09 203.704C1344.82 203.876 1344.6 204.104 1344.44 204.388C1344.28 204.668 1344.2 204.968 1344.2 205.288C1344.2 205.624 1344.28 205.932 1344.44 206.212C1344.61 206.488 1344.83 206.708 1345.1 206.872C1345.38 207.036 1345.69 207.118 1346.03 207.118ZM1352.21 211.156C1351.7 211.156 1351.25 211.042 1350.85 210.814C1350.46 210.582 1350.15 210.274 1349.93 209.89C1349.71 209.502 1349.59 209.072 1349.59 208.6H1350.6C1350.6 208.884 1350.67 209.144 1350.8 209.38C1350.93 209.612 1351.12 209.798 1351.36 209.938C1351.6 210.078 1351.88 210.148 1352.21 210.148C1352.49 210.148 1352.76 210.078 1353 209.938C1353.25 209.798 1353.45 209.612 1353.6 209.38C1353.75 209.144 1353.83 208.884 1353.83 208.6C1353.83 208.244 1353.74 207.948 1353.55 207.712C1353.37 207.472 1353.12 207.294 1352.8 207.178C1352.48 207.058 1352.11 206.998 1351.7 206.998V206.188C1352.27 206.188 1352.72 206.07 1353.06 205.834C1353.41 205.598 1353.58 205.25 1353.58 204.79C1353.58 204.546 1353.51 204.322 1353.38 204.118C1353.25 203.914 1353.07 203.752 1352.86 203.632C1352.65 203.508 1352.42 203.446 1352.17 203.446C1351.93 203.446 1351.69 203.508 1351.46 203.632C1351.23 203.752 1351.05 203.914 1350.9 204.118C1350.76 204.322 1350.69 204.546 1350.69 204.79H1349.68C1349.68 204.466 1349.74 204.162 1349.88 203.878C1350.01 203.594 1350.2 203.344 1350.43 203.128C1350.66 202.912 1350.93 202.744 1351.23 202.624C1351.52 202.5 1351.83 202.438 1352.16 202.438C1352.59 202.438 1352.99 202.544 1353.36 202.756C1353.72 202.968 1354.02 203.252 1354.24 203.608C1354.47 203.964 1354.59 204.358 1354.59 204.79C1354.59 205.178 1354.49 205.536 1354.29 205.864C1354.1 206.192 1353.83 206.422 1353.49 206.554C1353.79 206.654 1354.03 206.81 1354.23 207.022C1354.43 207.23 1354.58 207.47 1354.68 207.742C1354.79 208.014 1354.84 208.3 1354.84 208.6C1354.84 209.068 1354.72 209.496 1354.47 209.884C1354.23 210.272 1353.91 210.582 1353.51 210.814C1353.12 211.042 1352.68 211.156 1352.21 211.156ZM1358.18 211.156C1357.67 211.156 1357.22 211.042 1356.82 210.814C1356.43 210.582 1356.12 210.274 1355.9 209.89C1355.67 209.502 1355.56 209.072 1355.56 208.6H1356.57C1356.57 208.884 1356.63 209.144 1356.77 209.38C1356.9 209.612 1357.08 209.798 1357.32 209.938C1357.56 210.078 1357.85 210.148 1358.18 210.148C1358.46 210.148 1358.72 210.078 1358.97 209.938C1359.22 209.798 1359.42 209.612 1359.57 209.38C1359.72 209.144 1359.8 208.884 1359.8 208.6C1359.8 208.244 1359.7 207.948 1359.52 207.712C1359.34 207.472 1359.09 207.294 1358.76 207.178C1358.44 207.058 1358.08 206.998 1357.67 206.998V206.188C1358.23 206.188 1358.69 206.07 1359.03 205.834C1359.37 205.598 1359.54 205.25 1359.54 204.79C1359.54 204.546 1359.48 204.322 1359.35 204.118C1359.21 203.914 1359.04 203.752 1358.82 203.632C1358.61 203.508 1358.38 203.446 1358.14 203.446C1357.89 203.446 1357.65 203.508 1357.43 203.632C1357.2 203.752 1357.01 203.914 1356.87 204.118C1356.72 204.322 1356.65 204.546 1356.65 204.79H1355.64C1355.64 204.466 1355.71 204.162 1355.84 203.878C1355.98 203.594 1356.16 203.344 1356.39 203.128C1356.63 202.912 1356.9 202.744 1357.19 202.624C1357.49 202.5 1357.8 202.438 1358.13 202.438C1358.56 202.438 1358.95 202.544 1359.32 202.756C1359.69 202.968 1359.99 203.252 1360.21 203.608C1360.44 203.964 1360.55 204.358 1360.55 204.79C1360.55 205.178 1360.45 205.536 1360.26 205.864C1360.06 206.192 1359.8 206.422 1359.46 206.554C1359.75 206.654 1360 206.81 1360.2 207.022C1360.4 207.23 1360.55 207.47 1360.65 207.742C1360.75 208.014 1360.8 208.3 1360.8 208.6C1360.8 209.068 1360.68 209.496 1360.44 209.884C1360.2 210.272 1359.88 210.582 1359.48 210.814C1359.08 211.042 1358.65 211.156 1358.18 211.156ZM1361.64 211.672L1362.02 209.644H1363.02L1362.32 211.672H1361.64ZM1366.93 211.156C1366.43 211.156 1365.97 211.042 1365.56 210.814C1365.15 210.586 1364.83 210.282 1364.58 209.902C1364.34 209.518 1364.22 209.094 1364.22 208.63C1364.22 208.198 1364.34 207.802 1364.56 207.442C1364.79 207.078 1365.09 206.79 1365.46 206.578C1365.16 206.386 1364.91 206.132 1364.71 205.816C1364.52 205.496 1364.43 205.15 1364.43 204.778C1364.43 204.346 1364.54 203.954 1364.76 203.602C1364.99 203.25 1365.29 202.97 1365.67 202.762C1366.05 202.55 1366.47 202.444 1366.93 202.444C1367.39 202.444 1367.81 202.55 1368.18 202.762C1368.56 202.97 1368.86 203.25 1369.09 203.602C1369.32 203.954 1369.43 204.346 1369.43 204.778C1369.43 205.15 1369.33 205.496 1369.14 205.816C1368.95 206.132 1368.7 206.386 1368.39 206.578C1368.77 206.79 1369.07 207.078 1369.3 207.442C1369.53 207.802 1369.64 208.198 1369.64 208.63C1369.64 209.09 1369.52 209.512 1369.27 209.896C1369.03 210.28 1368.7 210.586 1368.29 210.814C1367.88 211.042 1367.43 211.156 1366.93 211.156ZM1366.93 210.148C1367.23 210.148 1367.51 210.08 1367.75 209.944C1368 209.808 1368.2 209.626 1368.34 209.398C1368.49 209.166 1368.57 208.91 1368.57 208.63C1368.57 208.346 1368.49 208.09 1368.34 207.862C1368.2 207.634 1368 207.452 1367.75 207.316C1367.51 207.18 1367.23 207.112 1366.93 207.112C1366.63 207.112 1366.35 207.18 1366.11 207.316C1365.86 207.452 1365.66 207.634 1365.51 207.862C1365.36 208.09 1365.29 208.346 1365.29 208.63C1365.29 208.91 1365.36 209.166 1365.51 209.398C1365.66 209.626 1365.86 209.808 1366.11 209.944C1366.35 210.08 1366.63 210.148 1366.93 210.148ZM1366.93 206.104C1367.19 206.104 1367.43 206.044 1367.65 205.924C1367.86 205.804 1368.04 205.644 1368.16 205.444C1368.3 205.244 1368.36 205.022 1368.36 204.778C1368.36 204.53 1368.3 204.308 1368.16 204.112C1368.04 203.912 1367.86 203.752 1367.65 203.632C1367.43 203.512 1367.19 203.452 1366.93 203.452C1366.66 203.452 1366.42 203.512 1366.21 203.632C1365.99 203.752 1365.82 203.912 1365.69 204.112C1365.56 204.308 1365.49 204.53 1365.49 204.778C1365.49 205.022 1365.56 205.244 1365.69 205.444C1365.82 205.644 1365.99 205.804 1366.21 205.924C1366.42 206.044 1366.66 206.104 1366.93 206.104ZM1373.3 211.156C1372.8 211.156 1372.35 211.042 1371.94 210.814C1371.53 210.586 1371.2 210.282 1370.96 209.902C1370.72 209.518 1370.6 209.094 1370.6 208.63C1370.6 208.198 1370.71 207.802 1370.94 207.442C1371.17 207.078 1371.47 206.79 1371.83 206.578C1371.53 206.386 1371.29 206.132 1371.09 205.816C1370.9 205.496 1370.8 205.15 1370.8 204.778C1370.8 204.346 1370.91 203.954 1371.14 203.602C1371.37 203.25 1371.67 202.97 1372.04 202.762C1372.42 202.55 1372.84 202.444 1373.3 202.444C1373.76 202.444 1374.18 202.55 1374.56 202.762C1374.94 202.97 1375.24 203.25 1375.46 203.602C1375.69 203.954 1375.81 204.346 1375.81 204.778C1375.81 205.15 1375.71 205.496 1375.52 205.816C1375.33 206.132 1375.08 206.386 1374.77 206.578C1375.15 206.79 1375.45 207.078 1375.67 207.442C1375.9 207.802 1376.02 208.198 1376.02 208.63C1376.02 209.09 1375.89 209.512 1375.65 209.896C1375.41 210.28 1375.08 210.586 1374.67 210.814C1374.26 211.042 1373.8 211.156 1373.3 211.156ZM1373.3 210.148C1373.61 210.148 1373.88 210.08 1374.13 209.944C1374.37 209.808 1374.57 209.626 1374.72 209.398C1374.87 209.166 1374.94 208.91 1374.94 208.63C1374.94 208.346 1374.87 208.09 1374.72 207.862C1374.57 207.634 1374.37 207.452 1374.13 207.316C1373.88 207.18 1373.61 207.112 1373.3 207.112C1373 207.112 1372.73 207.18 1372.48 207.316C1372.23 207.452 1372.04 207.634 1371.89 207.862C1371.74 208.09 1371.67 208.346 1371.67 208.63C1371.67 208.91 1371.74 209.166 1371.89 209.398C1372.04 209.626 1372.23 209.808 1372.48 209.944C1372.73 210.08 1373 210.148 1373.3 210.148ZM1373.3 206.104C1373.57 206.104 1373.81 206.044 1374.02 205.924C1374.24 205.804 1374.41 205.644 1374.54 205.444C1374.67 205.244 1374.74 205.022 1374.74 204.778C1374.74 204.53 1374.67 204.308 1374.54 204.112C1374.41 203.912 1374.24 203.752 1374.02 203.632C1373.81 203.512 1373.57 203.452 1373.3 203.452C1373.04 203.452 1372.8 203.512 1372.58 203.632C1372.37 203.752 1372.19 203.912 1372.06 204.112C1371.93 204.308 1371.87 204.53 1371.87 204.778C1371.87 205.022 1371.93 205.244 1372.06 205.444C1372.19 205.644 1372.37 205.804 1372.58 205.924C1372.8 206.044 1373.04 206.104 1373.3 206.104ZM1379.68 211.156C1379.18 211.156 1378.72 211.042 1378.31 210.814C1377.9 210.586 1377.58 210.282 1377.33 209.902C1377.09 209.518 1376.97 209.094 1376.97 208.63C1376.97 208.198 1377.09 207.802 1377.31 207.442C1377.54 207.078 1377.84 206.79 1378.21 206.578C1377.91 206.386 1377.66 206.132 1377.46 205.816C1377.27 205.496 1377.18 205.15 1377.18 204.778C1377.18 204.346 1377.29 203.954 1377.51 203.602C1377.74 203.25 1378.04 202.97 1378.42 202.762C1378.8 202.55 1379.22 202.444 1379.68 202.444C1380.14 202.444 1380.56 202.55 1380.93 202.762C1381.31 202.97 1381.61 203.25 1381.84 203.602C1382.07 203.954 1382.18 204.346 1382.18 204.778C1382.18 205.15 1382.08 205.496 1381.89 205.816C1381.7 206.132 1381.45 206.386 1381.14 206.578C1381.52 206.79 1381.82 207.078 1382.05 207.442C1382.28 207.802 1382.39 208.198 1382.39 208.63C1382.39 209.09 1382.27 209.512 1382.02 209.896C1381.78 210.28 1381.45 210.586 1381.04 210.814C1380.63 211.042 1380.18 211.156 1379.68 211.156ZM1379.68 210.148C1379.98 210.148 1380.26 210.08 1380.5 209.944C1380.75 209.808 1380.95 209.626 1381.09 209.398C1381.24 209.166 1381.32 208.91 1381.32 208.63C1381.32 208.346 1381.24 208.09 1381.09 207.862C1380.95 207.634 1380.75 207.452 1380.5 207.316C1380.26 207.18 1379.98 207.112 1379.68 207.112C1379.38 207.112 1379.1 207.18 1378.86 207.316C1378.61 207.452 1378.41 207.634 1378.26 207.862C1378.11 208.09 1378.04 208.346 1378.04 208.63C1378.04 208.91 1378.11 209.166 1378.26 209.398C1378.41 209.626 1378.61 209.808 1378.86 209.944C1379.1 210.08 1379.38 210.148 1379.68 210.148ZM1379.68 206.104C1379.94 206.104 1380.18 206.044 1380.4 205.924C1380.61 205.804 1380.79 205.644 1380.91 205.444C1381.05 205.244 1381.11 205.022 1381.11 204.778C1381.11 204.53 1381.05 204.308 1380.91 204.112C1380.79 203.912 1380.61 203.752 1380.4 203.632C1380.18 203.512 1379.94 203.452 1379.68 203.452C1379.41 203.452 1379.17 203.512 1378.96 203.632C1378.74 203.752 1378.57 203.912 1378.44 204.112C1378.31 204.308 1378.24 204.53 1378.24 204.778C1378.24 205.022 1378.31 205.244 1378.44 205.444C1378.57 205.644 1378.74 205.804 1378.96 205.924C1379.17 206.044 1379.41 206.104 1379.68 206.104Z" fill="#EFEFE4"/>
<path d="M0 84H174.838L364.074 133H542.511L728.148 33H917.384L1097.36 73.5L1283 49" stroke="#68FFFF" stroke-width="2"/>
<path d="M1 95.25H175.701L364.79 83H543.088L728.58 108H917.669L1097.51 97.875L1283 104" stroke="#68FF9B" stroke-width="2"/>
<defs>
<clipPath id="clip0_1_33619">
<rect width="1283" height="18" fill="white" transform="translate(0 224)"/>
</clipPath>
</defs>
</svg>
