<svg width="1392" height="242" viewBox="0 0 1392 242" fill="none" xmlns="http://www.w3.org/2000/svg">
<g clip-path="url(#clip0_59_9740)">
<path d="M1.55677 237V229.608H0.614766L0.896766 228.6H2.56477V237H1.55677ZM4.94348 237V229.608H4.00148L4.28348 228.6H5.95148V237H4.94348ZM7.9342 232.104C7.7822 232.104 7.6522 232.05 7.5442 231.942C7.4402 231.834 7.3882 231.702 7.3882 231.546C7.3882 231.398 7.4402 231.27 7.5442 231.162C7.6522 231.054 7.7822 231 7.9342 231C8.0902 231 8.2222 231.054 8.3302 231.162C8.4382 231.27 8.4922 231.398 8.4922 231.546C8.4922 231.702 8.4382 231.834 8.3302 231.942C8.2222 232.05 8.0902 232.104 7.9342 232.104ZM7.9342 237.156C7.7822 237.156 7.6522 237.102 7.5442 236.994C7.4402 236.886 7.3882 236.754 7.3882 236.598C7.3882 236.45 7.4402 236.322 7.5442 236.214C7.6522 236.106 7.7822 236.052 7.9342 236.052C8.0902 236.052 8.2222 236.106 8.3302 236.214C8.4382 236.322 8.4922 236.45 8.4922 236.598C8.4922 236.754 8.4382 236.886 8.3302 236.994C8.2222 237.102 8.0902 237.156 7.9342 237.156ZM12.8108 237.156C12.3108 237.156 11.8628 237.044 11.4668 236.82C11.0708 236.592 10.7308 236.278 10.4468 235.878C10.1628 235.478 9.9468 235.016 9.7988 234.492C9.6508 233.964 9.5768 233.4 9.5768 232.8C9.5768 232.2 9.6508 231.636 9.7988 231.108C9.9468 230.58 10.1628 230.118 10.4468 229.722C10.7308 229.322 11.0708 229.01 11.4668 228.786C11.8628 228.558 12.3108 228.444 12.8108 228.444C13.3068 228.444 13.7528 228.558 14.1488 228.786C14.5488 229.01 14.8868 229.322 15.1628 229.722C15.4428 230.118 15.6568 230.58 15.8048 231.108C15.9568 231.636 16.0328 232.2 16.0328 232.8C16.0328 233.4 15.9568 233.964 15.8048 234.492C15.6568 235.016 15.4428 235.478 15.1628 235.878C14.8868 236.278 14.5488 236.592 14.1488 236.82C13.7528 237.044 13.3068 237.156 12.8108 237.156ZM12.8108 236.148C13.3108 236.148 13.7288 235.994 14.0648 235.686C14.4048 235.374 14.6588 234.964 14.8268 234.456C14.9948 233.948 15.0788 233.396 15.0788 232.8C15.0788 232.172 14.9908 231.606 14.8148 231.102C14.6428 230.594 14.3868 230.192 14.0468 229.896C13.7108 229.6 13.2988 229.452 12.8108 229.452C12.4268 229.452 12.0908 229.542 11.8028 229.722C11.5188 229.902 11.2828 230.148 11.0948 230.46C10.9068 230.772 10.7648 231.13 10.6688 231.534C10.5768 231.934 10.5308 232.356 10.5308 232.8C10.5308 233.396 10.6168 233.95 10.7888 234.462C10.9608 234.97 11.2148 235.378 11.5508 235.686C11.8908 235.994 12.3108 236.148 12.8108 236.148ZM19.8186 237.156C19.3186 237.156 18.8706 237.044 18.4746 236.82C18.0786 236.592 17.7386 236.278 17.4546 235.878C17.1706 235.478 16.9546 235.016 16.8066 234.492C16.6586 233.964 16.5846 233.4 16.5846 232.8C16.5846 232.2 16.6586 231.636 16.8066 231.108C16.9546 230.58 17.1706 230.118 17.4546 229.722C17.7386 229.322 18.0786 229.01 18.4746 228.786C18.8706 228.558 19.3186 228.444 19.8186 228.444C20.3146 228.444 20.7606 228.558 21.1566 228.786C21.5566 229.01 21.8946 229.322 22.1706 229.722C22.4506 230.118 22.6646 230.58 22.8126 231.108C22.9646 231.636 23.0406 232.2 23.0406 232.8C23.0406 233.4 22.9646 233.964 22.8126 234.492C22.6646 235.016 22.4506 235.478 22.1706 235.878C21.8946 236.278 21.5566 236.592 21.1566 236.82C20.7606 237.044 20.3146 237.156 19.8186 237.156ZM19.8186 236.148C20.3186 236.148 20.7366 235.994 21.0726 235.686C21.4126 235.374 21.6666 234.964 21.8346 234.456C22.0026 233.948 22.0866 233.396 22.0866 232.8C22.0866 232.172 21.9986 231.606 21.8226 231.102C21.6506 230.594 21.3946 230.192 21.0546 229.896C20.7186 229.6 20.3066 229.452 19.8186 229.452C19.4346 229.452 19.0986 229.542 18.8106 229.722C18.5266 229.902 18.2906 230.148 18.1026 230.46C17.9146 230.772 17.7726 231.13 17.6766 231.534C17.5846 231.934 17.5386 232.356 17.5386 232.8C17.5386 233.396 17.6246 233.95 17.7966 234.462C17.9686 234.97 18.2226 235.378 18.5586 235.686C18.8986 235.994 19.3186 236.148 19.8186 236.148ZM29.8133 228.6H31.0313L34.0853 237H33.0173L32.3933 235.284H28.4513L27.8333 237H26.7593L29.8133 228.6ZM28.8233 234.276H32.0213L30.4193 229.89L28.8233 234.276ZM34.804 237L36.43 228.6H37.204L39.472 234.564L41.734 228.6H42.508L44.14 237H43.114L41.932 230.904L39.802 236.544H39.136L37.006 230.904L35.83 237H34.804Z" fill="#EFEFE4"/>
<path d="M177.752 237V229.608H176.81L177.092 228.6H178.76V237H177.752ZM182.693 237.156C182.185 237.156 181.733 237.042 181.337 236.814C180.945 236.582 180.637 236.274 180.413 235.89C180.189 235.502 180.077 235.072 180.077 234.6H181.085C181.085 234.884 181.151 235.144 181.283 235.38C181.415 235.612 181.601 235.798 181.841 235.938C182.081 236.078 182.365 236.148 182.693 236.148C182.977 236.148 183.241 236.078 183.485 235.938C183.733 235.798 183.933 235.612 184.085 235.38C184.237 235.144 184.313 234.884 184.313 234.6C184.313 234.244 184.221 233.948 184.037 233.712C183.857 233.472 183.605 233.294 183.281 233.178C182.961 233.058 182.595 232.998 182.183 232.998V232.188C182.751 232.188 183.205 232.07 183.545 231.834C183.889 231.598 184.061 231.25 184.061 230.79C184.061 230.546 183.995 230.322 183.863 230.118C183.731 229.914 183.557 229.752 183.341 229.632C183.129 229.508 182.901 229.446 182.657 229.446C182.409 229.446 182.171 229.508 181.943 229.632C181.715 229.752 181.529 229.914 181.385 230.118C181.241 230.322 181.169 230.546 181.169 230.79H180.161C180.161 230.466 180.227 230.162 180.359 229.878C180.495 229.594 180.679 229.344 180.911 229.128C181.147 228.912 181.413 228.744 181.709 228.624C182.005 228.5 182.317 228.438 182.645 228.438C183.073 228.438 183.471 228.544 183.839 228.756C184.207 228.968 184.503 229.252 184.727 229.608C184.955 229.964 185.069 230.358 185.069 230.79C185.069 231.178 184.971 231.536 184.775 231.864C184.579 232.192 184.313 232.422 183.977 232.554C184.269 232.654 184.515 232.81 184.715 233.022C184.915 233.23 185.065 233.47 185.165 233.742C185.269 234.014 185.321 234.3 185.321 234.6C185.321 235.068 185.199 235.496 184.955 235.884C184.715 236.272 184.395 236.582 183.995 236.814C183.599 237.042 183.165 237.156 182.693 237.156ZM186.708 232.104C186.556 232.104 186.426 232.05 186.318 231.942C186.214 231.834 186.162 231.702 186.162 231.546C186.162 231.398 186.214 231.27 186.318 231.162C186.426 231.054 186.556 231 186.708 231C186.864 231 186.996 231.054 187.104 231.162C187.212 231.27 187.266 231.398 187.266 231.546C187.266 231.702 187.212 231.834 187.104 231.942C186.996 232.05 186.864 232.104 186.708 232.104ZM186.708 237.156C186.556 237.156 186.426 237.102 186.318 236.994C186.214 236.886 186.162 236.754 186.162 236.598C186.162 236.45 186.214 236.322 186.318 236.214C186.426 236.106 186.556 236.052 186.708 236.052C186.864 236.052 186.996 236.106 187.104 236.214C187.212 236.322 187.266 236.45 187.266 236.598C187.266 236.754 187.212 236.886 187.104 236.994C186.996 237.102 186.864 237.156 186.708 237.156ZM191.584 237.156C191.084 237.156 190.636 237.044 190.24 236.82C189.844 236.592 189.504 236.278 189.22 235.878C188.936 235.478 188.72 235.016 188.572 234.492C188.424 233.964 188.35 233.4 188.35 232.8C188.35 232.2 188.424 231.636 188.572 231.108C188.72 230.58 188.936 230.118 189.22 229.722C189.504 229.322 189.844 229.01 190.24 228.786C190.636 228.558 191.084 228.444 191.584 228.444C192.08 228.444 192.526 228.558 192.922 228.786C193.322 229.01 193.66 229.322 193.936 229.722C194.216 230.118 194.43 230.58 194.578 231.108C194.73 231.636 194.806 232.2 194.806 232.8C194.806 233.4 194.73 233.964 194.578 234.492C194.43 235.016 194.216 235.478 193.936 235.878C193.66 236.278 193.322 236.592 192.922 236.82C192.526 237.044 192.08 237.156 191.584 237.156ZM191.584 236.148C192.084 236.148 192.502 235.994 192.838 235.686C193.178 235.374 193.432 234.964 193.6 234.456C193.768 233.948 193.852 233.396 193.852 232.8C193.852 232.172 193.764 231.606 193.588 231.102C193.416 230.594 193.16 230.192 192.82 229.896C192.484 229.6 192.072 229.452 191.584 229.452C191.2 229.452 190.864 229.542 190.576 229.722C190.292 229.902 190.056 230.148 189.868 230.46C189.68 230.772 189.538 231.13 189.442 231.534C189.35 231.934 189.304 232.356 189.304 232.8C189.304 233.396 189.39 233.95 189.562 234.462C189.734 234.97 189.988 235.378 190.324 235.686C190.664 235.994 191.084 236.148 191.584 236.148ZM198.592 237.156C198.092 237.156 197.644 237.044 197.248 236.82C196.852 236.592 196.512 236.278 196.228 235.878C195.944 235.478 195.728 235.016 195.58 234.492C195.432 233.964 195.358 233.4 195.358 232.8C195.358 232.2 195.432 231.636 195.58 231.108C195.728 230.58 195.944 230.118 196.228 229.722C196.512 229.322 196.852 229.01 197.248 228.786C197.644 228.558 198.092 228.444 198.592 228.444C199.088 228.444 199.534 228.558 199.93 228.786C200.33 229.01 200.668 229.322 200.944 229.722C201.224 230.118 201.438 230.58 201.586 231.108C201.738 231.636 201.814 232.2 201.814 232.8C201.814 233.4 201.738 233.964 201.586 234.492C201.438 235.016 201.224 235.478 200.944 235.878C200.668 236.278 200.33 236.592 199.93 236.82C199.534 237.044 199.088 237.156 198.592 237.156ZM198.592 236.148C199.092 236.148 199.51 235.994 199.846 235.686C200.186 235.374 200.44 234.964 200.608 234.456C200.776 233.948 200.86 233.396 200.86 232.8C200.86 232.172 200.772 231.606 200.596 231.102C200.424 230.594 200.168 230.192 199.828 229.896C199.492 229.6 199.08 229.452 198.592 229.452C198.208 229.452 197.872 229.542 197.584 229.722C197.3 229.902 197.064 230.148 196.876 230.46C196.688 230.772 196.546 231.13 196.45 231.534C196.358 231.934 196.312 232.356 196.312 232.8C196.312 233.396 196.398 233.95 196.57 234.462C196.742 234.97 196.996 235.378 197.332 235.686C197.672 235.994 198.092 236.148 198.592 236.148ZM205.773 237V228.6H208.545C208.997 228.6 209.403 228.71 209.763 228.93C210.127 229.15 210.415 229.448 210.627 229.824C210.843 230.196 210.951 230.612 210.951 231.072C210.951 231.54 210.841 231.962 210.621 232.338C210.405 232.71 210.113 233.006 209.745 233.226C209.381 233.442 208.981 233.55 208.545 233.55H206.781V237H205.773ZM206.781 232.542H208.455C208.727 232.542 208.975 232.476 209.199 232.344C209.427 232.208 209.607 232.026 209.739 231.798C209.875 231.566 209.943 231.306 209.943 231.018C209.943 230.726 209.875 230.466 209.739 230.238C209.607 230.006 209.427 229.824 209.199 229.692C208.975 229.556 208.727 229.488 208.455 229.488H206.781V232.542ZM211.609 237L213.235 228.6H214.009L216.277 234.564L218.539 228.6H219.313L220.945 237H219.919L218.737 230.904L216.607 236.544H215.941L213.811 230.904L212.635 237H211.609Z" fill="#EFEFE4"/>
<path d="M354.752 237V229.608H353.81L354.092 228.6H355.76V237H354.752ZM359.693 237.156C359.185 237.156 358.733 237.042 358.337 236.814C357.945 236.582 357.637 236.274 357.413 235.89C357.189 235.502 357.077 235.072 357.077 234.6H358.085C358.085 234.884 358.151 235.144 358.283 235.38C358.415 235.612 358.601 235.798 358.841 235.938C359.081 236.078 359.365 236.148 359.693 236.148C359.977 236.148 360.241 236.078 360.485 235.938C360.733 235.798 360.933 235.612 361.085 235.38C361.237 235.144 361.313 234.884 361.313 234.6C361.313 234.244 361.221 233.948 361.037 233.712C360.857 233.472 360.605 233.294 360.281 233.178C359.961 233.058 359.595 232.998 359.183 232.998V232.188C359.751 232.188 360.205 232.07 360.545 231.834C360.889 231.598 361.061 231.25 361.061 230.79C361.061 230.546 360.995 230.322 360.863 230.118C360.731 229.914 360.557 229.752 360.341 229.632C360.129 229.508 359.901 229.446 359.657 229.446C359.409 229.446 359.171 229.508 358.943 229.632C358.715 229.752 358.529 229.914 358.385 230.118C358.241 230.322 358.169 230.546 358.169 230.79H357.161C357.161 230.466 357.227 230.162 357.359 229.878C357.495 229.594 357.679 229.344 357.911 229.128C358.147 228.912 358.413 228.744 358.709 228.624C359.005 228.5 359.317 228.438 359.645 228.438C360.073 228.438 360.471 228.544 360.839 228.756C361.207 228.968 361.503 229.252 361.727 229.608C361.955 229.964 362.069 230.358 362.069 230.79C362.069 231.178 361.971 231.536 361.775 231.864C361.579 232.192 361.313 232.422 360.977 232.554C361.269 232.654 361.515 232.81 361.715 233.022C361.915 233.23 362.065 233.47 362.165 233.742C362.269 234.014 362.321 234.3 362.321 234.6C362.321 235.068 362.199 235.496 361.955 235.884C361.715 236.272 361.395 236.582 360.995 236.814C360.599 237.042 360.165 237.156 359.693 237.156ZM363.708 232.104C363.556 232.104 363.426 232.05 363.318 231.942C363.214 231.834 363.162 231.702 363.162 231.546C363.162 231.398 363.214 231.27 363.318 231.162C363.426 231.054 363.556 231 363.708 231C363.864 231 363.996 231.054 364.104 231.162C364.212 231.27 364.266 231.398 364.266 231.546C364.266 231.702 364.212 231.834 364.104 231.942C363.996 232.05 363.864 232.104 363.708 232.104ZM363.708 237.156C363.556 237.156 363.426 237.102 363.318 236.994C363.214 236.886 363.162 236.754 363.162 236.598C363.162 236.45 363.214 236.322 363.318 236.214C363.426 236.106 363.556 236.052 363.708 236.052C363.864 236.052 363.996 236.106 364.104 236.214C364.212 236.322 364.266 236.45 364.266 236.598C364.266 236.754 364.212 236.886 364.104 236.994C363.996 237.102 363.864 237.156 363.708 237.156ZM368.584 237.156C368.084 237.156 367.636 237.044 367.24 236.82C366.844 236.592 366.504 236.278 366.22 235.878C365.936 235.478 365.72 235.016 365.572 234.492C365.424 233.964 365.35 233.4 365.35 232.8C365.35 232.2 365.424 231.636 365.572 231.108C365.72 230.58 365.936 230.118 366.22 229.722C366.504 229.322 366.844 229.01 367.24 228.786C367.636 228.558 368.084 228.444 368.584 228.444C369.08 228.444 369.526 228.558 369.922 228.786C370.322 229.01 370.66 229.322 370.936 229.722C371.216 230.118 371.43 230.58 371.578 231.108C371.73 231.636 371.806 232.2 371.806 232.8C371.806 233.4 371.73 233.964 371.578 234.492C371.43 235.016 371.216 235.478 370.936 235.878C370.66 236.278 370.322 236.592 369.922 236.82C369.526 237.044 369.08 237.156 368.584 237.156ZM368.584 236.148C369.084 236.148 369.502 235.994 369.838 235.686C370.178 235.374 370.432 234.964 370.6 234.456C370.768 233.948 370.852 233.396 370.852 232.8C370.852 232.172 370.764 231.606 370.588 231.102C370.416 230.594 370.16 230.192 369.82 229.896C369.484 229.6 369.072 229.452 368.584 229.452C368.2 229.452 367.864 229.542 367.576 229.722C367.292 229.902 367.056 230.148 366.868 230.46C366.68 230.772 366.538 231.13 366.442 231.534C366.35 231.934 366.304 232.356 366.304 232.8C366.304 233.396 366.39 233.95 366.562 234.462C366.734 234.97 366.988 235.378 367.324 235.686C367.664 235.994 368.084 236.148 368.584 236.148ZM375.592 237.156C375.092 237.156 374.644 237.044 374.248 236.82C373.852 236.592 373.512 236.278 373.228 235.878C372.944 235.478 372.728 235.016 372.58 234.492C372.432 233.964 372.358 233.4 372.358 232.8C372.358 232.2 372.432 231.636 372.58 231.108C372.728 230.58 372.944 230.118 373.228 229.722C373.512 229.322 373.852 229.01 374.248 228.786C374.644 228.558 375.092 228.444 375.592 228.444C376.088 228.444 376.534 228.558 376.93 228.786C377.33 229.01 377.668 229.322 377.944 229.722C378.224 230.118 378.438 230.58 378.586 231.108C378.738 231.636 378.814 232.2 378.814 232.8C378.814 233.4 378.738 233.964 378.586 234.492C378.438 235.016 378.224 235.478 377.944 235.878C377.668 236.278 377.33 236.592 376.93 236.82C376.534 237.044 376.088 237.156 375.592 237.156ZM375.592 236.148C376.092 236.148 376.51 235.994 376.846 235.686C377.186 235.374 377.44 234.964 377.608 234.456C377.776 233.948 377.86 233.396 377.86 232.8C377.86 232.172 377.772 231.606 377.596 231.102C377.424 230.594 377.168 230.192 376.828 229.896C376.492 229.6 376.08 229.452 375.592 229.452C375.208 229.452 374.872 229.542 374.584 229.722C374.3 229.902 374.064 230.148 373.876 230.46C373.688 230.772 373.546 231.13 373.45 231.534C373.358 231.934 373.312 232.356 373.312 232.8C373.312 233.396 373.398 233.95 373.57 234.462C373.742 234.97 373.996 235.378 374.332 235.686C374.672 235.994 375.092 236.148 375.592 236.148ZM382.773 237V228.6H385.545C385.997 228.6 386.403 228.71 386.763 228.93C387.127 229.15 387.415 229.448 387.627 229.824C387.843 230.196 387.951 230.612 387.951 231.072C387.951 231.54 387.841 231.962 387.621 232.338C387.405 232.71 387.113 233.006 386.745 233.226C386.381 233.442 385.981 233.55 385.545 233.55H383.781V237H382.773ZM383.781 232.542H385.455C385.727 232.542 385.975 232.476 386.199 232.344C386.427 232.208 386.607 232.026 386.739 231.798C386.875 231.566 386.943 231.306 386.943 231.018C386.943 230.726 386.875 230.466 386.739 230.238C386.607 230.006 386.427 229.824 386.199 229.692C385.975 229.556 385.727 229.488 385.455 229.488H383.781V232.542ZM388.609 237L390.235 228.6H391.009L393.277 234.564L395.539 228.6H396.313L397.945 237H396.919L395.737 230.904L393.607 236.544H392.941L390.811 230.904L389.635 237H388.609Z" fill="#EFEFE4"/>
<path d="M531.752 237V229.608H530.81L531.092 228.6H532.76V237H531.752ZM536.693 237.156C536.185 237.156 535.733 237.042 535.337 236.814C534.945 236.582 534.637 236.274 534.413 235.89C534.189 235.502 534.077 235.072 534.077 234.6H535.085C535.085 234.884 535.151 235.144 535.283 235.38C535.415 235.612 535.601 235.798 535.841 235.938C536.081 236.078 536.365 236.148 536.693 236.148C536.977 236.148 537.241 236.078 537.485 235.938C537.733 235.798 537.933 235.612 538.085 235.38C538.237 235.144 538.313 234.884 538.313 234.6C538.313 234.244 538.221 233.948 538.037 233.712C537.857 233.472 537.605 233.294 537.281 233.178C536.961 233.058 536.595 232.998 536.183 232.998V232.188C536.751 232.188 537.205 232.07 537.545 231.834C537.889 231.598 538.061 231.25 538.061 230.79C538.061 230.546 537.995 230.322 537.863 230.118C537.731 229.914 537.557 229.752 537.341 229.632C537.129 229.508 536.901 229.446 536.657 229.446C536.409 229.446 536.171 229.508 535.943 229.632C535.715 229.752 535.529 229.914 535.385 230.118C535.241 230.322 535.169 230.546 535.169 230.79H534.161C534.161 230.466 534.227 230.162 534.359 229.878C534.495 229.594 534.679 229.344 534.911 229.128C535.147 228.912 535.413 228.744 535.709 228.624C536.005 228.5 536.317 228.438 536.645 228.438C537.073 228.438 537.471 228.544 537.839 228.756C538.207 228.968 538.503 229.252 538.727 229.608C538.955 229.964 539.069 230.358 539.069 230.79C539.069 231.178 538.971 231.536 538.775 231.864C538.579 232.192 538.313 232.422 537.977 232.554C538.269 232.654 538.515 232.81 538.715 233.022C538.915 233.23 539.065 233.47 539.165 233.742C539.269 234.014 539.321 234.3 539.321 234.6C539.321 235.068 539.199 235.496 538.955 235.884C538.715 236.272 538.395 236.582 537.995 236.814C537.599 237.042 537.165 237.156 536.693 237.156ZM540.708 232.104C540.556 232.104 540.426 232.05 540.318 231.942C540.214 231.834 540.162 231.702 540.162 231.546C540.162 231.398 540.214 231.27 540.318 231.162C540.426 231.054 540.556 231 540.708 231C540.864 231 540.996 231.054 541.104 231.162C541.212 231.27 541.266 231.398 541.266 231.546C541.266 231.702 541.212 231.834 541.104 231.942C540.996 232.05 540.864 232.104 540.708 232.104ZM540.708 237.156C540.556 237.156 540.426 237.102 540.318 236.994C540.214 236.886 540.162 236.754 540.162 236.598C540.162 236.45 540.214 236.322 540.318 236.214C540.426 236.106 540.556 236.052 540.708 236.052C540.864 236.052 540.996 236.106 541.104 236.214C541.212 236.322 541.266 236.45 541.266 236.598C541.266 236.754 541.212 236.886 541.104 236.994C540.996 237.102 540.864 237.156 540.708 237.156ZM545.584 237.156C545.084 237.156 544.636 237.044 544.24 236.82C543.844 236.592 543.504 236.278 543.22 235.878C542.936 235.478 542.72 235.016 542.572 234.492C542.424 233.964 542.35 233.4 542.35 232.8C542.35 232.2 542.424 231.636 542.572 231.108C542.72 230.58 542.936 230.118 543.22 229.722C543.504 229.322 543.844 229.01 544.24 228.786C544.636 228.558 545.084 228.444 545.584 228.444C546.08 228.444 546.526 228.558 546.922 228.786C547.322 229.01 547.66 229.322 547.936 229.722C548.216 230.118 548.43 230.58 548.578 231.108C548.73 231.636 548.806 232.2 548.806 232.8C548.806 233.4 548.73 233.964 548.578 234.492C548.43 235.016 548.216 235.478 547.936 235.878C547.66 236.278 547.322 236.592 546.922 236.82C546.526 237.044 546.08 237.156 545.584 237.156ZM545.584 236.148C546.084 236.148 546.502 235.994 546.838 235.686C547.178 235.374 547.432 234.964 547.6 234.456C547.768 233.948 547.852 233.396 547.852 232.8C547.852 232.172 547.764 231.606 547.588 231.102C547.416 230.594 547.16 230.192 546.82 229.896C546.484 229.6 546.072 229.452 545.584 229.452C545.2 229.452 544.864 229.542 544.576 229.722C544.292 229.902 544.056 230.148 543.868 230.46C543.68 230.772 543.538 231.13 543.442 231.534C543.35 231.934 543.304 232.356 543.304 232.8C543.304 233.396 543.39 233.95 543.562 234.462C543.734 234.97 543.988 235.378 544.324 235.686C544.664 235.994 545.084 236.148 545.584 236.148ZM552.592 237.156C552.092 237.156 551.644 237.044 551.248 236.82C550.852 236.592 550.512 236.278 550.228 235.878C549.944 235.478 549.728 235.016 549.58 234.492C549.432 233.964 549.358 233.4 549.358 232.8C549.358 232.2 549.432 231.636 549.58 231.108C549.728 230.58 549.944 230.118 550.228 229.722C550.512 229.322 550.852 229.01 551.248 228.786C551.644 228.558 552.092 228.444 552.592 228.444C553.088 228.444 553.534 228.558 553.93 228.786C554.33 229.01 554.668 229.322 554.944 229.722C555.224 230.118 555.438 230.58 555.586 231.108C555.738 231.636 555.814 232.2 555.814 232.8C555.814 233.4 555.738 233.964 555.586 234.492C555.438 235.016 555.224 235.478 554.944 235.878C554.668 236.278 554.33 236.592 553.93 236.82C553.534 237.044 553.088 237.156 552.592 237.156ZM552.592 236.148C553.092 236.148 553.51 235.994 553.846 235.686C554.186 235.374 554.44 234.964 554.608 234.456C554.776 233.948 554.86 233.396 554.86 232.8C554.86 232.172 554.772 231.606 554.596 231.102C554.424 230.594 554.168 230.192 553.828 229.896C553.492 229.6 553.08 229.452 552.592 229.452C552.208 229.452 551.872 229.542 551.584 229.722C551.3 229.902 551.064 230.148 550.876 230.46C550.688 230.772 550.546 231.13 550.45 231.534C550.358 231.934 550.312 232.356 550.312 232.8C550.312 233.396 550.398 233.95 550.57 234.462C550.742 234.97 550.996 235.378 551.332 235.686C551.672 235.994 552.092 236.148 552.592 236.148ZM559.773 237V228.6H562.545C562.997 228.6 563.403 228.71 563.763 228.93C564.127 229.15 564.415 229.448 564.627 229.824C564.843 230.196 564.951 230.612 564.951 231.072C564.951 231.54 564.841 231.962 564.621 232.338C564.405 232.71 564.113 233.006 563.745 233.226C563.381 233.442 562.981 233.55 562.545 233.55H560.781V237H559.773ZM560.781 232.542H562.455C562.727 232.542 562.975 232.476 563.199 232.344C563.427 232.208 563.607 232.026 563.739 231.798C563.875 231.566 563.943 231.306 563.943 231.018C563.943 230.726 563.875 230.466 563.739 230.238C563.607 230.006 563.427 229.824 563.199 229.692C562.975 229.556 562.727 229.488 562.455 229.488H560.781V232.542ZM565.609 237L567.235 228.6H568.009L570.277 234.564L572.539 228.6H573.313L574.945 237H573.919L572.737 230.904L570.607 236.544H569.941L567.811 230.904L566.635 237H565.609Z" fill="#EFEFE4"/>
<path d="M708.752 237V229.608H707.81L708.092 228.6H709.76V237H708.752ZM713.693 237.156C713.185 237.156 712.733 237.042 712.337 236.814C711.945 236.582 711.637 236.274 711.413 235.89C711.189 235.502 711.077 235.072 711.077 234.6H712.085C712.085 234.884 712.151 235.144 712.283 235.38C712.415 235.612 712.601 235.798 712.841 235.938C713.081 236.078 713.365 236.148 713.693 236.148C713.977 236.148 714.241 236.078 714.485 235.938C714.733 235.798 714.933 235.612 715.085 235.38C715.237 235.144 715.313 234.884 715.313 234.6C715.313 234.244 715.221 233.948 715.037 233.712C714.857 233.472 714.605 233.294 714.281 233.178C713.961 233.058 713.595 232.998 713.183 232.998V232.188C713.751 232.188 714.205 232.07 714.545 231.834C714.889 231.598 715.061 231.25 715.061 230.79C715.061 230.546 714.995 230.322 714.863 230.118C714.731 229.914 714.557 229.752 714.341 229.632C714.129 229.508 713.901 229.446 713.657 229.446C713.409 229.446 713.171 229.508 712.943 229.632C712.715 229.752 712.529 229.914 712.385 230.118C712.241 230.322 712.169 230.546 712.169 230.79H711.161C711.161 230.466 711.227 230.162 711.359 229.878C711.495 229.594 711.679 229.344 711.911 229.128C712.147 228.912 712.413 228.744 712.709 228.624C713.005 228.5 713.317 228.438 713.645 228.438C714.073 228.438 714.471 228.544 714.839 228.756C715.207 228.968 715.503 229.252 715.727 229.608C715.955 229.964 716.069 230.358 716.069 230.79C716.069 231.178 715.971 231.536 715.775 231.864C715.579 232.192 715.313 232.422 714.977 232.554C715.269 232.654 715.515 232.81 715.715 233.022C715.915 233.23 716.065 233.47 716.165 233.742C716.269 234.014 716.321 234.3 716.321 234.6C716.321 235.068 716.199 235.496 715.955 235.884C715.715 236.272 715.395 236.582 714.995 236.814C714.599 237.042 714.165 237.156 713.693 237.156ZM717.708 232.104C717.556 232.104 717.426 232.05 717.318 231.942C717.214 231.834 717.162 231.702 717.162 231.546C717.162 231.398 717.214 231.27 717.318 231.162C717.426 231.054 717.556 231 717.708 231C717.864 231 717.996 231.054 718.104 231.162C718.212 231.27 718.266 231.398 718.266 231.546C718.266 231.702 718.212 231.834 718.104 231.942C717.996 232.05 717.864 232.104 717.708 232.104ZM717.708 237.156C717.556 237.156 717.426 237.102 717.318 236.994C717.214 236.886 717.162 236.754 717.162 236.598C717.162 236.45 717.214 236.322 717.318 236.214C717.426 236.106 717.556 236.052 717.708 236.052C717.864 236.052 717.996 236.106 718.104 236.214C718.212 236.322 718.266 236.45 718.266 236.598C718.266 236.754 718.212 236.886 718.104 236.994C717.996 237.102 717.864 237.156 717.708 237.156ZM722.584 237.156C722.084 237.156 721.636 237.044 721.24 236.82C720.844 236.592 720.504 236.278 720.22 235.878C719.936 235.478 719.72 235.016 719.572 234.492C719.424 233.964 719.35 233.4 719.35 232.8C719.35 232.2 719.424 231.636 719.572 231.108C719.72 230.58 719.936 230.118 720.22 229.722C720.504 229.322 720.844 229.01 721.24 228.786C721.636 228.558 722.084 228.444 722.584 228.444C723.08 228.444 723.526 228.558 723.922 228.786C724.322 229.01 724.66 229.322 724.936 229.722C725.216 230.118 725.43 230.58 725.578 231.108C725.73 231.636 725.806 232.2 725.806 232.8C725.806 233.4 725.73 233.964 725.578 234.492C725.43 235.016 725.216 235.478 724.936 235.878C724.66 236.278 724.322 236.592 723.922 236.82C723.526 237.044 723.08 237.156 722.584 237.156ZM722.584 236.148C723.084 236.148 723.502 235.994 723.838 235.686C724.178 235.374 724.432 234.964 724.6 234.456C724.768 233.948 724.852 233.396 724.852 232.8C724.852 232.172 724.764 231.606 724.588 231.102C724.416 230.594 724.16 230.192 723.82 229.896C723.484 229.6 723.072 229.452 722.584 229.452C722.2 229.452 721.864 229.542 721.576 229.722C721.292 229.902 721.056 230.148 720.868 230.46C720.68 230.772 720.538 231.13 720.442 231.534C720.35 231.934 720.304 232.356 720.304 232.8C720.304 233.396 720.39 233.95 720.562 234.462C720.734 234.97 720.988 235.378 721.324 235.686C721.664 235.994 722.084 236.148 722.584 236.148ZM729.592 237.156C729.092 237.156 728.644 237.044 728.248 236.82C727.852 236.592 727.512 236.278 727.228 235.878C726.944 235.478 726.728 235.016 726.58 234.492C726.432 233.964 726.358 233.4 726.358 232.8C726.358 232.2 726.432 231.636 726.58 231.108C726.728 230.58 726.944 230.118 727.228 229.722C727.512 229.322 727.852 229.01 728.248 228.786C728.644 228.558 729.092 228.444 729.592 228.444C730.088 228.444 730.534 228.558 730.93 228.786C731.33 229.01 731.668 229.322 731.944 229.722C732.224 230.118 732.438 230.58 732.586 231.108C732.738 231.636 732.814 232.2 732.814 232.8C732.814 233.4 732.738 233.964 732.586 234.492C732.438 235.016 732.224 235.478 731.944 235.878C731.668 236.278 731.33 236.592 730.93 236.82C730.534 237.044 730.088 237.156 729.592 237.156ZM729.592 236.148C730.092 236.148 730.51 235.994 730.846 235.686C731.186 235.374 731.44 234.964 731.608 234.456C731.776 233.948 731.86 233.396 731.86 232.8C731.86 232.172 731.772 231.606 731.596 231.102C731.424 230.594 731.168 230.192 730.828 229.896C730.492 229.6 730.08 229.452 729.592 229.452C729.208 229.452 728.872 229.542 728.584 229.722C728.3 229.902 728.064 230.148 727.876 230.46C727.688 230.772 727.546 231.13 727.45 231.534C727.358 231.934 727.312 232.356 727.312 232.8C727.312 233.396 727.398 233.95 727.57 234.462C727.742 234.97 727.996 235.378 728.332 235.686C728.672 235.994 729.092 236.148 729.592 236.148ZM736.773 237V228.6H739.545C739.997 228.6 740.403 228.71 740.763 228.93C741.127 229.15 741.415 229.448 741.627 229.824C741.843 230.196 741.951 230.612 741.951 231.072C741.951 231.54 741.841 231.962 741.621 232.338C741.405 232.71 741.113 233.006 740.745 233.226C740.381 233.442 739.981 233.55 739.545 233.55H737.781V237H736.773ZM737.781 232.542H739.455C739.727 232.542 739.975 232.476 740.199 232.344C740.427 232.208 740.607 232.026 740.739 231.798C740.875 231.566 740.943 231.306 740.943 231.018C740.943 230.726 740.875 230.466 740.739 230.238C740.607 230.006 740.427 229.824 740.199 229.692C739.975 229.556 739.727 229.488 739.455 229.488H737.781V232.542ZM742.609 237L744.235 228.6H745.009L747.277 234.564L749.539 228.6H750.313L751.945 237H750.919L749.737 230.904L747.607 236.544H746.941L744.811 230.904L743.635 237H742.609Z" fill="#EFEFE4"/>
<path d="M885.752 237V229.608H884.81L885.092 228.6H886.76V237H885.752ZM890.693 237.156C890.185 237.156 889.733 237.042 889.337 236.814C888.945 236.582 888.637 236.274 888.413 235.89C888.189 235.502 888.077 235.072 888.077 234.6H889.085C889.085 234.884 889.151 235.144 889.283 235.38C889.415 235.612 889.601 235.798 889.841 235.938C890.081 236.078 890.365 236.148 890.693 236.148C890.977 236.148 891.241 236.078 891.485 235.938C891.733 235.798 891.933 235.612 892.085 235.38C892.237 235.144 892.313 234.884 892.313 234.6C892.313 234.244 892.221 233.948 892.037 233.712C891.857 233.472 891.605 233.294 891.281 233.178C890.961 233.058 890.595 232.998 890.183 232.998V232.188C890.751 232.188 891.205 232.07 891.545 231.834C891.889 231.598 892.061 231.25 892.061 230.79C892.061 230.546 891.995 230.322 891.863 230.118C891.731 229.914 891.557 229.752 891.341 229.632C891.129 229.508 890.901 229.446 890.657 229.446C890.409 229.446 890.171 229.508 889.943 229.632C889.715 229.752 889.529 229.914 889.385 230.118C889.241 230.322 889.169 230.546 889.169 230.79H888.161C888.161 230.466 888.227 230.162 888.359 229.878C888.495 229.594 888.679 229.344 888.911 229.128C889.147 228.912 889.413 228.744 889.709 228.624C890.005 228.5 890.317 228.438 890.645 228.438C891.073 228.438 891.471 228.544 891.839 228.756C892.207 228.968 892.503 229.252 892.727 229.608C892.955 229.964 893.069 230.358 893.069 230.79C893.069 231.178 892.971 231.536 892.775 231.864C892.579 232.192 892.313 232.422 891.977 232.554C892.269 232.654 892.515 232.81 892.715 233.022C892.915 233.23 893.065 233.47 893.165 233.742C893.269 234.014 893.321 234.3 893.321 234.6C893.321 235.068 893.199 235.496 892.955 235.884C892.715 236.272 892.395 236.582 891.995 236.814C891.599 237.042 891.165 237.156 890.693 237.156ZM894.708 232.104C894.556 232.104 894.426 232.05 894.318 231.942C894.214 231.834 894.162 231.702 894.162 231.546C894.162 231.398 894.214 231.27 894.318 231.162C894.426 231.054 894.556 231 894.708 231C894.864 231 894.996 231.054 895.104 231.162C895.212 231.27 895.266 231.398 895.266 231.546C895.266 231.702 895.212 231.834 895.104 231.942C894.996 232.05 894.864 232.104 894.708 232.104ZM894.708 237.156C894.556 237.156 894.426 237.102 894.318 236.994C894.214 236.886 894.162 236.754 894.162 236.598C894.162 236.45 894.214 236.322 894.318 236.214C894.426 236.106 894.556 236.052 894.708 236.052C894.864 236.052 894.996 236.106 895.104 236.214C895.212 236.322 895.266 236.45 895.266 236.598C895.266 236.754 895.212 236.886 895.104 236.994C894.996 237.102 894.864 237.156 894.708 237.156ZM899.584 237.156C899.084 237.156 898.636 237.044 898.24 236.82C897.844 236.592 897.504 236.278 897.22 235.878C896.936 235.478 896.72 235.016 896.572 234.492C896.424 233.964 896.35 233.4 896.35 232.8C896.35 232.2 896.424 231.636 896.572 231.108C896.72 230.58 896.936 230.118 897.22 229.722C897.504 229.322 897.844 229.01 898.24 228.786C898.636 228.558 899.084 228.444 899.584 228.444C900.08 228.444 900.526 228.558 900.922 228.786C901.322 229.01 901.66 229.322 901.936 229.722C902.216 230.118 902.43 230.58 902.578 231.108C902.73 231.636 902.806 232.2 902.806 232.8C902.806 233.4 902.73 233.964 902.578 234.492C902.43 235.016 902.216 235.478 901.936 235.878C901.66 236.278 901.322 236.592 900.922 236.82C900.526 237.044 900.08 237.156 899.584 237.156ZM899.584 236.148C900.084 236.148 900.502 235.994 900.838 235.686C901.178 235.374 901.432 234.964 901.6 234.456C901.768 233.948 901.852 233.396 901.852 232.8C901.852 232.172 901.764 231.606 901.588 231.102C901.416 230.594 901.16 230.192 900.82 229.896C900.484 229.6 900.072 229.452 899.584 229.452C899.2 229.452 898.864 229.542 898.576 229.722C898.292 229.902 898.056 230.148 897.868 230.46C897.68 230.772 897.538 231.13 897.442 231.534C897.35 231.934 897.304 232.356 897.304 232.8C897.304 233.396 897.39 233.95 897.562 234.462C897.734 234.97 897.988 235.378 898.324 235.686C898.664 235.994 899.084 236.148 899.584 236.148ZM906.592 237.156C906.092 237.156 905.644 237.044 905.248 236.82C904.852 236.592 904.512 236.278 904.228 235.878C903.944 235.478 903.728 235.016 903.58 234.492C903.432 233.964 903.358 233.4 903.358 232.8C903.358 232.2 903.432 231.636 903.58 231.108C903.728 230.58 903.944 230.118 904.228 229.722C904.512 229.322 904.852 229.01 905.248 228.786C905.644 228.558 906.092 228.444 906.592 228.444C907.088 228.444 907.534 228.558 907.93 228.786C908.33 229.01 908.668 229.322 908.944 229.722C909.224 230.118 909.438 230.58 909.586 231.108C909.738 231.636 909.814 232.2 909.814 232.8C909.814 233.4 909.738 233.964 909.586 234.492C909.438 235.016 909.224 235.478 908.944 235.878C908.668 236.278 908.33 236.592 907.93 236.82C907.534 237.044 907.088 237.156 906.592 237.156ZM906.592 236.148C907.092 236.148 907.51 235.994 907.846 235.686C908.186 235.374 908.44 234.964 908.608 234.456C908.776 233.948 908.86 233.396 908.86 232.8C908.86 232.172 908.772 231.606 908.596 231.102C908.424 230.594 908.168 230.192 907.828 229.896C907.492 229.6 907.08 229.452 906.592 229.452C906.208 229.452 905.872 229.542 905.584 229.722C905.3 229.902 905.064 230.148 904.876 230.46C904.688 230.772 904.546 231.13 904.45 231.534C904.358 231.934 904.312 232.356 904.312 232.8C904.312 233.396 904.398 233.95 904.57 234.462C904.742 234.97 904.996 235.378 905.332 235.686C905.672 235.994 906.092 236.148 906.592 236.148ZM913.773 237V228.6H916.545C916.997 228.6 917.403 228.71 917.763 228.93C918.127 229.15 918.415 229.448 918.627 229.824C918.843 230.196 918.951 230.612 918.951 231.072C918.951 231.54 918.841 231.962 918.621 232.338C918.405 232.71 918.113 233.006 917.745 233.226C917.381 233.442 916.981 233.55 916.545 233.55H914.781V237H913.773ZM914.781 232.542H916.455C916.727 232.542 916.975 232.476 917.199 232.344C917.427 232.208 917.607 232.026 917.739 231.798C917.875 231.566 917.943 231.306 917.943 231.018C917.943 230.726 917.875 230.466 917.739 230.238C917.607 230.006 917.427 229.824 917.199 229.692C916.975 229.556 916.727 229.488 916.455 229.488H914.781V232.542ZM919.609 237L921.235 228.6H922.009L924.277 234.564L926.539 228.6H927.313L928.945 237H927.919L926.737 230.904L924.607 236.544H923.941L921.811 230.904L920.635 237H919.609Z" fill="#EFEFE4"/>
<path d="M1062.75 237V229.608H1061.81L1062.09 228.6H1063.76V237H1062.75ZM1067.69 237.156C1067.18 237.156 1066.73 237.042 1066.34 236.814C1065.94 236.582 1065.64 236.274 1065.41 235.89C1065.19 235.502 1065.08 235.072 1065.08 234.6H1066.08C1066.08 234.884 1066.15 235.144 1066.28 235.38C1066.41 235.612 1066.6 235.798 1066.84 235.938C1067.08 236.078 1067.36 236.148 1067.69 236.148C1067.98 236.148 1068.24 236.078 1068.48 235.938C1068.73 235.798 1068.93 235.612 1069.08 235.38C1069.24 235.144 1069.31 234.884 1069.31 234.6C1069.31 234.244 1069.22 233.948 1069.04 233.712C1068.86 233.472 1068.6 233.294 1068.28 233.178C1067.96 233.058 1067.59 232.998 1067.18 232.998V232.188C1067.75 232.188 1068.2 232.07 1068.54 231.834C1068.89 231.598 1069.06 231.25 1069.06 230.79C1069.06 230.546 1068.99 230.322 1068.86 230.118C1068.73 229.914 1068.56 229.752 1068.34 229.632C1068.13 229.508 1067.9 229.446 1067.66 229.446C1067.41 229.446 1067.17 229.508 1066.94 229.632C1066.71 229.752 1066.53 229.914 1066.38 230.118C1066.24 230.322 1066.17 230.546 1066.17 230.79H1065.16C1065.16 230.466 1065.23 230.162 1065.36 229.878C1065.49 229.594 1065.68 229.344 1065.91 229.128C1066.15 228.912 1066.41 228.744 1066.71 228.624C1067 228.5 1067.32 228.438 1067.64 228.438C1068.07 228.438 1068.47 228.544 1068.84 228.756C1069.21 228.968 1069.5 229.252 1069.73 229.608C1069.95 229.964 1070.07 230.358 1070.07 230.79C1070.07 231.178 1069.97 231.536 1069.77 231.864C1069.58 232.192 1069.31 232.422 1068.98 232.554C1069.27 232.654 1069.51 232.81 1069.71 233.022C1069.91 233.23 1070.06 233.47 1070.16 233.742C1070.27 234.014 1070.32 234.3 1070.32 234.6C1070.32 235.068 1070.2 235.496 1069.95 235.884C1069.71 236.272 1069.39 236.582 1068.99 236.814C1068.6 237.042 1068.16 237.156 1067.69 237.156ZM1071.71 232.104C1071.56 232.104 1071.43 232.05 1071.32 231.942C1071.21 231.834 1071.16 231.702 1071.16 231.546C1071.16 231.398 1071.21 231.27 1071.32 231.162C1071.43 231.054 1071.56 231 1071.71 231C1071.86 231 1072 231.054 1072.1 231.162C1072.21 231.27 1072.27 231.398 1072.27 231.546C1072.27 231.702 1072.21 231.834 1072.1 231.942C1072 232.05 1071.86 232.104 1071.71 232.104ZM1071.71 237.156C1071.56 237.156 1071.43 237.102 1071.32 236.994C1071.21 236.886 1071.16 236.754 1071.16 236.598C1071.16 236.45 1071.21 236.322 1071.32 236.214C1071.43 236.106 1071.56 236.052 1071.71 236.052C1071.86 236.052 1072 236.106 1072.1 236.214C1072.21 236.322 1072.27 236.45 1072.27 236.598C1072.27 236.754 1072.21 236.886 1072.1 236.994C1072 237.102 1071.86 237.156 1071.71 237.156ZM1076.58 237.156C1076.08 237.156 1075.64 237.044 1075.24 236.82C1074.84 236.592 1074.5 236.278 1074.22 235.878C1073.94 235.478 1073.72 235.016 1073.57 234.492C1073.42 233.964 1073.35 233.4 1073.35 232.8C1073.35 232.2 1073.42 231.636 1073.57 231.108C1073.72 230.58 1073.94 230.118 1074.22 229.722C1074.5 229.322 1074.84 229.01 1075.24 228.786C1075.64 228.558 1076.08 228.444 1076.58 228.444C1077.08 228.444 1077.53 228.558 1077.92 228.786C1078.32 229.01 1078.66 229.322 1078.94 229.722C1079.22 230.118 1079.43 230.58 1079.58 231.108C1079.73 231.636 1079.81 232.2 1079.81 232.8C1079.81 233.4 1079.73 233.964 1079.58 234.492C1079.43 235.016 1079.22 235.478 1078.94 235.878C1078.66 236.278 1078.32 236.592 1077.92 236.82C1077.53 237.044 1077.08 237.156 1076.58 237.156ZM1076.58 236.148C1077.08 236.148 1077.5 235.994 1077.84 235.686C1078.18 235.374 1078.43 234.964 1078.6 234.456C1078.77 233.948 1078.85 233.396 1078.85 232.8C1078.85 232.172 1078.76 231.606 1078.59 231.102C1078.42 230.594 1078.16 230.192 1077.82 229.896C1077.48 229.6 1077.07 229.452 1076.58 229.452C1076.2 229.452 1075.86 229.542 1075.58 229.722C1075.29 229.902 1075.06 230.148 1074.87 230.46C1074.68 230.772 1074.54 231.13 1074.44 231.534C1074.35 231.934 1074.3 232.356 1074.3 232.8C1074.3 233.396 1074.39 233.95 1074.56 234.462C1074.73 234.97 1074.99 235.378 1075.32 235.686C1075.66 235.994 1076.08 236.148 1076.58 236.148ZM1083.59 237.156C1083.09 237.156 1082.64 237.044 1082.25 236.82C1081.85 236.592 1081.51 236.278 1081.23 235.878C1080.94 235.478 1080.73 235.016 1080.58 234.492C1080.43 233.964 1080.36 233.4 1080.36 232.8C1080.36 232.2 1080.43 231.636 1080.58 231.108C1080.73 230.58 1080.94 230.118 1081.23 229.722C1081.51 229.322 1081.85 229.01 1082.25 228.786C1082.64 228.558 1083.09 228.444 1083.59 228.444C1084.09 228.444 1084.53 228.558 1084.93 228.786C1085.33 229.01 1085.67 229.322 1085.94 229.722C1086.22 230.118 1086.44 230.58 1086.59 231.108C1086.74 231.636 1086.81 232.2 1086.81 232.8C1086.81 233.4 1086.74 233.964 1086.59 234.492C1086.44 235.016 1086.22 235.478 1085.94 235.878C1085.67 236.278 1085.33 236.592 1084.93 236.82C1084.53 237.044 1084.09 237.156 1083.59 237.156ZM1083.59 236.148C1084.09 236.148 1084.51 235.994 1084.85 235.686C1085.19 235.374 1085.44 234.964 1085.61 234.456C1085.78 233.948 1085.86 233.396 1085.86 232.8C1085.86 232.172 1085.77 231.606 1085.6 231.102C1085.42 230.594 1085.17 230.192 1084.83 229.896C1084.49 229.6 1084.08 229.452 1083.59 229.452C1083.21 229.452 1082.87 229.542 1082.58 229.722C1082.3 229.902 1082.06 230.148 1081.88 230.46C1081.69 230.772 1081.55 231.13 1081.45 231.534C1081.36 231.934 1081.31 232.356 1081.31 232.8C1081.31 233.396 1081.4 233.95 1081.57 234.462C1081.74 234.97 1082 235.378 1082.33 235.686C1082.67 235.994 1083.09 236.148 1083.59 236.148ZM1090.77 237V228.6H1093.54C1094 228.6 1094.4 228.71 1094.76 228.93C1095.13 229.15 1095.41 229.448 1095.63 229.824C1095.84 230.196 1095.95 230.612 1095.95 231.072C1095.95 231.54 1095.84 231.962 1095.62 232.338C1095.4 232.71 1095.11 233.006 1094.74 233.226C1094.38 233.442 1093.98 233.55 1093.54 233.55H1091.78V237H1090.77ZM1091.78 232.542H1093.45C1093.73 232.542 1093.97 232.476 1094.2 232.344C1094.43 232.208 1094.61 232.026 1094.74 231.798C1094.87 231.566 1094.94 231.306 1094.94 231.018C1094.94 230.726 1094.87 230.466 1094.74 230.238C1094.61 230.006 1094.43 229.824 1094.2 229.692C1093.97 229.556 1093.73 229.488 1093.45 229.488H1091.78V232.542ZM1096.61 237L1098.23 228.6H1099.01L1101.28 234.564L1103.54 228.6H1104.31L1105.94 237H1104.92L1103.74 230.904L1101.61 236.544H1100.94L1098.81 230.904L1097.63 237H1096.61Z" fill="#EFEFE4"/>
<path d="M1239.56 237V229.608H1238.61L1238.9 228.6H1240.56V237H1239.56ZM1242.94 237V229.608H1242L1242.28 228.6H1243.95V237H1242.94ZM1245.93 232.104C1245.78 232.104 1245.65 232.05 1245.54 231.942C1245.44 231.834 1245.39 231.702 1245.39 231.546C1245.39 231.398 1245.44 231.27 1245.54 231.162C1245.65 231.054 1245.78 231 1245.93 231C1246.09 231 1246.22 231.054 1246.33 231.162C1246.44 231.27 1246.49 231.398 1246.49 231.546C1246.49 231.702 1246.44 231.834 1246.33 231.942C1246.22 232.05 1246.09 232.104 1245.93 232.104ZM1245.93 237.156C1245.78 237.156 1245.65 237.102 1245.54 236.994C1245.44 236.886 1245.39 236.754 1245.39 236.598C1245.39 236.45 1245.44 236.322 1245.54 236.214C1245.65 236.106 1245.78 236.052 1245.93 236.052C1246.09 236.052 1246.22 236.106 1246.33 236.214C1246.44 236.322 1246.49 236.45 1246.49 236.598C1246.49 236.754 1246.44 236.886 1246.33 236.994C1246.22 237.102 1246.09 237.156 1245.93 237.156ZM1250.81 237.156C1250.31 237.156 1249.86 237.044 1249.47 236.82C1249.07 236.592 1248.73 236.278 1248.45 235.878C1248.16 235.478 1247.95 235.016 1247.8 234.492C1247.65 233.964 1247.58 233.4 1247.58 232.8C1247.58 232.2 1247.65 231.636 1247.8 231.108C1247.95 230.58 1248.16 230.118 1248.45 229.722C1248.73 229.322 1249.07 229.01 1249.47 228.786C1249.86 228.558 1250.31 228.444 1250.81 228.444C1251.31 228.444 1251.75 228.558 1252.15 228.786C1252.55 229.01 1252.89 229.322 1253.16 229.722C1253.44 230.118 1253.66 230.58 1253.8 231.108C1253.96 231.636 1254.03 232.2 1254.03 232.8C1254.03 233.4 1253.96 233.964 1253.8 234.492C1253.66 235.016 1253.44 235.478 1253.16 235.878C1252.89 236.278 1252.55 236.592 1252.15 236.82C1251.75 237.044 1251.31 237.156 1250.81 237.156ZM1250.81 236.148C1251.31 236.148 1251.73 235.994 1252.06 235.686C1252.4 235.374 1252.66 234.964 1252.83 234.456C1252.99 233.948 1253.08 233.396 1253.08 232.8C1253.08 232.172 1252.99 231.606 1252.81 231.102C1252.64 230.594 1252.39 230.192 1252.05 229.896C1251.71 229.6 1251.3 229.452 1250.81 229.452C1250.43 229.452 1250.09 229.542 1249.8 229.722C1249.52 229.902 1249.28 230.148 1249.09 230.46C1248.91 230.772 1248.76 231.13 1248.67 231.534C1248.58 231.934 1248.53 232.356 1248.53 232.8C1248.53 233.396 1248.62 233.95 1248.79 234.462C1248.96 234.97 1249.21 235.378 1249.55 235.686C1249.89 235.994 1250.31 236.148 1250.81 236.148ZM1257.82 237.156C1257.32 237.156 1256.87 237.044 1256.47 236.82C1256.08 236.592 1255.74 236.278 1255.45 235.878C1255.17 235.478 1254.95 235.016 1254.81 234.492C1254.66 233.964 1254.58 233.4 1254.58 232.8C1254.58 232.2 1254.66 231.636 1254.81 231.108C1254.95 230.58 1255.17 230.118 1255.45 229.722C1255.74 229.322 1256.08 229.01 1256.47 228.786C1256.87 228.558 1257.32 228.444 1257.82 228.444C1258.31 228.444 1258.76 228.558 1259.16 228.786C1259.56 229.01 1259.89 229.322 1260.17 229.722C1260.45 230.118 1260.66 230.58 1260.81 231.108C1260.96 231.636 1261.04 232.2 1261.04 232.8C1261.04 233.4 1260.96 233.964 1260.81 234.492C1260.66 235.016 1260.45 235.478 1260.17 235.878C1259.89 236.278 1259.56 236.592 1259.16 236.82C1258.76 237.044 1258.31 237.156 1257.82 237.156ZM1257.82 236.148C1258.32 236.148 1258.74 235.994 1259.07 235.686C1259.41 235.374 1259.67 234.964 1259.83 234.456C1260 233.948 1260.09 233.396 1260.09 232.8C1260.09 232.172 1260 231.606 1259.82 231.102C1259.65 230.594 1259.39 230.192 1259.05 229.896C1258.72 229.6 1258.31 229.452 1257.82 229.452C1257.43 229.452 1257.1 229.542 1256.81 229.722C1256.53 229.902 1256.29 230.148 1256.1 230.46C1255.91 230.772 1255.77 231.13 1255.68 231.534C1255.58 231.934 1255.54 232.356 1255.54 232.8C1255.54 233.396 1255.62 233.95 1255.8 234.462C1255.97 234.97 1256.22 235.378 1256.56 235.686C1256.9 235.994 1257.32 236.148 1257.82 236.148ZM1267.81 228.6H1269.03L1272.09 237H1271.02L1270.39 235.284H1266.45L1265.83 237H1264.76L1267.81 228.6ZM1266.82 234.276H1270.02L1268.42 229.89L1266.82 234.276ZM1272.8 237L1274.43 228.6H1275.2L1277.47 234.564L1279.73 228.6H1280.51L1282.14 237H1281.11L1279.93 230.904L1277.8 236.544H1277.14L1275.01 230.904L1273.83 237H1272.8Z" fill="#EFEFE4"/>
</g>
<path d="M1328.51 13V5.608H1327.56L1327.85 4.6H1329.51V13H1328.51ZM1330.95 13V12.106C1331.26 11.83 1331.6 11.522 1331.99 11.182C1332.37 10.838 1332.75 10.48 1333.13 10.108C1333.52 9.732 1333.87 9.36 1334.19 8.992C1334.51 8.624 1334.77 8.276 1334.96 7.948C1335.16 7.616 1335.26 7.326 1335.26 7.078C1335.26 6.782 1335.19 6.512 1335.04 6.268C1334.9 6.02 1334.7 5.822 1334.46 5.674C1334.22 5.526 1333.95 5.452 1333.66 5.452C1333.36 5.452 1333.09 5.526 1332.84 5.674C1332.6 5.822 1332.4 6.02 1332.25 6.268C1332.11 6.512 1332.04 6.782 1332.04 7.078H1331.03C1331.03 6.586 1331.15 6.142 1331.39 5.746C1331.63 5.346 1331.95 5.03 1332.34 4.798C1332.74 4.562 1333.18 4.444 1333.66 4.444C1334.14 4.444 1334.57 4.562 1334.96 4.798C1335.36 5.034 1335.68 5.352 1335.91 5.752C1336.15 6.148 1336.27 6.59 1336.27 7.078C1336.27 7.358 1336.2 7.66 1336.06 7.984C1335.93 8.304 1335.74 8.634 1335.5 8.974C1335.27 9.314 1335 9.658 1334.7 10.006C1334.4 10.35 1334.08 10.69 1333.75 11.026C1333.42 11.362 1333.09 11.684 1332.76 11.992H1336.37V13H1330.95ZM1340.82 13V10.732H1337.21V9.712L1340.57 4.6H1341.83V9.724H1342.66V10.732H1341.83V13H1340.82ZM1338.39 9.712L1340.82 9.724L1340.8 6.016L1338.39 9.712ZM1343.86 13.672L1344.24 11.644H1345.24L1344.54 13.672H1343.86ZM1349.56 13.156C1349.06 13.156 1348.61 13.044 1348.21 12.82C1347.82 12.592 1347.48 12.278 1347.19 11.878C1346.91 11.478 1346.69 11.016 1346.54 10.492C1346.4 9.964 1346.32 9.4 1346.32 8.8C1346.32 8.2 1346.4 7.636 1346.54 7.108C1346.69 6.58 1346.91 6.118 1347.19 5.722C1347.48 5.322 1347.82 5.01 1348.21 4.786C1348.61 4.558 1349.06 4.444 1349.56 4.444C1350.05 4.444 1350.5 4.558 1350.89 4.786C1351.29 5.01 1351.63 5.322 1351.91 5.722C1352.19 6.118 1352.4 6.58 1352.55 7.108C1352.7 7.636 1352.78 8.2 1352.78 8.8C1352.78 9.4 1352.7 9.964 1352.55 10.492C1352.4 11.016 1352.19 11.478 1351.91 11.878C1351.63 12.278 1351.29 12.592 1350.89 12.82C1350.5 13.044 1350.05 13.156 1349.56 13.156ZM1349.56 12.148C1350.06 12.148 1350.47 11.994 1350.81 11.686C1351.15 11.374 1351.4 10.964 1351.57 10.456C1351.74 9.948 1351.82 9.396 1351.82 8.8C1351.82 8.172 1351.74 7.606 1351.56 7.102C1351.39 6.594 1351.13 6.192 1350.79 5.896C1350.46 5.6 1350.04 5.452 1349.56 5.452C1349.17 5.452 1348.84 5.542 1348.55 5.722C1348.26 5.902 1348.03 6.148 1347.84 6.46C1347.65 6.772 1347.51 7.13 1347.41 7.534C1347.32 7.934 1347.28 8.356 1347.28 8.8C1347.28 9.396 1347.36 9.95 1347.53 10.462C1347.71 10.97 1347.96 11.378 1348.3 11.686C1348.64 11.994 1349.06 12.148 1349.56 12.148ZM1356.56 13.156C1356.06 13.156 1355.62 13.044 1355.22 12.82C1354.82 12.592 1354.48 12.278 1354.2 11.878C1353.92 11.478 1353.7 11.016 1353.55 10.492C1353.4 9.964 1353.33 9.4 1353.33 8.8C1353.33 8.2 1353.4 7.636 1353.55 7.108C1353.7 6.58 1353.92 6.118 1354.2 5.722C1354.48 5.322 1354.82 5.01 1355.22 4.786C1355.62 4.558 1356.06 4.444 1356.56 4.444C1357.06 4.444 1357.51 4.558 1357.9 4.786C1358.3 5.01 1358.64 5.322 1358.92 5.722C1359.2 6.118 1359.41 6.58 1359.56 7.108C1359.71 7.636 1359.79 8.2 1359.79 8.8C1359.79 9.4 1359.71 9.964 1359.56 10.492C1359.41 11.016 1359.2 11.478 1358.92 11.878C1358.64 12.278 1358.3 12.592 1357.9 12.82C1357.51 13.044 1357.06 13.156 1356.56 13.156ZM1356.56 12.148C1357.06 12.148 1357.48 11.994 1357.82 11.686C1358.16 11.374 1358.41 10.964 1358.58 10.456C1358.75 9.948 1358.83 9.396 1358.83 8.8C1358.83 8.172 1358.74 7.606 1358.57 7.102C1358.4 6.594 1358.14 6.192 1357.8 5.896C1357.46 5.6 1357.05 5.452 1356.56 5.452C1356.18 5.452 1355.84 5.542 1355.56 5.722C1355.27 5.902 1355.04 6.148 1354.85 6.46C1354.66 6.772 1354.52 7.13 1354.42 7.534C1354.33 7.934 1354.28 8.356 1354.28 8.8C1354.28 9.396 1354.37 9.95 1354.54 10.462C1354.71 10.97 1354.97 11.378 1355.3 11.686C1355.64 11.994 1356.06 12.148 1356.56 12.148ZM1363.57 13.156C1363.07 13.156 1362.62 13.044 1362.23 12.82C1361.83 12.592 1361.49 12.278 1361.21 11.878C1360.92 11.478 1360.71 11.016 1360.56 10.492C1360.41 9.964 1360.34 9.4 1360.34 8.8C1360.34 8.2 1360.41 7.636 1360.56 7.108C1360.71 6.58 1360.92 6.118 1361.21 5.722C1361.49 5.322 1361.83 5.01 1362.23 4.786C1362.62 4.558 1363.07 4.444 1363.57 4.444C1364.07 4.444 1364.51 4.558 1364.91 4.786C1365.31 5.01 1365.65 5.322 1365.92 5.722C1366.2 6.118 1366.42 6.58 1366.57 7.108C1366.72 7.636 1366.79 8.2 1366.79 8.8C1366.79 9.4 1366.72 9.964 1366.57 10.492C1366.42 11.016 1366.2 11.478 1365.92 11.878C1365.65 12.278 1365.31 12.592 1364.91 12.82C1364.51 13.044 1364.07 13.156 1363.57 13.156ZM1363.57 12.148C1364.07 12.148 1364.49 11.994 1364.83 11.686C1365.17 11.374 1365.42 10.964 1365.59 10.456C1365.76 9.948 1365.84 9.396 1365.84 8.8C1365.84 8.172 1365.75 7.606 1365.58 7.102C1365.4 6.594 1365.15 6.192 1364.81 5.896C1364.47 5.6 1364.06 5.452 1363.57 5.452C1363.19 5.452 1362.85 5.542 1362.56 5.722C1362.28 5.902 1362.04 6.148 1361.86 6.46C1361.67 6.772 1361.53 7.13 1361.43 7.534C1361.34 7.934 1361.29 8.356 1361.29 8.8C1361.29 9.396 1361.38 9.95 1361.55 10.462C1361.72 10.97 1361.98 11.378 1362.31 11.686C1362.65 11.994 1363.07 12.148 1363.57 12.148ZM1367.63 13.672L1368 11.644H1369.01L1368.3 13.672H1367.63ZM1373.32 13.156C1372.82 13.156 1372.37 13.044 1371.98 12.82C1371.58 12.592 1371.24 12.278 1370.96 11.878C1370.67 11.478 1370.46 11.016 1370.31 10.492C1370.16 9.964 1370.09 9.4 1370.09 8.8C1370.09 8.2 1370.16 7.636 1370.31 7.108C1370.46 6.58 1370.67 6.118 1370.96 5.722C1371.24 5.322 1371.58 5.01 1371.98 4.786C1372.37 4.558 1372.82 4.444 1373.32 4.444C1373.82 4.444 1374.26 4.558 1374.66 4.786C1375.06 5.01 1375.4 5.322 1375.67 5.722C1375.95 6.118 1376.17 6.58 1376.32 7.108C1376.47 7.636 1376.54 8.2 1376.54 8.8C1376.54 9.4 1376.47 9.964 1376.32 10.492C1376.17 11.016 1375.95 11.478 1375.67 11.878C1375.4 12.278 1375.06 12.592 1374.66 12.82C1374.26 13.044 1373.82 13.156 1373.32 13.156ZM1373.32 12.148C1373.82 12.148 1374.24 11.994 1374.58 11.686C1374.92 11.374 1375.17 10.964 1375.34 10.456C1375.51 9.948 1375.59 9.396 1375.59 8.8C1375.59 8.172 1375.5 7.606 1375.33 7.102C1375.15 6.594 1374.9 6.192 1374.56 5.896C1374.22 5.6 1373.81 5.452 1373.32 5.452C1372.94 5.452 1372.6 5.542 1372.31 5.722C1372.03 5.902 1371.79 6.148 1371.61 6.46C1371.42 6.772 1371.28 7.13 1371.18 7.534C1371.09 7.934 1371.04 8.356 1371.04 8.8C1371.04 9.396 1371.13 9.95 1371.3 10.462C1371.47 10.97 1371.73 11.378 1372.06 11.686C1372.4 11.994 1372.82 12.148 1373.32 12.148ZM1380.33 13.156C1379.83 13.156 1379.38 13.044 1378.99 12.82C1378.59 12.592 1378.25 12.278 1377.97 11.878C1377.68 11.478 1377.47 11.016 1377.32 10.492C1377.17 9.964 1377.1 9.4 1377.1 8.8C1377.1 8.2 1377.17 7.636 1377.32 7.108C1377.47 6.58 1377.68 6.118 1377.97 5.722C1378.25 5.322 1378.59 5.01 1378.99 4.786C1379.38 4.558 1379.83 4.444 1380.33 4.444C1380.83 4.444 1381.27 4.558 1381.67 4.786C1382.07 5.01 1382.41 5.322 1382.68 5.722C1382.96 6.118 1383.18 6.58 1383.32 7.108C1383.48 7.636 1383.55 8.2 1383.55 8.8C1383.55 9.4 1383.48 9.964 1383.32 10.492C1383.18 11.016 1382.96 11.478 1382.68 11.878C1382.41 12.278 1382.07 12.592 1381.67 12.82C1381.27 13.044 1380.83 13.156 1380.33 13.156ZM1380.33 12.148C1380.83 12.148 1381.25 11.994 1381.58 11.686C1381.92 11.374 1382.18 10.964 1382.35 10.456C1382.51 9.948 1382.6 9.396 1382.6 8.8C1382.6 8.172 1382.51 7.606 1382.33 7.102C1382.16 6.594 1381.91 6.192 1381.57 5.896C1381.23 5.6 1380.82 5.452 1380.33 5.452C1379.95 5.452 1379.61 5.542 1379.32 5.722C1379.04 5.902 1378.8 6.148 1378.61 6.46C1378.43 6.772 1378.28 7.13 1378.19 7.534C1378.1 7.934 1378.05 8.356 1378.05 8.8C1378.05 9.396 1378.14 9.95 1378.31 10.462C1378.48 10.97 1378.73 11.378 1379.07 11.686C1379.41 11.994 1379.83 12.148 1380.33 12.148ZM1387.34 13.156C1386.84 13.156 1386.39 13.044 1385.99 12.82C1385.6 12.592 1385.26 12.278 1384.97 11.878C1384.69 11.478 1384.47 11.016 1384.33 10.492C1384.18 9.964 1384.1 9.4 1384.1 8.8C1384.1 8.2 1384.18 7.636 1384.33 7.108C1384.47 6.58 1384.69 6.118 1384.97 5.722C1385.26 5.322 1385.6 5.01 1385.99 4.786C1386.39 4.558 1386.84 4.444 1387.34 4.444C1387.83 4.444 1388.28 4.558 1388.68 4.786C1389.08 5.01 1389.41 5.322 1389.69 5.722C1389.97 6.118 1390.18 6.58 1390.33 7.108C1390.48 7.636 1390.56 8.2 1390.56 8.8C1390.56 9.4 1390.48 9.964 1390.33 10.492C1390.18 11.016 1389.97 11.478 1389.69 11.878C1389.41 12.278 1389.08 12.592 1388.68 12.82C1388.28 13.044 1387.83 13.156 1387.34 13.156ZM1387.34 12.148C1387.84 12.148 1388.26 11.994 1388.59 11.686C1388.93 11.374 1389.19 10.964 1389.35 10.456C1389.52 9.948 1389.61 9.396 1389.61 8.8C1389.61 8.172 1389.52 7.606 1389.34 7.102C1389.17 6.594 1388.91 6.192 1388.57 5.896C1388.24 5.6 1387.83 5.452 1387.34 5.452C1386.95 5.452 1386.62 5.542 1386.33 5.722C1386.05 5.902 1385.81 6.148 1385.62 6.46C1385.43 6.772 1385.29 7.13 1385.2 7.534C1385.1 7.934 1385.06 8.356 1385.06 8.8C1385.06 9.396 1385.14 9.95 1385.32 10.462C1385.49 10.97 1385.74 11.378 1386.08 11.686C1386.42 11.994 1386.84 12.148 1387.34 12.148Z" fill="#EFEFE4"/>
<path d="M1328.55 79V71.608H1327.61L1327.89 70.6H1329.56V79H1328.55ZM1334.11 79.156C1333.61 79.156 1333.16 79.044 1332.76 78.82C1332.37 78.592 1332.03 78.278 1331.74 77.878C1331.46 77.478 1331.24 77.016 1331.1 76.492C1330.95 75.964 1330.87 75.4 1330.87 74.8C1330.87 74.2 1330.95 73.636 1331.1 73.108C1331.24 72.58 1331.46 72.118 1331.74 71.722C1332.03 71.322 1332.37 71.01 1332.76 70.786C1333.16 70.558 1333.61 70.444 1334.11 70.444C1334.6 70.444 1335.05 70.558 1335.45 70.786C1335.85 71.01 1336.18 71.322 1336.46 71.722C1336.74 72.118 1336.95 72.58 1337.1 73.108C1337.25 73.636 1337.33 74.2 1337.33 74.8C1337.33 75.4 1337.25 75.964 1337.1 76.492C1336.95 77.016 1336.74 77.478 1336.46 77.878C1336.18 78.278 1335.85 78.592 1335.45 78.82C1335.05 79.044 1334.6 79.156 1334.11 79.156ZM1334.11 78.148C1334.61 78.148 1335.03 77.994 1335.36 77.686C1335.7 77.374 1335.96 76.964 1336.12 76.456C1336.29 75.948 1336.38 75.396 1336.38 74.8C1336.38 74.172 1336.29 73.606 1336.11 73.102C1335.94 72.594 1335.68 72.192 1335.34 71.896C1335.01 71.6 1334.6 71.452 1334.11 71.452C1333.72 71.452 1333.39 71.542 1333.1 71.722C1332.82 71.902 1332.58 72.148 1332.39 72.46C1332.2 72.772 1332.06 73.13 1331.97 73.534C1331.87 73.934 1331.83 74.356 1331.83 74.8C1331.83 75.396 1331.91 75.95 1332.09 76.462C1332.26 76.97 1332.51 77.378 1332.85 77.686C1333.19 77.994 1333.61 78.148 1334.11 78.148ZM1341.78 79V76.732H1338.17V75.712L1341.53 70.6H1342.79V75.724H1343.62V76.732H1342.79V79H1341.78ZM1339.35 75.712L1341.78 75.724L1341.76 72.016L1339.35 75.712ZM1344.82 79.672L1345.19 77.644H1346.2L1345.49 79.672H1344.82ZM1350.51 79.156C1350.01 79.156 1349.57 79.044 1349.17 78.82C1348.77 78.592 1348.43 78.278 1348.15 77.878C1347.87 77.478 1347.65 77.016 1347.5 76.492C1347.35 75.964 1347.28 75.4 1347.28 74.8C1347.28 74.2 1347.35 73.636 1347.5 73.108C1347.65 72.58 1347.87 72.118 1348.15 71.722C1348.43 71.322 1348.77 71.01 1349.17 70.786C1349.57 70.558 1350.01 70.444 1350.51 70.444C1351.01 70.444 1351.46 70.558 1351.85 70.786C1352.25 71.01 1352.59 71.322 1352.87 71.722C1353.15 72.118 1353.36 72.58 1353.51 73.108C1353.66 73.636 1353.74 74.2 1353.74 74.8C1353.74 75.4 1353.66 75.964 1353.51 76.492C1353.36 77.016 1353.15 77.478 1352.87 77.878C1352.59 78.278 1352.25 78.592 1351.85 78.82C1351.46 79.044 1351.01 79.156 1350.51 79.156ZM1350.51 78.148C1351.01 78.148 1351.43 77.994 1351.77 77.686C1352.11 77.374 1352.36 76.964 1352.53 76.456C1352.7 75.948 1352.78 75.396 1352.78 74.8C1352.78 74.172 1352.69 73.606 1352.52 73.102C1352.35 72.594 1352.09 72.192 1351.75 71.896C1351.41 71.6 1351 71.452 1350.51 71.452C1350.13 71.452 1349.79 71.542 1349.51 71.722C1349.22 71.902 1348.99 72.148 1348.8 72.46C1348.61 72.772 1348.47 73.13 1348.37 73.534C1348.28 73.934 1348.23 74.356 1348.23 74.8C1348.23 75.396 1348.32 75.95 1348.49 76.462C1348.66 76.97 1348.92 77.378 1349.25 77.686C1349.59 77.994 1350.01 78.148 1350.51 78.148ZM1357.52 79.156C1357.02 79.156 1356.57 79.044 1356.18 78.82C1355.78 78.592 1355.44 78.278 1355.16 77.878C1354.87 77.478 1354.66 77.016 1354.51 76.492C1354.36 75.964 1354.29 75.4 1354.29 74.8C1354.29 74.2 1354.36 73.636 1354.51 73.108C1354.66 72.58 1354.87 72.118 1355.16 71.722C1355.44 71.322 1355.78 71.01 1356.18 70.786C1356.57 70.558 1357.02 70.444 1357.52 70.444C1358.02 70.444 1358.46 70.558 1358.86 70.786C1359.26 71.01 1359.6 71.322 1359.87 71.722C1360.15 72.118 1360.37 72.58 1360.52 73.108C1360.67 73.636 1360.74 74.2 1360.74 74.8C1360.74 75.4 1360.67 75.964 1360.52 76.492C1360.37 77.016 1360.15 77.478 1359.87 77.878C1359.6 78.278 1359.26 78.592 1358.86 78.82C1358.46 79.044 1358.02 79.156 1357.52 79.156ZM1357.52 78.148C1358.02 78.148 1358.44 77.994 1358.78 77.686C1359.12 77.374 1359.37 76.964 1359.54 76.456C1359.71 75.948 1359.79 75.396 1359.79 74.8C1359.79 74.172 1359.7 73.606 1359.53 73.102C1359.35 72.594 1359.1 72.192 1358.76 71.896C1358.42 71.6 1358.01 71.452 1357.52 71.452C1357.14 71.452 1356.8 71.542 1356.51 71.722C1356.23 71.902 1355.99 72.148 1355.81 72.46C1355.62 72.772 1355.48 73.13 1355.38 73.534C1355.29 73.934 1355.24 74.356 1355.24 74.8C1355.24 75.396 1355.33 75.95 1355.5 76.462C1355.67 76.97 1355.93 77.378 1356.26 77.686C1356.6 77.994 1357.02 78.148 1357.52 78.148ZM1364.53 79.156C1364.03 79.156 1363.58 79.044 1363.19 78.82C1362.79 78.592 1362.45 78.278 1362.17 77.878C1361.88 77.478 1361.67 77.016 1361.52 76.492C1361.37 75.964 1361.3 75.4 1361.3 74.8C1361.3 74.2 1361.37 73.636 1361.52 73.108C1361.67 72.58 1361.88 72.118 1362.17 71.722C1362.45 71.322 1362.79 71.01 1363.19 70.786C1363.58 70.558 1364.03 70.444 1364.53 70.444C1365.03 70.444 1365.47 70.558 1365.87 70.786C1366.27 71.01 1366.61 71.322 1366.88 71.722C1367.16 72.118 1367.38 72.58 1367.52 73.108C1367.68 73.636 1367.75 74.2 1367.75 74.8C1367.75 75.4 1367.68 75.964 1367.52 76.492C1367.38 77.016 1367.16 77.478 1366.88 77.878C1366.61 78.278 1366.27 78.592 1365.87 78.82C1365.47 79.044 1365.03 79.156 1364.53 79.156ZM1364.53 78.148C1365.03 78.148 1365.45 77.994 1365.78 77.686C1366.12 77.374 1366.38 76.964 1366.55 76.456C1366.71 75.948 1366.8 75.396 1366.8 74.8C1366.8 74.172 1366.71 73.606 1366.53 73.102C1366.36 72.594 1366.11 72.192 1365.77 71.896C1365.43 71.6 1365.02 71.452 1364.53 71.452C1364.15 71.452 1363.81 71.542 1363.52 71.722C1363.24 71.902 1363 72.148 1362.81 72.46C1362.63 72.772 1362.48 73.13 1362.39 73.534C1362.3 73.934 1362.25 74.356 1362.25 74.8C1362.25 75.396 1362.34 75.95 1362.51 76.462C1362.68 76.97 1362.93 77.378 1363.27 77.686C1363.61 77.994 1364.03 78.148 1364.53 78.148ZM1368.59 79.672L1368.96 77.644H1369.97L1369.26 79.672H1368.59ZM1374.28 79.156C1373.78 79.156 1373.33 79.044 1372.94 78.82C1372.54 78.592 1372.2 78.278 1371.92 77.878C1371.63 77.478 1371.42 77.016 1371.27 76.492C1371.12 75.964 1371.05 75.4 1371.05 74.8C1371.05 74.2 1371.12 73.636 1371.27 73.108C1371.42 72.58 1371.63 72.118 1371.92 71.722C1372.2 71.322 1372.54 71.01 1372.94 70.786C1373.33 70.558 1373.78 70.444 1374.28 70.444C1374.78 70.444 1375.22 70.558 1375.62 70.786C1376.02 71.01 1376.36 71.322 1376.63 71.722C1376.91 72.118 1377.13 72.58 1377.27 73.108C1377.43 73.636 1377.5 74.2 1377.5 74.8C1377.5 75.4 1377.43 75.964 1377.27 76.492C1377.13 77.016 1376.91 77.478 1376.63 77.878C1376.36 78.278 1376.02 78.592 1375.62 78.82C1375.22 79.044 1374.78 79.156 1374.28 79.156ZM1374.28 78.148C1374.78 78.148 1375.2 77.994 1375.53 77.686C1375.87 77.374 1376.13 76.964 1376.3 76.456C1376.46 75.948 1376.55 75.396 1376.55 74.8C1376.55 74.172 1376.46 73.606 1376.28 73.102C1376.11 72.594 1375.86 72.192 1375.52 71.896C1375.18 71.6 1374.77 71.452 1374.28 71.452C1373.9 71.452 1373.56 71.542 1373.27 71.722C1372.99 71.902 1372.75 72.148 1372.56 72.46C1372.38 72.772 1372.23 73.13 1372.14 73.534C1372.05 73.934 1372 74.356 1372 74.8C1372 75.396 1372.09 75.95 1372.26 76.462C1372.43 76.97 1372.68 77.378 1373.02 77.686C1373.36 77.994 1373.78 78.148 1374.28 78.148ZM1381.29 79.156C1380.79 79.156 1380.34 79.044 1379.94 78.82C1379.55 78.592 1379.21 78.278 1378.92 77.878C1378.64 77.478 1378.42 77.016 1378.28 76.492C1378.13 75.964 1378.05 75.4 1378.05 74.8C1378.05 74.2 1378.13 73.636 1378.28 73.108C1378.42 72.58 1378.64 72.118 1378.92 71.722C1379.21 71.322 1379.55 71.01 1379.94 70.786C1380.34 70.558 1380.79 70.444 1381.29 70.444C1381.78 70.444 1382.23 70.558 1382.63 70.786C1383.03 71.01 1383.36 71.322 1383.64 71.722C1383.92 72.118 1384.13 72.58 1384.28 73.108C1384.43 73.636 1384.51 74.2 1384.51 74.8C1384.51 75.4 1384.43 75.964 1384.28 76.492C1384.13 77.016 1383.92 77.478 1383.64 77.878C1383.36 78.278 1383.03 78.592 1382.63 78.82C1382.23 79.044 1381.78 79.156 1381.29 79.156ZM1381.29 78.148C1381.79 78.148 1382.21 77.994 1382.54 77.686C1382.88 77.374 1383.14 76.964 1383.3 76.456C1383.47 75.948 1383.56 75.396 1383.56 74.8C1383.56 74.172 1383.47 73.606 1383.29 73.102C1383.12 72.594 1382.86 72.192 1382.52 71.896C1382.19 71.6 1381.78 71.452 1381.29 71.452C1380.9 71.452 1380.57 71.542 1380.28 71.722C1380 71.902 1379.76 72.148 1379.57 72.46C1379.38 72.772 1379.24 73.13 1379.15 73.534C1379.05 73.934 1379.01 74.356 1379.01 74.8C1379.01 75.396 1379.09 75.95 1379.27 76.462C1379.44 76.97 1379.69 77.378 1380.03 77.686C1380.37 77.994 1380.79 78.148 1381.29 78.148ZM1388.3 79.156C1387.8 79.156 1387.35 79.044 1386.95 78.82C1386.56 78.592 1386.22 78.278 1385.93 77.878C1385.65 77.478 1385.43 77.016 1385.28 76.492C1385.14 75.964 1385.06 75.4 1385.06 74.8C1385.06 74.2 1385.14 73.636 1385.28 73.108C1385.43 72.58 1385.65 72.118 1385.93 71.722C1386.22 71.322 1386.56 71.01 1386.95 70.786C1387.35 70.558 1387.8 70.444 1388.3 70.444C1388.79 70.444 1389.24 70.558 1389.63 70.786C1390.03 71.01 1390.37 71.322 1390.65 71.722C1390.93 72.118 1391.14 72.58 1391.29 73.108C1391.44 73.636 1391.52 74.2 1391.52 74.8C1391.52 75.4 1391.44 75.964 1391.29 76.492C1391.14 77.016 1390.93 77.478 1390.65 77.878C1390.37 78.278 1390.03 78.592 1389.63 78.82C1389.24 79.044 1388.79 79.156 1388.3 79.156ZM1388.3 78.148C1388.8 78.148 1389.21 77.994 1389.55 77.686C1389.89 77.374 1390.14 76.964 1390.31 76.456C1390.48 75.948 1390.56 75.396 1390.56 74.8C1390.56 74.172 1390.48 73.606 1390.3 73.102C1390.13 72.594 1389.87 72.192 1389.53 71.896C1389.2 71.6 1388.78 71.452 1388.3 71.452C1387.91 71.452 1387.58 71.542 1387.29 71.722C1387 71.902 1386.77 72.148 1386.58 72.46C1386.39 72.772 1386.25 73.13 1386.15 73.534C1386.06 73.934 1386.02 74.356 1386.02 74.8C1386.02 75.396 1386.1 75.95 1386.27 76.462C1386.45 76.97 1386.7 77.378 1387.04 77.686C1387.38 77.994 1387.8 78.148 1388.3 78.148Z" fill="#EFEFE4"/>
<path d="M1330.4 145.156C1329.9 145.156 1329.45 145.042 1329.04 144.814C1328.63 144.586 1328.3 144.282 1328.06 143.902C1327.82 143.518 1327.7 143.094 1327.7 142.63C1327.7 142.198 1327.81 141.802 1328.04 141.442C1328.27 141.078 1328.57 140.79 1328.93 140.578C1328.63 140.386 1328.39 140.132 1328.19 139.816C1328 139.496 1327.9 139.15 1327.9 138.778C1327.9 138.346 1328.01 137.954 1328.24 137.602C1328.47 137.25 1328.77 136.97 1329.14 136.762C1329.52 136.55 1329.94 136.444 1330.4 136.444C1330.86 136.444 1331.28 136.55 1331.66 136.762C1332.04 136.97 1332.34 137.25 1332.56 137.602C1332.79 137.954 1332.91 138.346 1332.91 138.778C1332.91 139.15 1332.81 139.496 1332.62 139.816C1332.43 140.132 1332.18 140.386 1331.87 140.578C1332.25 140.79 1332.55 141.078 1332.77 141.442C1333 141.802 1333.12 142.198 1333.12 142.63C1333.12 143.09 1332.99 143.512 1332.75 143.896C1332.51 144.28 1332.18 144.586 1331.77 144.814C1331.36 145.042 1330.9 145.156 1330.4 145.156ZM1330.4 144.148C1330.71 144.148 1330.98 144.08 1331.23 143.944C1331.47 143.808 1331.67 143.626 1331.82 143.398C1331.97 143.166 1332.04 142.91 1332.04 142.63C1332.04 142.346 1331.97 142.09 1331.82 141.862C1331.67 141.634 1331.47 141.452 1331.23 141.316C1330.98 141.18 1330.71 141.112 1330.4 141.112C1330.1 141.112 1329.83 141.18 1329.58 141.316C1329.33 141.452 1329.14 141.634 1328.99 141.862C1328.84 142.09 1328.77 142.346 1328.77 142.63C1328.77 142.91 1328.84 143.166 1328.99 143.398C1329.14 143.626 1329.33 143.808 1329.58 143.944C1329.83 144.08 1330.1 144.148 1330.4 144.148ZM1330.4 140.104C1330.67 140.104 1330.91 140.044 1331.12 139.924C1331.34 139.804 1331.51 139.644 1331.64 139.444C1331.77 139.244 1331.84 139.022 1331.84 138.778C1331.84 138.53 1331.77 138.308 1331.64 138.112C1331.51 137.912 1331.34 137.752 1331.12 137.632C1330.91 137.512 1330.67 137.452 1330.4 137.452C1330.14 137.452 1329.9 137.512 1329.68 137.632C1329.47 137.752 1329.29 137.912 1329.16 138.112C1329.03 138.308 1328.97 138.53 1328.97 138.778C1328.97 139.022 1329.03 139.244 1329.16 139.444C1329.29 139.644 1329.47 139.804 1329.68 139.924C1329.9 140.044 1330.14 140.104 1330.4 140.104ZM1337.69 145V142.732H1334.07V141.712L1337.43 136.6H1338.69V141.724H1339.53V142.732H1338.69V145H1337.69ZM1335.26 141.712L1337.69 141.724L1337.67 138.016L1335.26 141.712ZM1340.73 145.672L1341.1 143.644H1342.11L1341.4 145.672H1340.73ZM1346.42 145.156C1345.92 145.156 1345.47 145.044 1345.08 144.82C1344.68 144.592 1344.34 144.278 1344.06 143.878C1343.77 143.478 1343.56 143.016 1343.41 142.492C1343.26 141.964 1343.19 141.4 1343.19 140.8C1343.19 140.2 1343.26 139.636 1343.41 139.108C1343.56 138.58 1343.77 138.118 1344.06 137.722C1344.34 137.322 1344.68 137.01 1345.08 136.786C1345.47 136.558 1345.92 136.444 1346.42 136.444C1346.92 136.444 1347.36 136.558 1347.76 136.786C1348.16 137.01 1348.5 137.322 1348.77 137.722C1349.05 138.118 1349.27 138.58 1349.42 139.108C1349.57 139.636 1349.64 140.2 1349.64 140.8C1349.64 141.4 1349.57 141.964 1349.42 142.492C1349.27 143.016 1349.05 143.478 1348.77 143.878C1348.5 144.278 1348.16 144.592 1347.76 144.82C1347.36 145.044 1346.92 145.156 1346.42 145.156ZM1346.42 144.148C1346.92 144.148 1347.34 143.994 1347.68 143.686C1348.02 143.374 1348.27 142.964 1348.44 142.456C1348.61 141.948 1348.69 141.396 1348.69 140.8C1348.69 140.172 1348.6 139.606 1348.43 139.102C1348.25 138.594 1348 138.192 1347.66 137.896C1347.32 137.6 1346.91 137.452 1346.42 137.452C1346.04 137.452 1345.7 137.542 1345.41 137.722C1345.13 137.902 1344.89 138.148 1344.71 138.46C1344.52 138.772 1344.38 139.13 1344.28 139.534C1344.19 139.934 1344.14 140.356 1344.14 140.8C1344.14 141.396 1344.23 141.95 1344.4 142.462C1344.57 142.97 1344.83 143.378 1345.16 143.686C1345.5 143.994 1345.92 144.148 1346.42 144.148ZM1353.43 145.156C1352.93 145.156 1352.48 145.044 1352.09 144.82C1351.69 144.592 1351.35 144.278 1351.07 143.878C1350.78 143.478 1350.57 143.016 1350.42 142.492C1350.27 141.964 1350.2 141.4 1350.2 140.8C1350.2 140.2 1350.27 139.636 1350.42 139.108C1350.57 138.58 1350.78 138.118 1351.07 137.722C1351.35 137.322 1351.69 137.01 1352.09 136.786C1352.48 136.558 1352.93 136.444 1353.43 136.444C1353.93 136.444 1354.37 136.558 1354.77 136.786C1355.17 137.01 1355.51 137.322 1355.78 137.722C1356.06 138.118 1356.28 138.58 1356.42 139.108C1356.58 139.636 1356.65 140.2 1356.65 140.8C1356.65 141.4 1356.58 141.964 1356.42 142.492C1356.28 143.016 1356.06 143.478 1355.78 143.878C1355.51 144.278 1355.17 144.592 1354.77 144.82C1354.37 145.044 1353.93 145.156 1353.43 145.156ZM1353.43 144.148C1353.93 144.148 1354.35 143.994 1354.68 143.686C1355.02 143.374 1355.28 142.964 1355.45 142.456C1355.61 141.948 1355.7 141.396 1355.7 140.8C1355.7 140.172 1355.61 139.606 1355.43 139.102C1355.26 138.594 1355.01 138.192 1354.67 137.896C1354.33 137.6 1353.92 137.452 1353.43 137.452C1353.05 137.452 1352.71 137.542 1352.42 137.722C1352.14 137.902 1351.9 138.148 1351.71 138.46C1351.53 138.772 1351.38 139.13 1351.29 139.534C1351.2 139.934 1351.15 140.356 1351.15 140.8C1351.15 141.396 1351.24 141.95 1351.41 142.462C1351.58 142.97 1351.83 143.378 1352.17 143.686C1352.51 143.994 1352.93 144.148 1353.43 144.148ZM1360.44 145.156C1359.94 145.156 1359.49 145.044 1359.09 144.82C1358.7 144.592 1358.36 144.278 1358.07 143.878C1357.79 143.478 1357.57 143.016 1357.43 142.492C1357.28 141.964 1357.2 141.4 1357.2 140.8C1357.2 140.2 1357.28 139.636 1357.43 139.108C1357.57 138.58 1357.79 138.118 1358.07 137.722C1358.36 137.322 1358.7 137.01 1359.09 136.786C1359.49 136.558 1359.94 136.444 1360.44 136.444C1360.93 136.444 1361.38 136.558 1361.78 136.786C1362.18 137.01 1362.51 137.322 1362.79 137.722C1363.07 138.118 1363.28 138.58 1363.43 139.108C1363.58 139.636 1363.66 140.2 1363.66 140.8C1363.66 141.4 1363.58 141.964 1363.43 142.492C1363.28 143.016 1363.07 143.478 1362.79 143.878C1362.51 144.278 1362.18 144.592 1361.78 144.82C1361.38 145.044 1360.93 145.156 1360.44 145.156ZM1360.44 144.148C1360.94 144.148 1361.36 143.994 1361.69 143.686C1362.03 143.374 1362.29 142.964 1362.45 142.456C1362.62 141.948 1362.71 141.396 1362.71 140.8C1362.71 140.172 1362.62 139.606 1362.44 139.102C1362.27 138.594 1362.01 138.192 1361.67 137.896C1361.34 137.6 1360.93 137.452 1360.44 137.452C1360.05 137.452 1359.72 137.542 1359.43 137.722C1359.15 137.902 1358.91 138.148 1358.72 138.46C1358.53 138.772 1358.39 139.13 1358.3 139.534C1358.2 139.934 1358.16 140.356 1358.16 140.8C1358.16 141.396 1358.24 141.95 1358.42 142.462C1358.59 142.97 1358.84 143.378 1359.18 143.686C1359.52 143.994 1359.94 144.148 1360.44 144.148ZM1364.5 145.672L1364.87 143.644H1365.88L1365.17 145.672H1364.5ZM1370.19 145.156C1369.69 145.156 1369.24 145.044 1368.84 144.82C1368.45 144.592 1368.11 144.278 1367.82 143.878C1367.54 143.478 1367.32 143.016 1367.18 142.492C1367.03 141.964 1366.95 141.4 1366.95 140.8C1366.95 140.2 1367.03 139.636 1367.18 139.108C1367.32 138.58 1367.54 138.118 1367.82 137.722C1368.11 137.322 1368.45 137.01 1368.84 136.786C1369.24 136.558 1369.69 136.444 1370.19 136.444C1370.68 136.444 1371.13 136.558 1371.53 136.786C1371.93 137.01 1372.26 137.322 1372.54 137.722C1372.82 138.118 1373.03 138.58 1373.18 139.108C1373.33 139.636 1373.41 140.2 1373.41 140.8C1373.41 141.4 1373.33 141.964 1373.18 142.492C1373.03 143.016 1372.82 143.478 1372.54 143.878C1372.26 144.278 1371.93 144.592 1371.53 144.82C1371.13 145.044 1370.68 145.156 1370.19 145.156ZM1370.19 144.148C1370.69 144.148 1371.11 143.994 1371.44 143.686C1371.78 143.374 1372.04 142.964 1372.2 142.456C1372.37 141.948 1372.46 141.396 1372.46 140.8C1372.46 140.172 1372.37 139.606 1372.19 139.102C1372.02 138.594 1371.76 138.192 1371.42 137.896C1371.09 137.6 1370.68 137.452 1370.19 137.452C1369.8 137.452 1369.47 137.542 1369.18 137.722C1368.9 137.902 1368.66 138.148 1368.47 138.46C1368.28 138.772 1368.14 139.13 1368.05 139.534C1367.95 139.934 1367.91 140.356 1367.91 140.8C1367.91 141.396 1367.99 141.95 1368.17 142.462C1368.34 142.97 1368.59 143.378 1368.93 143.686C1369.27 143.994 1369.69 144.148 1370.19 144.148ZM1377.2 145.156C1376.7 145.156 1376.25 145.044 1375.85 144.82C1375.46 144.592 1375.12 144.278 1374.83 143.878C1374.55 143.478 1374.33 143.016 1374.18 142.492C1374.04 141.964 1373.96 141.4 1373.96 140.8C1373.96 140.2 1374.04 139.636 1374.18 139.108C1374.33 138.58 1374.55 138.118 1374.83 137.722C1375.12 137.322 1375.46 137.01 1375.85 136.786C1376.25 136.558 1376.7 136.444 1377.2 136.444C1377.69 136.444 1378.14 136.558 1378.53 136.786C1378.93 137.01 1379.27 137.322 1379.55 137.722C1379.83 138.118 1380.04 138.58 1380.19 139.108C1380.34 139.636 1380.42 140.2 1380.42 140.8C1380.42 141.4 1380.34 141.964 1380.19 142.492C1380.04 143.016 1379.83 143.478 1379.55 143.878C1379.27 144.278 1378.93 144.592 1378.53 144.82C1378.14 145.044 1377.69 145.156 1377.2 145.156ZM1377.2 144.148C1377.7 144.148 1378.11 143.994 1378.45 143.686C1378.79 143.374 1379.04 142.964 1379.21 142.456C1379.38 141.948 1379.46 141.396 1379.46 140.8C1379.46 140.172 1379.38 139.606 1379.2 139.102C1379.03 138.594 1378.77 138.192 1378.43 137.896C1378.1 137.6 1377.68 137.452 1377.2 137.452C1376.81 137.452 1376.48 137.542 1376.19 137.722C1375.9 137.902 1375.67 138.148 1375.48 138.46C1375.29 138.772 1375.15 139.13 1375.05 139.534C1374.96 139.934 1374.92 140.356 1374.92 140.8C1374.92 141.396 1375 141.95 1375.17 142.462C1375.35 142.97 1375.6 143.378 1375.94 143.686C1376.28 143.994 1376.7 144.148 1377.2 144.148ZM1384.2 145.156C1383.7 145.156 1383.26 145.044 1382.86 144.82C1382.46 144.592 1382.12 144.278 1381.84 143.878C1381.56 143.478 1381.34 143.016 1381.19 142.492C1381.04 141.964 1380.97 141.4 1380.97 140.8C1380.97 140.2 1381.04 139.636 1381.19 139.108C1381.34 138.58 1381.56 138.118 1381.84 137.722C1382.12 137.322 1382.46 137.01 1382.86 136.786C1383.26 136.558 1383.7 136.444 1384.2 136.444C1384.7 136.444 1385.15 136.558 1385.54 136.786C1385.94 137.01 1386.28 137.322 1386.56 137.722C1386.84 138.118 1387.05 138.58 1387.2 139.108C1387.35 139.636 1387.43 140.2 1387.43 140.8C1387.43 141.4 1387.35 141.964 1387.2 142.492C1387.05 143.016 1386.84 143.478 1386.56 143.878C1386.28 144.278 1385.94 144.592 1385.54 144.82C1385.15 145.044 1384.7 145.156 1384.2 145.156ZM1384.2 144.148C1384.7 144.148 1385.12 143.994 1385.46 143.686C1385.8 143.374 1386.05 142.964 1386.22 142.456C1386.39 141.948 1386.47 141.396 1386.47 140.8C1386.47 140.172 1386.38 139.606 1386.21 139.102C1386.04 138.594 1385.78 138.192 1385.44 137.896C1385.1 137.6 1384.69 137.452 1384.2 137.452C1383.82 137.452 1383.48 137.542 1383.2 137.722C1382.91 137.902 1382.68 138.148 1382.49 138.46C1382.3 138.772 1382.16 139.13 1382.06 139.534C1381.97 139.934 1381.92 140.356 1381.92 140.8C1381.92 141.396 1382.01 141.95 1382.18 142.462C1382.35 142.97 1382.61 143.378 1382.94 143.686C1383.28 143.994 1383.7 144.148 1384.2 144.148Z" fill="#EFEFE4"/>
<path d="M1330.37 211.156C1329.84 211.156 1329.35 211.024 1328.91 210.76C1328.47 210.496 1328.12 210.144 1327.86 209.704C1327.59 209.26 1327.46 208.77 1327.46 208.234C1327.46 207.934 1327.49 207.672 1327.56 207.448C1327.63 207.224 1327.74 206.982 1327.88 206.722L1330.26 202.6H1331.43L1329.73 205.546C1330.07 205.438 1330.41 205.4 1330.75 205.432C1331.09 205.464 1331.42 205.556 1331.72 205.708C1332.03 205.86 1332.3 206.06 1332.54 206.308C1332.77 206.556 1332.96 206.844 1333.09 207.172C1333.23 207.496 1333.3 207.85 1333.3 208.234C1333.3 208.638 1333.22 209.016 1333.06 209.368C1332.91 209.72 1332.7 210.03 1332.43 210.298C1332.17 210.566 1331.86 210.776 1331.5 210.928C1331.15 211.08 1330.77 211.156 1330.37 211.156ZM1330.37 210.148C1330.74 210.148 1331.07 210.058 1331.35 209.878C1331.65 209.698 1331.87 209.462 1332.04 209.17C1332.21 208.878 1332.29 208.566 1332.29 208.234C1332.29 207.886 1332.2 207.568 1332.03 207.28C1331.86 206.992 1331.63 206.762 1331.34 206.59C1331.05 206.414 1330.73 206.326 1330.38 206.326C1330.01 206.326 1329.69 206.416 1329.4 206.596C1329.11 206.776 1328.88 207.01 1328.71 207.298C1328.55 207.586 1328.47 207.898 1328.47 208.234C1328.47 208.598 1328.56 208.924 1328.73 209.212C1328.91 209.5 1329.14 209.728 1329.43 209.896C1329.72 210.064 1330.03 210.148 1330.37 210.148ZM1337.74 211V208.732H1334.13V207.712L1337.49 202.6H1338.75V207.724H1339.59V208.732H1338.75V211H1337.74ZM1335.31 207.712L1337.74 207.724L1337.73 204.016L1335.31 207.712ZM1340.79 211.672L1341.16 209.644H1342.17L1341.46 211.672H1340.79ZM1346.48 211.156C1345.98 211.156 1345.53 211.044 1345.14 210.82C1344.74 210.592 1344.4 210.278 1344.12 209.878C1343.83 209.478 1343.62 209.016 1343.47 208.492C1343.32 207.964 1343.25 207.4 1343.25 206.8C1343.25 206.2 1343.32 205.636 1343.47 205.108C1343.62 204.58 1343.83 204.118 1344.12 203.722C1344.4 203.322 1344.74 203.01 1345.14 202.786C1345.53 202.558 1345.98 202.444 1346.48 202.444C1346.98 202.444 1347.42 202.558 1347.82 202.786C1348.22 203.01 1348.56 203.322 1348.83 203.722C1349.11 204.118 1349.33 204.58 1349.47 205.108C1349.63 205.636 1349.7 206.2 1349.7 206.8C1349.7 207.4 1349.63 207.964 1349.47 208.492C1349.33 209.016 1349.11 209.478 1348.83 209.878C1348.56 210.278 1348.22 210.592 1347.82 210.82C1347.42 211.044 1346.98 211.156 1346.48 211.156ZM1346.48 210.148C1346.98 210.148 1347.4 209.994 1347.73 209.686C1348.07 209.374 1348.33 208.964 1348.5 208.456C1348.66 207.948 1348.75 207.396 1348.75 206.8C1348.75 206.172 1348.66 205.606 1348.48 205.102C1348.31 204.594 1348.06 204.192 1347.72 203.896C1347.38 203.6 1346.97 203.452 1346.48 203.452C1346.1 203.452 1345.76 203.542 1345.47 203.722C1345.19 203.902 1344.95 204.148 1344.76 204.46C1344.58 204.772 1344.43 205.13 1344.34 205.534C1344.25 205.934 1344.2 206.356 1344.2 206.8C1344.2 207.396 1344.29 207.95 1344.46 208.462C1344.63 208.97 1344.88 209.378 1345.22 209.686C1345.56 209.994 1345.98 210.148 1346.48 210.148ZM1353.49 211.156C1352.99 211.156 1352.54 211.044 1352.14 210.82C1351.75 210.592 1351.41 210.278 1351.12 209.878C1350.84 209.478 1350.62 209.016 1350.48 208.492C1350.33 207.964 1350.25 207.4 1350.25 206.8C1350.25 206.2 1350.33 205.636 1350.48 205.108C1350.62 204.58 1350.84 204.118 1351.12 203.722C1351.41 203.322 1351.75 203.01 1352.14 202.786C1352.54 202.558 1352.99 202.444 1353.49 202.444C1353.98 202.444 1354.43 202.558 1354.83 202.786C1355.23 203.01 1355.56 203.322 1355.84 203.722C1356.12 204.118 1356.33 204.58 1356.48 205.108C1356.63 205.636 1356.71 206.2 1356.71 206.8C1356.71 207.4 1356.63 207.964 1356.48 208.492C1356.33 209.016 1356.12 209.478 1355.84 209.878C1355.56 210.278 1355.23 210.592 1354.83 210.82C1354.43 211.044 1353.98 211.156 1353.49 211.156ZM1353.49 210.148C1353.99 210.148 1354.41 209.994 1354.74 209.686C1355.08 209.374 1355.34 208.964 1355.5 208.456C1355.67 207.948 1355.76 207.396 1355.76 206.8C1355.76 206.172 1355.67 205.606 1355.49 205.102C1355.32 204.594 1355.06 204.192 1354.72 203.896C1354.39 203.6 1353.98 203.452 1353.49 203.452C1353.1 203.452 1352.77 203.542 1352.48 203.722C1352.2 203.902 1351.96 204.148 1351.77 204.46C1351.58 204.772 1351.44 205.13 1351.35 205.534C1351.25 205.934 1351.21 206.356 1351.21 206.8C1351.21 207.396 1351.29 207.95 1351.47 208.462C1351.64 208.97 1351.89 209.378 1352.23 209.686C1352.57 209.994 1352.99 210.148 1353.49 210.148ZM1360.5 211.156C1360 211.156 1359.55 211.044 1359.15 210.82C1358.76 210.592 1358.42 210.278 1358.13 209.878C1357.85 209.478 1357.63 209.016 1357.48 208.492C1357.34 207.964 1357.26 207.4 1357.26 206.8C1357.26 206.2 1357.34 205.636 1357.48 205.108C1357.63 204.58 1357.85 204.118 1358.13 203.722C1358.42 203.322 1358.76 203.01 1359.15 202.786C1359.55 202.558 1360 202.444 1360.5 202.444C1360.99 202.444 1361.44 202.558 1361.83 202.786C1362.23 203.01 1362.57 203.322 1362.85 203.722C1363.13 204.118 1363.34 204.58 1363.49 205.108C1363.64 205.636 1363.72 206.2 1363.72 206.8C1363.72 207.4 1363.64 207.964 1363.49 208.492C1363.34 209.016 1363.13 209.478 1362.85 209.878C1362.57 210.278 1362.23 210.592 1361.83 210.82C1361.44 211.044 1360.99 211.156 1360.5 211.156ZM1360.5 210.148C1361 210.148 1361.41 209.994 1361.75 209.686C1362.09 209.374 1362.34 208.964 1362.51 208.456C1362.68 207.948 1362.76 207.396 1362.76 206.8C1362.76 206.172 1362.68 205.606 1362.5 205.102C1362.33 204.594 1362.07 204.192 1361.73 203.896C1361.4 203.6 1360.98 203.452 1360.5 203.452C1360.11 203.452 1359.78 203.542 1359.49 203.722C1359.2 203.902 1358.97 204.148 1358.78 204.46C1358.59 204.772 1358.45 205.13 1358.35 205.534C1358.26 205.934 1358.22 206.356 1358.22 206.8C1358.22 207.396 1358.3 207.95 1358.47 208.462C1358.65 208.97 1358.9 209.378 1359.24 209.686C1359.58 209.994 1360 210.148 1360.5 210.148ZM1364.55 211.672L1364.93 209.644H1365.93L1365.23 211.672H1364.55ZM1370.25 211.156C1369.75 211.156 1369.3 211.044 1368.9 210.82C1368.51 210.592 1368.17 210.278 1367.88 209.878C1367.6 209.478 1367.38 209.016 1367.23 208.492C1367.09 207.964 1367.01 207.4 1367.01 206.8C1367.01 206.2 1367.09 205.636 1367.23 205.108C1367.38 204.58 1367.6 204.118 1367.88 203.722C1368.17 203.322 1368.51 203.01 1368.9 202.786C1369.3 202.558 1369.75 202.444 1370.25 202.444C1370.74 202.444 1371.19 202.558 1371.58 202.786C1371.98 203.01 1372.32 203.322 1372.6 203.722C1372.88 204.118 1373.09 204.58 1373.24 205.108C1373.39 205.636 1373.47 206.2 1373.47 206.8C1373.47 207.4 1373.39 207.964 1373.24 208.492C1373.09 209.016 1372.88 209.478 1372.6 209.878C1372.32 210.278 1371.98 210.592 1371.58 210.82C1371.19 211.044 1370.74 211.156 1370.25 211.156ZM1370.25 210.148C1370.75 210.148 1371.16 209.994 1371.5 209.686C1371.84 209.374 1372.09 208.964 1372.26 208.456C1372.43 207.948 1372.51 207.396 1372.51 206.8C1372.51 206.172 1372.43 205.606 1372.25 205.102C1372.08 204.594 1371.82 204.192 1371.48 203.896C1371.15 203.6 1370.73 203.452 1370.25 203.452C1369.86 203.452 1369.53 203.542 1369.24 203.722C1368.95 203.902 1368.72 204.148 1368.53 204.46C1368.34 204.772 1368.2 205.13 1368.1 205.534C1368.01 205.934 1367.97 206.356 1367.97 206.8C1367.97 207.396 1368.05 207.95 1368.22 208.462C1368.4 208.97 1368.65 209.378 1368.99 209.686C1369.33 209.994 1369.75 210.148 1370.25 210.148ZM1377.25 211.156C1376.75 211.156 1376.31 211.044 1375.91 210.82C1375.51 210.592 1375.17 210.278 1374.89 209.878C1374.61 209.478 1374.39 209.016 1374.24 208.492C1374.09 207.964 1374.02 207.4 1374.02 206.8C1374.02 206.2 1374.09 205.636 1374.24 205.108C1374.39 204.58 1374.61 204.118 1374.89 203.722C1375.17 203.322 1375.51 203.01 1375.91 202.786C1376.31 202.558 1376.75 202.444 1377.25 202.444C1377.75 202.444 1378.2 202.558 1378.59 202.786C1378.99 203.01 1379.33 203.322 1379.61 203.722C1379.89 204.118 1380.1 204.58 1380.25 205.108C1380.4 205.636 1380.48 206.2 1380.48 206.8C1380.48 207.4 1380.4 207.964 1380.25 208.492C1380.1 209.016 1379.89 209.478 1379.61 209.878C1379.33 210.278 1378.99 210.592 1378.59 210.82C1378.2 211.044 1377.75 211.156 1377.25 211.156ZM1377.25 210.148C1377.75 210.148 1378.17 209.994 1378.51 209.686C1378.85 209.374 1379.1 208.964 1379.27 208.456C1379.44 207.948 1379.52 207.396 1379.52 206.8C1379.52 206.172 1379.43 205.606 1379.26 205.102C1379.09 204.594 1378.83 204.192 1378.49 203.896C1378.15 203.6 1377.74 203.452 1377.25 203.452C1376.87 203.452 1376.53 203.542 1376.25 203.722C1375.96 203.902 1375.73 204.148 1375.54 204.46C1375.35 204.772 1375.21 205.13 1375.11 205.534C1375.02 205.934 1374.97 206.356 1374.97 206.8C1374.97 207.396 1375.06 207.95 1375.23 208.462C1375.4 208.97 1375.66 209.378 1375.99 209.686C1376.33 209.994 1376.75 210.148 1377.25 210.148ZM1384.26 211.156C1383.76 211.156 1383.31 211.044 1382.92 210.82C1382.52 210.592 1382.18 210.278 1381.9 209.878C1381.61 209.478 1381.4 209.016 1381.25 208.492C1381.1 207.964 1381.03 207.4 1381.03 206.8C1381.03 206.2 1381.1 205.636 1381.25 205.108C1381.4 204.58 1381.61 204.118 1381.9 203.722C1382.18 203.322 1382.52 203.01 1382.92 202.786C1383.31 202.558 1383.76 202.444 1384.26 202.444C1384.76 202.444 1385.2 202.558 1385.6 202.786C1386 203.01 1386.34 203.322 1386.61 203.722C1386.89 204.118 1387.11 204.58 1387.26 205.108C1387.41 205.636 1387.48 206.2 1387.48 206.8C1387.48 207.4 1387.41 207.964 1387.26 208.492C1387.11 209.016 1386.89 209.478 1386.61 209.878C1386.34 210.278 1386 210.592 1385.6 210.82C1385.2 211.044 1384.76 211.156 1384.26 211.156ZM1384.26 210.148C1384.76 210.148 1385.18 209.994 1385.52 209.686C1385.86 209.374 1386.11 208.964 1386.28 208.456C1386.45 207.948 1386.53 207.396 1386.53 206.8C1386.53 206.172 1386.44 205.606 1386.27 205.102C1386.09 204.594 1385.84 204.192 1385.5 203.896C1385.16 203.6 1384.75 203.452 1384.26 203.452C1383.88 203.452 1383.54 203.542 1383.25 203.722C1382.97 203.902 1382.73 204.148 1382.55 204.46C1382.36 204.772 1382.22 205.13 1382.12 205.534C1382.03 205.934 1381.98 206.356 1381.98 206.8C1381.98 207.396 1382.07 207.95 1382.24 208.462C1382.41 208.97 1382.67 209.378 1383 209.686C1383.34 209.994 1383.76 210.148 1384.26 210.148Z" fill="#EFEFE4"/>
<line y1="62.5" x2="1282" y2="62.5" stroke="#68FFFF"/>
<line x1="1" y1="12.5" x2="1283" y2="12.5" stroke="#68FF9B"/>
<defs>
<clipPath id="clip0_59_9740">
<rect width="1283" height="18" fill="white" transform="translate(0 224)"/>
</clipPath>
</defs>
</svg>
