<svg width="24" height="24" viewBox="0 0 24 24" fill="none" xmlns="http://www.w3.org/2000/svg">
<g clip-path="url(#clip0_1_33643)">
<ellipse cx="12" cy="12.0014" rx="5.71659" ry="11.2539" transform="rotate(-45 12 12.0014)" stroke="#68FFFF" stroke-width="1.2"/>
<ellipse cx="11.9986" cy="12" rx="5.71659" ry="11.2539" transform="rotate(45 11.9986 12)" stroke="#68FFFF" stroke-width="1.2"/>
<path d="M12.5858 9.59549H13.9331V10.8564H11.3825C11.2942 10.8564 11.2194 10.8871 11.1579 10.9485C11.0965 11.0061 11.0658 11.0771 11.0658 11.1616C11.0658 11.2499 11.0965 11.3247 11.1579 11.3861C11.2194 11.4475 11.2942 11.4782 11.3825 11.4782H12.6952C12.9102 11.4782 13.1117 11.5147 13.2998 11.5876C13.4917 11.6606 13.6587 11.7623 13.8007 11.8928C13.9427 12.0233 14.0541 12.1788 14.1347 12.3592C14.2191 12.5396 14.2613 12.7373 14.2613 12.9522C14.2613 13.171 14.2191 13.3764 14.1347 13.5683C14.0541 13.7602 13.9427 13.9272 13.8007 14.0692C13.6587 14.2074 13.4917 14.3187 13.2998 14.4031C13.1117 14.4838 12.9102 14.5241 12.6952 14.5241H12.5858V16.2917H11.5264V14.5241H9.81641V13.2746H12.6952C12.7759 13.2746 12.8469 13.2439 12.9083 13.1825C12.9697 13.1173 13.0004 13.0405 13.0004 12.9522C13.0004 12.8639 12.9697 12.8083 12.9083 12.7852C12.8469 12.7584 12.7759 12.7449 12.6952 12.7449H11.3825C11.1637 12.7449 10.9583 12.7046 10.7664 12.624C10.5783 12.5396 10.4133 12.4263 10.2713 12.2843C10.1331 12.1385 10.0218 11.9696 9.93732 11.7776C9.85671 11.5857 9.81641 11.3804 9.81641 11.1616C9.81641 10.9466 9.85671 10.7451 9.93732 10.557C10.0218 10.3651 10.1331 10.1981 10.2713 10.0561C10.4133 9.91408 10.5783 9.80276 10.7664 9.72216C10.9583 9.63771 11.1637 9.59549 11.3825 9.59549H11.5264V8.03516H12.5858V9.59549Z" fill="#68FFFF"/>
</g>
<defs>
<clipPath id="clip0_1_33643">
<rect width="24" height="24" fill="white"/>
</clipPath>
</defs>
</svg>
