<svg width="24" height="24" viewBox="0 0 24 24" fill="none" xmlns="http://www.w3.org/2000/svg">
<mask id="mask0_1_33654" style="mask-type:luminance" maskUnits="userSpaceOnUse" x="2" y="2" width="20" height="21">
<path d="M2 2.00781H22V22.0078H2V2.00781Z" fill="white"/>
</mask>
<g mask="url(#mask0_1_33654)">
<path d="M17.2734 16.7344V6.10938L13.7578 2.59375H3.21094V21.4219H13.7578" stroke="#68FF9B" stroke-width="1.2" stroke-miterlimit="10"/>
<path d="M17.2734 6.10928H13.7578V2.59366" stroke="#68FF9B" stroke-width="1.2" stroke-miterlimit="10"/>
</g>
<path d="M4.96875 9.69922H9.65625" stroke="#68FF9B" stroke-width="1.2" stroke-miterlimit="10"/>
<path d="M4.96875 12.043H12" stroke="#68FF9B" stroke-width="1.2" stroke-miterlimit="10"/>
<mask id="mask1_1_33654" style="mask-type:luminance" maskUnits="userSpaceOnUse" x="2" y="2" width="20" height="21">
<path d="M2 2.00781H22V22.0078H2V2.00781Z" fill="white"/>
</mask>
<g mask="url(#mask1_1_33654)">
<path d="M7.89844 17.9062C7.89844 18.5535 7.37375 19.0781 6.72656 19.0781C6.07938 19.0781 5.55469 18.5535 5.55469 17.9062C5.55469 17.259 6.07938 16.7344 6.72656 16.7344C7.37375 16.7344 7.89844 17.259 7.89844 17.9062Z" stroke="#68FF9B" stroke-width="1.2" stroke-miterlimit="10"/>
<path d="M19.6172 16.7344H14.9297V13.2187C14.9297 11.9243 15.979 10.875 17.2734 10.875C18.5679 10.875 19.6172 11.9243 19.6172 13.2187V16.7344Z" stroke="#68FF9B" stroke-width="1.2" stroke-miterlimit="10"/>
<path d="M20.7891 21.4219H13.7578V16.7344H20.7891V21.4219Z" stroke="#68FF9B" stroke-width="1.2" stroke-miterlimit="10"/>
<path d="M17.2734 18.4922V19.6641" stroke="#68FF9B" stroke-width="1.2" stroke-miterlimit="10"/>
</g>
</svg>
