<svg width="32" height="32" viewBox="0 0 32 32" fill="none" xmlns="http://www.w3.org/2000/svg">
<circle cx="16" cy="16" r="16" fill="url(#paint0_linear_1_8316)"/>
<rect x="17.0977" y="8.69922" width="2.13729" height="2.49351" transform="rotate(180 17.0977 8.69922)" fill="#0A090F"/>
<rect x="11.7539" y="10.125" width="4.27458" height="6.05566" fill="#0A090F"/>
<rect x="11.7539" y="12.9746" width="4.27458" height="8.54916" transform="rotate(-90 11.7539 12.9746)" fill="#0A090F"/>
<rect x="20.3047" y="22.2226" width="4.27458" height="6.05566" transform="rotate(180 20.3047 22.2226)" fill="#0A090F"/>
<rect x="20.3047" y="19.373" width="4.27458" height="8.54916" transform="rotate(90 20.3047 19.373)" fill="#0A090F"/>
<rect x="17.0977" y="25.7969" width="2.13729" height="2.49351" transform="rotate(180 17.0977 25.7969)" fill="#0A090F"/>
<path fill-rule="evenodd" clip-rule="evenodd" d="M14.6016 16.1788V14.7539H16.0264C16.0264 15.5408 16.6644 16.1788 17.4513 16.1788V17.6036H16.0264C16.0264 16.8168 15.3884 16.1788 14.6016 16.1788Z" fill="#0A090F"/>
<defs>
<linearGradient id="paint0_linear_1_8316" x1="1.25004e-07" y1="14.5328" x2="32" y2="14.5328" gradientUnits="userSpaceOnUse">
<stop stop-color="#68FFFF"/>
<stop offset="1" stop-color="#68FF9B"/>
</linearGradient>
</defs>
</svg>
