<svg width="200" height="200" viewBox="0 0 200 200" fill="none" xmlns="http://www.w3.org/2000/svg">
<path d="M47.2976 131.884L64.081 127.026L94.164 127.941L77.3806 132.8L47.2976 131.884Z" fill="#0A090F" stroke="#EFEFE4"/>
<path d="M102.383 127.626L85.5991 132.485C83.8365 132.996 81.4365 132.923 77.3938 132.8L94.1772 127.942C98.2199 128.065 100.62 128.138 102.383 127.626Z" fill="#0A090F" stroke="#EFEFE4"/>
<path d="M91.5594 151.888L108.343 147.029L108.444 174.921L91.6609 179.779L91.5594 151.888Z" fill="#0A090F" stroke="#EFEFE4"/>
<path d="M91.5438 148.158L108.327 143.299L108.342 147.025L91.5588 151.883L91.5438 148.158Z" fill="#0A090F" stroke="#EFEFE4"/>
<path d="M97.3716 134.052L114.155 129.193C113.779 129.297 113.428 129.441 113.102 129.611C111.445 130.447 110.106 131.819 109.257 133.527C108.298 135.489 108.309 138.097 108.33 143.3L91.5468 148.159C91.5254 142.956 91.5153 140.335 92.4738 138.386C93.3351 136.678 94.6744 135.306 96.3184 134.469C96.6447 134.299 96.9955 134.169 97.3716 134.052Z" fill="#0A090F" stroke="#EFEFE4"/>
<path d="M135.47 88.0677L152.253 83.2091L152.428 129.78L135.644 134.652L135.47 88.0677Z" fill="#0A090F" stroke="#EFEFE4"/>
<path d="M91.3094 86.7239L108.093 81.8654L152.255 83.21L135.471 88.0685L91.3094 86.7239Z" fill="#0A090F" stroke="#EFEFE4"/>
<path d="M135.47 88.0687L135.644 134.653L105.587 133.738C100.672 133.588 98.1946 133.512 96.3028 134.47C94.6459 135.306 93.3067 136.678 92.4583 138.386C91.4993 140.348 91.5098 142.956 91.5312 148.159L91.5463 151.885L91.6477 179.776L47.4601 178.431L47.2843 131.885L77.3673 132.801C82.2828 132.951 84.7597 133.026 86.6387 132.069C88.3088 131.22 89.6613 129.836 90.4844 128.114C91.4422 126.19 91.4317 123.582 91.4106 118.366L91.3956 114.641L91.2954 86.711L135.457 88.0555L135.47 88.0687Z" fill="#0A090F" stroke="#EFEFE4"/>
<path d="M115.158 38.6292L108.662 40.5081C108.402 40.5796 108.112 40.6205 107.814 40.6114C106.822 40.5812 106.042 40.0706 105.506 39.0706C104.96 38.0703 104.688 36.5617 104.68 34.5642C104.671 32.5668 104.936 31.0447 105.472 30.0873L111.968 28.2084C111.432 29.1658 111.168 30.6482 111.176 32.6853C111.183 34.7225 111.456 36.1914 112.002 37.1917C112.548 38.1821 113.318 38.7023 114.31 38.7325C114.618 38.7419 114.897 38.7107 115.158 38.6292Z" fill="#0A090F" stroke="#EFEFE4" stroke-linejoin="round"/>
<path d="M106.98 28.7952L113.476 26.9164C112.855 27.0962 112.355 27.5281 111.966 28.2118L105.47 30.0907C105.859 29.407 106.359 28.975 106.98 28.7952Z" fill="#0A090F" stroke="#EFEFE4" stroke-linejoin="round"/>
<path d="M104.594 22.6489L111.08 20.7697C112.073 20.482 113.12 20.3549 114.242 20.389C115.572 20.4295 116.796 20.6854 117.934 21.1672C119.072 21.6489 120.063 22.3846 120.916 23.4042C121.76 24.4036 122.436 25.696 122.924 27.2907C123.423 28.8758 123.672 30.811 123.683 33.0669C123.693 35.3227 123.455 37.2729 122.97 38.8479C122.495 40.4133 121.831 41.6748 120.987 42.6328C120.143 43.5908 119.149 44.266 118.023 44.6689C117.863 44.7236 117.692 44.7781 117.532 44.8229L111.036 46.7017C111.206 46.6572 111.367 46.6025 111.527 46.5478C112.663 46.1452 113.657 45.47 114.491 44.5117C115.335 43.5636 115.999 42.3021 116.474 40.7268C116.959 39.1617 117.197 37.2314 117.187 34.9457C117.177 32.6601 116.927 30.7547 116.429 29.1696C115.94 27.5848 115.264 26.2924 114.421 25.2831C113.577 24.2737 112.576 23.5278 111.438 23.046C110.3 22.5643 109.066 22.3081 107.746 22.2679C106.634 22.234 105.587 22.3611 104.594 22.6489Z" fill="#0A090F" stroke="#EFEFE4" stroke-linejoin="round"/>
<path d="M107.836 47.072C106.535 47.0324 105.321 46.7669 104.174 46.2749C103.036 45.7832 102.036 45.0274 101.192 44.018C100.339 42.9984 99.6828 41.6967 99.1848 40.1017C98.6869 38.5066 98.4366 36.6112 98.4351 34.3755C98.4336 32.1398 98.6622 30.1794 99.1471 28.6143C99.6319 27.0492 100.286 25.7973 101.13 24.8393C101.974 23.8813 102.968 23.2061 104.093 22.8032C105.228 22.4006 106.446 22.229 107.746 22.2686C109.047 22.3082 110.301 22.5649 111.439 23.0467C112.577 23.5285 113.568 24.2641 114.421 25.2837C115.265 26.2832 115.941 27.5756 116.429 29.1703C116.928 30.7554 117.177 32.6906 117.187 34.9464C117.198 37.2022 116.96 39.1524 116.475 40.7274C116 42.2928 115.336 43.5544 114.492 44.5123C113.648 45.4703 112.653 46.1455 111.528 46.5485C110.393 46.9511 109.166 47.1224 107.836 47.0819L107.836 47.072ZM105.461 30.0883C104.926 31.0457 104.662 32.5281 104.669 34.5653C104.677 36.6024 104.95 38.0714 105.496 39.0717C106.042 40.062 106.811 40.5823 107.804 40.6125C108.797 40.6427 109.635 40.1814 110.191 39.2146C110.738 38.2476 111.012 36.7555 111.003 34.7581C110.994 32.7607 110.713 31.222 110.157 30.2313C109.601 29.2406 108.802 28.7294 107.759 28.6977C106.717 28.6659 105.997 29.1309 105.461 30.0883Z" fill="#0A090F" stroke="#EFEFE4" stroke-linejoin="round"/>
<path d="M129.099 55.2723L135.595 53.3934C134.983 53.5735 134.484 53.9955 134.096 54.6594C133.56 55.6069 133.296 57.0992 133.303 59.1562C133.31 61.2132 133.585 62.6225 134.131 63.6129C134.677 64.6033 135.447 65.1136 136.44 65.1438C136.747 65.1532 137.026 65.1219 137.297 65.0408L130.801 66.9196C130.54 67.0011 130.251 67.0321 129.944 67.0227C128.951 66.9925 128.172 66.4819 127.635 65.4918C127.089 64.5014 126.816 63.0226 126.807 61.0351C126.798 59.0475 127.064 57.4857 127.6 56.5382C127.978 55.8741 128.478 55.4521 129.099 55.2723Z" fill="#0A090F" stroke="#EFEFE4" stroke-linejoin="round"/>
<path d="M135.25 23.9245L141.736 22.0454L116.309 70.336L109.823 72.2152L135.25 23.9245Z" fill="#0A090F" stroke="#EFEFE4" stroke-linejoin="round"/>
<path d="M126.782 49.0804L133.278 47.2015C134.25 46.9231 135.288 46.7957 136.37 46.8286C137.7 46.8691 138.924 47.125 140.062 47.6068C141.2 48.0885 142.191 48.8341 143.044 49.8537C143.897 50.8733 144.563 52.1753 145.051 53.77L138.555 55.6489C138.067 54.0641 137.391 52.7618 136.548 51.7326C135.704 50.7232 134.704 49.9674 133.566 49.4856C132.428 49.0039 131.194 48.7477 129.874 48.7075C128.782 48.6742 127.754 48.8019 126.782 49.0804Z" fill="#0A090F" stroke="#EFEFE4" stroke-linejoin="round"/>
<path d="M138.554 55.6383C139.052 57.2234 139.302 59.1486 139.313 61.4045C139.323 63.6603 139.086 65.6006 138.601 67.1657C138.126 68.7211 137.462 69.9827 136.618 70.9406C135.774 71.8887 134.789 72.5741 133.654 72.9768C132.52 73.3695 131.292 73.5507 129.962 73.5102C128.631 73.4697 127.447 73.215 126.299 72.7329C125.161 72.2512 124.17 71.5056 123.327 70.4764C122.483 69.467 121.808 68.1647 121.31 66.5697C120.812 64.9747 120.562 63.0692 120.551 60.8233C120.54 58.5774 120.778 56.6272 121.263 55.0622C121.748 53.4971 122.411 52.2554 123.246 51.2872C124.089 50.3391 125.074 49.6537 126.199 49.2408C127.335 48.8283 128.553 48.6467 129.853 48.6863C131.153 48.7259 132.408 48.9827 133.545 49.4645C134.683 49.9463 135.674 50.6918 136.527 51.7114C137.381 52.731 138.047 54.0331 138.535 55.6278L138.554 55.6383ZM132.328 65.6234C132.874 64.6662 133.147 63.204 133.138 61.2165C133.129 59.229 132.849 57.6505 132.293 56.6698C131.736 55.699 130.937 55.1977 129.894 55.166C128.852 55.1342 128.132 55.5893 127.597 56.5268C127.062 57.4743 126.798 58.9667 126.804 61.0237C126.811 63.0807 127.086 64.49 127.633 65.4804C128.179 66.4708 128.948 66.9811 129.941 67.0113C130.934 67.0415 131.782 66.5805 132.328 65.6234Z" fill="#0A090F" stroke="#EFEFE4" stroke-linejoin="round"/>
<path d="M139.689 71.2441L133.193 73.123C133.353 73.0782 133.504 73.0331 133.655 72.9781C134.79 72.5754 135.774 71.8999 136.618 70.9419C137.462 69.9939 138.126 68.7324 138.601 67.167C139.085 65.6118 139.323 63.6914 139.313 61.4058C139.303 59.1202 139.053 57.2247 138.554 55.6396L145.05 53.7607C145.549 55.3458 145.798 57.2711 145.809 59.5269C145.82 61.7827 145.582 63.723 145.097 65.2881C144.622 66.8435 143.958 68.1051 143.114 69.0631C142.27 70.0111 141.286 70.6965 140.15 71.0992C140 71.1542 139.839 71.199 139.689 71.2441Z" fill="#0A090F" stroke="#EFEFE4" stroke-linejoin="round"/>
<path d="M128.192 23.7092L135.25 23.9241L109.824 72.2147L102.765 71.9998L128.192 23.7092Z" fill="#0A090F" stroke="#EFEFE4" stroke-linejoin="round"/>
<path d="M128.191 23.7075L134.687 21.8287L141.735 22.0433L135.249 23.9224L128.191 23.7075Z" fill="#0A090F" stroke="#EFEFE4" stroke-linejoin="round"/>
<path d="M47.5312 92.7812L53.9187 92.794L64.0665 92.8143L57.6754 92.8016L47.5312 92.7812Z" fill="#0A090F" stroke="#EFEFE4" stroke-linejoin="round"/>
<path d="M73.7937 103.638L67.4062 103.625L67.3845 114.476L73.772 114.489L73.7937 103.638Z" fill="#0A090F" stroke="#EFEFE4" stroke-linejoin="round"/>
<path d="M73.8367 81.1026L67.4492 81.0898L67.4258 92.8115L73.8132 92.8243L73.8367 81.1026Z" fill="#0A090F" stroke="#EFEFE4" stroke-linejoin="round"/>
<path d="M57.6992 81.0742L64.0903 81.087L73.841 81.1065L67.4498 81.0937L57.6992 81.0742Z" fill="#0A090F" stroke="#EFEFE4" stroke-linejoin="round"/>
<path d="M83.9265 92.8487L77.5391 92.8359L77.5174 103.643L83.9049 103.656L83.9265 92.8487Z" fill="#0A090F" stroke="#EFEFE4" stroke-linejoin="round"/>
<path d="M67.4258 92.8164L73.8169 92.8292L83.9246 92.8494L77.5371 92.8366L67.4258 92.8164Z" fill="#0A090F" stroke="#EFEFE4" stroke-linejoin="round"/>
<path d="M67.4495 81.0945L67.426 92.8199L77.5374 92.8401L77.5158 103.647L67.4044 103.627L67.3827 114.478L57.6321 114.458L57.6538 103.607L47.5096 103.587L47.5312 92.78L57.6754 92.8003L57.6988 81.075L67.4495 81.0945Z" fill="url(#paint0_linear_1_33334)" stroke="#EFEFE4" stroke-linejoin="round"/>
<defs>
<linearGradient id="paint0_linear_1_33334" x1="47.5244" y1="96.2157" x2="77.5305" y2="96.2757" gradientUnits="userSpaceOnUse">
<stop stop-color="#68FFFF"/>
<stop offset="1" stop-color="#68FF9B"/>
</linearGradient>
</defs>
</svg>
