<svg width="867" height="443" viewBox="0 0 867 443" fill="none" xmlns="http://www.w3.org/2000/svg">
<path d="M30 402.001L60.7617 335.971C61.4184 334.561 62.8325 333.66 64.3875 333.66H75.0856H87.6093H101.385H127.685H143.582C145.307 333.66 146.837 332.554 147.379 330.917L170.676 260.547C171.186 259.006 172.576 257.926 174.194 257.813L190.104 256.702C191.831 256.582 193.275 255.36 193.758 253.697C197.114 242.134 202.909 232.129 208.294 230.789C213.473 229.5 221.369 229 224.5 229H243L256.256 227.991C256.944 227.939 257.608 227.709 258.181 227.324L284.474 209.679C285.133 209.237 285.909 209 286.703 209L312.717 209.001C313.143 209.001 313.567 208.932 313.972 208.799L330 203.5L342.455 198.744C342.878 198.583 343.326 198.494 343.779 198.482L359.271 198.083C361.155 198.035 362.749 196.677 363.098 194.825L363.77 191.259C364.127 189.369 365.778 188 367.701 188H445.546C447.755 188 449.541 186.198 449.523 183.989C449.412 170.986 449.678 173.5 471.463 173.5C484.01 173.5 486.59 173.5 490.249 173.5C522.434 173.5 514.15 173.5 531.327 173.5C533.536 173.5 535.334 171.709 535.334 169.5V153C535.334 150.791 537.125 149 539.334 149H589.57C591.779 149 593.57 147.209 593.57 145V134C593.57 131.791 595.361 130 597.57 130H615.243C617.452 130 619.243 128.209 619.243 126V101.5C619.243 99.2909 621.034 97.5 623.243 97.5H693.517C695.726 97.5 697.517 95.7091 697.517 93.5V70.7571C697.517 68.6821 699.199 67 701.274 67V67H703.153H708.788H711.919M711.919 67H715.05M711.919 67H723.817" stroke="url(#paint0_linear_59_9942)" stroke-width="2"/>
<path opacity="0.5" d="M60.7617 335.971L32.6504 396.312C31.4151 398.964 33.3509 402.001 36.2763 402.001H720C722.209 402.001 724 400.21 724 398.001V275.579V258V71C724 68.7909 722.209 67 720 67H700.891C698.682 67 696.891 68.7909 696.891 71V94C696.891 96.2091 695.1 98 692.891 98H623.243C621.034 98 619.243 99.7909 619.243 102V126.5C619.243 128.709 617.453 130.5 615.243 130.5H597.538C595.329 130.5 593.538 132.291 593.538 134.5V145.5C593.538 147.709 591.747 149.5 589.538 149.5H573.532H539.96C537.751 149.5 535.96 151.291 535.96 153.5V169.001C535.96 171.21 534.169 173.001 531.96 173.001L518.427 173H497.137H476.472C471.574 173 486.026 173.001 454.291 173.001C452.082 173.001 450.265 174.792 450.265 177.001V183.501C450.265 185.71 448.475 187.501 446.265 187.501H437.53H389.773H366.506C364.297 187.501 362.506 189.292 362.506 191.501V194.501C362.506 196.71 360.715 198.501 358.506 198.501H342.693C342.244 198.501 341.799 198.576 341.375 198.724L314.001 208.277C313.577 208.425 313.132 208.501 312.683 208.501L287.25 208.5C286.506 208.5 285.776 208.708 285.143 209.101L255.77 227.311C255.137 227.703 254.407 227.911 253.662 227.911H243.316H224.118C220.361 227.911 213.588 230.789 208.294 230.789C203.836 230.789 197.153 241.98 193.639 253.678C193.111 255.435 191.522 256.686 189.687 256.686H176.05C174.38 256.686 172.885 257.725 172.302 259.29L145.563 331.057C144.979 332.622 143.485 333.66 141.814 333.66H128.938H114.535H98.8807H79.4689H64.3875C62.8325 333.66 61.4184 334.561 60.7617 335.971Z" fill="url(#paint1_linear_59_9942)"/>
<rect x="724.25" y="1.25" width="0.5" height="400.5" stroke="#EFEFE4" stroke-opacity="0.5" stroke-width="0.5" stroke-dasharray="4 4"/>
<line x1="52" y1="66.5" x2="777" y2="66.5" stroke="#EFEFE4" stroke-opacity="0.5" stroke-dasharray="4 4"/>
<rect width="50" height="24" transform="translate(699.975 29)" fill="url(#paint2_linear_59_9942)"/>
<path d="M709.459 45V39.04H708.624L708.909 38H710.499V45H709.459ZM713.815 45.13C713.371 45.13 712.97 45.0233 712.61 44.81C712.253 44.5933 711.97 44.3067 711.76 43.95C711.553 43.59 711.45 43.1967 711.45 42.77H712.49C712.49 43.0133 712.55 43.235 712.67 43.435C712.79 43.635 712.95 43.795 713.15 43.915C713.35 44.0317 713.571 44.09 713.815 44.09C714.055 44.09 714.275 44.0317 714.475 43.915C714.675 43.795 714.835 43.635 714.955 43.435C715.075 43.235 715.135 43.0133 715.135 42.77C715.135 42.5267 715.08 42.305 714.97 42.105C714.86 41.9017 714.695 41.74 714.475 41.62C714.255 41.4967 713.975 41.435 713.635 41.435H711.87L712.58 38H715.965V39.04H713.425L713.15 40.395L713.755 40.405C714.231 40.415 714.65 40.525 715.01 40.735C715.373 40.9417 715.658 41.2217 715.865 41.575C716.071 41.925 716.175 42.3233 716.175 42.77C716.175 43.0933 716.113 43.3983 715.99 43.685C715.866 43.9683 715.696 44.2183 715.48 44.435C715.266 44.6517 715.016 44.8217 714.73 44.945C714.446 45.0683 714.141 45.13 713.815 45.13ZM717.519 41.095C717.365 41.095 717.235 41.0417 717.129 40.935C717.025 40.8283 716.974 40.6983 716.974 40.545C716.974 40.395 717.025 40.2667 717.129 40.16C717.235 40.0533 717.365 40 717.519 40C717.672 40 717.802 40.0533 717.909 40.16C718.015 40.2667 718.069 40.395 718.069 40.545C718.069 40.6983 718.015 40.8283 717.909 40.935C717.802 41.0417 717.672 41.095 717.519 41.095ZM717.519 45.13C717.365 45.13 717.235 45.0767 717.129 44.97C717.025 44.8633 716.974 44.7333 716.974 44.58C716.974 44.43 717.025 44.3017 717.129 44.195C717.235 44.0883 717.365 44.035 717.519 44.035C717.672 44.035 717.802 44.0883 717.909 44.195C718.015 44.3017 718.069 44.43 718.069 44.58C718.069 44.7333 718.015 44.8633 717.909 44.97C717.802 45.0767 717.672 45.13 717.519 45.13ZM718.873 45V44.075C719.11 43.8783 719.381 43.65 719.688 43.39C719.995 43.1267 720.306 42.8483 720.623 42.555C720.94 42.2583 721.231 41.9633 721.498 41.67C721.765 41.3733 721.98 41.0933 722.143 40.83C722.31 40.5633 722.393 40.3317 722.393 40.135C722.393 39.9117 722.338 39.7083 722.228 39.525C722.121 39.3383 721.976 39.19 721.793 39.08C721.61 38.9667 721.406 38.91 721.183 38.91C720.96 38.91 720.755 38.9667 720.568 39.08C720.385 39.19 720.236 39.3383 720.123 39.525C720.013 39.7083 719.958 39.9117 719.958 40.135H718.918C718.918 39.7117 719.021 39.33 719.228 38.99C719.438 38.6467 719.713 38.375 720.053 38.175C720.396 37.9717 720.773 37.87 721.183 37.87C721.596 37.87 721.973 37.9717 722.313 38.175C722.653 38.3783 722.925 38.6517 723.128 38.995C723.331 39.335 723.433 39.715 723.433 40.135C723.433 40.3683 723.385 40.6083 723.288 40.855C723.191 41.1017 723.056 41.3533 722.883 41.61C722.713 41.8667 722.515 42.1267 722.288 42.39C722.061 42.6533 721.818 42.9167 721.558 43.18C721.298 43.4433 721.033 43.7033 720.763 43.96H723.493V45H718.873ZM726.603 45.13C726.16 45.13 725.758 45.0233 725.398 44.81C725.042 44.5933 724.758 44.3067 724.548 43.95C724.342 43.59 724.238 43.1967 724.238 42.77H725.278C725.278 43.0133 725.338 43.235 725.458 43.435C725.578 43.635 725.738 43.795 725.938 43.915C726.138 44.0317 726.36 44.09 726.603 44.09C726.843 44.09 727.063 44.0317 727.263 43.915C727.463 43.795 727.623 43.635 727.743 43.435C727.863 43.235 727.923 43.0133 727.923 42.77C727.923 42.5267 727.868 42.305 727.758 42.105C727.648 41.9017 727.483 41.74 727.263 41.62C727.043 41.4967 726.763 41.435 726.423 41.435H724.658L725.368 38H728.753V39.04H726.213L725.938 40.395L726.543 40.405C727.02 40.415 727.438 40.525 727.798 40.735C728.162 40.9417 728.447 41.2217 728.653 41.575C728.86 41.925 728.963 42.3233 728.963 42.77C728.963 43.0933 728.902 43.3983 728.778 43.685C728.655 43.9683 728.485 44.2183 728.268 44.435C728.055 44.6517 727.805 44.8217 727.518 44.945C727.235 45.0683 726.93 45.13 726.603 45.13ZM730.307 41.095C730.154 41.095 730.024 41.0417 729.917 40.935C729.814 40.8283 729.762 40.6983 729.762 40.545C729.762 40.395 729.814 40.2667 729.917 40.16C730.024 40.0533 730.154 40 730.307 40C730.461 40 730.591 40.0533 730.697 40.16C730.804 40.2667 730.857 40.395 730.857 40.545C730.857 40.6983 730.804 40.8283 730.697 40.935C730.591 41.0417 730.461 41.095 730.307 41.095ZM730.307 45.13C730.154 45.13 730.024 45.0767 729.917 44.97C729.814 44.8633 729.762 44.7333 729.762 44.58C729.762 44.43 729.814 44.3017 729.917 44.195C730.024 44.0883 730.154 44.035 730.307 44.035C730.461 44.035 730.591 44.0883 730.697 44.195C730.804 44.3017 730.857 44.43 730.857 44.58C730.857 44.7333 730.804 44.8633 730.697 44.97C730.591 45.0767 730.461 45.13 730.307 45.13ZM731.662 45V44.075C731.898 43.8783 732.17 43.65 732.477 43.39C732.783 43.1267 733.095 42.8483 733.412 42.555C733.728 42.2583 734.02 41.9633 734.287 41.67C734.553 41.3733 734.768 41.0933 734.932 40.83C735.098 40.5633 735.182 40.3317 735.182 40.135C735.182 39.9117 735.127 39.7083 735.017 39.525C734.91 39.3383 734.765 39.19 734.582 39.08C734.398 38.9667 734.195 38.91 733.972 38.91C733.748 38.91 733.543 38.9667 733.357 39.08C733.173 39.19 733.025 39.3383 732.912 39.525C732.802 39.7083 732.747 39.9117 732.747 40.135H731.707C731.707 39.7117 731.81 39.33 732.017 38.99C732.227 38.6467 732.502 38.375 732.842 38.175C733.185 37.9717 733.562 37.87 733.972 37.87C734.385 37.87 734.762 37.9717 735.102 38.175C735.442 38.3783 735.713 38.6517 735.917 38.995C736.12 39.335 736.222 39.715 736.222 40.135C736.222 40.3683 736.173 40.6083 736.077 40.855C735.98 41.1017 735.845 41.3533 735.672 41.61C735.502 41.8667 735.303 42.1267 735.077 42.39C734.85 42.6533 734.607 42.9167 734.347 43.18C734.087 43.4433 733.822 43.7033 733.552 43.96H736.282V45H731.662ZM739.197 45.13C738.774 45.13 738.394 45.0317 738.057 44.835C737.724 44.6383 737.46 44.375 737.267 44.045C737.074 43.715 736.977 43.3483 736.977 42.945H738.017C738.017 43.155 738.067 43.3467 738.167 43.52C738.267 43.6933 738.405 43.8317 738.582 43.935C738.759 44.0383 738.964 44.09 739.197 44.09C739.407 44.09 739.602 44.0383 739.782 43.935C739.962 43.8317 740.107 43.6933 740.217 43.52C740.327 43.3467 740.382 43.155 740.382 42.945C740.382 42.6783 740.312 42.455 740.172 42.275C740.032 42.095 739.837 41.9617 739.587 41.875C739.34 41.785 739.055 41.74 738.732 41.74V40.92C739.172 40.92 739.524 40.8333 739.787 40.66C740.05 40.4867 740.182 40.2283 740.182 39.885C740.182 39.705 740.134 39.5417 740.037 39.395C739.944 39.245 739.819 39.1267 739.662 39.04C739.509 38.95 739.344 38.905 739.167 38.905C738.984 38.905 738.807 38.95 738.637 39.04C738.47 39.1267 738.334 39.245 738.227 39.395C738.12 39.5417 738.067 39.705 738.067 39.885H737.027C737.027 39.6083 737.084 39.3483 737.197 39.105C737.314 38.8583 737.47 38.6433 737.667 38.46C737.867 38.2733 738.094 38.1283 738.347 38.025C738.604 37.9183 738.872 37.865 739.152 37.865C739.519 37.865 739.859 37.9567 740.172 38.14C740.489 38.32 740.742 38.5633 740.932 38.87C741.125 39.1733 741.222 39.5117 741.222 39.885C741.222 40.1817 741.149 40.4633 741.002 40.73C740.859 40.9933 740.659 41.18 740.402 41.29C740.625 41.37 740.812 41.4967 740.962 41.67C741.115 41.84 741.23 42.0367 741.307 42.26C741.384 42.48 741.422 42.7083 741.422 42.945C741.422 43.345 741.32 43.7117 741.117 44.045C740.914 44.375 740.642 44.6383 740.302 44.835C739.965 45.0317 739.597 45.13 739.197 45.13Z" fill="#111016"/>
<ellipse cx="5.97" cy="5.97045" rx="5.97" ry="5.97045" transform="matrix(0.999989 -0.00470853 0.00522876 0.999986 720 61.0562)" fill="white"/>
<circle cx="726" cy="67.0015" r="4" fill="url(#paint3_linear_59_9942)"/>
<defs>
<linearGradient id="paint0_linear_59_9942" x1="30" y1="219.14" x2="723.817" y2="219.14" gradientUnits="userSpaceOnUse">
<stop stop-color="#68FFFF"/>
<stop offset="1" stop-color="#68FF9B"/>
</linearGradient>
<linearGradient id="paint1_linear_59_9942" x1="390.058" y1="106.5" x2="388.861" y2="408.003" gradientUnits="userSpaceOnUse">
<stop stop-color="#68FFFF" stop-opacity="0.8"/>
<stop offset="1" stop-color="#68FF9B" stop-opacity="0"/>
</linearGradient>
<linearGradient id="paint2_linear_59_9942" x1="1.95318e-07" y1="10.8996" x2="50" y2="10.8996" gradientUnits="userSpaceOnUse">
<stop stop-color="#68FFFF"/>
<stop offset="1" stop-color="#68FF9B"/>
</linearGradient>
<linearGradient id="paint3_linear_59_9942" x1="722" y1="66.6347" x2="730" y2="66.6347" gradientUnits="userSpaceOnUse">
<stop stop-color="#68FFFF"/>
<stop offset="1" stop-color="#68FF9B"/>
</linearGradient>
</defs>
</svg>
