<svg width="200" height="200" viewBox="0 0 200 200" fill="none" xmlns="http://www.w3.org/2000/svg">
<path fill-rule="evenodd" clip-rule="evenodd" d="M43.3676 30H34.2847C46.0411 30 55.5748 40.6062 55.5696 53.6839C55.5696 61.7683 51.9266 68.9078 46.3675 73.1816H42.2017L51.2846 75.6739C59.1188 72.1816 64.6525 63.6527 64.6525 53.6839C64.6525 40.6062 55.124 30 43.3676 30ZM26.3672 73.1816V75.6739V107.347H87.4345L87.4351 124.326V127.16L103.269 127.161L107.872 127.16C113.184 131.465 116.637 138.441 116.637 146.316C116.637 159.393 107.109 170 95.3521 170H104.435C116.191 170 125.72 159.393 125.72 146.316C125.72 136.352 120.186 127.824 112.352 124.326L112.352 124.325V107.347L164.331 107.347V75.679V73.1816L164.331 75.6739H173.414C181.248 72.1816 186.782 63.6527 186.782 53.6839C186.782 40.6062 177.253 30 165.497 30H156.414C168.171 30 177.704 40.6062 177.699 53.6839C177.699 61.7683 174.056 68.9078 168.497 73.1816H164.331H157.585H157.58H148.497L148.497 75.6739V89.7308H51.2846V75.6777L42.2017 73.1816H35.4501H26.3672ZM164.331 75.6777H173.414V107.351H164.331V75.6777Z" fill="#0A090F"/>
<path d="M42.2017 73.1816H46.3675C51.9266 68.9078 55.5696 61.7683 55.5696 53.6839C55.5748 40.6062 46.0411 30 34.2847 30H43.3676C55.124 30 64.6525 40.6062 64.6525 53.6839C64.6525 63.6527 59.1188 72.1816 51.2846 75.6739L42.2017 73.1816ZM42.2017 73.1816L51.2846 75.6777V89.7308H148.497V75.6739L148.497 73.1816H157.58H157.585H164.331M42.2017 73.1816H35.4501H26.3672V75.6739V107.347H87.4345L87.4351 124.326V127.16L103.269 127.161L107.872 127.16C113.184 131.465 116.637 138.441 116.637 146.316C116.637 159.393 107.109 170 95.3521 170H104.435C116.191 170 125.72 159.393 125.72 146.316C125.72 136.352 120.186 127.824 112.352 124.326L112.352 124.325M112.352 124.325V107.347L164.331 107.347V75.679V73.1816M112.352 124.325L101.5 124.5M164.331 73.1816L164.331 75.6739H173.414C181.248 72.1816 186.782 63.6527 186.782 53.6839C186.782 40.6062 177.253 30 165.497 30H156.414C168.171 30 177.704 40.6062 177.699 53.6839C177.699 61.7683 174.056 68.9078 168.497 73.1816H164.331ZM173.414 75.6777H164.331V107.351H173.414V75.6777Z" stroke="#EFEFE4"/>
<ellipse cx="35.5" cy="52.5" rx="21.5" ry="23.5" fill="url(#paint0_linear_1_33371)" stroke="#EFEFE4" stroke-linejoin="round"/>
<ellipse cx="97.5" cy="147.5" rx="21.5" ry="23.5" fill="url(#paint1_linear_1_33371)" stroke="#EFEFE4" stroke-linejoin="round"/>
<ellipse cx="158.5" cy="52.5" rx="21.5" ry="23.5" fill="url(#paint2_linear_1_33371)" stroke="#EFEFE4" stroke-linejoin="round"/>
<defs>
<linearGradient id="paint0_linear_1_33371" x1="14" y1="50.345" x2="57" y2="50.345" gradientUnits="userSpaceOnUse">
<stop stop-color="#68FFFF"/>
<stop offset="1" stop-color="#68FF9B"/>
</linearGradient>
<linearGradient id="paint1_linear_1_33371" x1="76" y1="145.345" x2="119" y2="145.345" gradientUnits="userSpaceOnUse">
<stop stop-color="#68FFFF"/>
<stop offset="1" stop-color="#68FF9B"/>
</linearGradient>
<linearGradient id="paint2_linear_1_33371" x1="137" y1="50.345" x2="180" y2="50.345" gradientUnits="userSpaceOnUse">
<stop stop-color="#68FFFF"/>
<stop offset="1" stop-color="#68FF9B"/>
</linearGradient>
</defs>
</svg>
