<svg width="207" height="200" viewBox="0 0 207 200" fill="none" xmlns="http://www.w3.org/2000/svg">
<path fill-rule="evenodd" clip-rule="evenodd" d="M86.4006 70H79.9297C88.5342 70 96.1901 74.5699 101.055 81.6425H107.526C102.661 74.5699 95.0015 70 86.4006 70ZM79.9283 82.918H86.3993C78.138 82.918 71.4124 90.4003 71.4124 99.5918C71.4124 108.783 78.138 116.266 86.3993 116.266H79.9283C71.6671 116.266 64.9414 108.787 64.9414 99.5918C64.9414 90.3967 71.6671 82.918 79.9283 82.918ZM101.055 117.551H107.526C102.657 124.616 95.0015 129.19 86.4006 129.19H79.9297C88.5305 129.19 96.1901 124.62 101.055 117.551ZM122.178 82.918H128.649C120.388 82.918 113.662 90.4003 113.662 99.5918C113.662 108.783 120.388 116.266 128.649 116.266H122.178C113.917 116.266 107.191 108.787 107.191 99.5918C107.191 90.3967 113.917 82.918 122.178 82.918ZM128.651 70H122.18C136.845 70 148.779 83.2741 148.779 99.5936C148.779 115.913 136.845 129.187 122.18 129.187H128.651C143.32 129.187 155.25 115.913 155.25 99.5936C155.25 83.2741 143.316 70 128.651 70Z" fill="#0A090F"/>
<path d="M101.055 81.6425L100.643 81.9259L100.792 82.1425H101.055V81.6425ZM107.526 81.6425V82.1425H108.477L107.938 81.3592L107.526 81.6425ZM107.526 117.551L107.938 117.835L108.478 117.051H107.526V117.551ZM101.055 117.551V117.051H100.792L100.643 117.267L101.055 117.551ZM79.9297 70.5H86.4006V69.5H79.9297V70.5ZM101.467 81.3592C96.5214 74.1693 88.72 69.5 79.9297 69.5V70.5C88.3485 70.5 95.8588 74.9705 100.643 81.9259L101.467 81.3592ZM107.526 81.1425H101.055V82.1425H107.526V81.1425ZM86.4006 70.5C94.8158 70.5 102.33 74.9705 107.114 81.9259L107.938 81.3592C102.992 74.1693 95.1872 69.5 86.4006 69.5V70.5ZM86.3993 82.418H79.9283V83.418H86.3993V82.418ZM71.9124 99.5918C71.9124 90.625 78.463 83.418 86.3993 83.418V82.418C77.813 82.418 70.9124 90.1757 70.9124 99.5918H71.9124ZM86.3993 115.766C78.463 115.766 71.9124 108.559 71.9124 99.5918H70.9124C70.9124 109.008 77.813 116.766 86.3993 116.766V115.766ZM79.9283 116.766H86.3993V115.766H79.9283V116.766ZM64.4414 99.5918C64.4414 109.012 71.3422 116.766 79.9283 116.766V115.766C71.992 115.766 65.4414 108.562 65.4414 99.5918H64.4414ZM79.9283 82.418C71.3422 82.418 64.4414 90.1719 64.4414 99.5918H65.4414C65.4414 90.6214 71.992 83.418 79.9283 83.418V82.418ZM107.526 117.051H101.055V118.051H107.526V117.051ZM86.4006 129.69C95.1874 129.69 102.989 125.017 107.938 117.835L107.115 117.267C102.326 124.216 94.8156 128.69 86.4006 128.69V129.69ZM79.9297 129.69H86.4006V128.69H79.9297V129.69ZM100.643 117.267C95.8589 124.219 88.3449 128.69 79.9297 128.69V129.69C88.7162 129.69 96.5213 125.02 101.467 117.834L100.643 117.267ZM128.649 82.418H122.178V83.418H128.649V82.418ZM114.162 99.5918C114.162 90.625 120.713 83.418 128.649 83.418V82.418C120.063 82.418 113.162 90.1757 113.162 99.5918H114.162ZM128.649 115.766C120.713 115.766 114.162 108.559 114.162 99.5918H113.162C113.162 109.008 120.063 116.766 128.649 116.766V115.766ZM122.178 116.766H128.649V115.766H122.178V116.766ZM106.691 99.5918C106.691 109.012 113.592 116.766 122.178 116.766V115.766C114.242 115.766 107.691 108.562 107.691 99.5918H106.691ZM122.178 82.418C113.592 82.418 106.691 90.1719 106.691 99.5918H107.691C107.691 90.6214 114.242 83.418 122.178 83.418V82.418ZM122.18 70.5H128.651V69.5H122.18V70.5ZM149.279 99.5936C149.279 83.0494 137.17 69.5 122.18 69.5V70.5C136.52 70.5 148.279 83.4988 148.279 99.5936H149.279ZM122.18 129.687C137.17 129.687 149.279 116.138 149.279 99.5936H148.279C148.279 115.688 136.52 128.687 122.18 128.687V129.687ZM128.651 128.687H122.18V129.687H128.651V128.687ZM154.75 99.5936C154.75 115.688 142.995 128.687 128.651 128.687V129.687C143.645 129.687 155.75 116.138 155.75 99.5936H154.75ZM128.651 70.5C142.991 70.5 154.75 83.4988 154.75 99.5936H155.75C155.75 83.0494 143.641 69.5 128.651 69.5V70.5Z" fill="#EFEFE4"/>
<path d="M122.179 70C136.845 70 148.779 83.2741 148.779 99.5936C148.779 115.913 136.849 129.187 122.179 129.187C113.579 129.187 105.919 124.617 101.058 117.548C96.1887 124.614 88.5328 129.187 79.9319 129.187C65.2662 129.187 53.332 115.913 53.332 99.5936C53.332 83.2741 65.2625 70 79.9282 70C88.5291 70 96.1887 74.5699 101.054 81.6425C105.919 74.5699 113.579 70 122.179 70ZM122.179 116.267C130.444 116.267 137.166 108.789 137.166 99.5936C137.166 90.3984 130.444 82.9197 122.179 82.9197C113.918 82.9197 107.193 90.4021 107.193 99.5936C107.193 108.785 113.918 116.267 122.179 116.267ZM79.9319 116.267C88.1969 116.267 94.9188 108.789 94.9188 99.5936C94.9188 90.3984 88.1969 82.9197 79.9319 82.9197C71.6707 82.9197 64.945 90.4021 64.945 99.5936C64.945 108.785 71.6707 116.267 79.9319 116.267Z" fill="url(#paint0_linear_4_277)" stroke="#EFEFE4"/>
<path d="M18.9158 103.398H25.6233L15.9771 114.131H9.26953L18.9158 103.398Z" fill="#0A090F" stroke="#EFEFE4"/>
<path d="M36.8312 104.93H43.5388L35.2701 114.128H28.5625L36.8312 104.93Z" fill="#0A090F" stroke="#EFEFE4"/>
<path d="M18.9141 85H25.6217L43.5366 104.931H36.829L18.9141 85Z" fill="#0A090F" stroke="#EFEFE4"/>
<path d="M18.915 85L36.8299 104.931L28.5612 114.13L18.915 103.397L9.26874 114.13L1 104.931L18.915 85Z" fill="#0A090F" stroke="#EFEFE4"/>
<path d="M180.916 103.398H187.623L177.977 114.131H171.27L180.916 103.398Z" fill="#0A090F" stroke="#EFEFE4"/>
<path d="M198.831 104.93H205.539L197.27 114.128H190.562L198.831 104.93Z" fill="#0A090F" stroke="#EFEFE4"/>
<path d="M180.914 85H187.622L205.537 104.931H198.829L180.914 85Z" fill="#0A090F" stroke="#EFEFE4"/>
<path d="M180.915 85L198.83 104.931L190.561 114.13L180.915 103.397L171.269 114.13L163 104.931L180.915 85Z" fill="#0A090F" stroke="#EFEFE4"/>
<path d="M102.916 38.3984H109.623L99.9771 49.1313H93.2695L102.916 38.3984Z" fill="#0A090F" stroke="#EFEFE4"/>
<path d="M120.831 39.9297H127.539L119.27 49.1282H112.562L120.831 39.9297Z" fill="#0A090F" stroke="#EFEFE4"/>
<path d="M102.914 20H109.622L127.537 39.9315H120.829L102.914 20Z" fill="#0A090F" stroke="#EFEFE4"/>
<path d="M102.915 20L120.83 39.9315L112.561 49.13L102.915 38.3971L93.2687 49.13L85 39.9315L102.915 20Z" fill="#0A090F" stroke="#EFEFE4"/>
<path d="M102.916 166.398H109.623L99.9771 177.131H93.2695L102.916 166.398Z" fill="#0A090F" stroke="#EFEFE4"/>
<path d="M120.831 167.93H127.539L119.27 177.128H112.562L120.831 167.93Z" fill="#0A090F" stroke="#EFEFE4"/>
<path d="M102.914 148H109.622L127.537 167.931H120.829L102.914 148Z" fill="#0A090F" stroke="#EFEFE4"/>
<path d="M102.915 148L120.83 167.931L112.561 177.13L102.915 166.397L93.2687 177.13L85 167.931L102.915 148Z" fill="#0A090F" stroke="#EFEFE4"/>
<defs>
<linearGradient id="paint0_linear_4_277" x1="53.332" y1="96.8798" x2="148.779" y2="96.8798" gradientUnits="userSpaceOnUse">
<stop stop-color="#68FFFF"/>
<stop offset="1" stop-color="#68FF9B"/>
</linearGradient>
</defs>
</svg>
