<svg width="517" height="278" viewBox="0 0 517 278" fill="none" xmlns="http://www.w3.org/2000/svg">
<g clip-path="url(#clip0_1_51268)">
<g clip-path="url(#clip1_1_51268)">
<path d="M368.326 36.5C341.78 36.5 318.381 46.8589 301.673 63.7543L300.941 64.5121L283.999 82.0557L340.081 85.4076L340.332 85.4226L340.47 85.6337L418.59 205.452L418.749 205.695L418.616 205.954C418.161 206.84 418.103 207.692 418.333 208.538C418.568 209.399 419.108 210.277 419.889 211.175C421.457 212.978 423.876 214.732 426.299 216.483L426.383 216.543C428.742 218.247 431.111 219.958 432.501 221.654C433.207 222.517 433.708 223.43 433.789 224.386C433.793 224.446 433.797 224.505 433.798 224.564L449.637 208.163C467.156 190.019 477.078 164.568 475.123 136.376L475.622 136.342L475.123 136.376C471.301 81.2194 423.48 36.5 368.326 36.5Z" fill="url(#paint0_linear_1_51268)" stroke="#0A090F"/>
<path d="M283.237 82.8233C246.262 121.099 249.513 184.304 290.601 223.996C331.69 263.689 394.969 264.754 431.944 226.479C468.919 188.203 465.668 124.998 424.58 85.3057C383.492 45.6133 320.212 44.5481 283.237 82.8233Z" fill="url(#paint1_linear_1_51268)" stroke="#0A090F"/>
<path d="M368.172 35.9688L350.482 54.2666V54.2755" stroke="#0A090F" stroke-miterlimit="10"/>
<path d="M300.81 67.9502L318.5 49.6523" stroke="#0A090F" stroke-miterlimit="10"/>
<path d="M475.426 136.195L457.736 154.502" stroke="#0A090F" stroke-miterlimit="10"/>
<path d="M447.556 205.1L465.246 186.793" stroke="#0A090F" stroke-miterlimit="10"/>
<path d="M440.533 103.919L458.223 85.6211" stroke="#0A090F" stroke-miterlimit="10"/>
<path d="M402.048 67.958L419.738 49.6602" stroke="#0A090F" stroke-miterlimit="10"/>
<path fill-rule="evenodd" clip-rule="evenodd" d="M362.906 85.0011L362.908 85H362.906H347.887L343.332 89.7185H358.352L359.238 102.535H326.562L322.008 107.253H382.09L382.09 107.254L384.176 137.295L388.731 132.577L386.645 102.536L386.646 102.535H364.109L364.118 102.526L362.906 85.0011ZM358.691 132.578L354.137 137.297L355.002 149.818L355 149.82C355.392 155.331 360.165 159.813 365.685 159.813L370.24 155.094C364.724 155.085 359.953 150.619 359.556 145.113L359.557 145.112L358.691 132.578ZM331.774 177.631L327.219 182.349H357.261L361.815 177.631H331.774ZM371.414 207.674L366.86 212.392L367.898 227.422L372.453 222.704L371.414 207.674ZM393.249 197.661L393.25 197.66L393.942 207.671L389.388 212.39L388.696 202.379L388.695 202.38L387.301 182.349L391.856 177.631L393.249 197.661ZM390.297 155.106L390.299 155.104H390.297H370.25L365.696 159.813H385.742L387.3 182.349L391.855 177.63L390.297 155.106Z" fill="#0A090F"/>
<path d="M362.908 85L363.196 85.2776L363.849 84.6H362.908V85ZM362.906 85.0011L362.618 84.7235L362.495 84.8515L362.507 85.0287L362.906 85.0011ZM347.887 85V84.6H347.717L347.599 84.7222L347.887 85ZM343.332 89.7185L343.044 89.4407L342.39 90.1185H343.332V89.7185ZM358.352 89.7185L358.751 89.6909L358.725 89.3185H358.352V89.7185ZM359.238 102.535V102.935H359.666L359.637 102.507L359.238 102.535ZM326.562 102.535V102.135H326.393L326.275 102.257L326.562 102.535ZM322.008 107.253L321.72 106.976L321.066 107.653H322.008V107.253ZM382.09 107.253L382.379 107.53L383.026 106.853H382.09V107.253ZM382.09 107.254L381.801 106.977L381.679 107.105L381.691 107.281L382.09 107.254ZM384.176 137.295L383.777 137.323L383.839 138.22L384.464 137.573L384.176 137.295ZM388.731 132.577L389.018 132.855L389.142 132.727L389.13 132.549L388.731 132.577ZM386.645 102.536L386.357 102.258L386.233 102.386L386.246 102.564L386.645 102.536ZM386.646 102.535L386.933 102.813L387.59 102.135H386.646V102.535ZM364.109 102.535L363.821 102.257L363.167 102.935H364.109V102.535ZM364.118 102.526L364.406 102.804L364.529 102.676L364.517 102.498L364.118 102.526ZM354.137 137.297L353.849 137.019L353.726 137.147L353.738 137.324L354.137 137.297ZM358.691 132.578L359.091 132.551L359.029 131.653L358.404 132.3L358.691 132.578ZM355.002 149.818L355.29 150.096L355.413 149.968L355.401 149.791L355.002 149.818ZM355 149.82L354.713 149.542L354.589 149.67L354.601 149.848L355 149.82ZM365.685 159.813V160.213H365.855L365.973 160.091L365.685 159.813ZM370.24 155.094L370.528 155.372L371.18 154.696L370.24 154.694L370.24 155.094ZM359.556 145.113L359.268 144.835L359.144 144.964L359.157 145.142L359.556 145.113ZM359.557 145.112L359.844 145.39L359.968 145.262L359.956 145.085L359.557 145.112ZM327.219 182.349L326.931 182.072L326.277 182.749H327.219V182.349ZM331.774 177.631V177.231H331.604L331.486 177.353L331.774 177.631ZM357.261 182.349V182.749H357.431L357.549 182.627L357.261 182.349ZM361.815 177.631L362.103 177.909L362.757 177.231H361.815V177.631ZM366.86 212.392L366.572 212.115L366.448 212.242L366.461 212.42L366.86 212.392ZM371.414 207.674L371.813 207.646L371.751 206.749L371.126 207.396L371.414 207.674ZM367.898 227.422L367.499 227.45L367.561 228.347L368.186 227.7L367.898 227.422ZM372.453 222.704L372.74 222.982L372.864 222.854L372.852 222.676L372.453 222.704ZM393.25 197.66L393.649 197.633L393.587 196.736L392.963 197.382L393.25 197.66ZM393.249 197.661L392.85 197.689L392.912 198.585L393.537 197.939L393.249 197.661ZM393.942 207.671L394.23 207.949L394.354 207.821L394.341 207.643L393.942 207.671ZM389.388 212.39L388.989 212.417L389.051 213.315L389.676 212.667L389.388 212.39ZM388.696 202.379L389.095 202.352L389.033 201.455L388.408 202.101L388.696 202.379ZM388.695 202.38L388.296 202.408L388.358 203.304L388.982 202.658L388.695 202.38ZM387.301 182.349L387.013 182.072L386.89 182.2L386.902 182.377L387.301 182.349ZM391.856 177.631L392.255 177.603L392.192 176.706L391.568 177.353L391.856 177.631ZM390.299 155.104L390.587 155.382L391.243 154.704H390.299V155.104ZM390.297 155.106L390.01 154.827L389.886 154.955L389.898 155.133L390.297 155.106ZM370.25 155.104V154.704H370.08L369.963 154.825L370.25 155.104ZM365.696 159.813L365.408 159.535L364.752 160.213H365.696V159.813ZM385.742 159.813L386.141 159.785L386.116 159.413H385.742V159.813ZM387.3 182.349L386.901 182.376L386.963 183.274L387.588 182.627L387.3 182.349ZM391.855 177.63L392.142 177.908L392.266 177.78L392.254 177.603L391.855 177.63ZM362.62 84.7224L362.618 84.7235L363.194 85.2787L363.196 85.2776L362.62 84.7224ZM362.906 85.4H362.908V84.6H362.906V85.4ZM347.887 85.4H362.906V84.6H347.887V85.4ZM343.62 89.9963L348.174 85.2778L347.599 84.7222L343.044 89.4407L343.62 89.9963ZM358.352 89.3185H343.332V90.1185H358.352V89.3185ZM357.953 89.7461L358.839 102.563L359.637 102.507L358.751 89.6909L357.953 89.7461ZM359.238 102.135H326.562V102.935H359.238V102.135ZM326.275 102.257L321.72 106.976L322.296 107.531L326.85 102.813L326.275 102.257ZM322.008 107.653H382.09V106.853H322.008V107.653ZM381.801 106.977L381.801 106.977L382.379 107.53L382.379 107.53L381.801 106.977ZM381.691 107.281L383.777 137.323L384.575 137.268L382.489 107.226L381.691 107.281ZM384.464 137.573L389.018 132.855L388.443 132.299L383.888 137.018L384.464 137.573ZM389.13 132.549L387.044 102.508L386.246 102.564L388.332 132.605L389.13 132.549ZM386.932 102.814L386.933 102.813L386.359 102.257L386.357 102.258L386.932 102.814ZM386.646 102.135H364.109V102.935H386.646V102.135ZM364.397 102.813L364.406 102.804L363.83 102.248L363.821 102.257L364.397 102.813ZM364.517 102.498L363.305 84.9736L362.507 85.0287L363.719 102.553L364.517 102.498ZM354.425 137.574L358.979 132.856L358.404 132.3L353.849 137.019L354.425 137.574ZM355.401 149.791L354.536 137.269L353.738 137.324L354.603 149.846L355.401 149.791ZM355.288 150.098L355.29 150.096L354.714 149.54L354.713 149.542L355.288 150.098ZM365.685 159.413C360.377 159.413 355.776 155.095 355.399 149.792L354.601 149.848C355.008 155.567 359.953 160.213 365.685 160.213V159.413ZM369.952 154.816L365.397 159.535L365.973 160.091L370.528 155.372L369.952 154.816ZM359.157 145.142C359.569 150.856 364.512 155.485 370.239 155.494L370.24 154.694C364.935 154.685 360.337 150.382 359.955 145.085L359.157 145.142ZM359.269 144.834L359.268 144.835L359.843 145.392L359.844 145.39L359.269 144.834ZM358.292 132.606L359.158 145.14L359.956 145.085L359.091 132.551L358.292 132.606ZM327.507 182.627L332.061 177.909L331.486 177.353L326.931 182.072L327.507 182.627ZM357.261 181.949H327.219V182.749H357.261V181.949ZM361.527 177.353L356.973 182.072L357.549 182.627L362.103 177.909L361.527 177.353ZM331.774 178.031H361.815V177.231H331.774V178.031ZM367.147 212.67L371.702 207.952L371.126 207.396L366.572 212.115L367.147 212.67ZM368.297 227.395L367.259 212.365L366.461 212.42L367.499 227.45L368.297 227.395ZM372.165 222.426L367.61 227.145L368.186 227.7L372.74 222.982L372.165 222.426ZM371.015 207.701L372.054 222.731L372.852 222.676L371.813 207.646L371.015 207.701ZM392.963 197.382L392.962 197.383L393.537 197.939L393.538 197.938L392.963 197.382ZM394.341 207.643L393.649 197.633L392.851 197.688L393.543 207.699L394.341 207.643ZM389.676 212.667L394.23 207.949L393.655 207.393L389.1 212.112L389.676 212.667ZM388.297 202.407L388.989 212.417L389.787 212.362L389.095 202.352L388.297 202.407ZM388.982 202.658L388.983 202.657L388.408 202.101L388.407 202.102L388.982 202.658ZM386.902 182.377L388.296 202.408L389.094 202.352L387.7 182.322L386.902 182.377ZM391.568 177.353L387.013 182.072L387.589 182.627L392.143 177.909L391.568 177.353ZM393.648 197.633L392.255 177.603L391.457 177.659L392.85 197.689L393.648 197.633ZM390.012 154.825L390.01 154.827L390.585 155.384L390.587 155.382L390.012 154.825ZM390.297 155.504H390.299V154.704H390.297V155.504ZM370.25 155.504H390.297V154.704H370.25V155.504ZM365.983 160.091L370.538 155.382L369.963 154.825L365.408 159.535L365.983 160.091ZM385.742 159.413H365.696V160.213H385.742V159.413ZM387.699 182.321L386.141 159.785L385.343 159.84L386.901 182.376L387.699 182.321ZM391.567 177.352L387.012 182.071L387.588 182.627L392.142 177.908L391.567 177.352ZM389.898 155.133L391.456 177.658L392.254 177.603L390.696 155.078L389.898 155.133Z" fill="#EFEFE4"/>
<path d="M359.566 107.243L358.354 89.7188H343.333L344.545 107.243L322 107.254L322.692 117.263L324.086 137.296L325.653 159.823H345.684C351.204 159.823 355.977 164.285 356.387 169.797L357.252 182.34H327.21L329.296 212.382H351.841L352.88 227.412H367.901L366.862 212.382H389.389L388.697 202.372L387.303 182.34L385.736 159.812H365.687C360.167 159.805 355.394 155.333 355.002 149.821L354.137 137.296H384.179L382.129 107.254L359.566 107.243Z" fill="#0A090F" stroke="#EFEFE4" stroke-width="0.8"/>
</g>
<path d="M171.078 167.078L177.548 164.988L186.018 169.558L179.548 171.648L171.078 167.078Z" stroke="url(#paint2_linear_1_51268)" stroke-linejoin="round"/>
<path d="M184.962 187.328L191.432 185.238L184.402 195.008L177.922 197.098L184.962 187.328Z" stroke="url(#paint3_linear_1_51268)" stroke-linejoin="round"/>
<path d="M188.512 160.09L194.992 158L195.382 169.56L188.912 171.65L188.512 160.09Z" stroke="url(#paint4_linear_1_51268)" stroke-linejoin="round"/>
<path d="M179.148 160.09L185.628 158H194.988L188.508 160.09H179.148Z" stroke="url(#paint5_linear_1_51268)" stroke-linejoin="round"/>
<path d="M191.34 181.469L197.81 179.379L205.97 188.189L199.49 190.279L191.34 181.469Z" stroke="url(#paint6_linear_1_51268)" stroke-linejoin="round"/>
<path d="M199.488 190.281L205.968 188.191L198.868 195.011L192.398 197.101L199.488 190.281Z" stroke="url(#paint7_linear_1_51268)" stroke-linejoin="round"/>
<path d="M197.75 167.078L204.23 164.988L208.28 173.588L201.81 175.678L197.75 167.078Z" stroke="url(#paint8_linear_1_51268)" stroke-linejoin="round"/>
<path d="M188.51 160.09L188.91 171.65L197.75 167.08L201.81 175.68L191.34 181.47L199.49 190.28L192.4 197.1L184.96 187.33L177.92 197.1L170.65 190.28L177.53 181.54L167 175.31L171.08 167.08L179.55 171.65L179.15 160.09H188.51Z" fill="#0A090F" stroke="url(#paint9_linear_1_51268)" stroke-linejoin="round"/>
<path d="M201.81 175.68L208.28 173.59L197.81 179.38L191.34 181.47L201.81 175.68Z" stroke="url(#paint10_linear_1_51268)" stroke-linejoin="round"/>
<path d="M144.497 91.0736C168.101 70.3653 178.802 43.9614 168.399 32.0988C157.996 20.2362 130.428 27.4071 106.824 48.1154C83.2202 68.8237 72.5187 95.2276 82.9216 107.09C93.3246 118.953 120.893 111.782 144.497 91.0736Z" stroke="#0A090F" stroke-miterlimit="10"/>
<path d="M133.411 78.4564C157.015 57.7481 167.716 31.3442 157.313 19.4816C146.91 7.61904 119.342 14.7899 95.7383 35.4982C72.1343 56.2065 61.4328 82.6104 71.8357 94.473C82.2387 106.336 109.807 99.1647 133.411 78.4564Z" fill="url(#paint11_linear_1_51268)" stroke="#0A090F" stroke-miterlimit="10"/>
<path d="M157.284 19.3957L168.401 32.0751C178.806 43.9419 168.103 70.3536 144.495 91.0693C120.887 111.785 93.3152 118.958 82.9103 107.091L71.793 94.4117C82.1978 106.279 109.769 99.1055 133.378 78.3899C156.986 57.6742 167.689 31.2625 157.284 19.3957Z" fill="url(#paint12_linear_1_51268)" stroke="#0A090F"/>
<path d="M161.004 35.3242L172.093 47.9479" stroke="#0A090F" stroke-miterlimit="10"/>
<path d="M152.398 56.4844L163.488 69.108" stroke="#0A090F" stroke-miterlimit="10"/>
<path d="M109.21 94.4216L120.3 107.045" stroke="#0A090F" stroke-miterlimit="10"/>
<path d="M87.1206 100.23L98.2099 112.854" stroke="#0A090F" stroke-miterlimit="10"/>
<rect x="109.042" y="44.3438" width="8.01484" height="4.5328" transform="rotate(138.68 109.042 44.3438)" fill="#0A090F"/>
<rect x="95.7065" y="59.5195" width="16.0297" height="11.0082" transform="rotate(-41.32 95.7065 59.5195)" fill="#0A090F"/>
<rect x="99.1284" y="63.4102" width="7.77052" height="32.0594" transform="rotate(-131.32 99.1284 63.4102)" fill="#0A090F"/>
<rect x="134.316" y="54.8866" width="16.0297" height="11.0082" transform="rotate(138.68 134.316 54.8866)" fill="#0A090F"/>
<rect x="130.898" y="50.996" width="7.77052" height="32.0594" transform="rotate(48.68 130.898 50.996)" fill="#0A090F"/>
<rect x="129.566" y="67.6875" width="8.01484" height="4.5328" transform="rotate(138.68 129.566 67.6875)" fill="#0A090F"/>
<path fill-rule="evenodd" clip-rule="evenodd" d="M110.999 60.7305L109.289 58.7852L113.302 55.2572C114.246 56.3315 116.809 55.6229 119.025 53.6746L120.735 55.6199L116.722 59.1478C115.777 58.0735 113.215 58.7822 110.999 60.7305Z" fill="#0A090F"/>
</g>
<defs>
<linearGradient id="paint0_linear_1_51268" x1="475.867" y1="122.672" x2="282.885" y2="122.672" gradientUnits="userSpaceOnUse">
<stop stop-color="#68FFFF"/>
<stop offset="1" stop-color="#68FF9B"/>
</linearGradient>
<linearGradient id="paint1_linear_1_51268" x1="438.479" y1="220.434" x2="289.052" y2="76.0838" gradientUnits="userSpaceOnUse">
<stop stop-color="#68FFFF"/>
<stop offset="1" stop-color="#68FF9B"/>
</linearGradient>
<linearGradient id="paint2_linear_1_51268" x1="171.078" y1="168.013" x2="186.018" y2="168.013" gradientUnits="userSpaceOnUse">
<stop stop-color="#68FFFF"/>
<stop offset="1" stop-color="#68FF9B"/>
</linearGradient>
<linearGradient id="paint3_linear_1_51268" x1="177.922" y1="190.624" x2="191.432" y2="190.624" gradientUnits="userSpaceOnUse">
<stop stop-color="#68FFFF"/>
<stop offset="1" stop-color="#68FF9B"/>
</linearGradient>
<linearGradient id="paint4_linear_1_51268" x1="188.512" y1="164.199" x2="195.382" y2="164.199" gradientUnits="userSpaceOnUse">
<stop stop-color="#68FFFF"/>
<stop offset="1" stop-color="#68FF9B"/>
</linearGradient>
<linearGradient id="paint5_linear_1_51268" x1="179.148" y1="158.949" x2="194.988" y2="158.949" gradientUnits="userSpaceOnUse">
<stop stop-color="#68FFFF"/>
<stop offset="1" stop-color="#68FF9B"/>
</linearGradient>
<linearGradient id="paint6_linear_1_51268" x1="191.34" y1="184.329" x2="205.97" y2="184.329" gradientUnits="userSpaceOnUse">
<stop stop-color="#68FFFF"/>
<stop offset="1" stop-color="#68FF9B"/>
</linearGradient>
<linearGradient id="paint7_linear_1_51268" x1="192.398" y1="192.238" x2="205.968" y2="192.238" gradientUnits="userSpaceOnUse">
<stop stop-color="#68FFFF"/>
<stop offset="1" stop-color="#68FF9B"/>
</linearGradient>
<linearGradient id="paint8_linear_1_51268" x1="197.75" y1="169.843" x2="208.28" y2="169.843" gradientUnits="userSpaceOnUse">
<stop stop-color="#68FFFF"/>
<stop offset="1" stop-color="#68FF9B"/>
</linearGradient>
<linearGradient id="paint9_linear_1_51268" x1="167" y1="176.898" x2="201.81" y2="176.898" gradientUnits="userSpaceOnUse">
<stop stop-color="#68FFFF"/>
<stop offset="1" stop-color="#68FF9B"/>
</linearGradient>
<linearGradient id="paint10_linear_1_51268" x1="191.34" y1="177.169" x2="208.28" y2="177.169" gradientUnits="userSpaceOnUse">
<stop stop-color="#68FFFF"/>
<stop offset="1" stop-color="#68FF9B"/>
</linearGradient>
<linearGradient id="paint11_linear_1_51268" x1="70.1084" y1="92.5033" x2="155.602" y2="17.5297" gradientUnits="userSpaceOnUse">
<stop stop-color="#68FFFF"/>
<stop offset="1" stop-color="#68FF9B"/>
</linearGradient>
<linearGradient id="paint12_linear_1_51268" x1="85.3977" y1="109.928" x2="170.917" y2="34.9442" gradientUnits="userSpaceOnUse">
<stop stop-color="#68FFFF"/>
<stop offset="1" stop-color="#68FF9B"/>
</linearGradient>
<clipPath id="clip0_1_51268">
<rect width="517" height="278" fill="white"/>
</clipPath>
<clipPath id="clip1_1_51268">
<rect width="218.867" height="219" fill="white" transform="matrix(-1 0 0 1 475.867 36)"/>
</clipPath>
</defs>
</svg>
