<svg width="120" height="120" viewBox="0 0 120 120" fill="none" xmlns="http://www.w3.org/2000/svg">
<g filter="url(#filter0_ii_56_1546)">
<path d="M68.2819 68.2872C46.3876 76.3113 24.4837 71.6306 16.2686 68.2872C11.3969 66.7111 9.77293 67.3797 13.5462 71.5828L10.5371 75.4516C5.66706 74.0187 4.71108 75.8337 9.3918 80.3234C19.9951 91.2132 51.9471 106.688 76.7358 95.0819C96.5668 85.7969 84.9987 85.8638 76.7358 87.0579C76.6212 82.9312 74.2044 76.4546 73.0104 73.7321C80.5568 68.5738 90.1762 60.2631 68.2819 68.2872Z" fill="#D9D9D9"/>
<path d="M68.2819 68.2872C46.3876 76.3113 24.4837 71.6306 16.2686 68.2872C11.3969 66.7111 9.77293 67.3797 13.5462 71.5828L10.5371 75.4516C5.66706 74.0187 4.71108 75.8337 9.3918 80.3234C19.9951 91.2132 51.9471 106.688 76.7358 95.0819C96.5668 85.7969 84.9987 85.8638 76.7358 87.0579C76.6212 82.9312 74.2044 76.4546 73.0104 73.7321C80.5568 68.5738 90.1762 60.2631 68.2819 68.2872Z" fill="url(#paint0_radial_56_1546)"/>
</g>
<path d="M15.123 79.0339C15.7468 78.2788 16.1502 77.9824 16.9858 77.6011" stroke="black" stroke-width="0.572857" stroke-linecap="round"/>
<path d="M18.3708 73.3021C18.0287 74.2199 17.9737 74.7175 18.0613 75.6317" stroke="black" stroke-width="0.572857" stroke-linecap="round"/>
<path d="M20.4046 72.6225C20.3366 72.3686 20.3061 71.7171 20.7286 71.1428" stroke="#DD9B1C" stroke-width="0.572857" stroke-linecap="round"/>
<path d="M21.4526 73.1052C21.4868 72.8445 21.7078 72.2309 22.3178 71.8619" stroke="#DD9B1C" stroke-width="0.572857" stroke-linecap="round"/>
<path d="M15.5374 81.0546C15.2835 81.1227 14.7041 81.422 14.4179 82.075" stroke="#DD9B1C" stroke-width="0.572857" stroke-linecap="round"/>
<path d="M16.5202 81.6514C16.3116 81.8114 15.8907 82.3095 15.8761 83.0224" stroke="#DD9B1C" stroke-width="0.572857" stroke-linecap="round"/>
<g filter="url(#filter1_d_56_1546)">
<path d="M18.9678 77.1751C18.9634 77.4799 18.8031 78.1735 18.1973 78.5098" stroke="#674242" stroke-width="0.286575" stroke-linecap="round"/>
<path d="M18.9677 77.175C19.2294 77.0188 19.7499 76.5331 19.7383 75.8403" stroke="#674242" stroke-width="0.286575" stroke-linecap="round"/>
</g>
<g filter="url(#filter2_d_56_1546)">
<path d="M18.9087 77.0534C18.9136 77.1223 18.8772 77.1864 18.8153 77.217C18.6057 77.3205 18.1259 77.5245 17.9954 77.2956C17.9113 77.1482 18.114 77.009 18.2616 76.9313C18.3399 76.8901 18.3891 76.8052 18.3868 76.7167C18.3827 76.5577 18.4054 76.3271 18.5677 76.3042C18.8248 76.2678 18.8917 76.8123 18.9087 77.0534Z" fill="#00E440"/>
</g>
<g filter="url(#filter3_ii_56_1546)">
<path d="M52.0961 51.7563C73.9904 43.7322 95.8942 48.4129 104.109 51.7563C108.981 53.3324 110.605 52.6637 106.832 48.4606L109.841 44.5919C114.711 46.0247 115.667 44.2098 110.986 39.7201C100.383 28.8303 68.4308 13.3552 43.6421 24.9615C23.8111 34.2465 35.3792 34.1797 43.6421 32.9856C43.7567 37.1123 46.1735 43.5889 47.3676 46.3113C39.8211 51.4697 30.2018 59.7804 52.0961 51.7563Z" fill="#D9D9D9"/>
<path d="M52.0961 51.7563C73.9904 43.7322 95.8942 48.4129 104.109 51.7563C108.981 53.3324 110.605 52.6637 106.832 48.4606L109.841 44.5919C114.711 46.0247 115.667 44.2098 110.986 39.7201C100.383 28.8303 68.4308 13.3552 43.6421 24.9615C23.8111 34.2465 35.3792 34.1797 43.6421 32.9856C43.7567 37.1123 46.1735 43.5889 47.3676 46.3113C39.8211 51.4697 30.2018 59.7804 52.0961 51.7563Z" fill="url(#paint1_radial_56_1546)"/>
</g>
<path d="M105.255 41.0095C104.631 41.7647 104.228 42.0611 103.392 42.4424" stroke="black" stroke-width="0.572857" stroke-linecap="round"/>
<path d="M102.007 46.7413C102.349 45.8236 102.404 45.326 102.317 44.4117" stroke="black" stroke-width="0.572857" stroke-linecap="round"/>
<path d="M99.9733 47.4215C100.041 47.6754 100.072 48.3268 99.6494 48.9011" stroke="#DD9B1C" stroke-width="0.572857" stroke-linecap="round"/>
<path d="M98.9253 46.9383C98.8911 47.1989 98.6701 47.8125 98.0601 48.1816" stroke="#DD9B1C" stroke-width="0.572857" stroke-linecap="round"/>
<path d="M104.841 38.9888C105.094 38.9208 105.674 38.6215 105.96 37.9684" stroke="#DD9B1C" stroke-width="0.572857" stroke-linecap="round"/>
<path d="M103.858 38.3916C104.066 38.2316 104.487 37.7334 104.502 37.0206" stroke="#DD9B1C" stroke-width="0.572857" stroke-linecap="round"/>
<g filter="url(#filter4_d_56_1546)">
<path d="M101.411 42.8683C101.416 42.5636 101.576 41.87 102.182 41.5337" stroke="#674242" stroke-width="0.286575" stroke-linecap="round"/>
<path d="M101.411 42.8685C101.149 43.0247 100.629 43.5103 100.641 44.2031" stroke="#674242" stroke-width="0.286575" stroke-linecap="round"/>
</g>
<g filter="url(#filter5_d_56_1546)">
<path d="M101.47 42.9901C101.465 42.9212 101.502 42.8571 101.564 42.8265C101.773 42.723 102.253 42.519 102.384 42.7479C102.468 42.8953 102.265 43.0345 102.117 43.1121C102.039 43.1534 101.99 43.2383 101.992 43.3268C101.996 43.4858 101.974 43.7163 101.811 43.7393C101.554 43.7757 101.487 43.2312 101.47 42.9901Z" fill="#00E440"/>
</g>
<defs>
<filter id="filter0_ii_56_1546" x="3.50763" y="63.7938" width="84.886" height="36.3345" filterUnits="userSpaceOnUse" color-interpolation-filters="sRGB">
<feFlood flood-opacity="0" result="BackgroundImageFix"/>
<feBlend mode="normal" in="SourceGraphic" in2="BackgroundImageFix" result="shape"/>
<feColorMatrix in="SourceAlpha" type="matrix" values="0 0 0 0 0 0 0 0 0 0 0 0 0 0 0 0 0 0 127 0" result="hardAlpha"/>
<feOffset dx="0.708054" dy="1.2745"/>
<feGaussianBlur stdDeviation="0.462348"/>
<feComposite in2="hardAlpha" operator="arithmetic" k2="-1" k3="1"/>
<feColorMatrix type="matrix" values="0 0 0 0 1 0 0 0 0 0.931289 0 0 0 0 0.687679 0 0 0 1 0"/>
<feBlend mode="normal" in2="shape" result="effect1_innerShadow_56_1546"/>
<feColorMatrix in="SourceAlpha" type="matrix" values="0 0 0 0 0 0 0 0 0 0 0 0 0 0 0 0 0 0 127 0" result="hardAlpha"/>
<feOffset dx="-2.83222" dy="-1.15587"/>
<feGaussianBlur stdDeviation="2.31174"/>
<feComposite in2="hardAlpha" operator="arithmetic" k2="-1" k3="1"/>
<feColorMatrix type="matrix" values="0 0 0 0 0.820568 0 0 0 0 0.345077 0 0 0 0 0.0776136 0 0 0 0.4 0"/>
<feBlend mode="normal" in2="effect1_innerShadow_56_1546" result="effect2_innerShadow_56_1546"/>
</filter>
<filter id="filter1_d_56_1546" x="17.8095" y="75.5141" width="2.3166" height="3.44453" filterUnits="userSpaceOnUse" color-interpolation-filters="sRGB">
<feFlood flood-opacity="0" result="BackgroundImageFix"/>
<feColorMatrix in="SourceAlpha" type="matrix" values="0 0 0 0 0 0 0 0 0 0 0 0 0 0 0 0 0 0 127 0" result="hardAlpha"/>
<feOffset dy="0.0610589"/>
<feGaussianBlur stdDeviation="0.122118"/>
<feComposite in2="hardAlpha" operator="out"/>
<feColorMatrix type="matrix" values="0 0 0 0 0.690477 0 0 0 0 0.547238 0 0 0 0 0.0393897 0 0 0 0.6 0"/>
<feBlend mode="normal" in2="BackgroundImageFix" result="effect1_dropShadow_56_1546"/>
<feBlend mode="normal" in="SourceGraphic" in2="effect1_dropShadow_56_1546" result="shape"/>
</filter>
<filter id="filter2_d_56_1546" x="17.7314" y="76.1191" width="1.42207" height="1.58613" filterUnits="userSpaceOnUse" color-interpolation-filters="sRGB">
<feFlood flood-opacity="0" result="BackgroundImageFix"/>
<feColorMatrix in="SourceAlpha" type="matrix" values="0 0 0 0 0 0 0 0 0 0 0 0 0 0 0 0 0 0 127 0" result="hardAlpha"/>
<feOffset dy="0.0610589"/>
<feGaussianBlur stdDeviation="0.122118"/>
<feComposite in2="hardAlpha" operator="out"/>
<feColorMatrix type="matrix" values="0 0 0 0 0.690477 0 0 0 0 0.547238 0 0 0 0 0.0393897 0 0 0 0.6 0"/>
<feBlend mode="normal" in2="BackgroundImageFix" result="effect1_dropShadow_56_1546"/>
<feBlend mode="normal" in="SourceGraphic" in2="effect1_dropShadow_56_1546" result="shape"/>
</filter>
<filter id="filter3_ii_56_1546" x="29.8602" y="19.684" width="84.886" height="36.3345" filterUnits="userSpaceOnUse" color-interpolation-filters="sRGB">
<feFlood flood-opacity="0" result="BackgroundImageFix"/>
<feBlend mode="normal" in="SourceGraphic" in2="BackgroundImageFix" result="shape"/>
<feColorMatrix in="SourceAlpha" type="matrix" values="0 0 0 0 0 0 0 0 0 0 0 0 0 0 0 0 0 0 127 0" result="hardAlpha"/>
<feOffset dx="0.708054" dy="1.2745"/>
<feGaussianBlur stdDeviation="0.462348"/>
<feComposite in2="hardAlpha" operator="arithmetic" k2="-1" k3="1"/>
<feColorMatrix type="matrix" values="0 0 0 0 1 0 0 0 0 0.931289 0 0 0 0 0.687679 0 0 0 1 0"/>
<feBlend mode="normal" in2="shape" result="effect1_innerShadow_56_1546"/>
<feColorMatrix in="SourceAlpha" type="matrix" values="0 0 0 0 0 0 0 0 0 0 0 0 0 0 0 0 0 0 127 0" result="hardAlpha"/>
<feOffset dx="-2.83222" dy="-1.15587"/>
<feGaussianBlur stdDeviation="2.31174"/>
<feComposite in2="hardAlpha" operator="arithmetic" k2="-1" k3="1"/>
<feColorMatrix type="matrix" values="0 0 0 0 0.820568 0 0 0 0 0.345077 0 0 0 0 0.0776136 0 0 0 0.4 0"/>
<feBlend mode="normal" in2="effect1_innerShadow_56_1546" result="effect2_innerShadow_56_1546"/>
</filter>
<filter id="filter4_d_56_1546" x="100.253" y="41.207" width="2.3166" height="3.44453" filterUnits="userSpaceOnUse" color-interpolation-filters="sRGB">
<feFlood flood-opacity="0" result="BackgroundImageFix"/>
<feColorMatrix in="SourceAlpha" type="matrix" values="0 0 0 0 0 0 0 0 0 0 0 0 0 0 0 0 0 0 127 0" result="hardAlpha"/>
<feOffset dy="0.0610589"/>
<feGaussianBlur stdDeviation="0.122118"/>
<feComposite in2="hardAlpha" operator="out"/>
<feColorMatrix type="matrix" values="0 0 0 0 0.690477 0 0 0 0 0.547238 0 0 0 0 0.0393897 0 0 0 0.6 0"/>
<feBlend mode="normal" in2="BackgroundImageFix" result="effect1_dropShadow_56_1546"/>
<feBlend mode="normal" in="SourceGraphic" in2="effect1_dropShadow_56_1546" result="shape"/>
</filter>
<filter id="filter5_d_56_1546" x="101.225" y="42.4604" width="1.42207" height="1.58613" filterUnits="userSpaceOnUse" color-interpolation-filters="sRGB">
<feFlood flood-opacity="0" result="BackgroundImageFix"/>
<feColorMatrix in="SourceAlpha" type="matrix" values="0 0 0 0 0 0 0 0 0 0 0 0 0 0 0 0 0 0 127 0" result="hardAlpha"/>
<feOffset dy="0.0610589"/>
<feGaussianBlur stdDeviation="0.122118"/>
<feComposite in2="hardAlpha" operator="out"/>
<feColorMatrix type="matrix" values="0 0 0 0 0.690477 0 0 0 0 0.547238 0 0 0 0 0.0393897 0 0 0 0.6 0"/>
<feBlend mode="normal" in2="BackgroundImageFix" result="effect1_dropShadow_56_1546"/>
<feBlend mode="normal" in="SourceGraphic" in2="effect1_dropShadow_56_1546" result="shape"/>
</filter>
<radialGradient id="paint0_radial_56_1546" cx="0" cy="0" r="1" gradientUnits="userSpaceOnUse" gradientTransform="translate(34.6111 83.7623) rotate(11.0362) scale(41.1684 31.5232)">
<stop offset="0.191515" stop-color="#FFECA1"/>
<stop offset="0.471581" stop-color="#FEDB61"/>
<stop offset="0.646547" stop-color="#FFC631"/>
<stop offset="0.848682" stop-color="#FFB704"/>
</radialGradient>
<radialGradient id="paint1_radial_56_1546" cx="0" cy="0" r="1" gradientUnits="userSpaceOnUse" gradientTransform="translate(85.7668 36.2812) rotate(-168.964) scale(41.1684 31.5232)">
<stop offset="0.191515" stop-color="#FFECA1"/>
<stop offset="0.471581" stop-color="#FEDB61"/>
<stop offset="0.646547" stop-color="#FFC631"/>
<stop offset="0.848682" stop-color="#FFB704"/>
</radialGradient>
</defs>
</svg>
