<svg width="80" height="81" viewBox="0 0 80 81" fill="none" xmlns="http://www.w3.org/2000/svg">
<path d="M70.7377 27.9109C70.7377 35.4096 64.728 41.4697 57.3377 41.4697C49.9474 41.4697 43.9377 35.4096 43.9377 27.9109C43.9377 21.6937 46.8643 16.4605 50.0921 12.584C53.0174 9.07083 56.1331 6.74193 57.349 5.89611C58.5677 6.71206 61.6749 8.95905 64.5915 12.4286C67.8099 16.2571 70.7377 21.5021 70.7377 27.9109Z" stroke="url(#paint0_linear_94_9492)" stroke-width="2"/>
<path d="M57.0459 51.6763C57.0459 64.9438 46.2905 75.6993 33.023 75.6993C19.7554 75.6993 9 64.9438 9 51.6763C9 40.5392 14.4081 31.2373 20.2095 24.4683C25.6244 18.1501 31.3142 14.1195 33.0344 12.9679C34.761 14.0779 40.4426 17.9594 45.8482 24.2022C51.6385 30.8892 57.0459 40.2062 57.0459 51.6763Z" fill="#0A090F" stroke="url(#paint1_linear_94_9492)" stroke-width="2"/>
<defs>
<linearGradient id="paint0_linear_94_9492" x1="42.9377" y1="21.8526" x2="71.7377" y2="21.8526" gradientUnits="userSpaceOnUse">
<stop stop-color="#68FFFF"/>
<stop offset="1" stop-color="#68FF9B"/>
</linearGradient>
<linearGradient id="paint1_linear_94_9492" x1="8" y1="41.2637" x2="58.0459" y2="41.2637" gradientUnits="userSpaceOnUse">
<stop stop-color="#68FFFF"/>
<stop offset="1" stop-color="#68FF9B"/>
</linearGradient>
</defs>
</svg>
