<svg width="32" height="24" viewBox="0 0 32 24" fill="none" xmlns="http://www.w3.org/2000/svg">
<rect width="32" height="23" transform="translate(0 0.5)" fill="#68FF9B"/>
<path d="M16 9.00037V18.7504M16 9.00037C15.7287 7.88242 15.2616 6.92662 14.6596 6.2577C14.0575 5.58877 13.3485 5.23772 12.625 5.25033C12.1277 5.25033 11.6508 5.44787 11.2992 5.7995C10.9475 6.15113 10.75 6.62805 10.75 7.12533C10.75 7.62261 10.9475 8.09952 11.2992 8.45115C11.6508 8.80278 12.1277 9.00033 12.625 9.00033M16 9.00037C16.2713 7.88242 16.7384 6.92662 17.3404 6.2577C17.9425 5.58877 18.6515 5.23772 19.375 5.25033C19.8723 5.25033 20.3492 5.44787 20.7008 5.7995C21.0525 6.15113 21.25 6.62805 21.25 7.12533C21.25 7.62261 21.0525 8.09952 20.7008 8.45115C20.3492 8.80278 19.8723 9.00033 19.375 9.00033M21.25 12.0004V17.2504C21.25 17.6482 21.092 18.0297 20.8107 18.311C20.5294 18.5923 20.1478 18.7504 19.75 18.7504H12.25C11.8522 18.7504 11.4706 18.5923 11.1893 18.311C10.908 18.0297 10.75 17.6482 10.75 17.2504V12.0004M10 9.00037H22C22.4142 9.00037 22.75 9.33615 22.75 9.75037V11.2504C22.75 11.6646 22.4142 12.0004 22 12.0004H10C9.58579 12.0004 9.25 11.6646 9.25 11.2504V9.75037C9.25 9.33615 9.58579 9.00037 10 9.00037Z" stroke="#0A090F" stroke-linecap="round" stroke-linejoin="round"/>
</svg>
