<svg width="80" height="80" viewBox="0 0 80 80" fill="none" xmlns="http://www.w3.org/2000/svg">
<path fill-rule="evenodd" clip-rule="evenodd" d="M29.9145 19.8135C34.5588 15.8374 40.5889 13.4368 47.1821 13.4368C61.854 13.4368 73.7479 25.3307 73.7479 40.0027C73.7479 54.6747 61.854 66.5686 47.1821 66.5686C40.5889 66.5686 34.5588 64.168 29.9145 60.1919C29.495 59.8327 28.8637 59.8816 28.5046 60.3012C28.1454 60.7207 28.1943 61.352 28.6138 61.7112C33.6068 65.9858 40.0941 68.5686 47.1821 68.5686C62.9586 68.5686 75.7479 55.7792 75.7479 40.0027C75.7479 24.2262 62.9586 11.4368 47.1821 11.4368C40.0941 11.4368 33.6068 14.0196 28.6138 18.2942C28.1943 18.6534 28.1454 19.2847 28.5046 19.7042C28.8637 20.1238 29.495 20.1727 29.9145 19.8135ZM5.25391 26.787C4.70162 26.787 4.25391 27.2347 4.25391 27.787C4.25391 28.3393 4.70162 28.787 5.25391 28.787H27.1078C27.6601 28.787 28.1078 28.3393 28.1078 27.787C28.1078 27.2347 27.6601 26.787 27.1078 26.787H5.25391ZM7.69141 39.5671C7.69141 39.0148 8.13913 38.5671 8.69141 38.5671H30.5453C31.0976 38.5671 31.5453 39.0148 31.5453 39.5671C31.5453 40.1194 31.0976 40.5671 30.5453 40.5671H8.69141C8.13913 40.5671 7.69141 40.1194 7.69141 39.5671ZM12.1269 50.3552C11.5746 50.3552 11.1269 50.8029 11.1269 51.3552C11.1269 51.9075 11.5746 52.3552 12.1269 52.3552H33.9808C34.5331 52.3552 34.9808 51.9075 34.9808 51.3552C34.9808 50.8029 34.5331 50.3552 33.9808 50.3552H12.1269Z" fill="url(#paint0_linear_28_65070)"/>
<defs>
<linearGradient id="paint0_linear_28_65070" x1="4.25391" y1="37.3831" x2="75.7479" y2="37.3831" gradientUnits="userSpaceOnUse">
<stop stop-color="#68FFFF"/>
<stop offset="1" stop-color="#68FF9B"/>
</linearGradient>
</defs>
</svg>
