<svg width="24" height="24" viewBox="0 0 24 24" fill="none" xmlns="http://www.w3.org/2000/svg">
<rect x="2" y="2.45312" width="20" height="20" rx="10" fill="#0A090F"/>
<path fill-rule="evenodd" clip-rule="evenodd" d="M12.0002 13.5198C12.0002 13.1467 12.0002 12.9597 12.0727 12.8172C12.1372 12.6926 12.2392 12.5914 12.3643 12.5281C12.5068 12.4556 12.6939 12.4556 13.0645 12.4556H15.3319V9.11887H12.0002V5.78516H8.66602V11.1193H12.0002V11.3863C12.0002 11.7594 12.0002 11.9465 11.9277 12.0865C11.8637 12.212 11.7617 12.3141 11.6361 12.3781C11.4936 12.4506 11.3066 12.4506 10.936 12.4506H8.66602V15.7848H12.0002V19.1185H15.3344V13.7869H12.0002V13.5198Z" fill="url(#paint0_linear_2397_47369)"/>
<defs>
<linearGradient id="paint0_linear_2397_47369" x1="8.66602" y1="12.4518" x2="15.3327" y2="12.4518" gradientUnits="userSpaceOnUse">
<stop stop-color="#68FFFF"/>
<stop offset="1" stop-color="#68FF9B"/>
</linearGradient>
</defs>
</svg>
