<svg width="20" height="21" viewBox="0 0 20 21" fill="none" xmlns="http://www.w3.org/2000/svg">
<rect y="0.453125" width="20" height="20" rx="10" fill="#0A090F"/>
<path fill-rule="evenodd" clip-rule="evenodd" d="M10.0002 11.5198C10.0002 11.1467 10.0002 10.9597 10.0727 10.8172C10.1372 10.6926 10.2392 10.5914 10.3643 10.5281C10.5068 10.4556 10.6939 10.4556 11.0645 10.4556H13.3319V7.11887H10.0002V3.78516H6.66602V9.11929H10.0002V9.38635C10.0002 9.75943 10.0002 9.94647 9.92771 10.0865C9.86372 10.212 9.76166 10.3141 9.63615 10.3781C9.49362 10.4506 9.30658 10.4506 8.936 10.4506H6.66602V13.7848H10.0002V17.1185H13.3344V11.7869H10.0002V11.5198Z" fill="url(#paint0_linear_2483_40457)"/>
<defs>
<linearGradient id="paint0_linear_2483_40457" x1="6.66602" y1="10.4518" x2="13.3327" y2="10.4518" gradientUnits="userSpaceOnUse">
<stop stop-color="#68FFFF"/>
<stop offset="1" stop-color="#68FF9B"/>
</linearGradient>
</defs>
</svg>
