<svg width="48" height="49" viewBox="0 0 48 49" fill="none" xmlns="http://www.w3.org/2000/svg">
<circle cx="24" cy="24.2969" r="24" fill="url(#paint0_linear_2434_40014)"/>
<rect x="25.6504" y="13.3438" width="3.20594" height="3.74026" transform="rotate(180 25.6504 13.3438)" fill="#0A090F"/>
<rect x="17.6348" y="15.4805" width="6.41187" height="9.08349" fill="#0A090F"/>
<rect x="17.6348" y="19.7578" width="6.41187" height="12.8237" transform="rotate(-90 17.6348 19.7578)" fill="#0A090F"/>
<rect x="30.458" y="33.6445" width="6.41187" height="9.08349" transform="rotate(180 30.458 33.6445)" fill="#0A090F"/>
<rect x="30.458" y="29.3711" width="6.41187" height="12.8237" transform="rotate(90 30.458 29.3711)" fill="#0A090F"/>
<rect x="25.6504" y="38.9883" width="3.20594" height="3.74026" transform="rotate(180 25.6504 38.9883)" fill="#0A090F"/>
<path fill-rule="evenodd" clip-rule="evenodd" d="M21.9092 24.5631V22.4258H24.0465C24.0465 23.6061 25.0035 24.5631 26.1838 24.5631V26.7004H24.0465C24.0465 25.5201 23.0895 24.5631 21.9092 24.5631Z" fill="#0A090F"/>
<defs>
<linearGradient id="paint0_linear_2434_40014" x1="1.87506e-07" y1="22.096" x2="48" y2="22.096" gradientUnits="userSpaceOnUse">
<stop stop-color="#68FFFF"/>
<stop offset="1" stop-color="#68FF9B"/>
</linearGradient>
</defs>
</svg>
