<svg width="102" height="19" viewBox="0 0 102 19" fill="none" xmlns="http://www.w3.org/2000/svg">
<g opacity="0.5">
<path d="M5.75042 8.15305V6.20302C5.75045 5.4876 5.98654 4.79219 6.42207 4.22461C6.8576 3.65704 7.46824 3.24904 8.15928 3.06387C8.85032 2.87871 9.58315 2.92673 10.2441 3.20049C10.9051 3.47425 11.4573 3.95845 11.815 4.578M12.2721 8.15449V6.20447C12.2721 5.48905 12.036 4.79363 11.6005 4.22606M9.65047 12.0531C9.65047 12.4121 9.35945 12.7031 9.00046 12.7031C8.64147 12.7031 8.35045 12.4121 8.35045 12.0531C8.35045 11.6941 8.64147 11.4031 9.00046 11.4031C9.35945 11.4031 9.65047 11.6941 9.65047 12.0531ZM4.45041 8.15303H13.5505C14.2685 8.15303 14.8505 8.73507 14.8505 9.45305V14.6531C14.8505 15.3711 14.2685 15.9531 13.5505 15.9531H4.45041C3.73243 15.9531 3.15039 15.3711 3.15039 14.6531V9.45305C3.15039 8.73507 3.73243 8.15303 4.45041 8.15303Z" stroke="#EFEFE4" stroke-linecap="round" stroke-linejoin="round"/>
<path d="M36.6667 7.45313V10.1198L38 11.4531M32 3.45312L30 5.45313M43.3333 5.45313L41.3333 3.45312M32.92 13.9198L31.3333 15.4531M40.4267 13.8997L42 15.4531M42 10.1198C42 13.0653 39.6122 15.4531 36.6667 15.4531C33.7211 15.4531 31.3333 13.0653 31.3333 10.1198C31.3333 7.17427 33.7211 4.78646 36.6667 4.78646C39.6122 4.78646 42 7.17427 42 10.1198Z" stroke="#EFEFE4" stroke-linecap="round" stroke-linejoin="round"/>
<path d="M87.001 13.0246L88.4295 14.4531L91.2867 11.596M87.001 5.8817L88.4295 7.31027L91.2867 4.45312M94.1438 5.16741H99.8581M94.1438 9.45312H99.8581M94.1438 13.7388H99.8581" stroke="#EFEFE4" stroke-linecap="round" stroke-linejoin="round"/>
<path d="M68.1676 4.28646H62.6676C62.1814 4.28646 61.7151 4.47961 61.3713 4.82343C61.0275 5.16725 60.8343 5.63356 60.8343 6.11979C60.8343 6.60602 61.0275 7.07234 61.3713 7.41615C61.7151 7.75997 62.1814 7.95312 62.6676 7.95312H66.3343C66.8205 7.95312 67.2869 8.14628 67.6307 8.4901C67.9745 8.83391 68.1676 9.30023 68.1676 9.78646C68.1676 10.2727 67.9745 10.739 67.6307 11.0828C67.2869 11.4266 66.8205 11.6198 66.3343 11.6198H60.8343M64.501 13.4531V2.45312M59.001 15.7891H70.001" stroke="#EFEFE4" stroke-linecap="round" stroke-linejoin="round"/>
</g>
</svg>
