<svg width="100%" height="100%" viewBox="0 0 1920 1037" fill="none" xmlns="http://www.w3.org/2000/svg">
    <g filter="url(#filter0_d_81_82)">
        <path fill-rule="evenodd" clip-rule="evenodd"
              d="M153.687 865.377H1020.36C1018.44 791.783 963.947 731.278 893.052 720.045C894.17 708.918 894.742 697.631 894.742 686.21C894.742 501.54 745.038 351.836 560.368 351.836C513.687 351.836 469.24 361.402 428.88 378.681C355.786 282.271 240.016 220 109.701 220C107.384 220 105.071 220.02 102.764 220.059C100.456 220.02 98.1435 220 95.8264 220C-34.4885 220 -150.259 282.271 -223.353 378.681C-263.712 361.402 -308.16 351.836 -354.841 351.836C-539.511 351.836 -689.215 501.54 -689.215 686.21C-689.215 697.631 -688.642 708.918 -687.524 720.045C-758.42 731.278 -812.916 791.783 -814.828 865.377H51.8398H153.687Z"
              fill="url(#paint0_linear_81_82)" fill-opacity="0.8" shape-rendering="crispEdges"/>
    </g>
    <g filter="url(#filter1_d_81_82)">
        <path fill-rule="evenodd" clip-rule="evenodd"
              d="M1884.46 865.377H2751.13C2749.22 791.783 2694.72 731.278 2623.83 720.045C2624.95 708.918 2625.52 697.631 2625.52 686.21C2625.52 501.54 2475.82 351.836 2291.15 351.836C2244.46 351.836 2200.02 361.402 2159.66 378.681C2086.56 282.271 1970.79 220 1840.48 220C1838.16 220 1835.85 220.02 1833.54 220.059C1831.23 220.02 1828.92 220 1826.6 220C1696.29 220 1580.52 282.271 1507.42 378.681C1467.07 361.402 1422.62 351.836 1375.94 351.836C1191.27 351.836 1041.56 501.54 1041.56 686.21C1041.56 697.631 1042.14 708.918 1043.25 720.045C972.358 731.278 917.862 791.783 915.949 865.377H1782.62H1884.46Z"
              fill="url(#paint1_linear_81_82)" fill-opacity="0.8" shape-rendering="crispEdges"/>
    </g>
    <g filter="url(#filter2_d_81_82)">
        <g filter="url(#filter3_ii_81_82)">
            <path fill-rule="evenodd" clip-rule="evenodd"
                  d="M247.242 674.936C252.988 666.694 251.675 651.795 247.739 647.858C244.506 644.625 233.876 643.159 225.614 645.922C216.509 638.579 205.319 633.272 192.401 629.809C181.029 626.761 170.25 625.834 160.062 627.027C159.21 627.127 158.365 627.239 157.527 627.364C151.687 621.233 142.277 617.5 138.013 618.642C132.908 620.009 124.905 631.119 124.841 640.807C119.697 644.61 115.155 649.062 111.216 654.161C105.406 661.761 101.225 670.321 98.6729 679.84C95.6629 691.069 96.0076 701.693 99.7068 711.711C103.373 721.851 110 730.692 119.587 738.233C129.006 745.86 141.026 751.633 155.647 755.552C170.674 759.58 187.674 761.558 201.318 760.142C213.392 758.407 224.669 754.366 232.916 747.419C241.13 740.594 246.742 731.568 249.752 720.339C252.304 710.819 252.965 701.316 251.735 691.829C250.947 685.98 249.449 680.349 247.242 674.936Z"
                  fill="url(#paint2_radial_81_82)"/>
        </g>
        <path d="M231.131 697.796C233.601 696.37 240.343 694.223 247.547 697.038" stroke="#C35200"
              stroke-width="1.98725" stroke-linecap="round"/>
        <path d="M230.647 702.346C233.474 701.973 240.525 702.566 246.105 707.923" stroke="#C35200"
              stroke-width="1.98725" stroke-linecap="round"/>
        <path d="M129.104 670.447C127.678 667.977 122.915 662.745 115.269 661.579" stroke="#C35200"
              stroke-width="1.98725" stroke-linecap="round"/>
        <path d="M127.235 674.625C124.973 672.888 118.571 669.876 111.06 671.723" stroke="#C35200"
              stroke-width="1.98725" stroke-linecap="round"/>
        <g filter="url(#filter4_d_81_82)">
            <path d="M179.464 664.92C181.018 671.595 175.872 678.84 170.129 675.101C166.3 672.608 161.31 668.798 154.573 666.992C148.505 665.366 143.013 665.899 138.723 666.219C130.877 666.804 129.334 656.919 135.286 651.773C141.286 646.586 150.91 644.477 159.958 646.903C169.768 649.532 177.524 656.583 179.464 664.92Z"
                  fill="white"/>
        </g>
        <mask id="mask0_81_82" style="mask-type:alpha" maskUnits="userSpaceOnUse" x="131" y="645" width="49"
              height="32">
            <path d="M179.468 664.92C181.022 671.595 175.876 678.84 170.133 675.101C166.304 672.608 161.314 668.798 154.577 666.992C148.509 665.366 143.017 665.899 138.727 666.219C130.881 666.804 129.338 656.919 135.29 651.773C141.29 646.586 150.914 644.477 159.962 646.903C169.771 649.532 177.528 656.583 179.468 664.92Z"
                  fill="#D9D9D9"/>
        </mask>
        <g mask="url(#mask0_81_82)">
            <path fill-rule="evenodd" clip-rule="evenodd"
                  d="M160.584 665.955C163.133 668.215 168.32 666.612 172.675 662.406L170.711 658.287L175.036 659.743C178.69 654.915 179.66 649.573 177.111 647.313C174.316 644.836 168.351 647 163.787 652.148C159.224 657.296 157.789 663.477 160.584 665.955Z"
                  fill="url(#paint3_linear_81_82)"/>
        </g>
        <ellipse cx="2.31845" cy="3.97451" rx="2.31845" ry="3.97451"
                 transform="matrix(0.809541 0.587063 -0.587064 0.809541 167.051 652.382)" fill="#2A1515"/>
        <ellipse cx="1.8606" cy="1.80035" rx="1.8606" ry="1.80035"
                 transform="matrix(0.809541 0.587063 -0.587064 0.809541 169.742 652.98)" fill="#FFFAEF"/>
        <g filter="url(#filter5_d_81_82)">
            <path d="M180.091 686.531C174.426 687.96 160.79 688.432 151.559 678.883" stroke="#674242"
                  stroke-width="1.98725" stroke-linecap="round"/>
            <path d="M180.097 686.533C184.287 690.604 195.859 697.833 208.629 694.182" stroke="#674242"
                  stroke-width="1.98725" stroke-linecap="round"/>
        </g>
        <g filter="url(#filter6_d_81_82)">
            <path d="M180.977 686.413C180.27 686.66 179.499 686.457 179.007 685.893C177.456 684.113 174.4 680.143 176.226 678.337C177.385 677.19 179.164 678.648 180.291 679.844C180.95 680.542 181.977 680.818 182.901 680.556C184.406 680.129 186.551 679.822 187.168 681.27C188.159 683.6 183.283 685.609 180.977 686.413Z"
                  fill="#FF4B4B"/>
        </g>
        <g filter="url(#filter7_d_81_82)">
            <path d="M236.402 680.184C237.955 686.858 232.81 694.104 227.066 690.365C223.237 687.872 218.248 684.062 211.511 682.256C205.443 680.629 199.95 681.163 195.661 681.483C187.814 682.068 186.271 672.183 192.223 667.037C198.223 661.849 207.847 659.741 216.896 662.166C226.705 664.796 234.461 671.847 236.402 680.184Z"
                  fill="white"/>
        </g>
        <mask id="mask1_81_82" style="mask-type:alpha" maskUnits="userSpaceOnUse" x="188" y="661" width="49"
              height="31">
            <path d="M236.413 680.187C237.967 686.862 232.821 694.108 227.078 690.368C223.249 687.876 218.26 684.066 211.522 682.26C205.454 680.633 199.962 681.167 195.672 681.486C187.826 682.072 186.283 672.187 192.235 667.041C198.235 661.853 207.859 659.745 216.908 662.17C226.717 664.8 234.473 671.851 236.413 680.187Z"
                  fill="#D9D9D9"/>
        </mask>
        <g mask="url(#mask1_81_82)">
            <path fill-rule="evenodd" clip-rule="evenodd"
                  d="M215.678 679.992C218.021 682.465 223.328 681.318 228.032 677.506L226.433 673.232L230.615 675.058C234.674 670.566 236.104 665.328 233.761 662.855C231.192 660.145 225.061 661.783 220.068 666.516C215.075 671.248 213.109 677.282 215.678 679.992Z"
                  fill="url(#paint4_linear_81_82)"/>
        </g>
        <ellipse cx="2.31845" cy="3.97451" rx="2.31845" ry="3.97451"
                 transform="matrix(0.755521 0.655124 -0.655125 0.755521 223.301 667.034)" fill="#2A1515"/>
        <ellipse cx="1.8606" cy="1.80035" rx="1.8606" ry="1.80035"
                 transform="matrix(0.755521 0.655124 -0.655125 0.755521 225.93 667.861)" fill="#FFFAEF"/>
        <mask id="mask2_81_82" style="mask-type:alpha" maskUnits="userSpaceOnUse" x="96" y="618" width="157"
              height="143">
            <path fill-rule="evenodd" clip-rule="evenodd"
                  d="M247.242 674.936C252.988 666.694 251.675 651.795 247.739 647.858C244.506 644.625 233.876 643.159 225.614 645.922C216.509 638.579 205.319 633.272 192.401 629.809C181.029 626.761 170.25 625.834 160.062 627.027C159.21 627.127 158.365 627.239 157.527 627.364C151.687 621.233 142.277 617.5 138.013 618.642C132.908 620.009 124.905 631.119 124.841 640.807C119.697 644.61 115.155 649.062 111.216 654.161C105.406 661.761 101.225 670.321 98.6729 679.84C95.6629 691.069 96.0076 701.693 99.7068 711.711C103.373 721.851 110 730.692 119.587 738.233C129.006 745.86 141.026 751.633 155.647 755.552C170.674 759.58 187.674 761.558 201.318 760.142C213.392 758.407 224.669 754.366 232.916 747.419C241.13 740.594 246.742 731.568 249.752 720.339C252.304 710.819 252.965 701.316 251.735 691.829C250.947 685.98 249.449 680.349 247.242 674.936Z"
                  fill="url(#paint5_radial_81_82)"/>
        </mask>
        <g mask="url(#mask2_81_82)">
            <rect x="192.836" y="612.605" width="16.9805" height="36.8899" rx="8.49023"
                  transform="rotate(18.5455 192.836 612.605)" fill="url(#paint6_linear_81_82)"/>
            <rect x="175.551" y="608.572" width="12.9694" height="28.1759" rx="6.48471"
                  transform="rotate(18.5455 175.551 608.572)" fill="url(#paint7_linear_81_82)"/>
            <rect x="212.527" y="619.866" width="12.9694" height="28.1759" rx="6.48471"
                  transform="rotate(18.5455 212.527 619.866)" fill="url(#paint8_linear_81_82)"/>
        </g>
    </g>
    <g filter="url(#filter8_d_81_82)">
        <g filter="url(#filter9_ii_81_82)">
            <path fill-rule="evenodd" clip-rule="evenodd"
                  d="M1669.86 674.936C1664.11 666.694 1665.42 651.795 1669.36 647.858C1672.59 644.625 1683.22 643.159 1691.48 645.922C1700.59 638.579 1711.78 633.272 1724.7 629.809C1736.07 626.761 1746.85 625.834 1757.04 627.027C1757.89 627.127 1758.73 627.239 1759.57 627.364C1765.41 621.233 1774.82 617.5 1779.08 618.642C1784.19 620.009 1792.19 631.119 1792.26 640.807C1797.4 644.61 1801.94 649.062 1805.88 654.161C1811.69 661.761 1815.87 670.321 1818.42 679.84C1821.43 691.069 1821.09 701.693 1817.39 711.711C1813.72 721.851 1807.1 730.692 1797.51 738.233C1788.09 745.86 1776.07 751.633 1761.45 755.552C1746.42 759.58 1729.42 761.558 1715.78 760.142C1703.71 758.407 1692.43 754.366 1684.18 747.419C1675.97 740.594 1670.36 731.568 1667.35 720.339C1664.79 710.819 1664.13 701.316 1665.36 691.829C1666.15 685.98 1667.65 680.349 1669.86 674.936Z"
                  fill="url(#paint9_radial_81_82)"/>
        </g>
        <mask id="mask3_81_82" style="mask-type:alpha" maskUnits="userSpaceOnUse" x="1664" y="618" width="157"
              height="143">
            <path fill-rule="evenodd" clip-rule="evenodd"
                  d="M1669.86 674.936C1664.11 666.694 1665.42 651.795 1669.36 647.858C1672.59 644.625 1683.22 643.159 1691.48 645.922C1700.59 638.579 1711.78 633.272 1724.7 629.809C1736.07 626.761 1746.85 625.834 1757.04 627.027C1757.89 627.127 1758.73 627.239 1759.57 627.364C1765.41 621.233 1774.82 617.5 1779.08 618.642C1784.19 620.009 1792.19 631.119 1792.26 640.807C1797.4 644.61 1801.94 649.062 1805.88 654.161C1811.69 661.761 1815.87 670.321 1818.42 679.84C1821.43 691.069 1821.09 701.693 1817.39 711.711C1813.72 721.851 1807.1 730.692 1797.51 738.233C1788.09 745.86 1776.07 751.633 1761.45 755.552C1746.42 759.58 1729.42 761.558 1715.78 760.142C1703.71 758.407 1692.43 754.366 1684.18 747.419C1675.97 740.594 1670.36 731.568 1667.35 720.339C1664.79 710.819 1664.13 701.316 1665.36 691.829C1666.15 685.98 1667.65 680.349 1669.86 674.936Z"
                  fill="url(#paint10_radial_81_82)"/>
        </mask>
        <g mask="url(#mask3_81_82)">
            <circle cx="1782.98" cy="645.074" r="56.7773" fill="url(#paint11_linear_81_82)"/>
        </g>
        <path d="M1685.97 697.796C1683.5 696.37 1676.75 694.223 1669.55 697.038" stroke="#FFBC3B" stroke-width="1.98725"
              stroke-linecap="round"/>
        <path d="M1686.45 702.346C1683.62 701.973 1676.57 702.566 1670.99 707.923" stroke="#FFBC3B"
              stroke-width="1.98725" stroke-linecap="round"/>
        <path d="M1787.99 670.447C1789.42 667.977 1794.18 662.745 1801.83 661.579" stroke="#FFBC3B"
              stroke-width="1.98725" stroke-linecap="round"/>
        <path d="M1789.86 674.625C1792.13 672.888 1798.53 669.876 1806.04 671.723" stroke="#FFBC3B"
              stroke-width="1.98725" stroke-linecap="round"/>
        <g filter="url(#filter10_d_81_82)">
            <path d="M1737.63 664.92C1736.08 671.595 1741.23 678.84 1746.97 675.101C1750.8 672.608 1755.79 668.798 1762.52 666.992C1768.59 665.366 1774.09 665.899 1778.37 666.219C1786.22 666.804 1787.76 656.919 1781.81 651.773C1775.81 646.586 1766.19 644.477 1757.14 646.903C1747.33 649.532 1739.57 656.583 1737.63 664.92Z"
                  fill="white"/>
        </g>
        <mask id="mask4_81_82" style="mask-type:alpha" maskUnits="userSpaceOnUse" x="1737" y="645" width="49"
              height="32">
            <path d="M1737.63 664.92C1736.08 671.595 1741.22 678.84 1746.97 675.101C1750.79 672.608 1755.78 668.798 1762.52 666.992C1768.59 665.366 1774.08 665.899 1778.37 666.219C1786.22 666.804 1787.76 656.919 1781.81 651.773C1775.81 646.586 1766.18 644.477 1757.14 646.903C1747.33 649.532 1739.57 656.583 1737.63 664.92Z"
                  fill="#D9D9D9"/>
        </mask>
        <g mask="url(#mask4_81_82)">
            <path fill-rule="evenodd" clip-rule="evenodd"
                  d="M1756.51 665.955C1753.96 668.215 1748.78 666.612 1744.42 662.406L1746.39 658.287L1742.06 659.743C1738.41 654.915 1737.44 649.573 1739.99 647.313C1742.78 644.836 1748.75 647 1753.31 652.148C1757.87 657.296 1759.31 663.477 1756.51 665.955Z"
                  fill="url(#paint12_linear_81_82)"/>
        </g>
        <ellipse cx="2.31845" cy="3.97451" rx="2.31845" ry="3.97451"
                 transform="matrix(-0.809541 0.587063 0.587064 0.809541 1750.05 652.382)" fill="#2A1515"/>
        <ellipse cx="1.8606" cy="1.80035" rx="1.8606" ry="1.80035"
                 transform="matrix(-0.809541 0.587063 0.587064 0.809541 1747.36 652.98)" fill="#FFFAEF"/>
        <g filter="url(#filter11_d_81_82)">
            <path d="M1737.01 686.531C1742.67 687.96 1756.31 688.432 1765.54 678.883" stroke="#674242"
                  stroke-width="1.98725" stroke-linecap="round"/>
            <path d="M1737 686.533C1732.81 690.604 1721.24 697.833 1708.47 694.182" stroke="#674242"
                  stroke-width="1.98725" stroke-linecap="round"/>
        </g>
        <g filter="url(#filter12_d_81_82)">
            <path d="M1736.12 686.413C1736.83 686.66 1737.6 686.457 1738.09 685.893C1739.64 684.113 1742.7 680.143 1740.87 678.337C1739.71 677.19 1737.93 678.648 1736.81 679.844C1736.15 680.542 1735.12 680.818 1734.2 680.556C1732.69 680.129 1730.55 679.822 1729.93 681.27C1728.94 683.6 1733.82 685.609 1736.12 686.413Z"
                  fill="#4B2828"/>
        </g>
        <g filter="url(#filter13_d_81_82)">
            <path d="M1680.7 680.184C1679.14 686.858 1684.29 694.104 1690.03 690.365C1693.86 687.872 1698.85 684.062 1705.59 682.256C1711.66 680.629 1717.15 681.163 1721.44 681.483C1729.28 682.068 1730.83 672.183 1724.87 667.037C1718.87 661.849 1709.25 659.741 1700.2 662.166C1690.39 664.796 1682.64 671.847 1680.7 680.184Z"
                  fill="white"/>
        </g>
        <mask id="mask5_81_82" style="mask-type:alpha" maskUnits="userSpaceOnUse" x="1680" y="661" width="49"
              height="31">
            <path d="M1680.68 680.187C1679.13 686.862 1684.28 694.108 1690.02 690.368C1693.85 687.876 1698.84 684.066 1705.58 682.26C1711.64 680.633 1717.14 681.167 1721.43 681.486C1729.27 682.072 1730.81 672.187 1724.86 667.041C1718.86 661.853 1709.24 659.745 1700.19 662.17C1690.38 664.8 1682.62 671.851 1680.68 680.187Z"
                  fill="#D9D9D9"/>
        </mask>
        <g mask="url(#mask5_81_82)">
            <path fill-rule="evenodd" clip-rule="evenodd"
                  d="M1701.42 679.992C1699.08 682.465 1693.77 681.318 1689.07 677.506L1690.66 673.232L1686.48 675.058C1682.42 670.566 1680.99 665.328 1683.34 662.855C1685.91 660.145 1692.04 661.783 1697.03 666.516C1702.02 671.248 1703.99 677.282 1701.42 679.992Z"
                  fill="url(#paint13_linear_81_82)"/>
        </g>
        <ellipse cx="2.31845" cy="3.97451" rx="2.31845" ry="3.97451"
                 transform="matrix(-0.755521 0.655124 0.655125 0.755521 1693.8 667.034)" fill="#2A1515"/>
        <ellipse cx="1.8606" cy="1.80035" rx="1.8606" ry="1.80035"
                 transform="matrix(-0.755521 0.655124 0.655125 0.755521 1691.17 667.861)" fill="#FFFAEF"/>
    </g>
    <g filter="url(#filter14_d_81_82)">
        <path d="M1352.66 148.781C1352.64 148.779 1352.63 148.807 1352.64 148.821C1377.86 169.515 1405.17 179.327 1435.87 178.818C1444.29 178.667 1459.18 177.041 1464.2 167.668C1467.24 162.022 1465.97 153.67 1461.2 147.393C1456.8 141.597 1449.46 136.937 1439.55 133.509C1410.46 123.525 1376.66 129.714 1352.67 148.776C1352.67 148.779 1352.66 148.781 1352.66 148.781Z"
              fill="#FFE972"/>
        <path d="M1344.59 273.38C1344.57 273.376 1344.56 273.402 1344.57 273.418C1366.6 297.645 1392.28 311.369 1422.85 315.341C1431.23 316.418 1446.25 316.973 1452.61 308.398C1456.45 303.234 1456.4 294.754 1452.59 287.827C1449.06 281.429 1442.45 275.731 1433.11 270.882C1405.68 256.727 1371.21 257.945 1344.61 273.378C1344.61 273.38 1344.6 273.381 1344.59 273.38Z"
              fill="#FFE972"/>
        <path d="M1283.56 382.408C1283.57 382.401 1283.58 382.402 1283.58 382.41C1302.5 413.743 1327.62 434.385 1360.18 445.344C1369.09 448.345 1385.46 452.192 1394.27 444.195C1399.57 439.395 1401.41 430.073 1398.69 421.665C1396.17 413.888 1390.28 406.262 1380.99 398.918C1354.07 377.501 1316.05 371.353 1283.58 382.428C1283.56 382.432 1283.56 382.418 1283.56 382.408Z"
              fill="#FFE972"/>
        <path d="M1207.57 447.217C1207.58 447.214 1207.59 447.22 1207.59 447.228C1208.37 481.763 1219.25 510.459 1240.77 534.716C1246.66 541.358 1258.25 552.189 1269.22 549.776C1275.81 548.336 1281.69 541.565 1283.42 533.406C1285 525.854 1283.76 516.844 1279.6 506.471C1267.61 476.295 1239.36 453.415 1207.57 447.239C1207.56 447.237 1207.56 447.221 1207.57 447.217Z"
              fill="#FFE972"/>
    </g>
    <g filter="url(#filter15_d_81_82)">
        <path d="M559.335 150.97C559.359 150.969 559.37 150.999 559.352 151.015C531.743 173.669 501.853 184.41 468.237 183.854C459.023 183.688 442.725 181.908 437.225 171.647C433.899 165.466 435.293 156.323 440.507 149.452C445.324 143.106 453.365 138.005 464.213 134.252C496.053 123.322 533.059 130.097 559.319 150.965C559.323 150.969 559.329 150.971 559.335 150.97Z"
              fill="#FFE972"/>
        <path d="M571.856 271.787C571.882 271.782 571.899 271.813 571.882 271.833C545.394 300.965 514.511 317.468 477.754 322.244C467.677 323.539 449.614 324.207 441.973 313.895C437.355 307.686 437.41 297.489 441.998 289.159C446.236 281.466 454.19 274.614 465.422 268.783C498.402 251.762 539.852 253.227 571.837 271.784C571.843 271.787 571.85 271.789 571.856 271.787Z"
              fill="#FFE972"/>
        <path d="M626.947 382.788C626.943 382.782 626.934 382.783 626.93 382.789C610.219 410.47 588.023 428.706 559.26 438.388C551.385 441.04 536.929 444.438 529.145 437.373C524.459 433.132 522.838 424.897 525.236 417.469C527.465 410.599 532.669 403.861 540.873 397.373C564.66 378.452 598.247 373.021 626.935 382.805C626.946 382.808 626.954 382.796 626.947 382.788Z"
              fill="#FFE972"/>
        <path d="M704.455 449.415C704.448 449.412 704.44 449.418 704.44 449.426C703.659 484.008 692.761 512.743 671.217 537.032C665.32 543.683 653.712 554.529 642.728 552.114C636.123 550.671 630.236 543.891 628.509 535.721C626.923 528.158 628.167 519.137 632.33 508.75C644.339 478.533 672.622 455.622 704.453 449.438C704.465 449.435 704.466 449.419 704.455 449.415Z"
              fill="#FFE972"/>
    </g>
    <g filter="url(#filter16_d_81_82)">
        <circle cx="960.5" cy="137.5" r="377.5" fill="#00E440"/>
    </g>
    <g filter="url(#filter17_ii_81_82)">
        <path d="M1056.09 766.951H1145.2C1154.48 766.951 1162.67 758.682 1157.37 751.068C1151.12 742.094 1140.75 740.044 1140.75 740.044C1140.75 740.044 1057.99 622.931 1121.73 512.477C1137.79 511.649 1165.86 505.101 1149.65 485.533C1129.39 461.072 1056.26 466.755 1018.95 516.664L898.376 522.1C875.563 512.381 841.894 479.397 806.958 476.168C777.556 473.45 760.014 505.323 792.628 512.477C808.96 516.06 830.924 547.82 846.737 571.786C796.087 604.894 799.546 663.756 806.958 692.334C760.113 699.45 773.768 727.913 786.451 741.255C787.411 743.335 783.089 746.888 776.593 750.806C769.67 754.982 772.282 766.951 780.366 766.951H855.749C862.352 766.951 866.926 760.497 867.112 753.897C867.814 728.918 895.619 719.398 910.977 719.043C983.056 717.374 1032.54 744.807 1047.09 762.21C1049.36 764.923 1052.55 766.951 1056.09 766.951Z"
              fill="#D9D9D9"/>
        <path d="M1056.09 766.951H1145.2C1154.48 766.951 1162.67 758.682 1157.37 751.068C1151.12 742.094 1140.75 740.044 1140.75 740.044C1140.75 740.044 1057.99 622.931 1121.73 512.477C1137.79 511.649 1165.86 505.101 1149.65 485.533C1129.39 461.072 1056.26 466.755 1018.95 516.664L898.376 522.1C875.563 512.381 841.894 479.397 806.958 476.168C777.556 473.45 760.014 505.323 792.628 512.477C808.96 516.06 830.924 547.82 846.737 571.786C796.087 604.894 799.546 663.756 806.958 692.334C760.113 699.45 773.768 727.913 786.451 741.255C787.411 743.335 783.089 746.888 776.593 750.806C769.67 754.982 772.282 766.951 780.366 766.951H855.749C862.352 766.951 866.926 760.497 867.112 753.897C867.814 728.918 895.619 719.398 910.977 719.043C983.056 717.374 1032.54 744.807 1047.09 762.21C1049.36 764.923 1052.55 766.951 1056.09 766.951Z"
              fill="url(#paint14_radial_81_82)"/>
    </g>
    <g filter="url(#filter18_d_81_82)">
        <path d="M846.433 552.426C865.452 543.85 876.9 547.621 880.246 550.578C887.061 555.437 887.815 560.907 886.312 565.474C884.247 571.752 877.767 575.231 871.554 577.485C836.418 590.227 818.141 570.572 819.32 558.154C819.353 557.812 819.888 557.679 820.173 557.872C822.491 559.442 829.848 559.904 846.433 552.426Z"
              fill="url(#paint15_linear_81_82)"/>
        <path d="M856.508 574.75C860.148 556.181 870.542 550.663 875.284 550.225C882.846 548.789 887.999 550.901 891.365 554.108C897.049 559.526 896.456 568.549 893.868 575.962C883.557 605.498 855.956 605.537 845.475 597.203C845.188 596.974 845.423 596.391 845.779 596.297C848.645 595.54 853.396 590.627 856.508 574.75Z"
              fill="url(#paint16_linear_81_82)"/>
        <path d="M959.897 636.908C917.527 618.696 884.771 569.389 877.566 549.449L1047.24 546.607C1036.65 590.374 991.252 620.897 964.22 636.629C962.898 637.399 961.303 637.512 959.897 636.908Z"
              fill="url(#paint17_linear_81_82)"/>
        <mask id="mask6_81_82" style="mask-type:alpha" maskUnits="userSpaceOnUse" x="877" y="546" width="171"
              height="92">
            <path d="M959.897 636.908C917.527 618.696 884.771 569.389 877.566 549.449L1047.24 546.607C1036.65 590.374 991.252 620.897 964.22 636.629C962.898 637.399 961.303 637.512 959.897 636.908Z"
                  fill="#D9D9D9"/>
        </mask>
        <g mask="url(#mask6_81_82)">
            <circle cx="913.038" cy="551.493" r="15.9089" fill="#00E440"/>
            <circle cx="967.172" cy="609.882" r="11.4454" fill="#00E440"/>
            <circle cx="931.469" cy="599.062" r="9.15234" fill="#00E440"/>
            <circle cx="1002.19" cy="577.293" r="15.7456" fill="#00E440"/>
            <circle cx="971.555" cy="564.322" r="9.15234" fill="#00E440"/>
        </g>
    </g>
    <g filter="url(#filter19_d_81_82)">
        <g filter="url(#filter20_ii_81_82)">
            <path fill-rule="evenodd" clip-rule="evenodd"
                  d="M1038.11 462.79C1042.27 451.284 1036.03 434.171 1030.16 430.781C1025.34 427.997 1012.37 429.625 1003.52 435.481C990.497 429.714 975.662 427 959.376 427C945.038 427 932.066 429.308 920.46 433.925C919.489 434.31 918.531 434.709 917.584 435.12C908.782 429.749 896.537 428.325 891.881 431.013C886.307 434.231 880.397 449.822 883.376 461.238C878.524 467.334 874.585 474.002 871.559 481.242C867.121 492.014 864.902 503.401 864.902 515.403C864.902 529.56 868.657 541.947 876.167 552.565C883.678 563.336 894.26 571.646 907.915 577.493C921.399 583.494 937.357 586.495 955.791 586.495C974.737 586.495 995.356 583.461 1010.96 577.493C1024.61 571.646 1036.6 563.336 1044.11 552.565C1051.62 541.947 1055.38 529.56 1055.38 515.403C1055.38 503.401 1053.16 492.014 1048.72 481.242C1045.95 474.611 1042.41 468.461 1038.11 462.79Z"
                  fill="url(#paint18_radial_81_82)"/>
        </g>
        <path d="M1026.38 494.757C1028.83 492.301 1036.09 487.649 1045.45 488.689" stroke="#DD9B1C"
              stroke-width="2.42004" stroke-linecap="round"/>
        <path d="M1027.24 500.261C1030.45 498.931 1038.93 497.406 1047.18 501.947" stroke="#DD9B1C"
              stroke-width="2.42004" stroke-linecap="round"/>
        <path d="M897.74 494.757C895.284 492.301 888.032 487.649 878.67 488.689" stroke="#DD9B1C" stroke-width="2.42004"
              stroke-linecap="round"/>
        <path d="M896.864 500.261C893.655 498.931 885.175 497.406 876.923 501.947" stroke="#DD9B1C"
              stroke-width="2.42004" stroke-linecap="round"/>
        <g filter="url(#filter21_d_81_82)">
            <path d="M955.224 472.378C959.157 479.74 955.388 489.885 947.454 487.297C942.164 485.573 935.094 482.665 926.6 482.665C918.949 482.665 912.657 485.024 907.712 486.752C898.667 489.915 893.736 478.774 899.114 470.844C904.536 462.851 915.191 457.336 926.6 457.336C938.967 457.336 950.314 463.184 955.224 472.378Z"
                  fill="white"/>
        </g>
        <mask id="mask7_81_82" style="mask-type:alpha" maskUnits="userSpaceOnUse" x="896" y="457" width="61"
              height="31">
            <path d="M955.224 472.378C959.157 479.74 955.388 489.885 947.454 487.297C942.164 485.573 935.094 482.665 926.6 482.665C918.949 482.665 912.657 485.024 907.712 486.752C898.667 489.915 893.736 478.774 899.114 470.844C904.536 462.851 915.191 457.336 926.6 457.336C938.967 457.336 950.314 463.184 955.224 472.378Z"
                  fill="#D9D9D9"/>
        </mask>
        <g mask="url(#mask7_81_82)">
            <path fill-rule="evenodd" clip-rule="evenodd"
                  d="M913.149 481.607C917.297 481.607 920.729 475.956 921.3 468.605L916.183 466.438L921.3 464.271C920.729 456.92 917.297 451.269 913.149 451.269C908.601 451.269 904.914 458.06 904.914 466.438C904.914 474.816 908.601 481.607 913.149 481.607Z"
                  fill="url(#paint19_linear_81_82)"/>
        </g>
        <ellipse cx="2.82337" cy="4.84009" rx="2.82337" ry="4.84009"
                 transform="matrix(0.995211 -0.0977468 0.0977457 0.995211 908.078 464.016)" fill="#2A1515"/>
        <ellipse cx="2.2658" cy="2.19243" rx="2.2658" ry="2.19243"
                 transform="matrix(0.995211 -0.0977468 0.0977457 0.995211 911.012 462.387)" fill="#FFFAEF"/>
        <g filter="url(#filter22_d_81_82)">
            <path d="M962.785 497.6C956.573 501.067 940.682 505.921 926.812 497.6" stroke="#674242"
                  stroke-width="2.42004" stroke-linecap="round"/>
            <path d="M962.793 497.6C969.005 501.067 984.897 505.921 998.766 497.6" stroke="#674242"
                  stroke-width="2.42004" stroke-linecap="round"/>
        </g>
        <g filter="url(#filter23_d_81_82)">
            <path d="M963.788 497.182C963.034 497.695 962.063 497.7 961.306 497.191C958.921 495.587 954.075 491.881 955.653 489.18C956.655 487.466 959.207 488.621 960.91 489.671C961.905 490.285 963.2 490.286 964.204 489.686C965.84 488.71 968.267 487.672 969.448 489.18C971.349 491.609 966.246 495.51 963.788 497.182Z"
                  fill="#00E440"/>
        </g>
        <g filter="url(#filter24_d_81_82)">
            <path d="M1027.02 472.378C1030.95 479.74 1027.18 489.885 1019.25 487.297C1013.96 485.573 1006.89 482.665 998.393 482.665C990.742 482.665 984.45 485.024 979.505 486.752C970.46 489.915 965.529 478.774 970.907 470.844C976.329 462.851 986.984 457.336 998.393 457.336C1010.76 457.336 1022.11 463.184 1027.02 472.378Z"
                  fill="white"/>
        </g>
        <mask id="mask8_81_82" style="mask-type:alpha" maskUnits="userSpaceOnUse" x="968" y="457" width="61"
              height="31">
            <path d="M1027.03 472.379C1030.96 479.741 1027.19 489.886 1019.26 487.298C1013.97 485.574 1006.9 482.666 998.404 482.666C990.754 482.666 984.462 485.025 979.517 486.753C970.472 489.916 965.54 478.775 970.919 470.845C976.341 462.852 986.996 457.337 998.404 457.337C1010.77 457.337 1022.12 463.185 1027.03 472.379Z"
                  fill="#D9D9D9"/>
        </mask>
        <g mask="url(#mask8_81_82)">
            <path fill-rule="evenodd" clip-rule="evenodd"
                  d="M984.953 481.607C989.102 481.607 992.534 475.956 993.105 468.605L987.987 466.438L993.105 464.271C992.534 456.92 989.102 451.269 984.953 451.269C980.406 451.269 976.719 458.06 976.719 466.438C976.719 474.816 980.406 481.607 984.953 481.607Z"
                  fill="url(#paint20_linear_81_82)"/>
        </g>
        <ellipse cx="2.82337" cy="4.84009" rx="2.82337" ry="4.84009"
                 transform="matrix(0.995211 -0.0977468 0.0977457 0.995211 979.879 464.017)" fill="#2A1515"/>
        <ellipse cx="2.2658" cy="2.19243" rx="2.2658" ry="2.19243"
                 transform="matrix(0.995211 -0.0977468 0.0977457 0.995211 982.816 462.387)" fill="#FFFAEF"/>
    </g>
    <g filter="url(#filter25_d_81_82)">
        <path d="M1493.8 486.484L1490.02 513.206C1489.93 513.871 1489.28 514.31 1488.63 514.149L1471.29 509.871C1470.23 509.61 1469.45 510.844 1470.14 511.689L1484.9 529.84C1485.15 530.148 1485.22 530.566 1485.09 530.94L1474.7 559.827C1474.35 560.814 1475.41 561.713 1476.32 561.201L1494.36 551.127C1494.97 550.787 1495.74 551.071 1495.98 551.724L1504.41 574.54C1504.73 575.4 1505.88 575.547 1506.41 574.794L1523.37 550.377C1523.67 549.94 1524.24 549.773 1524.73 549.975L1550.6 560.58C1551.37 560.896 1552.21 560.301 1552.16 559.469L1550.9 536.185C1550.87 535.603 1551.28 535.092 1551.86 535.002L1566.45 532.722C1567.42 532.569 1567.75 531.329 1566.98 530.713L1547.76 515.385C1547.17 514.916 1547.2 514.014 1547.81 513.575L1562.72 502.889C1563.62 502.246 1563.17 500.831 1562.06 500.831H1532.69C1532.06 500.831 1531.55 500.323 1531.55 499.697V479.9C1531.55 478.867 1530.28 478.372 1529.58 479.13L1511.6 498.591C1511.18 499.047 1510.47 499.08 1510.01 498.665L1495.68 485.799C1495.01 485.192 1493.93 485.585 1493.8 486.484Z"
              fill="#FFE459"/>
    </g>
    <path d="M1500.62 518.989L1503.75 524.663" stroke="#05C13A" stroke-width="3.40449" stroke-linecap="round"/>
    <path d="M1509.42 514.449L1512.54 520.123" stroke="#05C13A" stroke-width="3.40449" stroke-linecap="round"/>
    <path d="M1504.79 532.444L1513.03 537.928C1513.68 538.357 1514.55 538.027 1514.76 537.279L1518.17 524.663"
          stroke="#05C13A" stroke-width="3.40449" stroke-linecap="round"/>
    <g filter="url(#filter26_d_81_82)">
        <path d="M373.749 369.428L377.508 395.99C377.602 396.652 378.247 397.087 378.895 396.927L396.127 392.675C397.178 392.416 397.955 393.642 397.272 394.482L382.597 412.525C382.348 412.832 382.277 413.247 382.411 413.619L392.738 442.333C393.091 443.315 392.037 444.208 391.126 443.7L373.194 433.686C372.589 433.348 371.826 433.63 371.586 434.279L363.204 456.959C362.888 457.814 361.74 457.96 361.22 457.211L344.357 432.94C344.056 432.506 343.493 432.339 343.003 432.54L317.29 443.082C316.524 443.397 315.691 442.805 315.736 441.977L316.994 418.832C317.025 418.254 316.614 417.746 316.042 417.656L301.536 415.39C300.566 415.238 300.239 414.005 301.007 413.393L320.113 398.157C320.698 397.69 320.675 396.793 320.067 396.358L305.239 385.735C304.347 385.096 304.799 383.69 305.896 383.69H335.098C335.721 383.69 336.226 383.184 336.226 382.561V362.883C336.226 361.856 337.486 361.363 338.183 362.117L356.059 381.462C356.477 381.916 357.182 381.948 357.641 381.536L371.878 368.747C372.55 368.143 373.623 368.534 373.749 369.428Z"
              fill="#ADFE00"/>
    </g>
    <path d="M369.504 407.379L363.864 404.277" stroke="#FF7C04" stroke-width="3.38422" stroke-linecap="round"/>
    <path d="M358.227 397.227L355.124 402.867" stroke="#FF7C04" stroke-width="3.38422" stroke-linecap="round"/>
    <path d="M359.136 414.658L354.701 419.661C354.012 420.438 352.729 419.951 352.728 418.913L352.727 410.894"
          stroke="#FF7C04" stroke-width="3.38422" stroke-linecap="round"/>
    <path fill-rule="evenodd" clip-rule="evenodd"
          d="M1279.14 767C1269.76 746.478 1246.74 729 1234.63 729C1222.52 729 1199.49 746.478 1190.12 767H730.135C720.764 746.478 697.735 729 685.627 729C673.519 729 650.49 746.478 641.118 767H590C581.163 767 574 774.163 574 783V871C574 879.837 581.163 887 590 887H1330C1338.84 887 1346 879.837 1346 871V783C1346 774.163 1338.84 767 1330 767H1279.14Z"
          fill="#FFB704"/>
    <path d="M885.311 841.288C884.663 841.288 884.087 841.144 883.583 840.856C883.079 840.568 882.695 840.064 882.431 839.344C882.167 838.624 882.035 837.616 882.035 836.32C882.035 834.784 882.095 833.14 882.215 831.388C882.335 829.636 882.491 827.86 882.683 826.06C882.875 824.236 883.067 822.484 883.259 820.804H883.115C882.299 824.14 881.423 826.612 880.487 828.22C879.575 829.828 878.555 830.632 877.427 830.632C876.731 830.632 876.083 830.344 875.483 829.768C874.907 829.168 874.343 828.136 873.791 826.672C873.263 825.208 872.687 823.156 872.063 820.516H871.919C872.039 821.668 872.147 822.892 872.243 824.188C872.363 825.484 872.471 826.792 872.567 828.112C872.687 829.432 872.771 830.68 872.819 831.856C872.891 833.032 872.927 834.088 872.927 835.024C872.927 836.008 872.831 836.908 872.639 837.724C872.447 838.516 872.099 839.152 871.595 839.632C871.091 840.088 870.407 840.316 869.543 840.316C868.367 840.316 867.491 839.908 866.915 839.092C866.363 838.252 866.087 836.884 866.087 834.988C866.087 834.004 866.111 832.864 866.159 831.568C866.231 830.272 866.315 828.928 866.411 827.536C866.507 826.144 866.627 824.8 866.771 823.504C866.915 822.184 867.071 821.032 867.239 820.048C867.527 818.272 867.995 817.012 868.643 816.268C869.291 815.5 870.131 815.116 871.163 815.116C871.931 815.116 872.675 815.392 873.395 815.944C874.139 816.496 874.859 817.468 875.555 818.86C876.251 820.228 876.923 822.148 877.571 824.62H877.715C878.339 822.076 878.975 820.06 879.623 818.572C880.295 817.084 880.979 816.028 881.675 815.404C882.371 814.756 883.067 814.432 883.763 814.432C884.867 814.432 885.719 814.828 886.319 815.62C886.943 816.388 887.423 817.492 887.759 818.932C888.119 820.348 888.407 822.004 888.623 823.9C888.839 825.772 888.995 827.704 889.091 829.696C889.211 831.664 889.271 833.5 889.271 835.204C889.271 837.436 888.911 839.008 888.191 839.92C887.471 840.832 886.511 841.288 885.311 841.288ZM904.792 815.656C906.808 815.656 908.212 815.92 909.004 816.448C909.796 816.976 910.192 817.744 910.192 818.752C910.192 819.856 909.724 820.696 908.788 821.272C907.852 821.824 906.412 822.1 904.468 822.1C903.58 822.1 902.572 822.088 901.444 822.064C900.34 822.016 899.188 821.944 897.988 821.848L898.384 821.452C898.624 822.292 898.708 823.204 898.636 824.188C898.588 825.172 898.396 826.108 898.06 826.996L897.7 826.888C898.372 826.648 899.164 826.432 900.076 826.24C900.988 826.048 901.924 825.892 902.884 825.772C903.868 825.628 904.768 825.556 905.584 825.556C907.216 825.556 908.356 825.784 909.004 826.24C909.676 826.672 910.012 827.2 910.012 827.824C910.012 828.52 909.604 829.12 908.788 829.624C907.996 830.104 906.628 830.344 904.684 830.344C903.508 830.344 902.296 830.32 901.048 830.272C899.824 830.2 898.624 830.104 897.448 829.984L897.952 829.804C898.192 830.404 898.36 831.112 898.456 831.928C898.576 832.72 898.612 833.512 898.564 834.304C898.516 835.096 898.384 835.804 898.168 836.428L897.952 836.176C898.672 835.864 899.5 835.6 900.436 835.384C901.372 835.168 902.32 835.012 903.28 834.916C904.264 834.796 905.188 834.736 906.052 834.736C907.54 834.736 908.644 834.916 909.364 835.276C910.108 835.612 910.48 836.2 910.48 837.04C910.48 837.856 910.144 838.576 909.472 839.2C908.824 839.824 907.972 840.316 906.916 840.676C905.86 841.036 904.72 841.216 903.496 841.216C901 841.216 898.96 840.88 897.376 840.208C895.816 839.536 894.652 838.54 893.884 837.22C893.596 836.644 893.332 835.996 893.092 835.276C892.852 834.556 892.66 833.74 892.516 832.828C892.396 831.892 892.336 830.836 892.336 829.66C892.336 827.404 892.552 825.484 892.984 823.9C893.416 822.292 893.992 820.984 894.712 819.976C895.816 818.488 897.244 817.396 898.996 816.7C900.748 816.004 902.68 815.656 904.792 815.656ZM924.722 841.108C922.274 841.108 920.126 840.592 918.278 839.56C916.43 838.528 914.99 837.064 913.958 835.168C912.926 833.272 912.41 831.028 912.41 828.436C912.41 825.964 912.926 823.816 913.958 821.992C915.014 820.168 916.502 818.752 918.422 817.744C920.342 816.736 922.586 816.232 925.154 816.232C927.65 816.232 929.822 816.7 931.67 817.636C933.542 818.548 934.982 819.844 935.99 821.524C936.998 823.18 937.502 825.112 937.502 827.32C937.502 829.192 937.202 830.968 936.602 832.648C936.002 834.304 935.138 835.768 934.01 837.04C932.906 838.312 931.562 839.308 929.978 840.028C928.418 840.748 926.666 841.108 924.722 841.108ZM925.046 834.988C926.846 834.988 928.274 834.34 929.33 833.044C930.41 831.724 930.95 829.96 930.95 827.752C930.95 826.048 930.458 824.716 929.474 823.756C928.514 822.772 927.194 822.28 925.514 822.28C924.314 822.28 923.246 822.544 922.31 823.072C921.374 823.576 920.642 824.32 920.114 825.304C919.61 826.264 919.358 827.416 919.358 828.76C919.358 830.68 919.886 832.204 920.942 833.332C921.998 834.436 923.366 834.988 925.046 834.988ZM940.583 821.812C940.583 819.508 940.895 817.864 941.519 816.88C942.143 815.896 943.103 815.404 944.399 815.404C945.239 815.404 945.887 815.632 946.343 816.088C946.823 816.544 947.159 817.156 947.351 817.924C947.543 818.692 947.639 819.556 947.639 820.516C947.639 821.596 947.615 822.868 947.567 824.332C947.519 825.796 947.447 827.296 947.351 828.832C947.279 830.368 947.183 831.796 947.063 833.116H947.207C947.855 830.164 948.491 827.74 949.115 825.844C949.739 823.948 950.375 822.544 951.023 821.632C951.695 820.696 952.379 820.228 953.075 820.228C953.867 820.228 954.599 820.708 955.271 821.668C955.943 822.604 956.603 824.02 957.251 825.916C957.899 827.812 958.583 830.176 959.303 833.008H959.447C959.375 831.592 959.303 830.128 959.231 828.616C959.183 827.104 959.135 825.604 959.087 824.116C959.063 822.628 959.051 821.236 959.051 819.94C959.051 818.476 959.171 817.348 959.411 816.556C959.675 815.764 960.035 815.212 960.491 814.9C960.971 814.588 961.523 814.432 962.147 814.432C963.395 814.432 964.367 815.044 965.063 816.268C965.759 817.468 966.107 819.244 966.107 821.596C966.107 823.3 966.035 825.052 965.891 826.852C965.771 828.652 965.579 830.392 965.315 832.072C965.075 833.752 964.763 835.324 964.379 836.788C964.043 838.204 963.563 839.308 962.939 840.1C962.315 840.892 961.511 841.288 960.527 841.288C959.855 841.288 959.195 841 958.547 840.424C957.923 839.848 957.299 838.984 956.675 837.832C956.051 836.656 955.463 835.204 954.911 833.476C954.359 831.748 953.831 829.732 953.327 827.428H953.183C952.703 829.732 952.187 831.712 951.635 833.368C951.083 835.024 950.495 836.392 949.871 837.472C949.271 838.528 948.623 839.32 947.927 839.848C947.231 840.352 946.487 840.604 945.695 840.604C944.663 840.604 943.859 840.232 943.283 839.488C942.707 838.72 942.239 837.448 941.879 835.672C941.711 834.736 941.543 833.668 941.375 832.468C941.231 831.268 941.099 830.02 940.979 828.724C940.859 827.428 940.763 826.18 940.691 824.98C940.619 823.78 940.583 822.724 940.583 821.812ZM981.544 815.404C982.36 815.404 983.152 815.74 983.92 816.412C984.712 817.06 985.504 818.08 986.296 819.472C987.112 820.864 987.976 822.652 988.888 824.836C989.824 827.02 990.844 829.636 991.948 832.684H992.092C991.924 831.724 991.768 830.668 991.624 829.516C991.504 828.364 991.384 827.2 991.264 826.024C991.144 824.848 991.048 823.744 990.976 822.712C990.928 821.68 990.904 820.792 990.904 820.048C990.904 818.032 991.144 816.592 991.624 815.728C992.128 814.864 992.872 814.432 993.856 814.432C994.552 814.432 995.116 814.6 995.548 814.936C995.98 815.272 996.34 815.776 996.628 816.448C997.204 817.768 997.6 819.58 997.816 821.884C998.056 824.164 998.176 826.78 998.176 829.732C998.176 832.132 998.068 834.148 997.852 835.78C997.66 837.388 997.276 838.6 996.7 839.416C996.148 840.232 995.332 840.64 994.252 840.64C993.556 840.64 992.86 840.436 992.164 840.028C991.468 839.62 990.772 838.972 990.076 838.084C989.404 837.196 988.696 836.044 987.952 834.628C987.232 833.188 986.464 831.448 985.648 829.408C984.856 827.368 983.992 824.992 983.056 822.28H982.912C983.104 823.336 983.272 824.596 983.416 826.06C983.56 827.524 983.668 829.036 983.74 830.596C983.836 832.132 983.884 833.536 983.884 834.808C983.884 837.136 983.596 838.792 983.02 839.776C982.468 840.76 981.604 841.252 980.428 841.252C979.132 841.252 978.208 840.748 977.656 839.74C977.128 838.708 976.864 837.124 976.864 834.988C976.864 833.812 976.888 832.468 976.936 830.956C977.008 829.42 977.092 827.848 977.188 826.24C977.308 824.608 977.464 823.06 977.656 821.596C977.92 819.484 978.316 817.924 978.844 816.916C979.396 815.908 980.296 815.404 981.544 815.404ZM1013.2 839.704C1010.8 839.704 1008.7 839.272 1006.9 838.408C1005.13 837.544 1003.73 836.272 1002.73 834.592C1001.74 832.912 1001.25 830.824 1001.25 828.328C1001.25 826.312 1001.56 824.476 1002.19 822.82C1002.81 821.164 1003.67 819.748 1004.78 818.572C1005.91 817.372 1007.2 816.448 1008.67 815.8C1010.13 815.152 1011.68 814.828 1013.31 814.828C1014.97 814.828 1016.51 815.14 1017.95 815.764C1019.42 816.364 1020.7 817.228 1021.81 818.356C1022.91 819.484 1023.77 820.828 1024.4 822.388C1025.02 823.948 1025.33 825.676 1025.33 827.572C1025.33 830.212 1024.83 832.444 1023.82 834.268C1022.84 836.068 1021.43 837.424 1019.61 838.336C1017.79 839.248 1015.65 839.704 1013.2 839.704ZM1013.09 832.792C1014.8 832.792 1016.15 832.3 1017.16 831.316C1018.19 830.332 1018.71 828.904 1018.71 827.032C1018.71 825.76 1018.45 824.656 1017.92 823.72C1017.41 822.76 1016.73 822.016 1015.87 821.488C1015 820.96 1014.08 820.696 1013.09 820.696C1012.11 820.696 1011.19 820.96 1010.32 821.488C1009.48 822.016 1008.8 822.76 1008.27 823.72C1007.74 824.656 1007.48 825.76 1007.48 827.032C1007.48 828.904 1007.99 830.332 1009.03 831.316C1010.06 832.3 1011.41 832.792 1013.09 832.792ZM1028.44 822.244C1028.44 819.532 1028.75 817.6 1029.37 816.448C1030 815.272 1030.96 814.684 1032.25 814.684C1033.19 814.684 1033.91 814.912 1034.41 815.368C1034.92 815.824 1035.27 816.436 1035.46 817.204C1035.67 817.972 1035.78 818.836 1035.78 819.796C1035.78 820.876 1035.76 822.148 1035.71 823.612C1035.66 825.076 1035.59 826.576 1035.49 828.112C1035.42 829.648 1035.33 831.076 1035.21 832.396H1035.35C1036.02 829.444 1036.68 827.02 1037.33 825.124C1037.98 823.228 1038.64 821.824 1039.31 820.912C1040.01 819.976 1040.71 819.508 1041.43 819.508C1042.23 819.508 1042.96 819.988 1043.63 820.948C1044.3 821.884 1044.96 823.3 1045.61 825.196C1046.26 827.092 1046.94 829.456 1047.66 832.288H1047.81C1047.73 830.944 1047.66 829.564 1047.59 828.148C1047.54 826.708 1047.49 825.28 1047.45 823.864C1047.42 822.448 1047.41 821.14 1047.41 819.94C1047.41 818.476 1047.51 817.348 1047.7 816.556C1047.91 815.764 1048.23 815.212 1048.63 814.9C1049.04 814.588 1049.5 814.432 1050 814.432C1051.25 814.432 1052.22 815.044 1052.92 816.268C1053.61 817.468 1053.96 819.244 1053.96 821.596C1053.96 825.652 1053.75 829.036 1053.31 831.748C1052.91 834.436 1052.31 836.464 1051.51 837.832C1050.72 839.176 1049.75 839.848 1048.6 839.848C1047.95 839.848 1047.29 839.584 1046.62 839.056C1045.97 838.504 1045.33 837.676 1044.71 836.572C1044.09 835.468 1043.49 834.1 1042.91 832.468C1042.36 830.812 1041.83 828.892 1041.33 826.708H1041.18C1040.73 828.892 1040.23 830.764 1039.71 832.324C1039.18 833.884 1038.61 835.168 1038.01 836.176C1037.41 837.184 1036.79 837.94 1036.14 838.444C1035.49 838.924 1034.8 839.164 1034.05 839.164C1033.14 839.164 1032.33 838.828 1031.61 838.156C1030.91 837.46 1030.32 836.416 1029.84 835.024C1029.39 833.632 1029.04 831.88 1028.8 829.768C1028.56 827.632 1028.44 825.124 1028.44 822.244Z"
          fill="#4B2828"/>
    <g filter="url(#filter27_d_81_82)">
        <path fill-rule="evenodd" clip-rule="evenodd"
              d="M25.9186 966.333H467.052C466.079 928.874 438.34 898.077 402.255 892.359C402.824 886.696 403.115 880.951 403.115 875.137C403.115 781.14 326.916 704.941 232.919 704.941C209.158 704.941 186.535 709.81 165.992 718.605C128.787 669.533 69.8601 637.837 3.52997 637.837C2.35052 637.837 1.1734 637.847 -0.00128174 637.867C-1.17596 637.847 -2.35309 637.837 -3.53253 637.837C-69.8627 637.837 -128.79 669.533 -165.994 718.605C-186.537 709.81 -209.161 704.941 -232.922 704.941C-326.918 704.941 -403.118 781.14 -403.118 875.137C-403.118 880.951 -402.826 886.696 -402.257 892.359C-438.343 898.077 -466.081 928.874 -467.055 966.333H-25.9212H25.9186Z"
              fill="url(#paint21_linear_81_82)"/>
    </g>
    <g filter="url(#filter28_d_81_82)">
        <path fill-rule="evenodd" clip-rule="evenodd"
              d="M1894.08 966.333H1452.95C1453.92 928.874 1481.66 898.077 1517.75 892.359C1517.18 886.696 1516.88 880.951 1516.88 875.137C1516.88 781.14 1593.08 704.941 1687.08 704.941C1710.84 704.941 1733.47 709.81 1754.01 718.605C1791.21 669.533 1850.14 637.837 1916.47 637.837C1917.65 637.837 1918.83 637.847 1920 637.867C1921.18 637.847 1922.35 637.837 1923.53 637.837C1989.86 637.837 2048.79 669.533 2085.99 718.605C2106.54 709.81 2129.16 704.941 2152.92 704.941C2246.92 704.941 2323.12 781.14 2323.12 875.137C2323.12 880.951 2322.83 886.696 2322.26 892.359C2358.34 898.077 2386.08 928.874 2387.05 966.333H1945.92H1894.08Z"
              fill="url(#paint22_linear_81_82)"/>
    </g>
    <defs>
        <filter id="filter0_d_81_82" x="-913.06" y="121.768" width="2070.94" height="881.134"
                filterUnits="userSpaceOnUse" color-interpolation-filters="sRGB">
            <feFlood flood-opacity="0" result="BackgroundImageFix"/>
            <feColorMatrix in="SourceAlpha" type="matrix" values="0 0 0 0 0 0 0 0 0 0 0 0 0 0 0 0 0 0 127 0"
                           result="hardAlpha"/>
            <feOffset dx="19.6464" dy="19.6464"/>
            <feGaussianBlur stdDeviation="58.9392"/>
            <feComposite in2="hardAlpha" operator="out"/>
            <feColorMatrix type="matrix" values="0 0 0 0 1 0 0 0 0 0.712579 0 0 0 0 0.154645 0 0 0 0.1 0"/>
            <feBlend mode="normal" in2="BackgroundImageFix" result="effect1_dropShadow_81_82"/>
            <feBlend mode="normal" in="SourceGraphic" in2="effect1_dropShadow_81_82" result="shape"/>
        </filter>
        <filter id="filter1_d_81_82" x="817.717" y="121.768" width="2070.94" height="881.134"
                filterUnits="userSpaceOnUse" color-interpolation-filters="sRGB">
            <feFlood flood-opacity="0" result="BackgroundImageFix"/>
            <feColorMatrix in="SourceAlpha" type="matrix" values="0 0 0 0 0 0 0 0 0 0 0 0 0 0 0 0 0 0 127 0"
                           result="hardAlpha"/>
            <feOffset dx="19.6464" dy="19.6464"/>
            <feGaussianBlur stdDeviation="58.9392"/>
            <feComposite in2="hardAlpha" operator="out"/>
            <feColorMatrix type="matrix" values="0 0 0 0 1 0 0 0 0 0.712579 0 0 0 0 0.154645 0 0 0 0.1 0"/>
            <feBlend mode="normal" in2="BackgroundImageFix" result="effect1_dropShadow_81_82"/>
            <feBlend mode="normal" in="SourceGraphic" in2="effect1_dropShadow_81_82" result="shape"/>
        </filter>
        <filter id="filter2_d_81_82" x="90.8439" y="614.258" width="173.787" height="160.258"
                filterUnits="userSpaceOnUse" color-interpolation-filters="sRGB">
            <feFlood flood-opacity="0" result="BackgroundImageFix"/>
            <feColorMatrix in="SourceAlpha" type="matrix" values="0 0 0 0 0 0 0 0 0 0 0 0 0 0 0 0 0 0 127 0"
                           result="hardAlpha"/>
            <feOffset dx="3.24622" dy="4.86933"/>
            <feGaussianBlur stdDeviation="4.52442"/>
            <feComposite in2="hardAlpha" operator="out"/>
            <feColorMatrix type="matrix" values="0 0 0 0 0.480267 0 0 0 0 0.329356 0 0 0 0 0.0364119 0 0 0 0.3 0"/>
            <feBlend mode="normal" in2="BackgroundImageFix" result="effect1_dropShadow_81_82"/>
            <feBlend mode="normal" in="SourceGraphic" in2="effect1_dropShadow_81_82" result="shape"/>
        </filter>
        <filter id="filter3_ii_81_82" x="91.3472" y="615.125" width="163.638" height="148.122"
                filterUnits="userSpaceOnUse" color-interpolation-filters="sRGB">
            <feFlood flood-opacity="0" result="BackgroundImageFix"/>
            <feBlend mode="normal" in="SourceGraphic" in2="BackgroundImageFix" result="shape"/>
            <feColorMatrix in="SourceAlpha" type="matrix" values="0 0 0 0 0 0 0 0 0 0 0 0 0 0 0 0 0 0 127 0"
                           result="hardAlpha"/>
            <feOffset dx="3.9745" dy="3.9745"/>
            <feGaussianBlur stdDeviation="1.32483"/>
            <feComposite in2="hardAlpha" operator="arithmetic" k2="-1" k3="1"/>
            <feColorMatrix type="matrix" values="0 0 0 0 1 0 0 0 0 0.851256 0 0 0 0 0.713955 0 0 0 1 0"/>
            <feBlend mode="normal" in2="shape" result="effect1_innerShadow_81_82"/>
            <feColorMatrix in="SourceAlpha" type="matrix" values="0 0 0 0 0 0 0 0 0 0 0 0 0 0 0 0 0 0 127 0"
                           result="hardAlpha"/>
            <feOffset dx="-5.29933" dy="-3.31208"/>
            <feGaussianBlur stdDeviation="6.62416"/>
            <feComposite in2="hardAlpha" operator="arithmetic" k2="-1" k3="1"/>
            <feColorMatrix type="matrix" values="0 0 0 0 0.820568 0 0 0 0 0.345077 0 0 0 0 0.0776136 0 0 0 0.4 0"/>
            <feBlend mode="normal" in2="effect1_innerShadow_81_82" result="effect2_innerShadow_81_82"/>
        </filter>
        <filter id="filter4_d_81_82" x="125.038" y="639.275" width="61.3303" height="43.471"
                filterUnits="userSpaceOnUse" color-interpolation-filters="sRGB">
            <feFlood flood-opacity="0" result="BackgroundImageFix"/>
            <feColorMatrix in="SourceAlpha" type="matrix" values="0 0 0 0 0 0 0 0 0 0 0 0 0 0 0 0 0 0 127 0"
                           result="hardAlpha"/>
            <feOffset/>
            <feGaussianBlur stdDeviation="3.31208"/>
            <feComposite in2="hardAlpha" operator="out"/>
            <feColorMatrix type="matrix" values="0 0 0 0 0.818105 0 0 0 0 0.361767 0 0 0 0 0.031316 0 0 0 0.6 0"/>
            <feBlend mode="normal" in2="BackgroundImageFix" result="effect1_dropShadow_81_82"/>
            <feBlend mode="normal" in="SourceGraphic" in2="effect1_dropShadow_81_82" result="shape"/>
        </filter>
        <filter id="filter5_d_81_82" x="143.94" y="671.265" width="72.3069" height="31.5335"
                filterUnits="userSpaceOnUse" color-interpolation-filters="sRGB">
            <feFlood flood-opacity="0" result="BackgroundImageFix"/>
            <feColorMatrix in="SourceAlpha" type="matrix" values="0 0 0 0 0 0 0 0 0 0 0 0 0 0 0 0 0 0 127 0"
                           result="hardAlpha"/>
            <feOffset/>
            <feGaussianBlur stdDeviation="3.31208"/>
            <feComposite in2="hardAlpha" operator="out"/>
            <feColorMatrix type="matrix" values="0 0 0 0 0.818105 0 0 0 0 0.361767 0 0 0 0 0.031316 0 0 0 0.6 0"/>
            <feBlend mode="normal" in2="BackgroundImageFix" result="effect1_dropShadow_81_82"/>
            <feBlend mode="normal" in="SourceGraphic" in2="effect1_dropShadow_81_82" result="shape"/>
        </filter>
        <filter id="filter6_d_81_82" x="173.012" y="675.933" width="16.936" height="13.896" filterUnits="userSpaceOnUse"
                color-interpolation-filters="sRGB">
            <feFlood flood-opacity="0" result="BackgroundImageFix"/>
            <feColorMatrix in="SourceAlpha" type="matrix" values="0 0 0 0 0 0 0 0 0 0 0 0 0 0 0 0 0 0 127 0"
                           result="hardAlpha"/>
            <feOffset dy="0.662416"/>
            <feGaussianBlur stdDeviation="1.32483"/>
            <feComposite in2="hardAlpha" operator="out"/>
            <feColorMatrix type="matrix" values="0 0 0 0 0.690477 0 0 0 0 0.547238 0 0 0 0 0.0393897 0 0 0 0.6 0"/>
            <feBlend mode="normal" in2="BackgroundImageFix" result="effect1_dropShadow_81_82"/>
            <feBlend mode="normal" in="SourceGraphic" in2="effect1_dropShadow_81_82" result="shape"/>
        </filter>
        <filter id="filter7_d_81_82" x="181.975" y="654.539" width="61.3303" height="43.471"
                filterUnits="userSpaceOnUse" color-interpolation-filters="sRGB">
            <feFlood flood-opacity="0" result="BackgroundImageFix"/>
            <feColorMatrix in="SourceAlpha" type="matrix" values="0 0 0 0 0 0 0 0 0 0 0 0 0 0 0 0 0 0 127 0"
                           result="hardAlpha"/>
            <feOffset/>
            <feGaussianBlur stdDeviation="3.31208"/>
            <feComposite in2="hardAlpha" operator="out"/>
            <feColorMatrix type="matrix" values="0 0 0 0 0.818105 0 0 0 0 0.361767 0 0 0 0 0.031316 0 0 0 0.6 0"/>
            <feBlend mode="normal" in2="BackgroundImageFix" result="effect1_dropShadow_81_82"/>
            <feBlend mode="normal" in="SourceGraphic" in2="effect1_dropShadow_81_82" result="shape"/>
        </filter>
        <filter id="filter8_d_81_82" x="1658.96" y="614.258" width="173.787" height="160.258"
                filterUnits="userSpaceOnUse" color-interpolation-filters="sRGB">
            <feFlood flood-opacity="0" result="BackgroundImageFix"/>
            <feColorMatrix in="SourceAlpha" type="matrix" values="0 0 0 0 0 0 0 0 0 0 0 0 0 0 0 0 0 0 127 0"
                           result="hardAlpha"/>
            <feOffset dx="3.24622" dy="4.86933"/>
            <feGaussianBlur stdDeviation="4.52442"/>
            <feComposite in2="hardAlpha" operator="out"/>
            <feColorMatrix type="matrix" values="0 0 0 0 0.480267 0 0 0 0 0.329356 0 0 0 0 0.0364119 0 0 0 0.3 0"/>
            <feBlend mode="normal" in2="BackgroundImageFix" result="effect1_dropShadow_81_82"/>
            <feBlend mode="normal" in="SourceGraphic" in2="effect1_dropShadow_81_82" result="shape"/>
        </filter>
        <filter id="filter9_ii_81_82" x="1659.46" y="615.125" width="163.638" height="148.122"
                filterUnits="userSpaceOnUse" color-interpolation-filters="sRGB">
            <feFlood flood-opacity="0" result="BackgroundImageFix"/>
            <feBlend mode="normal" in="SourceGraphic" in2="BackgroundImageFix" result="shape"/>
            <feColorMatrix in="SourceAlpha" type="matrix" values="0 0 0 0 0 0 0 0 0 0 0 0 0 0 0 0 0 0 127 0"
                           result="hardAlpha"/>
            <feOffset dx="3.9745" dy="3.9745"/>
            <feGaussianBlur stdDeviation="1.32483"/>
            <feComposite in2="hardAlpha" operator="arithmetic" k2="-1" k3="1"/>
            <feColorMatrix type="matrix" values="0 0 0 0 1 0 0 0 0 0.965974 0 0 0 0 0.845336 0 0 0 1 0"/>
            <feBlend mode="normal" in2="shape" result="effect1_innerShadow_81_82"/>
            <feColorMatrix in="SourceAlpha" type="matrix" values="0 0 0 0 0 0 0 0 0 0 0 0 0 0 0 0 0 0 127 0"
                           result="hardAlpha"/>
            <feOffset dx="-5.29933" dy="-3.31208"/>
            <feGaussianBlur stdDeviation="6.62416"/>
            <feComposite in2="hardAlpha" operator="arithmetic" k2="-1" k3="1"/>
            <feColorMatrix type="matrix" values="0 0 0 0 0.795582 0 0 0 0 0.668289 0 0 0 0 0 0 0 0 0.4 0"/>
            <feBlend mode="normal" in2="effect1_innerShadow_81_82" result="effect2_innerShadow_81_82"/>
        </filter>
        <filter id="filter10_d_81_82" x="1730.73" y="639.275" width="61.3303" height="43.471"
                filterUnits="userSpaceOnUse" color-interpolation-filters="sRGB">
            <feFlood flood-opacity="0" result="BackgroundImageFix"/>
            <feColorMatrix in="SourceAlpha" type="matrix" values="0 0 0 0 0 0 0 0 0 0 0 0 0 0 0 0 0 0 127 0"
                           result="hardAlpha"/>
            <feOffset/>
            <feGaussianBlur stdDeviation="3.31208"/>
            <feComposite in2="hardAlpha" operator="out"/>
            <feColorMatrix type="matrix" values="0 0 0 0 0.818105 0 0 0 0 0.361767 0 0 0 0 0.031316 0 0 0 0.6 0"/>
            <feBlend mode="normal" in2="BackgroundImageFix" result="effect1_dropShadow_81_82"/>
            <feBlend mode="normal" in="SourceGraphic" in2="effect1_dropShadow_81_82" result="shape"/>
        </filter>
        <filter id="filter11_d_81_82" x="1700.85" y="671.265" width="72.3069" height="31.5335"
                filterUnits="userSpaceOnUse" color-interpolation-filters="sRGB">
            <feFlood flood-opacity="0" result="BackgroundImageFix"/>
            <feColorMatrix in="SourceAlpha" type="matrix" values="0 0 0 0 0 0 0 0 0 0 0 0 0 0 0 0 0 0 127 0"
                           result="hardAlpha"/>
            <feOffset/>
            <feGaussianBlur stdDeviation="3.31208"/>
            <feComposite in2="hardAlpha" operator="out"/>
            <feColorMatrix type="matrix" values="0 0 0 0 0.818105 0 0 0 0 0.361767 0 0 0 0 0.031316 0 0 0 0.6 0"/>
            <feBlend mode="normal" in2="BackgroundImageFix" result="effect1_dropShadow_81_82"/>
            <feBlend mode="normal" in="SourceGraphic" in2="effect1_dropShadow_81_82" result="shape"/>
        </filter>
        <filter id="filter12_d_81_82" x="1727.15" y="675.933" width="16.936" height="13.896"
                filterUnits="userSpaceOnUse" color-interpolation-filters="sRGB">
            <feFlood flood-opacity="0" result="BackgroundImageFix"/>
            <feColorMatrix in="SourceAlpha" type="matrix" values="0 0 0 0 0 0 0 0 0 0 0 0 0 0 0 0 0 0 127 0"
                           result="hardAlpha"/>
            <feOffset dy="0.662416"/>
            <feGaussianBlur stdDeviation="1.32483"/>
            <feComposite in2="hardAlpha" operator="out"/>
            <feColorMatrix type="matrix" values="0 0 0 0 0.690477 0 0 0 0 0.547238 0 0 0 0 0.0393897 0 0 0 0.6 0"/>
            <feBlend mode="normal" in2="BackgroundImageFix" result="effect1_dropShadow_81_82"/>
            <feBlend mode="normal" in="SourceGraphic" in2="effect1_dropShadow_81_82" result="shape"/>
        </filter>
        <filter id="filter13_d_81_82" x="1673.79" y="654.539" width="61.3303" height="43.471"
                filterUnits="userSpaceOnUse" color-interpolation-filters="sRGB">
            <feFlood flood-opacity="0" result="BackgroundImageFix"/>
            <feColorMatrix in="SourceAlpha" type="matrix" values="0 0 0 0 0 0 0 0 0 0 0 0 0 0 0 0 0 0 127 0"
                           result="hardAlpha"/>
            <feOffset/>
            <feGaussianBlur stdDeviation="3.31208"/>
            <feComposite in2="hardAlpha" operator="out"/>
            <feColorMatrix type="matrix" values="0 0 0 0 0.818105 0 0 0 0 0.361767 0 0 0 0 0.031316 0 0 0 0.6 0"/>
            <feBlend mode="normal" in2="BackgroundImageFix" result="effect1_dropShadow_81_82"/>
            <feBlend mode="normal" in="SourceGraphic" in2="effect1_dropShadow_81_82" result="shape"/>
        </filter>
        <filter id="filter14_d_81_82" x="1105.77" y="26.9889" width="461.872" height="624.926"
                filterUnits="userSpaceOnUse" color-interpolation-filters="sRGB">
            <feFlood flood-opacity="0" result="BackgroundImageFix"/>
            <feColorMatrix in="SourceAlpha" type="matrix" values="0 0 0 0 0 0 0 0 0 0 0 0 0 0 0 0 0 0 127 0"
                           result="hardAlpha"/>
            <feOffset/>
            <feGaussianBlur stdDeviation="50.8976"/>
            <feComposite in2="hardAlpha" operator="out"/>
            <feColorMatrix type="matrix" values="0 0 0 0 1 0 0 0 0 0.9 0 0 0 0 0 0 0 0 0.5 0"/>
            <feBlend mode="normal" in2="BackgroundImageFix" result="effect1_dropShadow_81_82"/>
            <feBlend mode="normal" in="SourceGraphic" in2="effect1_dropShadow_81_82" result="shape"/>
        </filter>
        <filter id="filter15_d_81_82" x="333.631" y="27.2838" width="472.628" height="626.969"
                filterUnits="userSpaceOnUse" color-interpolation-filters="sRGB">
            <feFlood flood-opacity="0" result="BackgroundImageFix"/>
            <feColorMatrix in="SourceAlpha" type="matrix" values="0 0 0 0 0 0 0 0 0 0 0 0 0 0 0 0 0 0 127 0"
                           result="hardAlpha"/>
            <feOffset/>
            <feGaussianBlur stdDeviation="50.8976"/>
            <feComposite in2="hardAlpha" operator="out"/>
            <feColorMatrix type="matrix" values="0 0 0 0 1 0 0 0 0 0.9 0 0 0 0 0 0 0 0 0.5 0"/>
            <feBlend mode="normal" in2="BackgroundImageFix" result="effect1_dropShadow_81_82"/>
            <feBlend mode="normal" in="SourceGraphic" in2="effect1_dropShadow_81_82" result="shape"/>
        </filter>
        <filter id="filter16_d_81_82" x="503" y="-300" width="915" height="915" filterUnits="userSpaceOnUse"
                color-interpolation-filters="sRGB">
            <feFlood flood-opacity="0" result="BackgroundImageFix"/>
            <feColorMatrix in="SourceAlpha" type="matrix" values="0 0 0 0 0 0 0 0 0 0 0 0 0 0 0 0 0 0 127 0"
                           result="hardAlpha"/>
            <feOffset dy="20"/>
            <feGaussianBlur stdDeviation="40"/>
            <feComposite in2="hardAlpha" operator="out"/>
            <feColorMatrix type="matrix" values="0 0 0 0 1 0 0 0 0 0.712579 0 0 0 0 0.154645 0 0 0 0.4 0"/>
            <feBlend mode="normal" in2="BackgroundImageFix" result="effect1_dropShadow_81_82"/>
            <feBlend mode="normal" in="SourceGraphic" in2="effect1_dropShadow_81_82" result="shape"/>
        </filter>
        <filter id="filter17_ii_81_82" x="762.719" y="467.44" width="398.795" height="302.738"
                filterUnits="userSpaceOnUse" color-interpolation-filters="sRGB">
            <feFlood flood-opacity="0" result="BackgroundImageFix"/>
            <feBlend mode="normal" in="SourceGraphic" in2="BackgroundImageFix" result="shape"/>
            <feColorMatrix in="SourceAlpha" type="matrix" values="0 0 0 0 0 0 0 0 0 0 0 0 0 0 0 0 0 0 127 0"
                           result="hardAlpha"/>
            <feOffset dx="2.47075" dy="4.44735"/>
            <feGaussianBlur stdDeviation="1.61336"/>
            <feComposite in2="hardAlpha" operator="arithmetic" k2="-1" k3="1"/>
            <feColorMatrix type="matrix" values="0 0 0 0 1 0 0 0 0 0.931289 0 0 0 0 0.687679 0 0 0 1 0"/>
            <feBlend mode="normal" in2="shape" result="effect1_innerShadow_81_82"/>
            <feColorMatrix in="SourceAlpha" type="matrix" values="0 0 0 0 0 0 0 0 0 0 0 0 0 0 0 0 0 0 127 0"
                           result="hardAlpha"/>
            <feOffset dx="-9.883" dy="-4.0334"/>
            <feGaussianBlur stdDeviation="8.0668"/>
            <feComposite in2="hardAlpha" operator="arithmetic" k2="-1" k3="1"/>
            <feColorMatrix type="matrix" values="0 0 0 0 0.820568 0 0 0 0 0.345077 0 0 0 0 0.0776136 0 0 0 0.4 0"/>
            <feBlend mode="normal" in2="effect1_innerShadow_81_82" result="effect2_innerShadow_81_82"/>
        </filter>
        <filter id="filter18_d_81_82" x="799.266" y="532.537" width="267.971" height="130.687"
                filterUnits="userSpaceOnUse" color-interpolation-filters="sRGB">
            <feFlood flood-opacity="0" result="BackgroundImageFix"/>
            <feColorMatrix in="SourceAlpha" type="matrix" values="0 0 0 0 0 0 0 0 0 0 0 0 0 0 0 0 0 0 127 0"
                           result="hardAlpha"/>
            <feOffset dy="5.9298"/>
            <feGaussianBlur stdDeviation="10"/>
            <feComposite in2="hardAlpha" operator="out"/>
            <feColorMatrix type="matrix" values="0 0 0 0 0.758045 0 0 0 0 0.50031 0 0 0 0 0 0 0 0 0.4 0"/>
            <feBlend mode="normal" in2="BackgroundImageFix" result="effect1_dropShadow_81_82"/>
            <feBlend mode="normal" in="SourceGraphic" in2="effect1_dropShadow_81_82" result="shape"/>
        </filter>
        <filter id="filter19_d_81_82" x="857.836" y="421.91" width="212.516" height="181.534"
                filterUnits="userSpaceOnUse" color-interpolation-filters="sRGB">
            <feFlood flood-opacity="0" result="BackgroundImageFix"/>
            <feColorMatrix in="SourceAlpha" type="matrix" values="0 0 0 0 0 0 0 0 0 0 0 0 0 0 0 0 0 0 127 0"
                           result="hardAlpha"/>
            <feOffset dx="3.9532" dy="5.9298"/>
            <feGaussianBlur stdDeviation="5.50977"/>
            <feComposite in2="hardAlpha" operator="out"/>
            <feColorMatrix type="matrix" values="0 0 0 0 0.480267 0 0 0 0 0.329356 0 0 0 0 0.0364119 0 0 0 0.3 0"/>
            <feBlend mode="normal" in2="BackgroundImageFix" result="effect1_dropShadow_81_82"/>
            <feBlend mode="normal" in="SourceGraphic" in2="effect1_dropShadow_81_82" result="shape"/>
        </filter>
        <filter id="filter20_ii_81_82" x="858.449" y="422.967" width="200.157" height="166.755"
                filterUnits="userSpaceOnUse" color-interpolation-filters="sRGB">
            <feFlood flood-opacity="0" result="BackgroundImageFix"/>
            <feBlend mode="normal" in="SourceGraphic" in2="BackgroundImageFix" result="shape"/>
            <feColorMatrix in="SourceAlpha" type="matrix" values="0 0 0 0 0 0 0 0 0 0 0 0 0 0 0 0 0 0 127 0"
                           result="hardAlpha"/>
            <feOffset dx="4.84008" dy="4.84008"/>
            <feGaussianBlur stdDeviation="1.61336"/>
            <feComposite in2="hardAlpha" operator="arithmetic" k2="-1" k3="1"/>
            <feColorMatrix type="matrix" values="0 0 0 0 1 0 0 0 0 0.931289 0 0 0 0 0.687679 0 0 0 1 0"/>
            <feBlend mode="normal" in2="shape" result="effect1_innerShadow_81_82"/>
            <feColorMatrix in="SourceAlpha" type="matrix" values="0 0 0 0 0 0 0 0 0 0 0 0 0 0 0 0 0 0 127 0"
                           result="hardAlpha"/>
            <feOffset dx="-6.45344" dy="-4.0334"/>
            <feGaussianBlur stdDeviation="8.0668"/>
            <feComposite in2="hardAlpha" operator="arithmetic" k2="-1" k3="1"/>
            <feColorMatrix type="matrix" values="0 0 0 0 0.820568 0 0 0 0 0.345077 0 0 0 0 0.0776136 0 0 0 0.4 0"/>
            <feBlend mode="normal" in2="effect1_innerShadow_81_82" result="effect2_innerShadow_81_82"/>
        </filter>
        <filter id="filter21_d_81_82" x="888.818" y="449.269" width="76.0438" height="46.5076"
                filterUnits="userSpaceOnUse" color-interpolation-filters="sRGB">
            <feFlood flood-opacity="0" result="BackgroundImageFix"/>
            <feColorMatrix in="SourceAlpha" type="matrix" values="0 0 0 0 0 0 0 0 0 0 0 0 0 0 0 0 0 0 127 0"
                           result="hardAlpha"/>
            <feOffset/>
            <feGaussianBlur stdDeviation="4.0334"/>
            <feComposite in2="hardAlpha" operator="out"/>
            <feColorMatrix type="matrix" values="0 0 0 0 0.963211 0 0 0 0 0.63965 0 0 0 0 0.011561 0 0 0 0.9 0"/>
            <feBlend mode="normal" in2="BackgroundImageFix" result="effect1_dropShadow_81_82"/>
            <feBlend mode="normal" in="SourceGraphic" in2="effect1_dropShadow_81_82" result="shape"/>
        </filter>
        <filter id="filter22_d_81_82" x="922.375" y="493.97" width="80.8284" height="13.4681"
                filterUnits="userSpaceOnUse" color-interpolation-filters="sRGB">
            <feFlood flood-opacity="0" result="BackgroundImageFix"/>
            <feColorMatrix in="SourceAlpha" type="matrix" values="0 0 0 0 0 0 0 0 0 0 0 0 0 0 0 0 0 0 127 0"
                           result="hardAlpha"/>
            <feOffset dy="0.80668"/>
            <feGaussianBlur stdDeviation="1.61336"/>
            <feComposite in2="hardAlpha" operator="out"/>
            <feColorMatrix type="matrix" values="0 0 0 0 0.690477 0 0 0 0 0.547238 0 0 0 0 0.0393897 0 0 0 0.6 0"/>
            <feBlend mode="normal" in2="BackgroundImageFix" result="effect1_dropShadow_81_82"/>
            <feBlend mode="normal" in="SourceGraphic" in2="effect1_dropShadow_81_82" result="shape"/>
        </filter>
        <filter id="filter23_d_81_82" x="952.117" y="485.885" width="20.973" height="15.7191"
                filterUnits="userSpaceOnUse" color-interpolation-filters="sRGB">
            <feFlood flood-opacity="0" result="BackgroundImageFix"/>
            <feColorMatrix in="SourceAlpha" type="matrix" values="0 0 0 0 0 0 0 0 0 0 0 0 0 0 0 0 0 0 127 0"
                           result="hardAlpha"/>
            <feOffset dy="0.80668"/>
            <feGaussianBlur stdDeviation="1.61336"/>
            <feComposite in2="hardAlpha" operator="out"/>
            <feColorMatrix type="matrix" values="0 0 0 0 0.690477 0 0 0 0 0.547238 0 0 0 0 0.0393897 0 0 0 0.6 0"/>
            <feBlend mode="normal" in2="BackgroundImageFix" result="effect1_dropShadow_81_82"/>
            <feBlend mode="normal" in="SourceGraphic" in2="effect1_dropShadow_81_82" result="shape"/>
        </filter>
        <filter id="filter24_d_81_82" x="960.611" y="449.269" width="76.0438" height="46.5076"
                filterUnits="userSpaceOnUse" color-interpolation-filters="sRGB">
            <feFlood flood-opacity="0" result="BackgroundImageFix"/>
            <feColorMatrix in="SourceAlpha" type="matrix" values="0 0 0 0 0 0 0 0 0 0 0 0 0 0 0 0 0 0 127 0"
                           result="hardAlpha"/>
            <feOffset/>
            <feGaussianBlur stdDeviation="4.0334"/>
            <feComposite in2="hardAlpha" operator="out"/>
            <feColorMatrix type="matrix" values="0 0 0 0 1 0 0 0 0 0.66 0 0 0 0 0 0 0 0 0.9 0"/>
            <feBlend mode="normal" in2="BackgroundImageFix" result="effect1_dropShadow_81_82"/>
            <feBlend mode="normal" in="SourceGraphic" in2="effect1_dropShadow_81_82" result="shape"/>
        </filter>
        <filter id="filter25_d_81_82" x="1469.88" y="478.763" width="100.934" height="99.923"
                filterUnits="userSpaceOnUse" color-interpolation-filters="sRGB">
            <feFlood flood-opacity="0" result="BackgroundImageFix"/>
            <feColorMatrix in="SourceAlpha" type="matrix" values="0 0 0 0 0 0 0 0 0 0 0 0 0 0 0 0 0 0 127 0"
                           result="hardAlpha"/>
            <feOffset dx="3.40449" dy="3.40449"/>
            <feComposite in2="hardAlpha" operator="out"/>
            <feColorMatrix type="matrix" values="0 0 0 0 1 0 0 0 0 0.48 0 0 0 0 0 0 0 0 1 0"/>
            <feBlend mode="normal" in2="BackgroundImageFix" result="effect1_dropShadow_81_82"/>
            <feBlend mode="normal" in="SourceGraphic" in2="effect1_dropShadow_81_82" result="shape"/>
        </filter>
        <filter id="filter26_d_81_82" x="297.196" y="361.753" width="100.333" height="99.3276"
                filterUnits="userSpaceOnUse" color-interpolation-filters="sRGB">
            <feFlood flood-opacity="0" result="BackgroundImageFix"/>
            <feColorMatrix in="SourceAlpha" type="matrix" values="0 0 0 0 0 0 0 0 0 0 0 0 0 0 0 0 0 0 127 0"
                           result="hardAlpha"/>
            <feOffset dx="-3.38422" dy="3.38422"/>
            <feComposite in2="hardAlpha" operator="out"/>
            <feColorMatrix type="matrix" values="0 0 0 0 0 0 0 0 0 0.894118 0 0 0 0 0.25098 0 0 0 1 0"/>
            <feBlend mode="normal" in2="BackgroundImageFix" result="effect1_dropShadow_81_82"/>
            <feBlend mode="normal" in="SourceGraphic" in2="effect1_dropShadow_81_82" result="shape"/>
        </filter>
        <filter id="filter27_d_81_82" x="-517.055" y="587.837" width="1054.11" height="448.496"
                filterUnits="userSpaceOnUse" color-interpolation-filters="sRGB">
            <feFlood flood-opacity="0" result="BackgroundImageFix"/>
            <feColorMatrix in="SourceAlpha" type="matrix" values="0 0 0 0 0 0 0 0 0 0 0 0 0 0 0 0 0 0 127 0"
                           result="hardAlpha"/>
            <feOffset dx="10" dy="10"/>
            <feGaussianBlur stdDeviation="30"/>
            <feComposite in2="hardAlpha" operator="out"/>
            <feColorMatrix type="matrix" values="0 0 0 0 1 0 0 0 0 0.712579 0 0 0 0 0.154645 0 0 0 0.2 0"/>
            <feBlend mode="normal" in2="BackgroundImageFix" result="effect1_dropShadow_81_82"/>
            <feBlend mode="normal" in="SourceGraphic" in2="effect1_dropShadow_81_82" result="shape"/>
        </filter>
        <filter id="filter28_d_81_82" x="1402.95" y="587.837" width="1054.11" height="448.496"
                filterUnits="userSpaceOnUse" color-interpolation-filters="sRGB">
            <feFlood flood-opacity="0" result="BackgroundImageFix"/>
            <feColorMatrix in="SourceAlpha" type="matrix" values="0 0 0 0 0 0 0 0 0 0 0 0 0 0 0 0 0 0 127 0"
                           result="hardAlpha"/>
            <feOffset dx="10" dy="10"/>
            <feGaussianBlur stdDeviation="30"/>
            <feComposite in2="hardAlpha" operator="out"/>
            <feColorMatrix type="matrix" values="0 0 0 0 1 0 0 0 0 0.712579 0 0 0 0 0.154645 0 0 0 0.2 0"/>
            <feBlend mode="normal" in2="BackgroundImageFix" result="effect1_dropShadow_81_82"/>
            <feBlend mode="normal" in="SourceGraphic" in2="effect1_dropShadow_81_82" result="shape"/>
        </filter>
        <linearGradient id="paint0_linear_81_82" x1="524.298" y1="511.658" x2="522.751" y2="865.377"
                        gradientUnits="userSpaceOnUse">
            <stop stop-color="white"/>
            <stop offset="1" stop-color="#FFF9E1"/>
        </linearGradient>
        <linearGradient id="paint1_linear_81_82" x1="2255.08" y1="511.658" x2="2253.53" y2="865.377"
                        gradientUnits="userSpaceOnUse">
            <stop stop-color="white"/>
            <stop offset="1" stop-color="#FFF9E1"/>
        </linearGradient>
        <radialGradient id="paint2_radial_81_82" cx="0" cy="0" r="1" gradientUnits="userSpaceOnUse"
                        gradientTransform="translate(193.814 641.175) rotate(106.816) scale(115.318 130.212)">
            <stop stop-color="#FEA361"/>
            <stop offset="0.400562" stop-color="#FFD9A1"/>
            <stop offset="0.693294" stop-color="#CF671C"/>
            <stop offset="1" stop-color="#7C4300"/>
        </radialGradient>
        <linearGradient id="paint3_linear_81_82" x1="170.251" y1="651.352" x2="160.584" y2="665.955"
                        gradientUnits="userSpaceOnUse">
            <stop stop-color="#5B3232"/>
            <stop offset="1" stop-color="#B37272"/>
        </linearGradient>
        <linearGradient id="paint4_linear_81_82" x1="226.576" y1="666.283" x2="215.678" y2="679.992"
                        gradientUnits="userSpaceOnUse">
            <stop stop-color="#5B3232"/>
            <stop offset="1" stop-color="#B37272"/>
        </linearGradient>
        <radialGradient id="paint5_radial_81_82" cx="0" cy="0" r="1" gradientUnits="userSpaceOnUse"
                        gradientTransform="translate(193.814 641.175) rotate(106.816) scale(115.318 130.212)">
            <stop stop-color="#FEA361"/>
            <stop offset="0.400562" stop-color="#FFD9A1"/>
            <stop offset="0.693294" stop-color="#CF671C"/>
            <stop offset="1" stop-color="#7C4300"/>
        </radialGradient>
        <linearGradient id="paint6_linear_81_82" x1="201.326" y1="612.605" x2="201.326" y2="649.495"
                        gradientUnits="userSpaceOnUse">
            <stop stop-color="#5F2A01"/>
            <stop offset="0.708508" stop-color="#C55703"/>
        </linearGradient>
        <linearGradient id="paint7_linear_81_82" x1="182.035" y1="608.572" x2="182.035" y2="636.748"
                        gradientUnits="userSpaceOnUse">
            <stop stop-color="#5F2A01"/>
            <stop offset="0.708508" stop-color="#C55703"/>
        </linearGradient>
        <linearGradient id="paint8_linear_81_82" x1="219.012" y1="619.866" x2="219.012" y2="648.042"
                        gradientUnits="userSpaceOnUse">
            <stop stop-color="#5F2A01"/>
            <stop offset="0.708508" stop-color="#C55703"/>
        </linearGradient>
        <radialGradient id="paint9_radial_81_82" cx="0" cy="0" r="1" gradientUnits="userSpaceOnUse"
                        gradientTransform="translate(1723.28 641.175) rotate(73.1835) scale(115.318 130.212)">
            <stop stop-color="#FFE142"/>
            <stop offset="0.400562" stop-color="#FFF5BF"/>
            <stop offset="0.693294" stop-color="#FFE142"/>
            <stop offset="1" stop-color="#DCBA09"/>
        </radialGradient>
        <radialGradient id="paint10_radial_81_82" cx="0" cy="0" r="1" gradientUnits="userSpaceOnUse"
                        gradientTransform="translate(1723.28 641.175) rotate(73.1835) scale(115.318 130.212)">
            <stop stop-color="#FFE142"/>
            <stop offset="0.400562" stop-color="#FFF5BF"/>
            <stop offset="0.693294" stop-color="#FFE142"/>
            <stop offset="1" stop-color="#DCBA09"/>
        </radialGradient>
        <linearGradient id="paint11_linear_81_82" x1="1778.05" y1="670.954" x2="1784.39" y2="609.434"
                        gradientUnits="userSpaceOnUse">
            <stop stop-color="#FFD15B"/>
            <stop offset="1" stop-color="#FFA800"/>
        </linearGradient>
        <linearGradient id="paint12_linear_81_82" x1="1746.85" y1="651.352" x2="1756.51" y2="665.955"
                        gradientUnits="userSpaceOnUse">
            <stop stop-color="#5B3232"/>
            <stop offset="1" stop-color="#B37272"/>
        </linearGradient>
        <linearGradient id="paint13_linear_81_82" x1="1690.52" y1="666.283" x2="1701.42" y2="679.992"
                        gradientUnits="userSpaceOnUse">
            <stop stop-color="#5B3232"/>
            <stop offset="1" stop-color="#B37272"/>
        </linearGradient>
        <radialGradient id="paint14_radial_81_82" cx="0" cy="0" r="1" gradientUnits="userSpaceOnUse"
                        gradientTransform="translate(870.951 623.178) rotate(30.9952) scale(231.738 304.528)">
            <stop stop-color="#FFECA1"/>
            <stop offset="0.400739" stop-color="#FEDB61"/>
            <stop offset="0.693294" stop-color="#FFC631"/>
            <stop offset="1" stop-color="#FFB704"/>
        </radialGradient>
        <linearGradient id="paint15_linear_81_82" x1="840.507" y1="557.639" x2="883.394" y2="561.853"
                        gradientUnits="userSpaceOnUse">
            <stop stop-color="#FFF500"/>
            <stop offset="1" stop-color="#FF7A30"/>
        </linearGradient>
        <linearGradient id="paint16_linear_81_82" x1="860.487" y1="581.358" x2="886.289" y2="549.51"
                        gradientUnits="userSpaceOnUse">
            <stop stop-color="#FFF500"/>
            <stop offset="1" stop-color="#FF7A30"/>
        </linearGradient>
        <linearGradient id="paint17_linear_81_82" x1="962.402" y1="546.607" x2="962.402" y2="598.27"
                        gradientUnits="userSpaceOnUse">
            <stop stop-color="#FF7A30"/>
            <stop offset="1" stop-color="#FFF500"/>
        </linearGradient>
        <radialGradient id="paint18_radial_81_82" cx="0" cy="0" r="1" gradientUnits="userSpaceOnUse"
                        gradientTransform="translate(964.622 439.923) rotate(91.8105) scale(140.433 158.571)">
            <stop stop-color="#FEDB61"/>
            <stop offset="0.400562" stop-color="#FFECA1"/>
            <stop offset="0.693294" stop-color="#FFC631"/>
            <stop offset="1" stop-color="#FFB704"/>
        </radialGradient>
        <linearGradient id="paint19_linear_81_82" x1="910.161" y1="460.49" x2="913.149" y2="481.607"
                        gradientUnits="userSpaceOnUse">
            <stop stop-color="#5B3232"/>
            <stop offset="1" stop-color="#B37272"/>
        </linearGradient>
        <linearGradient id="paint20_linear_81_82" x1="981.965" y1="460.49" x2="984.954" y2="481.607"
                        gradientUnits="userSpaceOnUse">
            <stop stop-color="#5B3232"/>
            <stop offset="1" stop-color="#B37272"/>
        </linearGradient>
        <linearGradient id="paint21_linear_81_82" x1="214.559" y1="786.291" x2="213.772" y2="966.333"
                        gradientUnits="userSpaceOnUse">
            <stop stop-color="white"/>
            <stop offset="1" stop-color="#FFF9E1"/>
        </linearGradient>
        <linearGradient id="paint22_linear_81_82" x1="1705.44" y1="786.291" x2="1706.23" y2="966.333"
                        gradientUnits="userSpaceOnUse">
            <stop stop-color="white"/>
            <stop offset="1" stop-color="#FFF9E1"/>
        </linearGradient>
    </defs>
</svg>
