<svg width="100%" height="100%" viewBox="0 0 375 740" fill="none" xmlns="http://www.w3.org/2000/svg">
    <g filter="url(#filter0_d_81_82)">
        <path fill-rule="evenodd" clip-rule="evenodd" d="M-10.0617 564.549H200.164C199.7 546.697 186.481 532.02 169.284 529.296C169.555 526.597 169.694 523.859 169.694 521.088C169.694 476.293 133.38 439.979 88.5849 439.979C77.2614 439.979 66.4798 442.3 56.6898 446.491C38.9595 423.105 10.8771 408 -20.7334 408C-21.2951 408 -21.8557 408.005 -22.4152 408.014C-22.9746 408.005 -23.5352 408 -24.097 408C-55.7074 408 -83.7899 423.105 -101.52 446.491C-111.31 442.3 -122.092 439.979 -133.415 439.979C-178.21 439.979 -214.524 476.293 -214.524 521.088C-214.524 523.859 -214.385 526.597 -214.114 529.296C-231.311 532.02 -244.53 546.697 -244.994 564.549H-34.7687H-10.0617Z" fill="url(#paint0_linear_81_82)" fill-opacity="0.8" shape-rendering="crispEdges"/>
    </g>
    <g filter="url(#filter1_d_81_82)">
        <path fill-rule="evenodd" clip-rule="evenodd" d="M409.778 564.549H620.004C619.54 546.697 606.321 532.02 589.124 529.296C589.395 526.597 589.534 523.859 589.534 521.088C589.534 476.293 553.22 439.979 508.425 439.979C497.101 439.979 486.32 442.3 476.53 446.491C458.799 423.105 430.717 408 399.106 408C398.545 408 397.984 408.005 397.425 408.014C396.865 408.005 396.305 408 395.743 408C364.132 408 336.05 423.105 318.32 446.491C308.53 442.3 297.748 439.979 286.425 439.979C241.629 439.979 205.316 476.293 205.316 521.088C205.316 523.859 205.455 526.597 205.726 529.296C188.529 532.02 175.31 546.697 174.846 564.549H385.071H409.778Z" fill="url(#paint1_linear_81_82)" fill-opacity="0.8" shape-rendering="crispEdges"/>
    </g>
    <g filter="url(#filter2_d_81_82)">
        <circle cx="183" cy="112" r="281" fill="#00E440"/>
    </g>
    <g filter="url(#filter3_ii_81_82)">
        <path d="M236.362 533.916H285.884C291.04 533.916 295.595 529.32 292.648 525.089C289.174 520.102 283.412 518.963 283.412 518.963C283.412 518.963 237.419 453.881 272.843 392.501C281.767 392.041 297.365 388.402 288.358 377.528C277.099 363.935 236.458 367.093 215.725 394.828L148.721 397.848C136.043 392.448 117.333 374.118 97.919 372.324C81.58 370.813 71.8315 388.525 89.9555 392.501C99.0316 394.492 111.237 412.141 120.025 425.46C91.8777 443.858 93.8 476.569 97.919 492.45C71.8864 496.404 79.4747 512.222 86.5229 519.636C87.0563 520.792 84.6545 522.766 81.0446 524.944C77.1976 527.264 78.6488 533.916 83.1416 533.916H125.033C128.702 533.916 131.244 530.329 131.347 526.661C131.737 512.78 147.189 507.49 155.724 507.292C195.779 506.365 223.279 521.61 231.363 531.281C232.623 532.789 234.397 533.916 236.362 533.916Z" fill="#D9D9D9"/>
        <path d="M236.362 533.916H285.884C291.04 533.916 295.595 529.32 292.648 525.089C289.174 520.102 283.412 518.963 283.412 518.963C283.412 518.963 237.419 453.881 272.843 392.501C281.767 392.041 297.365 388.402 288.358 377.528C277.099 363.935 236.458 367.093 215.725 394.828L148.721 397.848C136.043 392.448 117.333 374.118 97.919 372.324C81.58 370.813 71.8315 388.525 89.9555 392.501C99.0316 394.492 111.237 412.141 120.025 425.46C91.8777 443.858 93.8 476.569 97.919 492.45C71.8864 496.404 79.4747 512.222 86.5229 519.636C87.0563 520.792 84.6545 522.766 81.0446 524.944C77.1976 527.264 78.6488 533.916 83.1416 533.916H125.033C128.702 533.916 131.244 530.329 131.347 526.661C131.737 512.78 147.189 507.49 155.724 507.292C195.779 506.365 223.279 521.61 231.363 531.281C232.623 532.789 234.397 533.916 236.362 533.916Z" fill="url(#paint2_radial_81_82)"/>
    </g>
    <g filter="url(#filter4_d_81_82)">
        <path d="M119.853 414.702C130.422 409.936 136.784 412.032 138.643 413.675C142.431 416.375 142.85 419.415 142.015 421.953C140.867 425.442 137.266 427.375 133.813 428.627C114.288 435.708 104.131 424.786 104.786 417.885C104.804 417.695 105.102 417.621 105.26 417.728C106.548 418.601 110.637 418.858 119.853 414.702Z" fill="url(#paint3_linear_81_82)"/>
        <path d="M125.451 427.107C127.473 416.788 133.25 413.721 135.885 413.478C140.087 412.68 142.951 413.853 144.821 415.636C147.98 418.647 147.651 423.661 146.212 427.78C140.482 444.194 125.144 444.216 119.32 439.584C119.16 439.457 119.291 439.133 119.488 439.081C121.081 438.66 123.722 435.93 125.451 427.107Z" fill="url(#paint4_linear_81_82)"/>
        <path d="M182.908 461.65C159.363 451.529 141.16 424.129 137.156 413.048L231.444 411.469C225.562 435.791 200.333 452.753 185.311 461.495C184.576 461.923 183.69 461.986 182.908 461.65Z" fill="url(#paint5_linear_81_82)"/>
        <mask id="mask0_81_82" style="mask-type:alpha" maskUnits="userSpaceOnUse" x="137" y="411" width="95" height="51">
            <path d="M182.908 461.65C159.363 451.529 141.16 424.129 137.156 413.048L231.444 411.469C225.562 435.791 200.333 452.753 185.311 461.495C184.576 461.923 183.69 461.986 182.908 461.65Z" fill="#D9D9D9"/>
        </mask>
        <g mask="url(#mask0_81_82)">
            <circle cx="156.868" cy="414.184" r="8.84081" fill="#00E440"/>
            <circle cx="186.95" cy="446.632" r="6.36038" fill="#00E440"/>
            <circle cx="167.11" cy="440.618" r="5.08608" fill="#00E440"/>
            <circle cx="206.41" cy="428.522" r="8.75004" fill="#00E440"/>
            <circle cx="189.387" cy="421.314" r="5.08608" fill="#00E440"/>
        </g>
    </g>
    <g filter="url(#filter5_d_81_82)">
        <g filter="url(#filter6_ii_81_82)">
            <path fill-rule="evenodd" clip-rule="evenodd" d="M226.376 364.889C228.688 358.494 225.218 348.985 221.956 347.101C219.276 345.554 212.071 346.459 207.154 349.713C199.916 346.508 191.672 345 182.621 345C174.654 345 167.445 346.283 160.995 348.848C160.456 349.063 159.923 349.284 159.396 349.513C154.505 346.528 147.699 345.736 145.112 347.23C142.014 349.019 138.73 357.684 140.386 364.028C137.69 367.415 135.502 371.12 133.82 375.143C131.354 381.129 130.121 387.457 130.121 394.127C130.121 401.994 132.208 408.878 136.381 414.778C140.555 420.764 146.435 425.381 154.024 428.631C161.517 431.966 170.385 433.633 180.629 433.633C191.158 433.633 202.616 431.947 211.287 428.631C218.875 425.381 225.538 420.764 229.712 414.778C233.885 408.878 235.972 401.994 235.972 394.127C235.972 387.457 234.739 381.129 232.273 375.143C230.733 371.458 228.767 368.04 226.376 364.889Z" fill="url(#paint6_radial_81_82)"/>
        </g>
        <path d="M219.85 382.654C221.214 381.289 225.245 378.704 230.447 379.282" stroke="#DD9B1C" stroke-width="1.34485" stroke-linecap="round"/>
        <path d="M220.329 385.713C222.112 384.974 226.825 384.126 231.411 386.65" stroke="#DD9B1C" stroke-width="1.34485" stroke-linecap="round"/>
        <path d="M148.365 382.654C147 381.289 142.97 378.704 137.768 379.282" stroke="#DD9B1C" stroke-width="1.34485" stroke-linecap="round"/>
        <path d="M147.878 385.713C146.095 384.974 141.382 384.126 136.796 386.65" stroke="#DD9B1C" stroke-width="1.34485" stroke-linecap="round"/>
        <g filter="url(#filter7_d_81_82)">
            <path d="M180.312 370.218C182.497 374.309 180.403 379.946 175.993 378.508C173.054 377.55 169.125 375.934 164.404 375.934C160.153 375.934 156.656 377.245 153.908 378.206C148.882 379.963 146.142 373.772 149.13 369.365C152.143 364.923 158.065 361.858 164.404 361.858C171.277 361.858 177.583 365.108 180.312 370.218Z" fill="white"/>
        </g>
        <mask id="mask1_81_82" style="mask-type:alpha" maskUnits="userSpaceOnUse" x="147" y="361" width="35" height="18">
            <path d="M180.312 370.218C182.497 374.309 180.403 379.946 175.993 378.508C173.054 377.55 169.125 375.934 164.404 375.934C160.153 375.934 156.656 377.245 153.908 378.206C148.882 379.963 146.142 373.772 149.13 369.365C152.143 364.923 158.065 361.858 164.404 361.858C171.277 361.858 177.583 365.108 180.312 370.218Z" fill="#D9D9D9"/>
        </mask>
        <g mask="url(#mask1_81_82)">
            <path fill-rule="evenodd" clip-rule="evenodd" d="M156.928 375.346C159.233 375.346 161.14 372.206 161.458 368.12L158.614 366.916L161.458 365.712C161.14 361.627 159.233 358.486 156.928 358.486C154.4 358.486 152.352 362.26 152.352 366.916C152.352 371.572 154.4 375.346 156.928 375.346Z" fill="url(#paint7_linear_81_82)"/>
        </g>
        <ellipse cx="1.56898" cy="2.6897" rx="1.56898" ry="2.6897" transform="matrix(0.995211 -0.0977468 0.0977457 0.995211 154.113 365.57)" fill="#2A1515"/>
        <ellipse cx="1.25914" cy="1.21836" rx="1.25914" ry="1.21836" transform="matrix(0.995211 -0.0977468 0.0977457 0.995211 155.742 364.665)" fill="#FFFAEF"/>
        <g filter="url(#filter8_d_81_82)">
            <path d="M184.514 384.233C181.062 386.16 172.231 388.858 164.523 384.233" stroke="#674242" stroke-width="1.34485" stroke-linecap="round"/>
            <path d="M184.517 384.233C187.969 386.16 196.801 388.858 204.508 384.233" stroke="#674242" stroke-width="1.34485" stroke-linecap="round"/>
        </g>
        <g filter="url(#filter9_d_81_82)">
            <path d="M185.073 384.001C184.654 384.286 184.115 384.289 183.694 384.006C182.369 383.114 179.675 381.055 180.552 379.554C181.109 378.601 182.527 379.243 183.473 379.827C184.027 380.168 184.746 380.168 185.304 379.835C186.213 379.293 187.562 378.716 188.218 379.554C189.275 380.904 186.439 383.072 185.073 384.001Z" fill="#00E440"/>
        </g>
        <g filter="url(#filter10_d_81_82)">
            <path d="M220.206 370.218C222.391 374.309 220.297 379.946 215.888 378.508C212.948 377.55 209.019 375.934 204.299 375.934C200.048 375.934 196.551 377.245 193.803 378.206C188.777 379.963 186.036 373.772 189.025 369.365C192.038 364.923 197.959 361.858 204.299 361.858C211.172 361.858 217.477 365.108 220.206 370.218Z" fill="white"/>
        </g>
        <mask id="mask2_81_82" style="mask-type:alpha" maskUnits="userSpaceOnUse" x="187" y="361" width="35" height="18">
            <path d="M220.214 370.218C222.399 374.309 220.305 379.946 215.896 378.508C212.956 377.55 209.027 375.934 204.307 375.934C200.055 375.934 196.559 377.245 193.811 378.206C188.784 379.963 186.044 373.772 189.033 369.365C192.046 364.923 197.967 361.858 204.307 361.858C211.179 361.858 217.485 365.108 220.214 370.218Z" fill="#D9D9D9"/>
        </mask>
        <g mask="url(#mask2_81_82)">
            <path fill-rule="evenodd" clip-rule="evenodd" d="M196.83 375.346C199.135 375.346 201.043 372.206 201.36 368.12L198.516 366.916L201.36 365.712C201.043 361.627 199.135 358.486 196.83 358.486C194.303 358.486 192.254 362.26 192.254 366.916C192.254 371.572 194.303 375.346 196.83 375.346Z" fill="url(#paint8_linear_81_82)"/>
        </g>
        <ellipse cx="1.56898" cy="2.6897" rx="1.56898" ry="2.6897" transform="matrix(0.995211 -0.0977468 0.0977457 0.995211 194.012 365.57)" fill="#2A1515"/>
        <ellipse cx="1.25914" cy="1.21836" rx="1.25914" ry="1.21836" transform="matrix(0.995211 -0.0977468 0.0977457 0.995211 195.645 364.664)" fill="#FFFAEF"/>
    </g>
    <path fill-rule="evenodd" clip-rule="evenodd" d="M336.42 533.227C332.152 525.457 323.633 519.148 319 519.148C314.367 519.148 305.848 525.457 301.58 533.227H73.4203C69.152 525.457 60.6326 519.149 56.0001 519.149C51.3676 519.149 42.8482 525.457 38.5798 533.227H28.8914C23.9808 533.227 20 537.207 20 542.118V580.335C20 585.246 23.9808 589.227 28.8914 589.227H346.109C351.019 589.227 355 585.246 355 580.335V542.118C355 537.207 351.019 533.227 346.109 533.227H336.42Z" fill="#FFB704"/>
    <path d="M145.994 570.6C145.634 570.6 145.314 570.52 145.034 570.36C144.754 570.2 144.541 569.92 144.394 569.52C144.247 569.12 144.174 568.56 144.174 567.84C144.174 566.986 144.207 566.073 144.274 565.099C144.341 564.125 144.427 563.138 144.534 562.138C144.641 561.124 144.747 560.151 144.854 559.217H144.774C144.321 561.071 143.834 562.445 143.314 563.338C142.807 564.232 142.24 564.679 141.613 564.679C141.226 564.679 140.866 564.519 140.533 564.199C140.213 563.865 139.899 563.292 139.593 562.478C139.299 561.665 138.979 560.524 138.632 559.057H138.552C138.619 559.697 138.679 560.378 138.732 561.098C138.799 561.818 138.859 562.545 138.912 563.278C138.979 564.012 139.026 564.705 139.052 565.359C139.092 566.013 139.112 566.599 139.112 567.119C139.112 567.666 139.059 568.166 138.952 568.62C138.846 569.06 138.652 569.413 138.372 569.68C138.092 569.934 137.712 570.06 137.232 570.06C136.578 570.06 136.092 569.834 135.772 569.38C135.465 568.913 135.311 568.153 135.311 567.099C135.311 566.553 135.325 565.919 135.351 565.199C135.391 564.479 135.438 563.732 135.491 562.958C135.545 562.185 135.611 561.438 135.691 560.718C135.772 559.984 135.858 559.344 135.952 558.797C136.112 557.81 136.372 557.11 136.732 556.697C137.092 556.27 137.559 556.056 138.132 556.056C138.559 556.056 138.972 556.21 139.373 556.516C139.786 556.823 140.186 557.363 140.573 558.137C140.96 558.897 141.333 559.964 141.693 561.338H141.773C142.12 559.924 142.473 558.804 142.834 557.977C143.207 557.15 143.587 556.563 143.974 556.216C144.361 555.856 144.747 555.676 145.134 555.676C145.748 555.676 146.221 555.896 146.555 556.336C146.901 556.763 147.168 557.377 147.355 558.177C147.555 558.964 147.715 559.884 147.835 560.938C147.955 561.978 148.042 563.052 148.095 564.159C148.162 565.252 148.195 566.273 148.195 567.22C148.195 568.46 147.995 569.333 147.595 569.84C147.195 570.347 146.661 570.6 145.994 570.6ZM156.82 556.356C157.941 556.356 158.721 556.503 159.161 556.797C159.601 557.09 159.821 557.517 159.821 558.077C159.821 558.69 159.561 559.157 159.041 559.477C158.521 559.784 157.721 559.937 156.64 559.937C156.147 559.937 155.587 559.931 154.96 559.917C154.346 559.891 153.706 559.851 153.039 559.797L153.259 559.577C153.393 560.044 153.439 560.551 153.399 561.098C153.373 561.645 153.266 562.165 153.079 562.658L152.879 562.598C153.253 562.465 153.693 562.345 154.2 562.238C154.706 562.131 155.226 562.045 155.76 561.978C156.307 561.898 156.807 561.858 157.26 561.858C158.167 561.858 158.801 561.985 159.161 562.238C159.534 562.478 159.721 562.772 159.721 563.118C159.721 563.505 159.494 563.839 159.041 564.119C158.601 564.385 157.841 564.519 156.76 564.519C156.107 564.519 155.433 564.505 154.74 564.479C154.06 564.439 153.393 564.385 152.739 564.319L153.019 564.219C153.153 564.552 153.246 564.946 153.299 565.399C153.366 565.839 153.386 566.279 153.359 566.719C153.333 567.159 153.259 567.553 153.139 567.9L153.019 567.76C153.419 567.586 153.879 567.44 154.4 567.32C154.92 567.2 155.447 567.113 155.98 567.059C156.527 566.993 157.04 566.959 157.52 566.959C158.347 566.959 158.961 567.059 159.361 567.26C159.774 567.446 159.981 567.773 159.981 568.24C159.981 568.693 159.794 569.093 159.421 569.44C159.061 569.787 158.587 570.06 158.001 570.26C157.414 570.46 156.78 570.56 156.1 570.56C154.713 570.56 153.579 570.374 152.699 570C151.832 569.627 151.185 569.073 150.759 568.34C150.599 568.02 150.452 567.66 150.318 567.26C150.185 566.859 150.078 566.406 149.998 565.899C149.932 565.379 149.898 564.792 149.898 564.139C149.898 562.885 150.018 561.818 150.258 560.938C150.498 560.044 150.819 559.317 151.219 558.757C151.832 557.93 152.626 557.323 153.599 556.937C154.573 556.55 155.647 556.356 156.82 556.356ZM167.896 570.5C166.535 570.5 165.342 570.214 164.315 569.64C163.288 569.067 162.488 568.253 161.914 567.2C161.341 566.146 161.054 564.899 161.054 563.458C161.054 562.085 161.341 560.891 161.914 559.877C162.501 558.864 163.328 558.077 164.395 557.517C165.462 556.957 166.709 556.677 168.136 556.677C169.523 556.677 170.73 556.937 171.757 557.457C172.797 557.964 173.597 558.684 174.158 559.617C174.718 560.538 174.998 561.611 174.998 562.838C174.998 563.879 174.831 564.866 174.498 565.799C174.164 566.719 173.684 567.533 173.057 568.24C172.444 568.947 171.697 569.5 170.817 569.9C169.95 570.3 168.976 570.5 167.896 570.5ZM168.076 567.099C169.076 567.099 169.87 566.739 170.456 566.019C171.057 565.286 171.357 564.305 171.357 563.078C171.357 562.131 171.083 561.391 170.537 560.858C170.003 560.311 169.269 560.037 168.336 560.037C167.669 560.037 167.076 560.184 166.555 560.478C166.035 560.758 165.628 561.171 165.335 561.718C165.055 562.251 164.915 562.892 164.915 563.639C164.915 564.705 165.208 565.552 165.795 566.179C166.382 566.793 167.142 567.099 168.076 567.099ZM176.71 559.777C176.71 558.497 176.883 557.583 177.23 557.037C177.577 556.49 178.11 556.216 178.83 556.216C179.297 556.216 179.657 556.343 179.911 556.597C180.177 556.85 180.364 557.19 180.471 557.617C180.578 558.044 180.631 558.524 180.631 559.057C180.631 559.657 180.618 560.364 180.591 561.178C180.564 561.991 180.524 562.825 180.471 563.679C180.431 564.532 180.378 565.326 180.311 566.059H180.391C180.751 564.419 181.104 563.072 181.451 562.018C181.798 560.964 182.151 560.184 182.511 559.677C182.885 559.157 183.265 558.897 183.652 558.897C184.092 558.897 184.499 559.164 184.872 559.697C185.246 560.218 185.612 561.004 185.972 562.058C186.333 563.112 186.713 564.425 187.113 565.999H187.193C187.153 565.212 187.113 564.399 187.073 563.558C187.046 562.718 187.019 561.885 186.993 561.058C186.979 560.231 186.973 559.457 186.973 558.737C186.973 557.924 187.039 557.297 187.173 556.857C187.32 556.416 187.52 556.11 187.773 555.936C188.04 555.763 188.346 555.676 188.693 555.676C189.387 555.676 189.927 556.016 190.314 556.697C190.7 557.363 190.894 558.35 190.894 559.657C190.894 560.604 190.854 561.578 190.774 562.578C190.707 563.578 190.6 564.545 190.454 565.479C190.32 566.413 190.147 567.286 189.934 568.1C189.747 568.887 189.48 569.5 189.133 569.94C188.787 570.38 188.34 570.6 187.793 570.6C187.42 570.6 187.053 570.44 186.693 570.12C186.346 569.8 185.999 569.32 185.652 568.68C185.306 568.026 184.979 567.22 184.672 566.259C184.365 565.299 184.072 564.179 183.792 562.898H183.712C183.445 564.179 183.158 565.279 182.852 566.199C182.545 567.119 182.218 567.88 181.871 568.48C181.538 569.067 181.178 569.507 180.791 569.8C180.404 570.08 179.991 570.22 179.551 570.22C178.977 570.22 178.53 570.014 178.21 569.6C177.89 569.173 177.63 568.467 177.43 567.48C177.337 566.959 177.243 566.366 177.15 565.699C177.07 565.032 176.997 564.339 176.93 563.618C176.863 562.898 176.81 562.205 176.77 561.538C176.73 560.871 176.71 560.284 176.71 559.777ZM199.473 556.216C199.926 556.216 200.366 556.403 200.793 556.777C201.233 557.137 201.673 557.703 202.113 558.477C202.567 559.251 203.047 560.244 203.554 561.458C204.074 562.672 204.641 564.125 205.254 565.819H205.334C205.241 565.286 205.154 564.699 205.074 564.059C205.007 563.418 204.941 562.772 204.874 562.118C204.807 561.465 204.754 560.851 204.714 560.278C204.687 559.704 204.674 559.211 204.674 558.797C204.674 557.677 204.807 556.877 205.074 556.396C205.354 555.916 205.768 555.676 206.314 555.676C206.701 555.676 207.015 555.77 207.255 555.956C207.495 556.143 207.695 556.423 207.855 556.797C208.175 557.53 208.395 558.537 208.515 559.817C208.648 561.084 208.715 562.538 208.715 564.179C208.715 565.512 208.655 566.633 208.535 567.54C208.428 568.433 208.215 569.107 207.895 569.56C207.588 570.014 207.135 570.24 206.535 570.24C206.148 570.24 205.761 570.127 205.374 569.9C204.987 569.674 204.601 569.313 204.214 568.82C203.84 568.326 203.447 567.686 203.034 566.899C202.633 566.099 202.207 565.132 201.753 563.999C201.313 562.865 200.833 561.545 200.313 560.037H200.233C200.339 560.624 200.433 561.325 200.513 562.138C200.593 562.952 200.653 563.792 200.693 564.659C200.746 565.512 200.773 566.293 200.773 566.999C200.773 568.293 200.613 569.213 200.293 569.76C199.986 570.307 199.506 570.58 198.852 570.58C198.132 570.58 197.619 570.3 197.312 569.74C197.019 569.167 196.872 568.286 196.872 567.099C196.872 566.446 196.885 565.699 196.912 564.859C196.952 564.005 196.998 563.132 197.052 562.238C197.119 561.331 197.205 560.471 197.312 559.657C197.459 558.484 197.679 557.617 197.972 557.057C198.279 556.496 198.779 556.216 199.473 556.216ZM217.065 569.72C215.731 569.72 214.564 569.48 213.564 569C212.577 568.52 211.804 567.813 211.244 566.879C210.697 565.946 210.423 564.785 210.423 563.398C210.423 562.278 210.597 561.258 210.943 560.338C211.29 559.417 211.77 558.63 212.384 557.977C213.011 557.31 213.731 556.797 214.544 556.436C215.358 556.076 216.218 555.896 217.125 555.896C218.045 555.896 218.906 556.07 219.706 556.416C220.519 556.75 221.233 557.23 221.847 557.857C222.46 558.484 222.94 559.231 223.287 560.097C223.634 560.964 223.807 561.925 223.807 562.978C223.807 564.445 223.527 565.686 222.967 566.699C222.42 567.7 221.64 568.453 220.626 568.96C219.613 569.467 218.426 569.72 217.065 569.72ZM217.005 565.879C217.952 565.879 218.706 565.606 219.266 565.059C219.839 564.512 220.126 563.719 220.126 562.678C220.126 561.971 219.979 561.358 219.686 560.838C219.406 560.304 219.026 559.891 218.546 559.597C218.065 559.304 217.552 559.157 217.005 559.157C216.458 559.157 215.945 559.304 215.465 559.597C214.998 559.891 214.618 560.304 214.324 560.838C214.031 561.358 213.884 561.971 213.884 562.678C213.884 563.719 214.171 564.512 214.745 565.059C215.318 565.606 216.072 565.879 217.005 565.879ZM225.532 560.017C225.532 558.51 225.706 557.437 226.052 556.797C226.399 556.143 226.933 555.816 227.653 555.816C228.173 555.816 228.573 555.943 228.853 556.196C229.133 556.45 229.327 556.79 229.433 557.217C229.553 557.643 229.613 558.124 229.613 558.657C229.613 559.257 229.6 559.964 229.573 560.778C229.547 561.591 229.507 562.425 229.453 563.278C229.413 564.132 229.36 564.926 229.293 565.659H229.373C229.747 564.019 230.114 562.672 230.474 561.618C230.834 560.564 231.201 559.784 231.574 559.277C231.961 558.757 232.354 558.497 232.754 558.497C233.194 558.497 233.601 558.764 233.975 559.297C234.348 559.817 234.715 560.604 235.075 561.658C235.435 562.712 235.815 564.025 236.215 565.599H236.295C236.255 564.852 236.215 564.085 236.175 563.298C236.149 562.498 236.122 561.705 236.095 560.918C236.082 560.131 236.075 559.404 236.075 558.737C236.075 557.924 236.129 557.297 236.235 556.857C236.355 556.416 236.529 556.11 236.755 555.936C236.982 555.763 237.236 555.676 237.516 555.676C238.209 555.676 238.749 556.016 239.136 556.697C239.523 557.363 239.716 558.35 239.716 559.657C239.716 561.911 239.596 563.792 239.356 565.299C239.129 566.793 238.796 567.92 238.356 568.68C237.916 569.427 237.376 569.8 236.735 569.8C236.375 569.8 236.009 569.654 235.635 569.36C235.275 569.053 234.922 568.593 234.575 567.98C234.228 567.366 233.895 566.606 233.575 565.699C233.268 564.779 232.974 563.712 232.694 562.498H232.614C232.361 563.712 232.087 564.752 231.794 565.619C231.501 566.486 231.187 567.2 230.854 567.76C230.52 568.32 230.174 568.74 229.813 569.02C229.453 569.287 229.067 569.42 228.653 569.42C228.146 569.42 227.693 569.233 227.293 568.86C226.906 568.473 226.579 567.893 226.312 567.119C226.059 566.346 225.866 565.372 225.732 564.199C225.599 563.012 225.532 561.618 225.532 560.017Z" fill="#4B2828"/>
    <g filter="url(#filter11_d_81_82)">
        <g filter="url(#filter12_ii_81_82)">
            <path fill-rule="evenodd" clip-rule="evenodd" d="M98.6804 628.964C100.438 626.44 100.036 621.88 98.8314 620.675C97.8419 619.685 94.5884 619.237 92.0591 620.082C89.2718 617.834 85.8462 616.21 81.8916 615.149C78.4101 614.216 75.11 613.932 71.9912 614.298C71.7295 614.328 71.47 614.363 71.2125 614.401C69.4247 612.524 66.5437 611.381 65.2382 611.731C63.6748 612.149 61.2241 615.552 61.2055 618.519C59.6318 619.682 58.2423 621.044 57.0369 622.605C55.2581 624.931 53.9781 627.552 53.1969 630.466C52.2754 633.904 52.3809 637.156 53.5134 640.223C54.6359 643.328 56.6647 646.034 59.5997 648.343C62.4834 650.678 66.1632 652.445 70.6394 653.645C75.2399 654.879 80.4443 655.484 84.6214 655.05C88.3177 654.519 91.7703 653.282 94.2951 651.155C96.8098 649.066 98.528 646.303 99.4494 642.865C100.231 639.95 100.433 637.041 100.057 634.137C99.8152 632.345 99.3565 630.621 98.6804 628.964Z" fill="url(#paint9_radial_81_82)"/>
        </g>
        <path d="M93.7516 635.965C94.5078 635.528 96.5717 634.871 98.7772 635.733" stroke="#C35200" stroke-width="0.608392" stroke-linecap="round"/>
        <path d="M93.6035 637.357C94.4691 637.243 96.6276 637.425 98.3358 639.065" stroke="#C35200" stroke-width="0.608392" stroke-linecap="round"/>
        <path d="M62.5133 627.592C62.0768 626.835 60.6185 625.234 58.2776 624.877" stroke="#C35200" stroke-width="0.608392" stroke-linecap="round"/>
        <path d="M61.9417 628.871C61.2492 628.339 59.2892 627.417 56.9898 627.982" stroke="#C35200" stroke-width="0.608392" stroke-linecap="round"/>
        <g filter="url(#filter13_d_81_82)">
            <path d="M77.9337 625.899C78.4093 627.942 76.834 630.16 75.0756 629.016C73.9035 628.252 72.3759 627.086 70.3133 626.533C68.4556 626.035 66.7741 626.198 65.4609 626.296C63.0587 626.476 62.5864 623.449 64.4086 621.874C66.2454 620.286 69.1918 619.64 71.962 620.383C74.9651 621.188 77.3397 623.347 77.9337 625.899Z" fill="white"/>
        </g>
        <mask id="mask3_81_82" style="mask-type:alpha" maskUnits="userSpaceOnUse" x="63" y="620" width="16" height="10">
            <path d="M77.9376 625.899C78.4132 627.942 76.8379 630.16 75.0795 629.016C73.9074 628.252 72.3798 627.086 70.3172 626.533C68.4595 626.035 66.778 626.198 65.4648 626.296C63.0626 626.476 62.5903 623.449 64.4125 621.874C66.2493 620.286 69.1957 619.64 71.9659 620.383C74.969 621.188 77.3436 623.347 77.9376 625.899Z" fill="#D9D9D9"/>
        </mask>
        <g mask="url(#mask3_81_82)">
            <path fill-rule="evenodd" clip-rule="evenodd" d="M72.1554 626.215C72.9358 626.907 74.5239 626.416 75.8573 625.129L75.256 623.868L76.5801 624.313C77.6987 622.835 77.9955 621.2 77.2151 620.508C76.3596 619.75 74.5334 620.412 73.1362 621.988C71.739 623.564 71.2999 625.457 72.1554 626.215Z" fill="url(#paint10_linear_81_82)"/>
        </g>
        <ellipse cx="0.709789" cy="1.21679" rx="0.709789" ry="1.21679" transform="matrix(0.809541 0.587063 -0.587064 0.809541 74.1348 622.061)" fill="#2A1515"/>
        <ellipse cx="0.569617" cy="0.551172" rx="0.569617" ry="0.551172" transform="matrix(0.809541 0.587063 -0.587064 0.809541 74.959 622.243)" fill="#FFFAEF"/>
        <g filter="url(#filter14_d_81_82)">
            <path d="M78.1277 632.514C76.3935 632.952 72.2187 633.096 69.3926 630.173" stroke="#674242" stroke-width="0.608392" stroke-linecap="round"/>
            <path d="M78.1302 632.515C79.4129 633.761 82.9558 635.974 86.8652 634.856" stroke="#674242" stroke-width="0.608392" stroke-linecap="round"/>
        </g>
        <g filter="url(#filter15_d_81_82)">
            <path d="M78.3955 632.479C78.179 632.554 77.9428 632.492 77.7922 632.32C77.3175 631.775 76.3818 630.559 76.9409 630.006C77.2958 629.655 77.8402 630.102 78.1854 630.468C78.3871 630.681 78.7014 630.766 78.9843 630.686C79.4452 630.555 80.102 630.461 80.2906 630.904C80.5942 631.618 79.1012 632.233 78.3955 632.479Z" fill="#FF4B4B"/>
        </g>
        <g filter="url(#filter16_d_81_82)">
            <path d="M95.3673 630.572C95.8429 632.615 94.2676 634.833 92.5092 633.688C91.3371 632.925 89.8095 631.759 87.7469 631.206C85.8892 630.708 84.2077 630.871 82.8945 630.969C80.4923 631.148 80.02 628.122 81.8422 626.547C83.679 624.959 86.6254 624.313 89.3956 625.056C92.3987 625.861 94.7732 628.019 95.3673 630.572Z" fill="white"/>
        </g>
        <mask id="mask4_81_82" style="mask-type:alpha" maskUnits="userSpaceOnUse" x="80" y="624" width="16" height="11">
            <path d="M95.3712 630.573C95.8468 632.616 94.2715 634.834 92.5131 633.689C91.341 632.926 89.8134 631.76 87.7508 631.207C85.8931 630.709 84.2116 630.872 82.8984 630.97C80.4962 631.149 80.0239 628.123 81.8461 626.548C83.6829 624.96 86.6293 624.314 89.3995 625.057C92.4026 625.862 94.7772 628.02 95.3712 630.573Z" fill="#D9D9D9"/>
        </mask>
        <g mask="url(#mask4_81_82)">
            <path fill-rule="evenodd" clip-rule="evenodd" d="M89.0228 630.513C89.7402 631.27 91.3648 630.919 92.8049 629.752L92.3154 628.443L93.5958 629.002C94.8385 627.627 95.2762 626.023 94.5588 625.266C93.7723 624.436 91.8955 624.938 90.3668 626.387C88.838 627.836 88.2363 629.683 89.0228 630.513Z" fill="url(#paint11_linear_81_82)"/>
        </g>
        <ellipse cx="0.709789" cy="1.21679" rx="0.709789" ry="1.21679" transform="matrix(0.755521 0.655124 -0.655125 0.755521 91.3535 626.546)" fill="#2A1515"/>
        <ellipse cx="0.569617" cy="0.551172" rx="0.569617" ry="0.551172" transform="matrix(0.755521 0.655124 -0.655125 0.755521 92.1621 626.799)" fill="#FFFAEF"/>
        <mask id="mask5_81_82" style="mask-type:alpha" maskUnits="userSpaceOnUse" x="52" y="611" width="49" height="45">
            <path fill-rule="evenodd" clip-rule="evenodd" d="M98.6804 628.964C100.438 626.44 100.036 621.88 98.8314 620.675C97.8419 619.685 94.5884 619.237 92.0591 620.082C89.2718 617.834 85.8462 616.21 81.8916 615.149C78.4101 614.216 75.11 613.932 71.9912 614.298C71.7295 614.328 71.47 614.363 71.2125 614.401C69.4247 612.524 66.5437 611.381 65.2382 611.731C63.6748 612.149 61.2241 615.552 61.2055 618.519C59.6318 619.682 58.2423 621.044 57.0369 622.605C55.2581 624.931 53.9781 627.552 53.1969 630.466C52.2754 633.904 52.3809 637.156 53.5134 640.223C54.6359 643.328 56.6647 646.034 59.5997 648.343C62.4834 650.678 66.1632 652.445 70.6394 653.645C75.2399 654.879 80.4443 655.484 84.6214 655.05C88.3177 654.519 91.7703 653.282 94.2951 651.155C96.8098 649.066 98.528 646.303 99.4494 642.865C100.231 639.95 100.433 637.041 100.057 634.137C99.8152 632.345 99.3565 630.621 98.6804 628.964Z" fill="url(#paint12_radial_81_82)"/>
        </mask>
        <g mask="url(#mask5_81_82)">
            <rect x="82.0215" y="609.883" width="5.19853" height="11.2938" rx="2.59927" transform="rotate(18.5455 82.0215 609.883)" fill="url(#paint13_linear_81_82)"/>
            <rect x="76.7285" y="608.648" width="3.97056" height="8.626" rx="1.98528" transform="rotate(18.5455 76.7285 608.648)" fill="url(#paint14_linear_81_82)"/>
            <rect x="88.0488" y="612.106" width="3.97056" height="8.626" rx="1.98528" transform="rotate(18.5455 88.0488 612.106)" fill="url(#paint15_linear_81_82)"/>
        </g>
    </g>
    <g filter="url(#filter17_d_81_82)">
        <path fill-rule="evenodd" clip-rule="evenodd" d="M30.9227 718.176H165.974C165.676 706.708 157.184 697.279 146.137 695.529C146.311 693.795 146.4 692.036 146.4 690.256C146.4 661.479 123.072 638.151 94.2951 638.151C87.0208 638.151 80.0946 639.642 73.8054 642.334C62.4153 627.311 44.3749 617.607 24.0681 617.607C23.707 617.607 23.3468 617.61 22.9872 617.617C22.6277 617.61 22.2673 617.607 21.9063 617.607C1.59949 617.607 -16.4409 627.311 -27.831 642.334C-34.1202 639.642 -41.0464 638.151 -48.3207 638.151C-77.0976 638.151 -100.426 661.479 -100.426 690.256C-100.426 692.036 -100.337 693.795 -100.162 695.529C-111.21 697.279 -119.702 706.708 -120 718.176H15.0517H30.9227Z" fill="url(#paint16_linear_81_82)"/>
    </g>
    <g filter="url(#filter18_d_81_82)">
        <g filter="url(#filter19_ii_81_82)">
            <path fill-rule="evenodd" clip-rule="evenodd" d="M276.404 628.964C274.646 626.44 275.048 621.88 276.253 620.675C277.242 619.685 280.496 619.237 283.025 620.082C285.812 617.834 289.238 616.21 293.192 615.149C296.674 614.216 299.974 613.932 303.093 614.298C303.354 614.328 303.614 614.363 303.871 614.401C305.659 612.524 308.54 611.381 309.846 611.731C311.409 612.149 313.86 615.552 313.879 618.519C315.452 619.682 316.842 621.044 318.047 622.605C319.826 624.931 321.106 627.552 321.887 630.466C322.809 633.904 322.703 637.156 321.571 640.223C320.448 643.328 318.419 646.034 315.484 648.343C312.601 650.678 308.921 652.445 304.445 653.645C299.844 654.879 294.64 655.484 290.463 655.05C286.766 654.519 283.314 653.282 280.789 651.155C278.274 649.066 276.556 646.303 275.635 642.865C274.853 639.95 274.651 637.041 275.027 634.137C275.269 632.345 275.728 630.621 276.404 628.964Z" fill="url(#paint17_radial_81_82)"/>
        </g>
        <mask id="mask6_81_82" style="mask-type:alpha" maskUnits="userSpaceOnUse" x="274" y="611" width="49" height="45">
            <path fill-rule="evenodd" clip-rule="evenodd" d="M276.404 628.964C274.646 626.44 275.048 621.88 276.253 620.675C277.242 619.685 280.496 619.237 283.025 620.082C285.812 617.834 289.238 616.21 293.192 615.149C296.674 614.216 299.974 613.932 303.093 614.298C303.354 614.328 303.614 614.363 303.871 614.401C305.659 612.524 308.54 611.381 309.846 611.731C311.409 612.149 313.86 615.552 313.879 618.519C315.452 619.682 316.842 621.044 318.047 622.605C319.826 624.931 321.106 627.552 321.887 630.466C322.809 633.904 322.703 637.156 321.571 640.223C320.448 643.328 318.419 646.034 315.484 648.343C312.601 650.678 308.921 652.445 304.445 653.645C299.844 654.879 294.64 655.484 290.463 655.05C286.766 654.519 283.314 653.282 280.789 651.155C278.274 649.066 276.556 646.303 275.635 642.865C274.853 639.95 274.651 637.041 275.027 634.137C275.269 632.345 275.728 630.621 276.404 628.964Z" fill="url(#paint18_radial_81_82)"/>
        </mask>
        <g mask="url(#mask6_81_82)">
            <circle cx="311.035" cy="619.823" r="17.3823" fill="url(#paint19_linear_81_82)"/>
        </g>
        <path d="M281.336 635.965C280.58 635.528 278.516 634.871 276.311 635.733" stroke="#FFBC3B" stroke-width="0.608392" stroke-linecap="round"/>
        <path d="M281.484 637.357C280.619 637.243 278.46 637.425 276.752 639.065" stroke="#FFBC3B" stroke-width="0.608392" stroke-linecap="round"/>
        <path d="M312.575 627.592C313.011 626.835 314.469 625.234 316.81 624.877" stroke="#FFBC3B" stroke-width="0.608392" stroke-linecap="round"/>
        <path d="M313.146 628.871C313.839 628.339 315.799 627.417 318.098 627.982" stroke="#FFBC3B" stroke-width="0.608392" stroke-linecap="round"/>
        <g filter="url(#filter20_d_81_82)">
            <path d="M297.15 625.899C296.675 627.942 298.25 630.16 300.008 629.016C301.18 628.252 302.708 627.086 304.771 626.533C306.628 626.035 308.31 626.198 309.623 626.296C312.025 626.476 312.498 623.449 310.675 621.874C308.839 620.286 305.892 619.64 303.122 620.383C300.119 621.188 297.744 623.347 297.15 625.899Z" fill="white"/>
        </g>
        <mask id="mask7_81_82" style="mask-type:alpha" maskUnits="userSpaceOnUse" x="297" y="620" width="15" height="10">
            <path d="M297.15 625.9C296.675 627.943 298.25 630.161 300.008 629.017C301.18 628.253 302.708 627.087 304.771 626.534C306.628 626.036 308.31 626.199 309.623 626.297C312.025 626.477 312.498 623.45 310.675 621.875C308.839 620.287 305.892 619.641 303.122 620.384C300.119 621.189 297.744 623.347 297.15 625.9Z" fill="#D9D9D9"/>
        </mask>
        <g mask="url(#mask7_81_82)">
            <path fill-rule="evenodd" clip-rule="evenodd" d="M302.932 626.216C302.152 626.908 300.564 626.417 299.231 625.13L299.832 623.869L298.508 624.314C297.389 622.836 297.092 621.201 297.873 620.509C298.728 619.751 300.555 620.413 301.952 621.989C303.349 623.565 303.788 625.458 302.932 626.216Z" fill="url(#paint20_linear_81_82)"/>
        </g>
        <ellipse cx="0.709789" cy="1.21679" rx="0.709789" ry="1.21679" transform="matrix(-0.809541 0.587063 0.587064 0.809541 300.953 622.062)" fill="#2A1515"/>
        <ellipse cx="0.569617" cy="0.551172" rx="0.569617" ry="0.551172" transform="matrix(-0.809541 0.587063 0.587064 0.809541 300.129 622.244)" fill="#FFFAEF"/>
        <g filter="url(#filter21_d_81_82)">
            <path d="M296.96 632.515C298.694 632.953 302.869 633.097 305.695 630.174" stroke="#674242" stroke-width="0.608392" stroke-linecap="round"/>
            <path d="M296.958 632.516C295.675 633.762 292.132 635.975 288.223 634.857" stroke="#674242" stroke-width="0.608392" stroke-linecap="round"/>
        </g>
        <g filter="url(#filter22_d_81_82)">
            <path d="M296.692 632.479C296.909 632.554 297.145 632.492 297.296 632.32C297.77 631.775 298.706 630.559 298.147 630.006C297.792 629.655 297.248 630.102 296.903 630.468C296.701 630.681 296.386 630.766 296.104 630.686C295.643 630.555 294.986 630.461 294.797 630.904C294.494 631.618 295.987 632.233 296.692 632.479Z" fill="#4B2828"/>
        </g>
        <g filter="url(#filter23_d_81_82)">
            <path d="M279.725 630.572C279.249 632.615 280.824 634.833 282.583 633.688C283.755 632.925 285.282 631.759 287.345 631.206C289.203 630.708 290.884 630.871 292.197 630.969C294.599 631.148 295.072 628.122 293.25 626.547C291.413 624.959 288.466 624.313 285.696 625.056C282.693 625.861 280.319 628.019 279.725 630.572Z" fill="white"/>
        </g>
        <mask id="mask8_81_82" style="mask-type:alpha" maskUnits="userSpaceOnUse" x="279" y="624" width="16" height="11">
            <path d="M279.721 630.573C279.245 632.616 280.82 634.834 282.579 633.689C283.751 632.926 285.278 631.76 287.341 631.207C289.199 630.709 290.88 630.872 292.193 630.97C294.596 631.149 295.068 628.123 293.246 626.548C291.409 624.96 288.463 624.314 285.692 625.057C282.689 625.862 280.315 628.02 279.721 630.573Z" fill="#D9D9D9"/>
        </mask>
        <g mask="url(#mask8_81_82)">
            <path fill-rule="evenodd" clip-rule="evenodd" d="M286.069 630.513C285.352 631.27 283.727 630.919 282.287 629.752L282.776 628.443L281.496 629.002C280.253 627.627 279.816 626.023 280.533 625.266C281.319 624.436 283.196 624.938 284.725 626.387C286.254 627.836 286.855 629.683 286.069 630.513Z" fill="url(#paint21_linear_81_82)"/>
        </g>
        <ellipse cx="0.709789" cy="1.21679" rx="0.709789" ry="1.21679" transform="matrix(-0.755521 0.655124 0.655125 0.755521 283.734 626.546)" fill="#2A1515"/>
        <ellipse cx="0.569617" cy="0.551172" rx="0.569617" ry="0.551172" transform="matrix(-0.755521 0.655124 0.655125 0.755521 282.93 626.799)" fill="#FFFAEF"/>
    </g>
    <g filter="url(#filter24_d_81_82)">
        <path fill-rule="evenodd" clip-rule="evenodd" d="M345.052 718.176H210C210.298 706.708 218.79 697.279 229.838 695.529C229.664 693.795 229.574 692.036 229.574 690.256C229.574 661.479 252.903 638.151 281.68 638.151C288.954 638.151 295.88 639.642 302.169 642.334C313.559 627.311 331.6 617.607 351.907 617.607C352.268 617.607 352.628 617.61 352.987 617.617C353.347 617.61 353.707 617.607 354.068 617.607C374.375 617.607 392.416 627.311 403.806 642.334C410.095 639.642 417.021 638.151 424.295 638.151C453.072 638.151 476.4 661.479 476.4 690.256C476.4 692.036 476.311 693.795 476.137 695.529C487.185 697.279 495.677 706.708 495.975 718.176H360.923H345.052Z" fill="url(#paint22_linear_81_82)"/>
    </g>
    <g filter="url(#filter25_d_81_82)">
        <path d="M309.339 420.271L307.238 435.12C307.185 435.49 306.825 435.733 306.462 435.644L296.829 433.267C296.241 433.122 295.807 433.808 296.189 434.277L304.393 444.364C304.532 444.535 304.572 444.767 304.497 444.975L298.723 461.028C298.526 461.576 299.115 462.076 299.624 461.792L309.65 456.193C309.988 456.005 310.414 456.162 310.549 456.525L315.234 469.204C315.411 469.682 316.053 469.764 316.344 469.345L325.77 455.777C325.939 455.534 326.254 455.441 326.527 455.553L340.902 461.447C341.331 461.622 341.796 461.291 341.771 460.829L341.068 447.89C341.05 447.566 341.28 447.282 341.6 447.232L349.709 445.965C350.252 445.881 350.434 445.191 350.005 444.849L339.324 436.331C338.997 436.07 339.01 435.569 339.35 435.325L347.639 429.387C348.138 429.03 347.885 428.243 347.272 428.243H330.947C330.598 428.243 330.316 427.961 330.316 427.613V416.612C330.316 416.038 329.612 415.762 329.222 416.184L319.229 426.998C318.995 427.252 318.601 427.27 318.344 427.04L310.385 419.89C310.009 419.553 309.41 419.771 309.339 420.271Z" fill="#FFE459"/>
    </g>
    <path d="M313.129 438.334L314.863 441.487" stroke="#05C13A" stroke-width="1.89192" stroke-linecap="round"/>
    <path d="M318.02 435.812L319.754 438.965" stroke="#05C13A" stroke-width="1.89192" stroke-linecap="round"/>
    <path d="M315.442 445.811L320.024 448.859C320.383 449.097 320.869 448.914 320.982 448.498L322.88 441.487" stroke="#05C13A" stroke-width="1.89192" stroke-linecap="round"/>
    <g filter="url(#filter26_d_81_82)">
        <path d="M61.5394 462.239L63.6282 477C63.6802 477.368 64.0386 477.61 64.3991 477.521L73.9748 475.158C74.5589 475.014 74.991 475.696 74.6113 476.162L66.4563 486.189C66.3177 486.359 66.2784 486.59 66.3528 486.797L72.0917 502.754C72.2879 503.299 71.7022 503.796 71.1961 503.513L61.2307 497.948C60.8947 497.76 60.4705 497.917 60.337 498.278L55.6793 510.881C55.5036 511.357 54.8656 511.438 54.5765 511.022L45.206 497.534C45.0383 497.292 44.7253 497.2 44.4533 497.311L30.1644 503.17C29.7383 503.345 29.2756 503.016 29.3006 502.556L29.9996 489.694C30.0171 489.372 29.7884 489.09 29.4705 489.04L21.4095 487.781C20.8704 487.697 20.6888 487.012 21.1154 486.671L31.733 478.204C32.0582 477.945 32.0453 477.447 31.7073 477.204L23.4672 471.301C22.9718 470.946 23.2229 470.165 23.8323 470.165H40.0605C40.4068 470.165 40.6874 469.884 40.6874 469.538V458.602C40.6874 458.032 41.3876 457.758 41.7747 458.177L51.7086 468.927C51.9412 469.179 52.3329 469.197 52.5879 468.968L60.4998 461.861C60.8729 461.525 61.4691 461.742 61.5394 462.239Z" fill="#ADFE00"/>
    </g>
    <path d="M59.1797 483.329L56.0453 481.605" stroke="#FF7C04" stroke-width="1.88065" stroke-linecap="round"/>
    <path d="M52.9141 477.688L51.1901 480.822" stroke="#FF7C04" stroke-width="1.88065" stroke-linecap="round"/>
    <path d="M53.4204 487.373L50.9557 490.154C50.5731 490.586 49.8598 490.315 49.8597 489.738L49.8592 485.282" stroke="#FF7C04" stroke-width="1.88065" stroke-linecap="round"/>
    <defs>
        <filter id="filter0_d_81_82" x="-268.822" y="384.172" width="502.346" height="213.736" filterUnits="userSpaceOnUse" color-interpolation-filters="sRGB">
            <feFlood flood-opacity="0" result="BackgroundImageFix"/>
            <feColorMatrix in="SourceAlpha" type="matrix" values="0 0 0 0 0 0 0 0 0 0 0 0 0 0 0 0 0 0 127 0" result="hardAlpha"/>
            <feOffset dx="4.76562" dy="4.76562"/>
            <feGaussianBlur stdDeviation="14.2969"/>
            <feComposite in2="hardAlpha" operator="out"/>
            <feColorMatrix type="matrix" values="0 0 0 0 1 0 0 0 0 0.712579 0 0 0 0 0.154645 0 0 0 0.1 0"/>
            <feBlend mode="normal" in2="BackgroundImageFix" result="effect1_dropShadow_81_82"/>
            <feBlend mode="normal" in="SourceGraphic" in2="effect1_dropShadow_81_82" result="shape"/>
        </filter>
        <filter id="filter1_d_81_82" x="151.018" y="384.172" width="502.346" height="213.736" filterUnits="userSpaceOnUse" color-interpolation-filters="sRGB">
            <feFlood flood-opacity="0" result="BackgroundImageFix"/>
            <feColorMatrix in="SourceAlpha" type="matrix" values="0 0 0 0 0 0 0 0 0 0 0 0 0 0 0 0 0 0 127 0" result="hardAlpha"/>
            <feOffset dx="4.76562" dy="4.76562"/>
            <feGaussianBlur stdDeviation="14.2969"/>
            <feComposite in2="hardAlpha" operator="out"/>
            <feColorMatrix type="matrix" values="0 0 0 0 1 0 0 0 0 0.712579 0 0 0 0 0.154645 0 0 0 0.1 0"/>
            <feBlend mode="normal" in2="BackgroundImageFix" result="effect1_dropShadow_81_82"/>
            <feBlend mode="normal" in="SourceGraphic" in2="effect1_dropShadow_81_82" result="shape"/>
        </filter>
        <filter id="filter2_d_81_82" x="-142.457" y="-202.343" width="650.914" height="650.914" filterUnits="userSpaceOnUse" color-interpolation-filters="sRGB">
            <feFlood flood-opacity="0" result="BackgroundImageFix"/>
            <feColorMatrix in="SourceAlpha" type="matrix" values="0 0 0 0 0 0 0 0 0 0 0 0 0 0 0 0 0 0 127 0" result="hardAlpha"/>
            <feOffset dy="11.1143"/>
            <feGaussianBlur stdDeviation="22.2285"/>
            <feComposite in2="hardAlpha" operator="out"/>
            <feColorMatrix type="matrix" values="0 0 0 0 1 0 0 0 0 0.712579 0 0 0 0 0.154645 0 0 0 0.4 0"/>
            <feBlend mode="normal" in2="BackgroundImageFix" result="effect1_dropShadow_81_82"/>
            <feBlend mode="normal" in="SourceGraphic" in2="effect1_dropShadow_81_82" result="shape"/>
        </filter>
        <filter id="filter3_ii_81_82" x="73.3341" y="367.473" width="221.617" height="168.236" filterUnits="userSpaceOnUse" color-interpolation-filters="sRGB">
            <feFlood flood-opacity="0" result="BackgroundImageFix"/>
            <feBlend mode="normal" in="SourceGraphic" in2="BackgroundImageFix" result="shape"/>
            <feColorMatrix in="SourceAlpha" type="matrix" values="0 0 0 0 0 0 0 0 0 0 0 0 0 0 0 0 0 0 127 0" result="hardAlpha"/>
            <feOffset dx="1.37303" dy="2.47145"/>
            <feGaussianBlur stdDeviation="0.896565"/>
            <feComposite in2="hardAlpha" operator="arithmetic" k2="-1" k3="1"/>
            <feColorMatrix type="matrix" values="0 0 0 0 1 0 0 0 0 0.931289 0 0 0 0 0.687679 0 0 0 1 0"/>
            <feBlend mode="normal" in2="shape" result="effect1_innerShadow_81_82"/>
            <feColorMatrix in="SourceAlpha" type="matrix" values="0 0 0 0 0 0 0 0 0 0 0 0 0 0 0 0 0 0 127 0" result="hardAlpha"/>
            <feOffset dx="-5.49211" dy="-2.24141"/>
            <feGaussianBlur stdDeviation="4.48283"/>
            <feComposite in2="hardAlpha" operator="arithmetic" k2="-1" k3="1"/>
            <feColorMatrix type="matrix" values="0 0 0 0 0.820568 0 0 0 0 0.345077 0 0 0 0 0.0776136 0 0 0 0.4 0"/>
            <feBlend mode="normal" in2="effect1_innerShadow_81_82" result="effect2_innerShadow_81_82"/>
        </filter>
        <filter id="filter4_d_81_82" x="93.6416" y="403.65" width="148.916" height="72.624" filterUnits="userSpaceOnUse" color-interpolation-filters="sRGB">
            <feFlood flood-opacity="0" result="BackgroundImageFix"/>
            <feColorMatrix in="SourceAlpha" type="matrix" values="0 0 0 0 0 0 0 0 0 0 0 0 0 0 0 0 0 0 127 0" result="hardAlpha"/>
            <feOffset dy="3.29527"/>
            <feGaussianBlur stdDeviation="5.55713"/>
            <feComposite in2="hardAlpha" operator="out"/>
            <feColorMatrix type="matrix" values="0 0 0 0 0.758045 0 0 0 0 0.50031 0 0 0 0 0 0 0 0 0.4 0"/>
            <feBlend mode="normal" in2="BackgroundImageFix" result="effect1_dropShadow_81_82"/>
            <feBlend mode="normal" in="SourceGraphic" in2="effect1_dropShadow_81_82" result="shape"/>
        </filter>
        <filter id="filter5_d_81_82" x="126.194" y="342.172" width="118.099" height="100.881" filterUnits="userSpaceOnUse" color-interpolation-filters="sRGB">
            <feFlood flood-opacity="0" result="BackgroundImageFix"/>
            <feColorMatrix in="SourceAlpha" type="matrix" values="0 0 0 0 0 0 0 0 0 0 0 0 0 0 0 0 0 0 127 0" result="hardAlpha"/>
            <feOffset dx="2.19684" dy="3.29527"/>
            <feGaussianBlur stdDeviation="3.06185"/>
            <feComposite in2="hardAlpha" operator="out"/>
            <feColorMatrix type="matrix" values="0 0 0 0 0.480267 0 0 0 0 0.329356 0 0 0 0 0.0364119 0 0 0 0.3 0"/>
            <feBlend mode="normal" in2="BackgroundImageFix" result="effect1_dropShadow_81_82"/>
            <feBlend mode="normal" in="SourceGraphic" in2="effect1_dropShadow_81_82" result="shape"/>
        </filter>
        <filter id="filter6_ii_81_82" x="126.535" y="342.759" width="111.231" height="92.6683" filterUnits="userSpaceOnUse" color-interpolation-filters="sRGB">
            <feFlood flood-opacity="0" result="BackgroundImageFix"/>
            <feBlend mode="normal" in="SourceGraphic" in2="BackgroundImageFix" result="shape"/>
            <feColorMatrix in="SourceAlpha" type="matrix" values="0 0 0 0 0 0 0 0 0 0 0 0 0 0 0 0 0 0 127 0" result="hardAlpha"/>
            <feOffset dx="2.6897" dy="2.6897"/>
            <feGaussianBlur stdDeviation="0.896565"/>
            <feComposite in2="hardAlpha" operator="arithmetic" k2="-1" k3="1"/>
            <feColorMatrix type="matrix" values="0 0 0 0 1 0 0 0 0 0.931289 0 0 0 0 0.687679 0 0 0 1 0"/>
            <feBlend mode="normal" in2="shape" result="effect1_innerShadow_81_82"/>
            <feColorMatrix in="SourceAlpha" type="matrix" values="0 0 0 0 0 0 0 0 0 0 0 0 0 0 0 0 0 0 127 0" result="hardAlpha"/>
            <feOffset dx="-3.58626" dy="-2.24141"/>
            <feGaussianBlur stdDeviation="4.48283"/>
            <feComposite in2="hardAlpha" operator="arithmetic" k2="-1" k3="1"/>
            <feColorMatrix type="matrix" values="0 0 0 0 0.820568 0 0 0 0 0.345077 0 0 0 0 0.0776136 0 0 0 0.4 0"/>
            <feBlend mode="normal" in2="effect1_innerShadow_81_82" result="effect2_innerShadow_81_82"/>
        </filter>
        <filter id="filter7_d_81_82" x="143.408" y="357.376" width="42.2586" height="25.8446" filterUnits="userSpaceOnUse" color-interpolation-filters="sRGB">
            <feFlood flood-opacity="0" result="BackgroundImageFix"/>
            <feColorMatrix in="SourceAlpha" type="matrix" values="0 0 0 0 0 0 0 0 0 0 0 0 0 0 0 0 0 0 127 0" result="hardAlpha"/>
            <feOffset/>
            <feGaussianBlur stdDeviation="2.24141"/>
            <feComposite in2="hardAlpha" operator="out"/>
            <feColorMatrix type="matrix" values="0 0 0 0 0.963211 0 0 0 0 0.63965 0 0 0 0 0.011561 0 0 0 0.9 0"/>
            <feBlend mode="normal" in2="BackgroundImageFix" result="effect1_dropShadow_81_82"/>
            <feBlend mode="normal" in="SourceGraphic" in2="effect1_dropShadow_81_82" result="shape"/>
        </filter>
        <filter id="filter8_d_81_82" x="162.058" y="382.216" width="44.9144" height="7.4847" filterUnits="userSpaceOnUse" color-interpolation-filters="sRGB">
            <feFlood flood-opacity="0" result="BackgroundImageFix"/>
            <feColorMatrix in="SourceAlpha" type="matrix" values="0 0 0 0 0 0 0 0 0 0 0 0 0 0 0 0 0 0 127 0" result="hardAlpha"/>
            <feOffset dy="0.448283"/>
            <feGaussianBlur stdDeviation="0.896565"/>
            <feComposite in2="hardAlpha" operator="out"/>
            <feColorMatrix type="matrix" values="0 0 0 0 0.690477 0 0 0 0 0.547238 0 0 0 0 0.0393897 0 0 0 0.6 0"/>
            <feBlend mode="normal" in2="BackgroundImageFix" result="effect1_dropShadow_81_82"/>
            <feBlend mode="normal" in="SourceGraphic" in2="effect1_dropShadow_81_82" result="shape"/>
        </filter>
        <filter id="filter9_d_81_82" x="178.588" y="377.723" width="11.6546" height="8.73567" filterUnits="userSpaceOnUse" color-interpolation-filters="sRGB">
            <feFlood flood-opacity="0" result="BackgroundImageFix"/>
            <feColorMatrix in="SourceAlpha" type="matrix" values="0 0 0 0 0 0 0 0 0 0 0 0 0 0 0 0 0 0 127 0" result="hardAlpha"/>
            <feOffset dy="0.448283"/>
            <feGaussianBlur stdDeviation="0.896565"/>
            <feComposite in2="hardAlpha" operator="out"/>
            <feColorMatrix type="matrix" values="0 0 0 0 0.690477 0 0 0 0 0.547238 0 0 0 0 0.0393897 0 0 0 0.6 0"/>
            <feBlend mode="normal" in2="BackgroundImageFix" result="effect1_dropShadow_81_82"/>
            <feBlend mode="normal" in="SourceGraphic" in2="effect1_dropShadow_81_82" result="shape"/>
        </filter>
        <filter id="filter10_d_81_82" x="183.302" y="357.376" width="42.2586" height="25.8446" filterUnits="userSpaceOnUse" color-interpolation-filters="sRGB">
            <feFlood flood-opacity="0" result="BackgroundImageFix"/>
            <feColorMatrix in="SourceAlpha" type="matrix" values="0 0 0 0 0 0 0 0 0 0 0 0 0 0 0 0 0 0 127 0" result="hardAlpha"/>
            <feOffset/>
            <feGaussianBlur stdDeviation="2.24141"/>
            <feComposite in2="hardAlpha" operator="out"/>
            <feColorMatrix type="matrix" values="0 0 0 0 1 0 0 0 0 0.66 0 0 0 0 0 0 0 0 0.9 0"/>
            <feBlend mode="normal" in2="BackgroundImageFix" result="effect1_dropShadow_81_82"/>
            <feBlend mode="normal" in="SourceGraphic" in2="effect1_dropShadow_81_82" result="shape"/>
        </filter>
        <filter id="filter11_d_81_82" x="50.7997" y="610.388" width="53.2046" height="49.063" filterUnits="userSpaceOnUse" color-interpolation-filters="sRGB">
            <feFlood flood-opacity="0" result="BackgroundImageFix"/>
            <feColorMatrix in="SourceAlpha" type="matrix" values="0 0 0 0 0 0 0 0 0 0 0 0 0 0 0 0 0 0 127 0" result="hardAlpha"/>
            <feOffset dx="0.993824" dy="1.49074"/>
            <feGaussianBlur stdDeviation="1.38514"/>
            <feComposite in2="hardAlpha" operator="out"/>
            <feColorMatrix type="matrix" values="0 0 0 0 0.480267 0 0 0 0 0.329356 0 0 0 0 0.0364119 0 0 0 0.3 0"/>
            <feBlend mode="normal" in2="BackgroundImageFix" result="effect1_dropShadow_81_82"/>
            <feBlend mode="normal" in="SourceGraphic" in2="effect1_dropShadow_81_82" result="shape"/>
        </filter>
        <filter id="filter12_ii_81_82" x="50.9538" y="610.654" width="50.0976" height="45.3476" filterUnits="userSpaceOnUse" color-interpolation-filters="sRGB">
            <feFlood flood-opacity="0" result="BackgroundImageFix"/>
            <feBlend mode="normal" in="SourceGraphic" in2="BackgroundImageFix" result="shape"/>
            <feColorMatrix in="SourceAlpha" type="matrix" values="0 0 0 0 0 0 0 0 0 0 0 0 0 0 0 0 0 0 127 0" result="hardAlpha"/>
            <feOffset dx="1.21678" dy="1.21678"/>
            <feGaussianBlur stdDeviation="0.405595"/>
            <feComposite in2="hardAlpha" operator="arithmetic" k2="-1" k3="1"/>
            <feColorMatrix type="matrix" values="0 0 0 0 1 0 0 0 0 0.851256 0 0 0 0 0.713955 0 0 0 1 0"/>
            <feBlend mode="normal" in2="shape" result="effect1_innerShadow_81_82"/>
            <feColorMatrix in="SourceAlpha" type="matrix" values="0 0 0 0 0 0 0 0 0 0 0 0 0 0 0 0 0 0 127 0" result="hardAlpha"/>
            <feOffset dx="-1.62238" dy="-1.01399"/>
            <feGaussianBlur stdDeviation="2.02797"/>
            <feComposite in2="hardAlpha" operator="arithmetic" k2="-1" k3="1"/>
            <feColorMatrix type="matrix" values="0 0 0 0 0.820568 0 0 0 0 0.345077 0 0 0 0 0.0776136 0 0 0 0.4 0"/>
            <feBlend mode="normal" in2="effect1_innerShadow_81_82" result="effect2_innerShadow_81_82"/>
        </filter>
        <filter id="filter13_d_81_82" x="61.2709" y="618.048" width="18.7766" height="13.3079" filterUnits="userSpaceOnUse" color-interpolation-filters="sRGB">
            <feFlood flood-opacity="0" result="BackgroundImageFix"/>
            <feColorMatrix in="SourceAlpha" type="matrix" values="0 0 0 0 0 0 0 0 0 0 0 0 0 0 0 0 0 0 127 0" result="hardAlpha"/>
            <feOffset/>
            <feGaussianBlur stdDeviation="1.01399"/>
            <feComposite in2="hardAlpha" operator="out"/>
            <feColorMatrix type="matrix" values="0 0 0 0 0.818105 0 0 0 0 0.361767 0 0 0 0 0.031316 0 0 0 0.6 0"/>
            <feBlend mode="normal" in2="BackgroundImageFix" result="effect1_dropShadow_81_82"/>
            <feBlend mode="normal" in="SourceGraphic" in2="effect1_dropShadow_81_82" result="shape"/>
        </filter>
        <filter id="filter14_d_81_82" x="67.0599" y="627.841" width="22.138" height="9.6536" filterUnits="userSpaceOnUse" color-interpolation-filters="sRGB">
            <feFlood flood-opacity="0" result="BackgroundImageFix"/>
            <feColorMatrix in="SourceAlpha" type="matrix" values="0 0 0 0 0 0 0 0 0 0 0 0 0 0 0 0 0 0 127 0" result="hardAlpha"/>
            <feOffset/>
            <feGaussianBlur stdDeviation="1.01399"/>
            <feComposite in2="hardAlpha" operator="out"/>
            <feColorMatrix type="matrix" values="0 0 0 0 0.818105 0 0 0 0 0.361767 0 0 0 0 0.031316 0 0 0 0.6 0"/>
            <feBlend mode="normal" in2="BackgroundImageFix" result="effect1_dropShadow_81_82"/>
            <feBlend mode="normal" in="SourceGraphic" in2="effect1_dropShadow_81_82" result="shape"/>
        </filter>
        <filter id="filter15_d_81_82" x="75.9564" y="629.271" width="5.18488" height="4.25421" filterUnits="userSpaceOnUse" color-interpolation-filters="sRGB">
            <feFlood flood-opacity="0" result="BackgroundImageFix"/>
            <feColorMatrix in="SourceAlpha" type="matrix" values="0 0 0 0 0 0 0 0 0 0 0 0 0 0 0 0 0 0 127 0" result="hardAlpha"/>
            <feOffset dy="0.202797"/>
            <feGaussianBlur stdDeviation="0.405595"/>
            <feComposite in2="hardAlpha" operator="out"/>
            <feColorMatrix type="matrix" values="0 0 0 0 0.690477 0 0 0 0 0.547238 0 0 0 0 0.0393897 0 0 0 0.6 0"/>
            <feBlend mode="normal" in2="BackgroundImageFix" result="effect1_dropShadow_81_82"/>
            <feBlend mode="normal" in="SourceGraphic" in2="effect1_dropShadow_81_82" result="shape"/>
        </filter>
        <filter id="filter16_d_81_82" x="78.7044" y="622.721" width="18.7766" height="13.3079" filterUnits="userSpaceOnUse" color-interpolation-filters="sRGB">
            <feFlood flood-opacity="0" result="BackgroundImageFix"/>
            <feColorMatrix in="SourceAlpha" type="matrix" values="0 0 0 0 0 0 0 0 0 0 0 0 0 0 0 0 0 0 127 0" result="hardAlpha"/>
            <feOffset/>
            <feGaussianBlur stdDeviation="1.01399"/>
            <feComposite in2="hardAlpha" operator="out"/>
            <feColorMatrix type="matrix" values="0 0 0 0 0.818105 0 0 0 0 0.361767 0 0 0 0 0.031316 0 0 0 0.6 0"/>
            <feBlend mode="normal" in2="BackgroundImageFix" result="effect1_dropShadow_81_82"/>
            <feBlend mode="normal" in="SourceGraphic" in2="effect1_dropShadow_81_82" result="shape"/>
        </filter>
        <filter id="filter17_d_81_82" x="-135.307" y="602.3" width="322.712" height="137.306" filterUnits="userSpaceOnUse" color-interpolation-filters="sRGB">
            <feFlood flood-opacity="0" result="BackgroundImageFix"/>
            <feColorMatrix in="SourceAlpha" type="matrix" values="0 0 0 0 0 0 0 0 0 0 0 0 0 0 0 0 0 0 127 0" result="hardAlpha"/>
            <feOffset dx="3.06148" dy="3.06148"/>
            <feGaussianBlur stdDeviation="9.18444"/>
            <feComposite in2="hardAlpha" operator="out"/>
            <feColorMatrix type="matrix" values="0 0 0 0 1 0 0 0 0 0.712579 0 0 0 0 0.154645 0 0 0 0.2 0"/>
            <feBlend mode="normal" in2="BackgroundImageFix" result="effect1_dropShadow_81_82"/>
            <feBlend mode="normal" in="SourceGraphic" in2="effect1_dropShadow_81_82" result="shape"/>
        </filter>
        <filter id="filter18_d_81_82" x="273.067" y="610.388" width="53.2046" height="49.063" filterUnits="userSpaceOnUse" color-interpolation-filters="sRGB">
            <feFlood flood-opacity="0" result="BackgroundImageFix"/>
            <feColorMatrix in="SourceAlpha" type="matrix" values="0 0 0 0 0 0 0 0 0 0 0 0 0 0 0 0 0 0 127 0" result="hardAlpha"/>
            <feOffset dx="0.993824" dy="1.49074"/>
            <feGaussianBlur stdDeviation="1.38514"/>
            <feComposite in2="hardAlpha" operator="out"/>
            <feColorMatrix type="matrix" values="0 0 0 0 0.480267 0 0 0 0 0.329356 0 0 0 0 0.0364119 0 0 0 0.3 0"/>
            <feBlend mode="normal" in2="BackgroundImageFix" result="effect1_dropShadow_81_82"/>
            <feBlend mode="normal" in="SourceGraphic" in2="effect1_dropShadow_81_82" result="shape"/>
        </filter>
        <filter id="filter19_ii_81_82" x="273.221" y="610.654" width="50.0976" height="45.3476" filterUnits="userSpaceOnUse" color-interpolation-filters="sRGB">
            <feFlood flood-opacity="0" result="BackgroundImageFix"/>
            <feBlend mode="normal" in="SourceGraphic" in2="BackgroundImageFix" result="shape"/>
            <feColorMatrix in="SourceAlpha" type="matrix" values="0 0 0 0 0 0 0 0 0 0 0 0 0 0 0 0 0 0 127 0" result="hardAlpha"/>
            <feOffset dx="1.21678" dy="1.21678"/>
            <feGaussianBlur stdDeviation="0.405595"/>
            <feComposite in2="hardAlpha" operator="arithmetic" k2="-1" k3="1"/>
            <feColorMatrix type="matrix" values="0 0 0 0 1 0 0 0 0 0.965974 0 0 0 0 0.845336 0 0 0 1 0"/>
            <feBlend mode="normal" in2="shape" result="effect1_innerShadow_81_82"/>
            <feColorMatrix in="SourceAlpha" type="matrix" values="0 0 0 0 0 0 0 0 0 0 0 0 0 0 0 0 0 0 127 0" result="hardAlpha"/>
            <feOffset dx="-1.62238" dy="-1.01399"/>
            <feGaussianBlur stdDeviation="2.02797"/>
            <feComposite in2="hardAlpha" operator="arithmetic" k2="-1" k3="1"/>
            <feColorMatrix type="matrix" values="0 0 0 0 0.795582 0 0 0 0 0.668289 0 0 0 0 0 0 0 0 0.4 0"/>
            <feBlend mode="normal" in2="effect1_innerShadow_81_82" result="effect2_innerShadow_81_82"/>
        </filter>
        <filter id="filter20_d_81_82" x="295.036" y="618.048" width="18.7766" height="13.3079" filterUnits="userSpaceOnUse" color-interpolation-filters="sRGB">
            <feFlood flood-opacity="0" result="BackgroundImageFix"/>
            <feColorMatrix in="SourceAlpha" type="matrix" values="0 0 0 0 0 0 0 0 0 0 0 0 0 0 0 0 0 0 127 0" result="hardAlpha"/>
            <feOffset/>
            <feGaussianBlur stdDeviation="1.01399"/>
            <feComposite in2="hardAlpha" operator="out"/>
            <feColorMatrix type="matrix" values="0 0 0 0 0.818105 0 0 0 0 0.361767 0 0 0 0 0.031316 0 0 0 0.6 0"/>
            <feBlend mode="normal" in2="BackgroundImageFix" result="effect1_dropShadow_81_82"/>
            <feBlend mode="normal" in="SourceGraphic" in2="effect1_dropShadow_81_82" result="shape"/>
        </filter>
        <filter id="filter21_d_81_82" x="285.89" y="627.842" width="22.138" height="9.6536" filterUnits="userSpaceOnUse" color-interpolation-filters="sRGB">
            <feFlood flood-opacity="0" result="BackgroundImageFix"/>
            <feColorMatrix in="SourceAlpha" type="matrix" values="0 0 0 0 0 0 0 0 0 0 0 0 0 0 0 0 0 0 127 0" result="hardAlpha"/>
            <feOffset/>
            <feGaussianBlur stdDeviation="1.01399"/>
            <feComposite in2="hardAlpha" operator="out"/>
            <feColorMatrix type="matrix" values="0 0 0 0 0.818105 0 0 0 0 0.361767 0 0 0 0 0.031316 0 0 0 0.6 0"/>
            <feBlend mode="normal" in2="BackgroundImageFix" result="effect1_dropShadow_81_82"/>
            <feBlend mode="normal" in="SourceGraphic" in2="effect1_dropShadow_81_82" result="shape"/>
        </filter>
        <filter id="filter22_d_81_82" x="293.947" y="629.271" width="5.18488" height="4.25421" filterUnits="userSpaceOnUse" color-interpolation-filters="sRGB">
            <feFlood flood-opacity="0" result="BackgroundImageFix"/>
            <feColorMatrix in="SourceAlpha" type="matrix" values="0 0 0 0 0 0 0 0 0 0 0 0 0 0 0 0 0 0 127 0" result="hardAlpha"/>
            <feOffset dy="0.202797"/>
            <feGaussianBlur stdDeviation="0.405595"/>
            <feComposite in2="hardAlpha" operator="out"/>
            <feColorMatrix type="matrix" values="0 0 0 0 0.690477 0 0 0 0 0.547238 0 0 0 0 0.0393897 0 0 0 0.6 0"/>
            <feBlend mode="normal" in2="BackgroundImageFix" result="effect1_dropShadow_81_82"/>
            <feBlend mode="normal" in="SourceGraphic" in2="effect1_dropShadow_81_82" result="shape"/>
        </filter>
        <filter id="filter23_d_81_82" x="277.611" y="622.721" width="18.7766" height="13.3079" filterUnits="userSpaceOnUse" color-interpolation-filters="sRGB">
            <feFlood flood-opacity="0" result="BackgroundImageFix"/>
            <feColorMatrix in="SourceAlpha" type="matrix" values="0 0 0 0 0 0 0 0 0 0 0 0 0 0 0 0 0 0 127 0" result="hardAlpha"/>
            <feOffset/>
            <feGaussianBlur stdDeviation="1.01399"/>
            <feComposite in2="hardAlpha" operator="out"/>
            <feColorMatrix type="matrix" values="0 0 0 0 0.818105 0 0 0 0 0.361767 0 0 0 0 0.031316 0 0 0 0.6 0"/>
            <feBlend mode="normal" in2="BackgroundImageFix" result="effect1_dropShadow_81_82"/>
            <feBlend mode="normal" in="SourceGraphic" in2="effect1_dropShadow_81_82" result="shape"/>
        </filter>
        <filter id="filter24_d_81_82" x="194.693" y="602.3" width="322.712" height="137.306" filterUnits="userSpaceOnUse" color-interpolation-filters="sRGB">
            <feFlood flood-opacity="0" result="BackgroundImageFix"/>
            <feColorMatrix in="SourceAlpha" type="matrix" values="0 0 0 0 0 0 0 0 0 0 0 0 0 0 0 0 0 0 127 0" result="hardAlpha"/>
            <feOffset dx="3.06148" dy="3.06148"/>
            <feGaussianBlur stdDeviation="9.18444"/>
            <feComposite in2="hardAlpha" operator="out"/>
            <feColorMatrix type="matrix" values="0 0 0 0 1 0 0 0 0 0.712579 0 0 0 0 0.154645 0 0 0 0.2 0"/>
            <feBlend mode="normal" in2="BackgroundImageFix" result="effect1_dropShadow_81_82"/>
            <feBlend mode="normal" in="SourceGraphic" in2="effect1_dropShadow_81_82" result="shape"/>
        </filter>
        <filter id="filter25_d_81_82" x="296.045" y="415.979" width="56.0911" height="55.5286" filterUnits="userSpaceOnUse" color-interpolation-filters="sRGB">
            <feFlood flood-opacity="0" result="BackgroundImageFix"/>
            <feColorMatrix in="SourceAlpha" type="matrix" values="0 0 0 0 0 0 0 0 0 0 0 0 0 0 0 0 0 0 127 0" result="hardAlpha"/>
            <feOffset dx="1.89192" dy="1.89192"/>
            <feComposite in2="hardAlpha" operator="out"/>
            <feColorMatrix type="matrix" values="0 0 0 0 1 0 0 0 0 0.48 0 0 0 0 0 0 0 0 1 0"/>
            <feBlend mode="normal" in2="BackgroundImageFix" result="effect1_dropShadow_81_82"/>
            <feBlend mode="normal" in="SourceGraphic" in2="effect1_dropShadow_81_82" result="shape"/>
        </filter>
        <filter id="filter26_d_81_82" x="18.9983" y="457.974" width="55.7557" height="55.198" filterUnits="userSpaceOnUse" color-interpolation-filters="sRGB">
            <feFlood flood-opacity="0" result="BackgroundImageFix"/>
            <feColorMatrix in="SourceAlpha" type="matrix" values="0 0 0 0 0 0 0 0 0 0 0 0 0 0 0 0 0 0 127 0" result="hardAlpha"/>
            <feOffset dx="-1.88065" dy="1.88065"/>
            <feComposite in2="hardAlpha" operator="out"/>
            <feColorMatrix type="matrix" values="0 0 0 0 0 0 0 0 0 0.894118 0 0 0 0 0.25098 0 0 0 1 0"/>
            <feBlend mode="normal" in2="BackgroundImageFix" result="effect1_dropShadow_81_82"/>
            <feBlend mode="normal" in="SourceGraphic" in2="effect1_dropShadow_81_82" result="shape"/>
        </filter>
        <linearGradient id="paint0_linear_81_82" x1="79.8358" y1="478.747" x2="79.4605" y2="564.549" gradientUnits="userSpaceOnUse">
            <stop stop-color="white"/>
            <stop offset="1" stop-color="#FFF9E1"/>
        </linearGradient>
        <linearGradient id="paint1_linear_81_82" x1="499.676" y1="478.747" x2="499.3" y2="564.549" gradientUnits="userSpaceOnUse">
            <stop stop-color="white"/>
            <stop offset="1" stop-color="#FFF9E1"/>
        </linearGradient>
        <radialGradient id="paint2_radial_81_82" cx="0" cy="0" r="1" gradientUnits="userSpaceOnUse" gradientTransform="translate(133.48 454.019) rotate(30.9952) scale(128.78 169.23)">
            <stop stop-color="#FFECA1"/>
            <stop offset="0.400739" stop-color="#FEDB61"/>
            <stop offset="0.693294" stop-color="#FFC631"/>
            <stop offset="1" stop-color="#FFB704"/>
        </radialGradient>
        <linearGradient id="paint3_linear_81_82" x1="116.56" y1="417.599" x2="140.393" y2="419.941" gradientUnits="userSpaceOnUse">
            <stop stop-color="#FFF500"/>
            <stop offset="1" stop-color="#FF7A30"/>
        </linearGradient>
        <linearGradient id="paint4_linear_81_82" x1="127.662" y1="430.779" x2="142" y2="413.081" gradientUnits="userSpaceOnUse">
            <stop stop-color="#FFF500"/>
            <stop offset="1" stop-color="#FF7A30"/>
        </linearGradient>
        <linearGradient id="paint5_linear_81_82" x1="184.3" y1="411.469" x2="184.3" y2="440.178" gradientUnits="userSpaceOnUse">
            <stop stop-color="#FF7A30"/>
            <stop offset="1" stop-color="#FFF500"/>
        </linearGradient>
        <radialGradient id="paint6_radial_81_82" cx="0" cy="0" r="1" gradientUnits="userSpaceOnUse" gradientTransform="translate(185.536 352.182) rotate(91.8105) scale(78.0404 88.1198)">
            <stop stop-color="#FEDB61"/>
            <stop offset="0.400562" stop-color="#FFECA1"/>
            <stop offset="0.693294" stop-color="#FFC631"/>
            <stop offset="1" stop-color="#FFB704"/>
        </radialGradient>
        <linearGradient id="paint7_linear_81_82" x1="155.267" y1="363.611" x2="156.928" y2="375.346" gradientUnits="userSpaceOnUse">
            <stop stop-color="#5B3232"/>
            <stop offset="1" stop-color="#B37272"/>
        </linearGradient>
        <linearGradient id="paint8_linear_81_82" x1="195.169" y1="363.611" x2="196.83" y2="375.346" gradientUnits="userSpaceOnUse">
            <stop stop-color="#5B3232"/>
            <stop offset="1" stop-color="#B37272"/>
        </linearGradient>
        <radialGradient id="paint9_radial_81_82" cx="0" cy="0" r="1" gradientUnits="userSpaceOnUse" gradientTransform="translate(82.3242 618.629) rotate(106.816) scale(35.3045 39.8643)">
            <stop stop-color="#FEA361"/>
            <stop offset="0.400562" stop-color="#FFD9A1"/>
            <stop offset="0.693294" stop-color="#CF671C"/>
            <stop offset="1" stop-color="#7C4300"/>
        </radialGradient>
        <linearGradient id="paint10_linear_81_82" x1="75.115" y1="621.744" x2="72.1555" y2="626.215" gradientUnits="userSpaceOnUse">
            <stop stop-color="#5B3232"/>
            <stop offset="1" stop-color="#B37272"/>
        </linearGradient>
        <linearGradient id="paint11_linear_81_82" x1="92.3593" y1="626.316" x2="89.0228" y2="630.513" gradientUnits="userSpaceOnUse">
            <stop stop-color="#5B3232"/>
            <stop offset="1" stop-color="#B37272"/>
        </linearGradient>
        <radialGradient id="paint12_radial_81_82" cx="0" cy="0" r="1" gradientUnits="userSpaceOnUse" gradientTransform="translate(82.3242 618.629) rotate(106.816) scale(35.3045 39.8643)">
            <stop stop-color="#FEA361"/>
            <stop offset="0.400562" stop-color="#FFD9A1"/>
            <stop offset="0.693294" stop-color="#CF671C"/>
            <stop offset="1" stop-color="#7C4300"/>
        </radialGradient>
        <linearGradient id="paint13_linear_81_82" x1="84.6208" y1="609.883" x2="84.6208" y2="621.177" gradientUnits="userSpaceOnUse">
            <stop stop-color="#5F2A01"/>
            <stop offset="0.708508" stop-color="#C55703"/>
        </linearGradient>
        <linearGradient id="paint14_linear_81_82" x1="78.7138" y1="608.648" x2="78.7138" y2="617.274" gradientUnits="userSpaceOnUse">
            <stop stop-color="#5F2A01"/>
            <stop offset="0.708508" stop-color="#C55703"/>
        </linearGradient>
        <linearGradient id="paint15_linear_81_82" x1="90.0341" y1="612.106" x2="90.0341" y2="620.732" gradientUnits="userSpaceOnUse">
            <stop stop-color="#5F2A01"/>
            <stop offset="0.708508" stop-color="#C55703"/>
        </linearGradient>
        <linearGradient id="paint16_linear_81_82" x1="88.6745" y1="663.056" x2="88.4334" y2="718.176" gradientUnits="userSpaceOnUse">
            <stop stop-color="white"/>
            <stop offset="1" stop-color="#FFF9E1"/>
        </linearGradient>
        <radialGradient id="paint17_radial_81_82" cx="0" cy="0" r="1" gradientUnits="userSpaceOnUse" gradientTransform="translate(292.76 618.629) rotate(73.1835) scale(35.3045 39.8643)">
            <stop stop-color="#FFE142"/>
            <stop offset="0.400562" stop-color="#FFF5BF"/>
            <stop offset="0.693294" stop-color="#FFE142"/>
            <stop offset="1" stop-color="#DCBA09"/>
        </radialGradient>
        <radialGradient id="paint18_radial_81_82" cx="0" cy="0" r="1" gradientUnits="userSpaceOnUse" gradientTransform="translate(292.76 618.629) rotate(73.1835) scale(35.3045 39.8643)">
            <stop stop-color="#FFE142"/>
            <stop offset="0.400562" stop-color="#FFF5BF"/>
            <stop offset="0.693294" stop-color="#FFE142"/>
            <stop offset="1" stop-color="#DCBA09"/>
        </radialGradient>
        <linearGradient id="paint19_linear_81_82" x1="309.525" y1="627.746" x2="311.467" y2="608.911" gradientUnits="userSpaceOnUse">
            <stop stop-color="#FFD15B"/>
            <stop offset="1" stop-color="#FFA800"/>
        </linearGradient>
        <linearGradient id="paint20_linear_81_82" x1="299.973" y1="621.745" x2="302.932" y2="626.216" gradientUnits="userSpaceOnUse">
            <stop stop-color="#5B3232"/>
            <stop offset="1" stop-color="#B37272"/>
        </linearGradient>
        <linearGradient id="paint21_linear_81_82" x1="282.732" y1="626.316" x2="286.069" y2="630.513" gradientUnits="userSpaceOnUse">
            <stop stop-color="#5B3232"/>
            <stop offset="1" stop-color="#B37272"/>
        </linearGradient>
        <linearGradient id="paint22_linear_81_82" x1="287.3" y1="663.056" x2="287.541" y2="718.176" gradientUnits="userSpaceOnUse">
            <stop stop-color="white"/>
            <stop offset="1" stop-color="#FFF9E1"/>
        </linearGradient>
    </defs>
</svg>
