<svg width="315" height="167" viewBox="0 0 315 167" fill="none" xmlns="http://www.w3.org/2000/svg">
    <g filter="url(#filter0_ii_169_1028)">
        <path d="M224.57 38.512C214.81 32.0056 203.304 28.5261 198.375 29.2213C197.174 36.1729 196.592 49.3936 203.873 46.6635C211.153 43.9335 223.337 52.7304 228.519 57.4701C239.895 65.8121 266.93 80.638 284.069 73.2061C305.493 63.9162 288.051 43.4405 275.917 53.8679C263.783 64.2954 239.927 48.7496 224.57 38.512Z" fill="#D9D9D9"/>
        <path d="M224.57 38.512C214.81 32.0056 203.304 28.5261 198.375 29.2213C197.174 36.1729 196.592 49.3936 203.873 46.6635C211.153 43.9335 223.337 52.7304 228.519 57.4701C239.895 65.8121 266.93 80.638 284.069 73.2061C305.493 63.9162 288.051 43.4405 275.917 53.8679C263.783 64.2954 239.927 48.7496 224.57 38.512Z" fill="url(#paint0_radial_169_1028)"/>
    </g>
    <g filter="url(#filter1_ii_169_1028)">
        <path d="M111.573 42.806C93.8274 54.7881 77.1309 60.5642 71.0008 61.9546L38.3919 113.523L22.0866 124.898C17.0815 140.975 40.6032 134.631 52.9898 129.448C77.0045 116.24 119.498 97.1803 97.3538 126.605C75.2097 156.029 97.6066 150.493 111.573 144.047C190.442 94.9432 216.227 112.385 246.751 106.508C277.274 100.631 259.832 91.7201 246.751 86.9804C236.285 83.1886 229.119 78.3225 226.844 76.3634C229.454 53.6515 213.84 31.571 192.703 22.8606C158.996 8.97027 129.048 31.0066 111.573 42.806Z" fill="#D9D9D9"/>
        <path d="M111.573 42.806C93.8274 54.7881 77.1309 60.5642 71.0008 61.9546L38.3919 113.523L22.0866 124.898C17.0815 140.975 40.6032 134.631 52.9898 129.448C77.0045 116.24 119.498 97.1803 97.3538 126.605C75.2097 156.029 97.6066 150.493 111.573 144.047C190.442 94.9432 216.227 112.385 246.751 106.508C277.274 100.631 259.832 91.7201 246.751 86.9804C236.285 83.1886 229.119 78.3225 226.844 76.3634C229.454 53.6515 213.84 31.571 192.703 22.8606C158.996 8.97027 129.048 31.0066 111.573 42.806Z" fill="url(#paint1_radial_169_1028)"/>
    </g>
    <g filter="url(#filter2_ii_169_1028)">
        <path fill-rule="evenodd" clip-rule="evenodd" d="M111.456 76.7391C113.966 71.573 111.901 63.2767 109.329 61.4033C107.216 59.8644 101.082 59.9809 96.6612 62.2749C90.8664 58.9367 84.0752 56.9339 76.472 56.1259C69.778 55.4145 63.607 55.8486 57.959 57.428C57.4861 57.5603 57.0182 57.6989 56.5552 57.8439C52.712 54.8994 47.0646 53.6266 44.7575 54.6506C41.9947 55.8768 38.4612 62.8648 39.2871 68.3432C36.7206 70.9477 34.5515 73.8646 32.7799 77.0938C30.1735 81.9028 28.5725 87.1091 27.977 92.713C27.2746 99.3226 28.4132 105.292 31.3928 110.622C34.3647 116.024 38.8933 120.429 44.9784 123.836C50.9762 127.307 58.2783 129.5 66.8849 130.415C75.7306 131.355 85.508 130.961 93.0889 128.949C99.7542 126.896 105.765 123.612 109.806 118.955C113.839 114.371 116.207 108.773 116.909 102.164C117.505 96.56 117.034 91.1334 115.496 85.8841C114.531 82.6494 113.184 79.6011 111.456 76.7391Z" fill="url(#paint2_linear_169_1028)"/>
    </g>
    <path d="M52.6517 98.7546C56.7562 100.472 58.5762 101.835 61.3345 104.965" stroke="black" stroke-width="1.95264" stroke-linecap="round"/>
    <path d="M81.8448 105.324C77.4044 105.046 75.1687 105.462 71.3095 107.047" stroke="black" stroke-width="1.95264" stroke-linecap="round"/>
    <path d="M87.3147 117.053C88.329 116.423 91.121 115.432 94.1741 116.513" stroke="#DD9B1C" stroke-width="0.83208" stroke-linecap="round"/>
    <path d="M87.1787 118.962C88.3569 118.768 91.3155 118.92 93.7234 121.086" stroke="#DD9B1C" stroke-width="0.83208" stroke-linecap="round"/>
    <path d="M44.2385 106.995C43.6082 105.98 41.5437 103.856 38.3279 103.472" stroke="#DD9B1C" stroke-width="0.83208" stroke-linecap="round"/>
    <path d="M43.5207 108.77C42.5505 108.074 39.8304 106.901 36.7123 107.776" stroke="#DD9B1C" stroke-width="0.83208" stroke-linecap="round"/>
    <g filter="url(#filter3_d_169_1028)">
        <path d="M65.7858 113.021C64.4551 113.403 61.2288 113.619 58.9688 111.429" stroke="#674242" stroke-width="1.30176" stroke-linecap="round"/>
        <path d="M65.7884 113.022C66.8122 113.954 69.609 115.577 72.6055 114.614" stroke="#674242" stroke-width="1.30176" stroke-linecap="round"/>
    </g>
    <g filter="url(#filter4_d_169_1028)">
        <path d="M66.2356 112.602C65.9427 112.714 65.6159 112.64 65.4015 112.411C64.6753 111.636 63.1565 109.819 63.9797 108.95C64.5098 108.391 65.382 109.088 65.9139 109.628C66.1963 109.914 66.6303 110.016 67.012 109.889C67.6977 109.662 68.7299 109.457 69.0437 110.133C69.5405 111.202 67.2616 112.21 66.2356 112.602Z" fill="#00E440"/>
    </g>
    <mask id="mask0_169_1028" style="mask-type:alpha" maskUnits="userSpaceOnUse" x="27" y="54" width="91" height="77">
        <path fill-rule="evenodd" clip-rule="evenodd" d="M111.457 76.7391C113.968 71.573 111.903 63.2767 109.331 61.4033C107.218 59.8644 101.084 59.9809 96.6631 62.2749C90.8684 58.9367 84.0772 56.9339 76.474 56.1259C69.7799 55.4145 63.6089 55.8486 57.9609 57.428C57.4881 57.5603 57.0201 57.6989 56.5572 57.8439C52.7139 54.8994 47.0665 53.6266 44.7594 54.6506C41.9967 55.8768 38.4631 62.8648 39.2891 68.3432C36.7225 70.9477 34.5535 73.8646 32.7819 77.0938C30.1755 81.9028 28.5745 87.1091 27.979 92.713C27.2766 99.3226 28.4152 105.292 31.3947 110.622C34.3667 116.024 38.8952 120.429 44.9803 123.836C50.9781 127.307 58.2803 129.5 66.8869 130.415C75.7325 131.355 85.51 130.961 93.0908 128.949C99.7562 126.896 105.767 123.612 109.808 118.955C113.841 114.371 116.209 108.773 116.911 102.164C117.507 96.56 117.036 91.1334 115.498 85.8841C114.533 82.6494 113.186 79.6011 111.457 76.7391Z" fill="url(#paint3_linear_169_1028)"/>
    </mask>
    <g mask="url(#mask0_169_1028)">
        <rect width="10.36" height="25.1654" rx="5.17998" transform="matrix(0.961371 0.275255 -0.192949 0.981209 73.6445 49.5518)" fill="url(#paint4_linear_169_1028)"/>
        <rect width="7.91277" height="19.2209" rx="3.95638" transform="matrix(0.961371 0.275255 -0.192949 0.981209 63.0586 47.7051)" fill="url(#paint5_linear_169_1028)"/>
        <rect width="7.91277" height="19.2209" rx="3.95638" transform="matrix(0.961371 0.275255 -0.192949 0.981209 86.9336 50.2373)" fill="url(#paint6_linear_169_1028)"/>
    </g>
    <path d="M50.832 44.7838C52.5014 44.3835 54.1667 43.9657 55.8405 43.5841C56.1797 43.5068 56.6317 43.4047 56.9946 43.3333C57.2725 43.2786 57.2301 43.5098 57.2546 43.7803C57.4689 46.1493 56.1195 48.1537 55.8679 50.481C55.8395 50.7432 55.7081 51.425 56.1872 51.3158C56.6104 51.2194 56.9712 50.8599 57.25 50.5495C58.4807 49.1789 60.0023 48.0823 61.1774 46.6722" stroke="#DF8414" stroke-width="1.13754" stroke-linecap="round"/>
    <path d="M45.5762 34.6032C46.3412 33.7793 47.2359 33.2909 48.2492 32.806C48.4329 32.718 51.3277 31.3164 51.3875 31.5926C51.5743 32.4567 51.2937 33.6049 51.0955 34.4299C50.7191 35.9971 50.1861 37.525 49.7271 39.0688C49.58 39.5635 50.0876 39.0178 50.2152 38.9138C51.1396 38.1596 51.9934 37.3221 52.8745 36.519C53.61 35.8486 54.3476 35.0855 55.2328 34.6078C55.5455 34.439 55.8743 34.294 56.1679 34.1106" stroke="#DF8414" stroke-width="1.13754" stroke-linecap="round"/>
    <path d="M36.875 24.4215C38.1168 23.9662 39.3752 23.6546 40.6747 23.4043C41.4546 23.254 42.026 23.1535 42.8049 23.0576C43.1488 23.0153 44.2054 22.7689 44.4196 23.3085C44.5607 23.6637 44.4046 24.7311 44.374 24.9689C44.2076 26.2622 43.9808 27.5539 43.7491 28.837C43.6236 29.5319 43.402 30.2614 43.3614 30.9717C43.3507 31.1593 43.4464 31.1064 43.5986 31.0128C44.4366 30.4971 45.2178 29.8564 45.9888 29.2475C46.8493 28.5679 47.6475 27.7642 48.5341 27.131" stroke="#DF8414" stroke-width="1.13754" stroke-linecap="round"/>
    <defs>
        <filter id="filter0_ii_169_1028" x="193.901" y="27.6044" width="101.216" height="48.8476" filterUnits="userSpaceOnUse" color-interpolation-filters="sRGB">
            <feFlood flood-opacity="0" result="BackgroundImageFix"/>
            <feBlend mode="normal" in="SourceGraphic" in2="BackgroundImageFix" result="shape"/>
            <feColorMatrix in="SourceAlpha" type="matrix" values="0 0 0 0 0 0 0 0 0 0 0 0 0 0 0 0 0 0 127 0" result="hardAlpha"/>
            <feOffset dx="0.936857" dy="1.68634"/>
            <feGaussianBlur stdDeviation="0.611752"/>
            <feComposite in2="hardAlpha" operator="arithmetic" k2="-1" k3="1"/>
            <feColorMatrix type="matrix" values="0 0 0 0 1 0 0 0 0 0.931289 0 0 0 0 0.687679 0 0 0 1 0"/>
            <feBlend mode="normal" in2="shape" result="effect1_innerShadow_169_1028"/>
            <feColorMatrix in="SourceAlpha" type="matrix" values="0 0 0 0 0 0 0 0 0 0 0 0 0 0 0 0 0 0 127 0" result="hardAlpha"/>
            <feOffset dx="-3.74743" dy="-1.52938"/>
            <feGaussianBlur stdDeviation="3.05876"/>
            <feComposite in2="hardAlpha" operator="arithmetic" k2="-1" k3="1"/>
            <feColorMatrix type="matrix" values="0 0 0 0 0.820568 0 0 0 0 0.345077 0 0 0 0 0.0776136 0 0 0 0.4 0"/>
            <feBlend mode="normal" in2="effect1_innerShadow_169_1028" result="effect2_innerShadow_169_1028"/>
        </filter>
        <filter id="filter1_ii_169_1028" x="17.651" y="16.8857" width="246.999" height="133.508" filterUnits="userSpaceOnUse" color-interpolation-filters="sRGB">
            <feFlood flood-opacity="0" result="BackgroundImageFix"/>
            <feBlend mode="normal" in="SourceGraphic" in2="BackgroundImageFix" result="shape"/>
            <feColorMatrix in="SourceAlpha" type="matrix" values="0 0 0 0 0 0 0 0 0 0 0 0 0 0 0 0 0 0 127 0" result="hardAlpha"/>
            <feOffset dx="0.936857" dy="1.68634"/>
            <feGaussianBlur stdDeviation="0.611752"/>
            <feComposite in2="hardAlpha" operator="arithmetic" k2="-1" k3="1"/>
            <feColorMatrix type="matrix" values="0 0 0 0 1 0 0 0 0 0.931289 0 0 0 0 0.687679 0 0 0 1 0"/>
            <feBlend mode="normal" in2="shape" result="effect1_innerShadow_169_1028"/>
            <feColorMatrix in="SourceAlpha" type="matrix" values="0 0 0 0 0 0 0 0 0 0 0 0 0 0 0 0 0 0 127 0" result="hardAlpha"/>
            <feOffset dx="-3.74743" dy="-1.52938"/>
            <feGaussianBlur stdDeviation="3.05876"/>
            <feComposite in2="hardAlpha" operator="arithmetic" k2="-1" k3="1"/>
            <feColorMatrix type="matrix" values="0 0 0 0 0.820568 0 0 0 0 0.345077 0 0 0 0 0.0776136 0 0 0 0.4 0"/>
            <feBlend mode="normal" in2="effect1_innerShadow_169_1028" result="effect2_innerShadow_169_1028"/>
        </filter>
        <filter id="filter2_ii_169_1028" x="26.6379" y="47.4756" width="92.0354" height="84.9389" filterUnits="userSpaceOnUse" color-interpolation-filters="sRGB">
            <feFlood flood-opacity="0" result="BackgroundImageFix"/>
            <feBlend mode="normal" in="SourceGraphic" in2="BackgroundImageFix" result="shape"/>
            <feColorMatrix in="SourceAlpha" type="matrix" values="0 0 0 0 0 0 0 0 0 0 0 0 0 0 0 0 0 0 127 0" result="hardAlpha"/>
            <feOffset dx="1.51672" dy="4.17097"/>
            <feGaussianBlur stdDeviation="0.757504"/>
            <feComposite in2="hardAlpha" operator="arithmetic" k2="-1" k3="1"/>
            <feColorMatrix type="matrix" values="0 0 0 0 1 0 0 0 0 0.931289 0 0 0 0 0.687679 0 0 0 1 0"/>
            <feBlend mode="normal" in2="shape" result="effect1_innerShadow_169_1028"/>
            <feColorMatrix in="SourceAlpha" type="matrix" values="0 0 0 0 0 0 0 0 0 0 0 0 0 0 0 0 0 0 127 0" result="hardAlpha"/>
            <feOffset dx="-1.13754" dy="-6.82522"/>
            <feGaussianBlur stdDeviation="3.78752"/>
            <feComposite in2="hardAlpha" operator="arithmetic" k2="-1" k3="1"/>
            <feColorMatrix type="matrix" values="0 0 0 0 0.820568 0 0 0 0 0.345077 0 0 0 0 0.0776136 0 0 0 0.4 0"/>
            <feBlend mode="normal" in2="effect1_innerShadow_169_1028" result="effect2_innerShadow_169_1028"/>
        </filter>
        <filter id="filter3_d_169_1028" x="57.2089" y="109.945" width="17.1564" height="7.00208" filterUnits="userSpaceOnUse" color-interpolation-filters="sRGB">
            <feFlood flood-opacity="0" result="BackgroundImageFix"/>
            <feColorMatrix in="SourceAlpha" type="matrix" values="0 0 0 0 0 0 0 0 0 0 0 0 0 0 0 0 0 0 127 0" result="hardAlpha"/>
            <feOffset dy="0.27736"/>
            <feGaussianBlur stdDeviation="0.55472"/>
            <feComposite in2="hardAlpha" operator="out"/>
            <feColorMatrix type="matrix" values="0 0 0 0 0.690477 0 0 0 0 0.547238 0 0 0 0 0.0393897 0 0 0 0.6 0"/>
            <feBlend mode="normal" in2="BackgroundImageFix" result="effect1_dropShadow_169_1028"/>
            <feBlend mode="normal" in="SourceGraphic" in2="effect1_dropShadow_169_1028" result="shape"/>
        </filter>
        <filter id="filter4_d_169_1028" x="62.6327" y="107.912" width="7.58997" height="6.12806" filterUnits="userSpaceOnUse" color-interpolation-filters="sRGB">
            <feFlood flood-opacity="0" result="BackgroundImageFix"/>
            <feColorMatrix in="SourceAlpha" type="matrix" values="0 0 0 0 0 0 0 0 0 0 0 0 0 0 0 0 0 0 127 0" result="hardAlpha"/>
            <feOffset dy="0.27736"/>
            <feGaussianBlur stdDeviation="0.55472"/>
            <feComposite in2="hardAlpha" operator="out"/>
            <feColorMatrix type="matrix" values="0 0 0 0 0.690477 0 0 0 0 0.547238 0 0 0 0 0.0393897 0 0 0 0.6 0"/>
            <feBlend mode="normal" in2="BackgroundImageFix" result="effect1_dropShadow_169_1028"/>
            <feBlend mode="normal" in="SourceGraphic" in2="effect1_dropShadow_169_1028" result="shape"/>
        </filter>
        <radialGradient id="paint0_radial_169_1028" cx="0" cy="0" r="1" gradientUnits="userSpaceOnUse" gradientTransform="translate(227.013 52.7504) rotate(22.1461) scale(49.494 51.4445)">
            <stop stop-color="#FFECA1"/>
            <stop offset="0.400739" stop-color="#FEDB61"/>
            <stop offset="0.693294" stop-color="#FFC631"/>
            <stop offset="1" stop-color="#FFB704"/>
        </radialGradient>
        <radialGradient id="paint1_radial_169_1028" cx="0" cy="0" r="1" gradientUnits="userSpaceOnUse" gradientTransform="translate(95.1096 85.5471) rotate(24.6508) scale(126.614 142.88)">
            <stop stop-color="#FFECA1"/>
            <stop offset="0.400739" stop-color="#FEDB61"/>
            <stop offset="0.693294" stop-color="#FFC631"/>
            <stop offset="1" stop-color="#FFB704"/>
        </radialGradient>
        <linearGradient id="paint2_linear_169_1028" x1="92.995" y1="57.2813" x2="69.2443" y2="127.734" gradientUnits="userSpaceOnUse">
            <stop stop-color="#FFECA1"/>
            <stop offset="0.558448" stop-color="#FEDB61"/>
            <stop offset="1" stop-color="#FFB704"/>
        </linearGradient>
        <linearGradient id="paint3_linear_169_1028" x1="92.9969" y1="57.2813" x2="69.2463" y2="127.734" gradientUnits="userSpaceOnUse">
            <stop stop-color="#FFECA1"/>
            <stop offset="0.558448" stop-color="#FEDB61"/>
            <stop offset="1" stop-color="#FFB704"/>
        </linearGradient>
        <linearGradient id="paint4_linear_169_1028" x1="5.17998" y1="0" x2="5.17998" y2="25.1654" gradientUnits="userSpaceOnUse">
            <stop stop-color="#CB610F"/>
            <stop offset="0.708508" stop-color="#FFBF1C"/>
        </linearGradient>
        <linearGradient id="paint5_linear_169_1028" x1="3.95638" y1="0" x2="3.95638" y2="19.2209" gradientUnits="userSpaceOnUse">
            <stop stop-color="#CB610F"/>
            <stop offset="0.708508" stop-color="#FFBF1C"/>
        </linearGradient>
        <linearGradient id="paint6_linear_169_1028" x1="3.95638" y1="0" x2="3.95638" y2="19.2209" gradientUnits="userSpaceOnUse">
            <stop stop-color="#CB610F"/>
            <stop offset="0.708508" stop-color="#FFBF1C"/>
        </linearGradient>
    </defs>
</svg>
