<svg width="315" height="167" viewBox="0 0 315 167" fill="none"
     xmlns="http://www.w3.org/2000/svg">
    <g filter="url(#filter0_ii_169_634)">
        <path
                d="M174.885 100.782C129.454 117.432 84.004 107.719 66.9576 100.782C56.8489 97.5113 53.4791 98.8987 61.3087 107.62L55.0648 115.648C44.9595 112.675 42.9758 116.441 52.6883 125.757C74.69 148.353 140.991 180.464 192.427 156.381C233.576 137.114 209.573 137.253 192.427 139.731C192.189 131.168 187.174 117.729 184.697 112.08C200.356 101.376 220.316 84.1317 174.885 100.782Z"
                fill="#D9D9D9"/>
        <path
                d="M174.885 100.782C129.454 117.432 84.004 107.719 66.9576 100.782C56.8489 97.5113 53.4791 98.8987 61.3087 107.62L55.0648 115.648C44.9595 112.675 42.9758 116.441 52.6883 125.757C74.69 148.353 140.991 180.464 192.427 156.381C233.576 137.114 209.573 137.253 192.427 139.731C192.189 131.168 187.174 117.729 184.697 112.08C200.356 101.376 220.316 84.1317 174.885 100.782Z"
                fill="url(#paint0_radial_169_634)"/>
    </g>
    <path d="M64.5801 123.081C65.8744 121.514 66.7115 120.899 68.4453 120.107"
          stroke="black" stroke-width="1.18868" stroke-linecap="round"/>
    <path d="M71.319 111.188C70.6091 113.093 70.4951 114.125 70.6767 116.022"
          stroke="black" stroke-width="1.18868" stroke-linecap="round"/>
    <path d="M75.5409 109.777C75.3997 109.25 75.3365 107.899 76.2132 106.707"
          stroke="#DD9B1C" stroke-width="1.18868" stroke-linecap="round"/>
    <path d="M77.7157 110.779C77.7868 110.239 78.2453 108.965 79.511 108.199"
          stroke="#DD9B1C" stroke-width="1.18868" stroke-linecap="round"/>
    <path d="M65.4394 127.273C64.9124 127.415 63.7102 128.036 63.1165 129.391"
          stroke="#DD9B1C" stroke-width="1.18868" stroke-linecap="round"/>
    <path d="M67.4798 128.512C67.0469 128.844 66.1735 129.878 66.1432 131.357"
          stroke="#DD9B1C" stroke-width="1.18868" stroke-linecap="round"/>
    <g filter="url(#filter1_d_169_634)">
        <path d="M72.5579 119.225C72.5487 119.857 72.216 121.296 70.959 121.994"
              stroke="#674242" stroke-width="0.594642" stroke-linecap="round"/>
        <path d="M72.5593 119.224C73.1024 118.9 74.1824 117.893 74.1582 116.455"
              stroke="#674242" stroke-width="0.594642" stroke-linecap="round"/>
    </g>
    <g filter="url(#filter2_d_169_634)">
        <path
                d="M72.4349 118.972C72.445 119.115 72.3694 119.248 72.241 119.311C71.8061 119.526 70.8105 119.949 70.5397 119.474C70.3653 119.168 70.7858 118.88 71.0921 118.718C71.2546 118.633 71.3567 118.457 71.3519 118.273C71.3434 117.943 71.3905 117.465 71.7274 117.417C72.2608 117.342 72.3996 118.471 72.4349 118.972Z"
                fill="#00E440"/>
    </g>
    <g filter="url(#filter3_ii_169_634)">
        <path
                d="M141.3 66.48C186.731 49.83 232.182 59.5425 249.228 66.48C259.337 69.7505 262.706 68.363 254.877 59.6415L261.121 51.6139C271.226 54.5871 273.21 50.821 263.497 41.505C241.496 18.9086 175.195 -13.2021 123.758 10.8809C82.6092 30.1473 106.613 30.0085 123.758 27.5309C123.996 36.0937 129.011 49.5327 131.489 55.1818C115.83 65.8854 95.8697 83.13 141.3 66.48Z"
                fill="#D9D9D9"/>
        <path
                d="M141.3 66.48C186.731 49.83 232.182 59.5425 249.228 66.48C259.337 69.7505 262.706 68.363 254.877 59.6415L261.121 51.6139C271.226 54.5871 273.21 50.821 263.497 41.505C241.496 18.9086 175.195 -13.2021 123.758 10.8809C82.6092 30.1473 106.613 30.0085 123.758 27.5309C123.996 36.0937 129.011 49.5327 131.489 55.1818C115.83 65.8854 95.8697 83.13 141.3 66.48Z"
                fill="url(#paint1_radial_169_634)"/>
    </g>
    <path d="M251.605 44.1811C250.311 45.748 249.474 46.3631 247.74 47.1543"
          stroke="black" stroke-width="1.18868" stroke-linecap="round"/>
    <path d="M244.867 56.0735C245.576 54.1692 245.69 53.1367 245.509 51.2396"
          stroke="black" stroke-width="1.18868" stroke-linecap="round"/>
    <path d="M240.647 57.4844C240.788 58.0114 240.851 59.3631 239.974 60.5548"
          stroke="#DD9B1C" stroke-width="1.18868" stroke-linecap="round"/>
    <path d="M238.472 56.4833C238.401 57.0242 237.942 58.2974 236.676 59.0632"
          stroke="#DD9B1C" stroke-width="1.18868" stroke-linecap="round"/>
    <path d="M250.748 39.9883C251.275 39.8472 252.477 39.226 253.071 37.871"
          stroke="#DD9B1C" stroke-width="1.18868" stroke-linecap="round"/>
    <path d="M248.708 38.7492C249.141 38.4173 250.014 37.3836 250.044 35.9045"
          stroke="#DD9B1C" stroke-width="1.18868" stroke-linecap="round"/>
    <g filter="url(#filter4_d_169_634)">
        <path d="M243.632 48.0379C243.641 47.4056 243.973 45.9664 245.23 45.2686"
              stroke="#674242" stroke-width="0.594642" stroke-linecap="round"/>
        <path d="M243.63 48.0383C243.087 48.3624 242.007 49.37 242.031 50.8076"
              stroke="#674242" stroke-width="0.594642" stroke-linecap="round"/>
    </g>
    <g filter="url(#filter5_d_169_634)">
        <path
                d="M243.751 48.2899C243.741 48.147 243.816 48.014 243.945 47.9505C244.379 47.7357 245.375 47.3124 245.646 47.7874C245.82 48.0933 245.4 48.3821 245.093 48.5432C244.931 48.6287 244.829 48.805 244.834 48.9886C244.842 49.3185 244.795 49.7969 244.458 49.8446C243.925 49.9201 243.786 48.7903 243.751 48.2899Z"
                fill="#00E440"/>
    </g>
    <defs>
        <filter id="filter0_ii_169_634" x="40.4786" y="91.458" width="176.139"
                height="75.3943" filterUnits="userSpaceOnUse"
                color-interpolation-filters="sRGB">
            <feFlood flood-opacity="0" result="BackgroundImageFix"/>
            <feBlend mode="normal" in="SourceGraphic" in2="BackgroundImageFix"
                     result="shape"/>
            <feColorMatrix in="SourceAlpha" type="matrix"
                           values="0 0 0 0 0 0 0 0 0 0 0 0 0 0 0 0 0 0 127 0"
                           result="hardAlpha"/>
            <feOffset dx="1.46921" dy="2.64458"/>
            <feGaussianBlur stdDeviation="0.959372"/>
            <feComposite in2="hardAlpha" operator="arithmetic" k2="-1" k3="1"/>
            <feColorMatrix type="matrix"
                           values="0 0 0 0 1 0 0 0 0 0.931289 0 0 0 0 0.687679 0 0 0 1 0"/>
            <feBlend mode="normal" in2="shape"
                     result="effect1_innerShadow_169_634"/>
            <feColorMatrix in="SourceAlpha" type="matrix"
                           values="0 0 0 0 0 0 0 0 0 0 0 0 0 0 0 0 0 0 127 0"
                           result="hardAlpha"/>
            <feOffset dx="-5.87685" dy="-2.39843"/>
            <feGaussianBlur stdDeviation="4.79686"/>
            <feComposite in2="hardAlpha" operator="arithmetic" k2="-1" k3="1"/>
            <feColorMatrix type="matrix"
                           values="0 0 0 0 0.820568 0 0 0 0 0.345077 0 0 0 0 0.0776136 0 0 0 0.4 0"/>
            <feBlend mode="normal" in2="effect1_innerShadow_169_634"
                     result="effect2_innerShadow_169_634"/>
        </filter>
        <filter id="filter1_d_169_634" x="70.1553" y="115.778" width="4.80655"
                height="7.14737" filterUnits="userSpaceOnUse"
                color-interpolation-filters="sRGB">
            <feFlood flood-opacity="0" result="BackgroundImageFix"/>
            <feColorMatrix in="SourceAlpha" type="matrix"
                           values="0 0 0 0 0 0 0 0 0 0 0 0 0 0 0 0 0 0 127 0"
                           result="hardAlpha"/>
            <feOffset dy="0.126697"/>
            <feGaussianBlur stdDeviation="0.253395"/>
            <feComposite in2="hardAlpha" operator="out"/>
            <feColorMatrix type="matrix"
                           values="0 0 0 0 0.690477 0 0 0 0 0.547238 0 0 0 0 0.0393897 0 0 0 0.6 0"/>
            <feBlend mode="normal" in2="BackgroundImageFix"
                     result="effect1_dropShadow_169_634"/>
            <feBlend mode="normal" in="SourceGraphic"
                     in2="effect1_dropShadow_169_634"
                     result="shape"/>
        </filter>
        <filter id="filter2_d_169_634" x="69.9913" y="117.033" width="2.95108"
                height="3.29092" filterUnits="userSpaceOnUse"
                color-interpolation-filters="sRGB">
            <feFlood flood-opacity="0" result="BackgroundImageFix"/>
            <feColorMatrix in="SourceAlpha" type="matrix"
                           values="0 0 0 0 0 0 0 0 0 0 0 0 0 0 0 0 0 0 127 0"
                           result="hardAlpha"/>
            <feOffset dy="0.126697"/>
            <feGaussianBlur stdDeviation="0.253395"/>
            <feComposite in2="hardAlpha" operator="out"/>
            <feColorMatrix type="matrix"
                           values="0 0 0 0 0.690477 0 0 0 0 0.547238 0 0 0 0 0.0393897 0 0 0 0.6 0"/>
            <feBlend mode="normal" in2="BackgroundImageFix"
                     result="effect1_dropShadow_169_634"/>
            <feBlend mode="normal" in="SourceGraphic"
                     in2="effect1_dropShadow_169_634"
                     result="shape"/>
        </filter>
        <filter id="filter3_ii_169_634" x="95.1603" y="-0.0703044" width="176.139"
                height="75.3943" filterUnits="userSpaceOnUse"
                color-interpolation-filters="sRGB">
            <feFlood flood-opacity="0" result="BackgroundImageFix"/>
            <feBlend mode="normal" in="SourceGraphic" in2="BackgroundImageFix"
                     result="shape"/>
            <feColorMatrix in="SourceAlpha" type="matrix"
                           values="0 0 0 0 0 0 0 0 0 0 0 0 0 0 0 0 0 0 127 0"
                           result="hardAlpha"/>
            <feOffset dx="1.46921" dy="2.64458"/>
            <feGaussianBlur stdDeviation="0.959372"/>
            <feComposite in2="hardAlpha" operator="arithmetic" k2="-1" k3="1"/>
            <feColorMatrix type="matrix"
                           values="0 0 0 0 1 0 0 0 0 0.931289 0 0 0 0 0.687679 0 0 0 1 0"/>
            <feBlend mode="normal" in2="shape"
                     result="effect1_innerShadow_169_634"/>
            <feColorMatrix in="SourceAlpha" type="matrix"
                           values="0 0 0 0 0 0 0 0 0 0 0 0 0 0 0 0 0 0 127 0"
                           result="hardAlpha"/>
            <feOffset dx="-5.87685" dy="-2.39843"/>
            <feGaussianBlur stdDeviation="4.79686"/>
            <feComposite in2="hardAlpha" operator="arithmetic" k2="-1" k3="1"/>
            <feColorMatrix type="matrix"
                           values="0 0 0 0 0.820568 0 0 0 0 0.345077 0 0 0 0 0.0776136 0 0 0 0.4 0"/>
            <feBlend mode="normal" in2="effect1_innerShadow_169_634"
                     result="effect2_innerShadow_169_634"/>
        </filter>
        <filter id="filter4_d_169_634" x="241.228" y="44.5906" width="4.80655"
                height="7.14737" filterUnits="userSpaceOnUse"
                color-interpolation-filters="sRGB">
            <feFlood flood-opacity="0" result="BackgroundImageFix"/>
            <feColorMatrix in="SourceAlpha" type="matrix"
                           values="0 0 0 0 0 0 0 0 0 0 0 0 0 0 0 0 0 0 127 0"
                           result="hardAlpha"/>
            <feOffset dy="0.126697"/>
            <feGaussianBlur stdDeviation="0.253395"/>
            <feComposite in2="hardAlpha" operator="out"/>
            <feColorMatrix type="matrix"
                           values="0 0 0 0 0.690477 0 0 0 0 0.547238 0 0 0 0 0.0393897 0 0 0 0.6 0"/>
            <feBlend mode="normal" in2="BackgroundImageFix"
                     result="effect1_dropShadow_169_634"/>
            <feBlend mode="normal" in="SourceGraphic"
                     in2="effect1_dropShadow_169_634"
                     result="shape"/>
        </filter>
        <filter id="filter5_d_169_634" x="243.243" y="47.1912" width="2.95108"
                height="3.29092" filterUnits="userSpaceOnUse"
                color-interpolation-filters="sRGB">
            <feFlood flood-opacity="0" result="BackgroundImageFix"/>
            <feColorMatrix in="SourceAlpha" type="matrix"
                           values="0 0 0 0 0 0 0 0 0 0 0 0 0 0 0 0 0 0 127 0"
                           result="hardAlpha"/>
            <feOffset dy="0.126697"/>
            <feGaussianBlur stdDeviation="0.253395"/>
            <feComposite in2="hardAlpha" operator="out"/>
            <feColorMatrix type="matrix"
                           values="0 0 0 0 0.690477 0 0 0 0 0.547238 0 0 0 0 0.0393897 0 0 0 0.6 0"/>
            <feBlend mode="normal" in2="BackgroundImageFix"
                     result="effect1_dropShadow_169_634"/>
            <feBlend mode="normal" in="SourceGraphic"
                     in2="effect1_dropShadow_169_634"
                     result="shape"/>
        </filter>
        <radialGradient id="paint0_radial_169_634" cx="0" cy="0" r="1"
                        gradientUnits="userSpaceOnUse"
                        gradientTransform="translate(105.018 132.892) rotate(11.0362) scale(85.4243 65.4106)">
            <stop offset="0.191515" stop-color="#FFECA1"/>
            <stop offset="0.471581" stop-color="#FEDB61"/>
            <stop offset="0.646547" stop-color="#FFC631"/>
            <stop offset="0.848682" stop-color="#FFB704"/>
        </radialGradient>
        <radialGradient id="paint1_radial_169_634" cx="0" cy="0" r="1"
                        gradientUnits="userSpaceOnUse"
                        gradientTransform="translate(211.167 34.3692) rotate(-168.964) scale(85.4243 65.4106)">
            <stop offset="0.191515" stop-color="#FFECA1"/>
            <stop offset="0.471581" stop-color="#FEDB61"/>
            <stop offset="0.646547" stop-color="#FFC631"/>
            <stop offset="0.848682" stop-color="#FFB704"/>
        </radialGradient>
    </defs>
</svg>